<?xml version="1.0" encoding="UTF-8" standalone="no"?>
<svg
   xmlns:dc="http://purl.org/dc/elements/1.1/"
   xmlns:cc="http://creativecommons.org/ns#"
   xmlns:rdf="http://www.w3.org/1999/02/22-rdf-syntax-ns#"
   xmlns:svg="http://www.w3.org/2000/svg"
   xmlns="http://www.w3.org/2000/svg"
   xmlns:sodipodi="http://sodipodi.sourceforge.net/DTD/sodipodi-0.dtd"
   xmlns:inkscape="http://www.inkscape.org/namespaces/inkscape"
   version="1.1"
   id="svg76"
   width="1024"
   height="1024"
   viewBox="0 0 1024 1024"
   sodipodi:docname="1024px-Speaker_Icon.svg"
   inkscape:version="1.0.2-2 (e86c870879, 2021-01-15)">
  <metadata
     id="metadata82">
    <rdf:RDF>
      <cc:Work
         rdf:about="">
        <dc:format>image/svg+xml</dc:format>
        <dc:type
           rdf:resource="http://purl.org/dc/dcmitype/StillImage" />
        <dc:title></dc:title>
      </cc:Work>
    </rdf:RDF>
  </metadata>
  <defs
     id="defs80" />
  <sodipodi:namedview
     pagecolor="#ffffff"
     bordercolor="#666666"
     borderopacity="1"
     objecttolerance="10"
     gridtolerance="10"
     guidetolerance="10"
     inkscape:pageopacity="0"
     inkscape:pageshadow="2"
     inkscape:window-width="1366"
     inkscape:window-height="705"
     id="namedview78"
     showgrid="false"
     inkscape:zoom="0.52539062"
     inkscape:cx="512"
     inkscape:cy="359.73234"
     inkscape:window-x="-8"
     inkscape:window-y="-8"
     inkscape:window-maximized="1"
     inkscape:current-layer="g84" />
  <g
     inkscape:groupmode="layer"
     inkscape:label="Image"
     id="g84">
    <g
       id="g88"
       transform="translate(1.9033438,-22.840151)">
      <path
         style="fill:#aed3d2"
         d="m 523.47736,889.1492 c -4.71757,-2.23182 -29.52902,-23.17864 -114.5,-96.66551 C 349.31481,740.88473 297.62214,696.15474 294.10476,693.0837 L 287.70951,687.5 180.10476,687 72.5,686.5 l -6,-3.16457 C 59.23473,679.50351 53.180496,673.38311 49.352009,666 L 46.5,660.5 V 521 381.5 l 3.166319,-6 C 53.575965,368.09144 60.886474,360.83434 67.5,357.79661 l 5,-2.29661 109.05891,-0.5 109.0589,-0.5 3.4411,-2.89509 c 1.8926,-1.5923 52.60514,-45.4673 112.69453,-97.5 81.71572,-70.75941 110.91084,-95.4781 115.82902,-98.0692 6.061,-3.19318 7.25416,-3.46172 15.24657,-3.4316 7.70226,0.029 9.34128,0.37878 14.67097,3.13061 7.52036,3.88291 14.62597,11.11973 17.93414,18.26528 l 2.54632,5.5 0.009,343 0.009,343 -2.88459,6 c -3.53919,7.3616 -10.79561,14.54603 -18.11383,17.93414 -4.52229,2.09367 -7.01101,2.54792 -14,2.5553 -7.27979,0.008 -9.36458,-0.40004 -14.52264,-2.84024 z m 303.7796,-1.2686 c -7.53561,-2.89634 -15.3159,-10.39225 -18.76599,-18.08006 -2.38457,-5.31353 -2.81757,-7.59473 -2.8076,-14.79149 0.015,-10.8487 2.3476,-17.07608 9.92949,-26.50905 8.38773,-10.43556 23.13077,-31.42826 31.60322,-45 40.58568,-65.01291 64.50867,-135.99162 72.97016,-216.5 1.98948,-18.92922 1.66666,-74.50875 -0.54307,-93.5 -11.0995,-95.3935 -42.99146,-175.39048 -100.06479,-251 -12.24037,-16.21577 -14.03493,-20.35096 -13.93153,-32.1023 0.0578,-6.56964 0.58046,-9.21792 2.76297,-14 3.24746,-7.11545 9.3263,-13.62564 16.09018,-17.23189 4.58276,-2.44335 5.95965,-2.66581 16.5,-2.66581 10.61403,0 11.90189,0.21186 16.71657,2.74991 6.94695,3.66207 10.25593,7.13311 22.87496,23.99533 65.17036,87.08407 103.4808,189.67073 111.38166,298.25476 1.31559,18.08054 1.31019,65.03084 -0.01,83 -8.00092,108.93848 -46.5281,211.692 -112.16285,299.14275 -12.06316,16.07277 -17.5744,21.38055 -25.13889,24.21079 -7.6739,2.87117 -19.97364,2.88332 -27.40495,0.0271 z m -82.32535,-86.85543 c -6.93694,-1.22603 -14.14214,-5.35323 -19.23546,-11.01822 -6.22626,-6.92511 -8.70257,-13.8621 -8.67241,-24.29446 0.0301,-10.43083 2.15935,-15.74137 11.71244,-29.21249 46.52523,-65.6067 71.04317,-149.63119 67.19011,-230.26464 C 792.55202,435.62161 770.75734,371.07489 730.17243,311.5 718.63961,294.57088 717,290.65333 717,280.02679 c 0,-11.53519 2.58138,-17.88399 10.42083,-25.62959 7.86703,-7.77285 13.48641,-9.92204 25.72156,-9.83746 7.65016,0.0529 9.39495,0.43024 15.19736,3.28675 8.22209,4.04773 12.03141,8.309 25.16753,28.15351 22.37142,33.79613 37.31858,64.13606 50.28726,102.07372 42.50096,124.32931 28.02747,262.40973 -39.24709,374.42628 -10.90212,18.15274 -24.19973,37.04652 -28.91327,41.08113 -7.14586,6.11659 -20.24438,9.29241 -30.70257,7.44404 z m -97.57656,-97.06466 c -10.73096,-2.12383 -21.44957,-11.25172 -25.3013,-21.54639 -2.49319,-6.66366 -2.77495,-19.11857 -0.57365,-25.35772 0.81406,-2.30728 4.26889,-8.77635 7.67741,-14.37573 15.57687,-25.58903 26.26292,-54.42239 31.38385,-84.68067 2.19442,-12.96627 3.03624,-44.77983 1.53518,-58.01641 -3.92728,-34.63128 -15.46172,-68.39895 -33.25335,-97.35093 C 621.57598,390.83942 620,386.14997 620,376.37858 c 0,-10.82765 2.73742,-17.38995 10.42083,-24.98138 7.80901,-7.71553 13.47887,-9.90227 25.57917,-9.86533 14.07768,0.043 22.88459,5.21633 31.4394,18.46813 20.3562,31.53267 36.01934,71.71185 42.49171,109 3.39479,19.55783 4.35829,31.67353 4.33412,54.5 -0.0414,39.13108 -5.53671,70.07991 -18.91013,106.5 -7.3187,19.93115 -25.56735,54.47746 -33.62437,63.6539 -7.64308,8.70499 -21.49059,12.85679 -34.37568,10.30661 z"
         id="path102" />
      <path
         style="fill:#9cb1b0"
         d="m 528,890.06487 c -1.375,-0.41977 -4.3,-1.68495 -6.5,-2.81151 -2.2,-1.12656 -55.68258,-46.75693 -118.85018,-101.40083 L 287.79965,686.5 180.64982,686 73.5,685.5 67.879989,682.86483 C 59.974585,679.15807 54.553384,673.86951 50.759685,666.16341 L 47.5,659.54205 V 521.02103 382.5 l 2.660407,-5.67515 c 3.557792,-7.58943 9.823762,-14.17671 16.696733,-17.55291 L 72.5,356.5 181.7271,356 290.9542,355.5 388.61797,271 C 527.85385,150.53126 518.68874,158.26997 525,155.84377 c 8.34222,-3.20695 18.78734,-3.00096 26.50775,0.52277 7.20334,3.28772 13.70567,9.34234 17.32644,16.13346 l 2.66581,5 0.25572,343.19721 0.25571,343.19721 -2.16834,5.79542 c -2.95992,7.91109 -11.23555,16.19086 -19.13798,19.14753 -5.95291,2.22727 -17.40267,2.84628 -22.70511,1.2275 z m 300.89246,-2.36828 c -10.39062,-4.36843 -15.2935,-9.03049 -19.92825,-18.9494 -5.86072,-12.54262 -3.79295,-25.48654 6.08154,-38.06951 60.664,-77.30351 94.65358,-161.8981 105.14049,-261.67768 2.011,-19.13405 1.68348,-78.45719 -0.5383,-97.5 -11.12266,-95.33205 -42.44441,-174.04704 -99.08045,-249 -6.20013,-8.20534 -11.44995,-16.27648 -12.68366,-19.5 -6.18035,-16.14851 1.4036,-34.80316 17.61617,-43.33146 5.51116,-2.89904 6.774,-3.15618 15.5,-3.15618 8.73943,0 9.99027,0.25575 15.62373,3.19447 7.84282,4.09125 10.30735,6.62132 23.09681,23.71101 46.53349,62.17957 80.51144,134.52064 98.34131,209.37448 10.26143,43.07979 14.93002,83.79546 14.93002,130.20768 0,53.65404 -6.19362,99.54751 -20.39764,151.14246 C 957.5245,728.88201 930.20882,788.27014 897.68759,837 c -11.34908,17.00548 -25.58343,36.09171 -31.45459,42.17609 -9.51281,9.85829 -25.48799,13.50357 -37.34054,8.5205 z M 743,800.12075 C 732.54331,796.678 724.66958,789.79055 720.13517,780.12001 717.93574,775.42931 717.5,773.09447 717.5,766 c 0,-10.34844 1.81779,-14.72204 12.26098,-29.5 77.58619,-109.79066 88.50286,-259.2393 27.7871,-380.40404 -8.43597,-16.83488 -14.63798,-27.29971 -27.18625,-45.87216 -11.6944,-17.30865 -13.90767,-22.83507 -13.11249,-32.74126 0.93752,-11.67956 8.72172,-23.79638 18.55387,-28.88078 10.34922,-5.35178 22.64865,-5.10779 33.5228,0.66503 7.2866,3.86827 10.34328,7.39587 23.16455,26.73321 28.71334,43.30616 48.42537,87.53879 60.83048,136.5 18.79438,74.17872 19.17749,142.18374 1.21718,216.05783 -12.92088,53.14597 -35.74381,103.72907 -67.34018,149.24795 -9.49962,13.6855 -12.19861,16.36395 -20.19804,20.04435 -5.8613,2.69668 -18.94596,3.93461 -24,2.27062 z M 645.92935,702.69693 C 630.28291,698.2581 621,685.75324 621,669.115 c 0,-9.67567 1.32641,-13.56442 8.8515,-25.95076 16.0158,-26.36206 25.60015,-52.14347 31.28842,-84.16424 2.93232,-16.50681 3.60234,-45.49621 1.43297,-62 -4.5816,-34.8553 -15.44934,-66.21479 -32.64337,-94.1943 C 622.31707,390.4181 621,386.59885 621,376.91179 c 0,-11.19103 2.6672,-17.79248 10.15386,-25.13127 4.89213,-4.79551 6.9824,-6.06808 12.93893,-7.87732 12.24242,-3.71852 25.46892,-1.24584 34.58584,6.4658 8.46185,7.15755 26.19368,40.00099 36.43746,67.4906 12.90509,34.63134 18.20237,65.44449 18.1613,105.6404 -0.0432,42.2529 -6.14975,74.4548 -21.37967,112.74171 -8.58027,21.57017 -24.58541,50.44598 -32.15854,58.01911 -7.92624,7.92624 -22.65385,11.60102 -33.80983,8.43611 z"
         id="path100" />
      <path
         style="fill:#63a3a1"
         d="M 529,890.11163 C 520.71104,887.41282 509.34764,878.02016 402,785.13704 L 287.5,686.0653 180.94749,685.78265 74.394971,685.5 66.770977,681.7317 C 58.090381,677.44115 54.972521,674.2171 50.590353,665 L 47.5,658.5 V 521 383.5 l 3.102637,-6.54737 c 4.242121,-8.95197 8.411977,-13.36597 16.248474,-17.1998 L 73.5,356.5 l 108.54468,-0.27141 108.54469,-0.27141 109.95531,-95.13643 c 60.47543,-52.32504 112.09188,-96.83272 114.70323,-98.90596 6.59559,-5.23646 14.71865,-8.13848 22.88925,-8.17734 5.41583,-0.0258 7.90003,0.5581 13.5,3.17288 8.46405,3.95208 12.61568,7.82691 16.70338,15.58967 l 3.15946,6 V 522 865.5 l -2.60111,5.54563 c -3.71225,7.91459 -8.10336,12.43736 -15.71273,16.18383 -5.48635,2.70119 -7.95213,3.30759 -14.16445,3.48334 -4.13694,0.11705 -8.64671,-0.15348 -10.02171,-0.60117 z m 299.25696,-3.23103 c -7.50454,-2.8844 -15.31715,-10.39503 -18.73485,-18.01069 -2.25868,-5.03299 -2.78844,-7.65245 -2.78922,-13.79148 -10e-4,-9.85486 2.54929,-16.458 9.87997,-25.57843 8.38773,-10.43556 23.13077,-31.42826 31.60322,-45 40.58568,-65.01291 64.50867,-135.99162 72.97016,-216.5 2.00051,-19.03423 1.6753,-76.48211 -0.54062,-95.5 -11.12081,-95.44294 -42.99375,-175.39028 -100.06724,-251 -11.98048,-15.87147 -14.00513,-20.41784 -13.88104,-31.16995 0.14444,-12.51499 7.33465,-24.04992 18.80266,-30.16424 4.50338,-2.40103 6.04291,-2.66581 15.5,-2.66581 9.52313,0 10.98533,0.25584 15.71657,2.74991 6.94695,3.66207 10.25593,7.13311 22.87496,23.99533 65.17036,87.08407 103.4808,189.67073 111.38166,298.25476 1.31488,18.07081 1.30958,63.03912 -0.01,81 -8.00092,108.93848 -46.5281,211.692 -112.16285,299.14275 -12.06316,16.07277 -17.5744,21.38055 -25.13889,24.21079 -7.52717,2.81627 -18.11873,2.82756 -25.40495,0.0271 z m -82.32535,-86.88974 c -10.92937,-1.84958 -21.92818,-11.02029 -25.87786,-21.57674 -2.87591,-7.68658 -2.75591,-18.12043 0.29231,-25.41412 1.26422,-3.025 5.48978,-10 9.39012,-15.5 46.76514,-65.945 71.19471,-150.20252 67.21687,-231.83073 C 793.47796,434.35782 771.8651,370.23308 731.17243,310.5 719.92965,293.99665 718,289.53257 718,280.02679 c 0,-10.44439 2.82749,-17.12715 10.42083,-24.62959 7.66868,-7.57688 13.56097,-9.90706 24.77658,-9.79823 6.54993,0.0636 8.66638,0.55172 14.19736,3.27461 8.16087,4.01758 11.99973,8.31717 25.11251,28.12642 22.37142,33.79613 37.31858,64.13606 50.28726,102.07372 42.3441,123.87042 27.93993,260.5555 -39.24709,372.42628 -10.90212,18.15274 -24.19973,37.04652 -28.91327,41.08113 -6.9769,5.97197 -18.9436,9.06124 -28.70257,7.40973 z m -97.57656,-97.03035 c -10.73096,-2.12383 -21.44957,-11.25172 -25.3013,-21.54639 -2.46772,-6.59557 -2.72933,-17.24787 -0.57365,-23.35772 0.81406,-2.30728 4.26889,-8.77635 7.67741,-14.37573 15.57173,-25.58058 26.237,-54.35202 31.39024,-84.68067 2.18343,-12.85022 3.04312,-46.66175 1.52648,-60.03628 -3.92466,-34.60977 -15.46346,-68.38567 -33.25104,-97.33106 C 622.74704,390.11778 621,385.11734 621,376.37858 c 0,-9.73955 3.00454,-16.65387 10.42083,-23.98138 7.58311,-7.49233 13.5499,-9.88132 24.57917,-9.84103 8.65388,0.0316 17.07323,3.25185 22.87163,8.74797 9.78781,9.27753 29.43891,47.01543 38.47515,73.88753 11.35127,33.75655 15.94485,62.14893 15.90523,98.30833 -0.0418,38.10699 -5.65247,69.43114 -18.89691,105.5 -7.3187,19.93115 -25.56735,54.47746 -33.62437,63.6539 -4.0128,4.57033 -10.69233,8.36366 -17.58328,9.9856 -6.26451,1.4745 -8.6975,1.5273 -14.7924,0.32101 z"
         id="path98" />
      <path
         style="fill:#0e9c97"
         d="m 527.82742,888.60056 c -2.01993,-0.72141 -5.2683,-2.25315 -7.21862,-3.40386 C 517.83297,883.55891 303.31917,698.87446 291.68472,688.10578 L 288.86943,685.5 181.68472,685 74.5,684.5 l -6,-2.80075 c -7.79462,-3.63846 -13.653544,-9.4663 -17.17293,-17.08182 L 48.5,658.5 V 521 383.5 l 2.80075,-6 C 54.869825,369.85403 61.001012,363.47653 68,360.12989 L 73.5,357.5 182.66981,357 l 109.16981,-0.5 2.33019,-2.10238 C 296.9506,351.8887 509.55605,168.15738 515.92639,162.758 c 9.70924,-8.22937 23.64606,-10.38219 34.66251,-5.35431 7.12791,3.25316 13.63697,9.32855 17.24529,16.09631 l 2.66581,5 0.25573,342.19717 0.25573,342.19717 -2.14374,5.80283 c -2.93457,7.94346 -11.22056,16.23359 -19.15523,19.16481 -6.63304,2.45037 -16.18914,2.77287 -21.88507,0.73858 z m 300.371,-2.28003 c -2.36587,-0.83687 -6.92093,-3.94664 -10.12236,-6.91059 -7.72483,-7.15184 -10.32893,-13.123 -10.42744,-23.90994 -0.0961,-10.52419 1.96218,-16.25737 8.97533,-25 41.08507,-51.21681 74.35792,-118.14142 91.35151,-183.7433 11.5825,-44.71296 15.55058,-76.844 15.46879,-125.2567 -0.056,-33.13853 -0.98192,-46.50267 -5.02316,-72.5 -12.83965,-82.5976 -45.6926,-159.35402 -97.76238,-228.40836 -11.76135,-15.59778 -13.23139,-19.06267 -13.02161,-30.6922 0.17113,-9.48715 2.67931,-15.57452 9.15951,-22.23021 C 824.62143,159.63249 827.61078,158.5 841,158.5 c 17.33545,0 19.90757,1.77832 38.49288,26.61326 64.82151,86.61889 102.58938,187.93918 110.48031,296.38674 1.31559,18.08054 1.31019,65.03084 -0.01,83 -7.94148,108.12923 -45.76468,209.67726 -110.24996,296 -17.57277,23.52365 -23.33034,27.5717 -39.0012,27.42105 -4.59304,-0.0442 -10.10831,-0.74954 -12.51407,-1.60052 z m -82.26681,-87.32967 c -15.84652,-2.68171 -26.96332,-16.43043 -26.90787,-33.27837 0.0307,-9.32125 2.45239,-15.15459 11.71244,-28.21249 46.76514,-65.945 71.19471,-150.20252 67.21687,-231.83073 C 794.47796,434.35782 772.8651,370.23308 732.17243,310.5 720.92965,293.99665 719,289.53257 719,280.02679 c 0,-10.21313 2.86211,-17.16075 9.94305,-24.13619 7.15038,-7.04384 13.29547,-9.39797 24.25436,-9.29163 6.55264,0.0636 8.66568,0.55137 14.20803,3.27986 7.98199,3.92953 10.84847,7.15733 24.08512,27.12117 22.33553,33.68699 37.32141,64.09541 50.30398,102.07372 42.3441,123.87042 27.93993,260.5555 -39.24709,372.42628 -10.71804,17.84623 -24.21003,37.07585 -28.49087,40.60694 -6.70853,5.53358 -18.72482,8.47471 -28.12497,6.88392 z M 648.35505,702.01431 C 632.73698,698.72054 622,685.30653 622,669.08821 c 0,-8.67798 1.48972,-12.81122 9.15751,-25.40754 15.57173,-25.58058 26.237,-54.35202 31.39024,-84.68067 2.18343,-12.85022 3.04312,-46.66175 1.52648,-60.03628 -3.92466,-34.60977 -15.46346,-68.38567 -33.25104,-97.33106 C 623.74704,390.11778 622,385.11734 622,376.37858 c 0,-9.5118 3.03618,-16.68401 9.94305,-23.48798 7.06552,-6.96024 13.28575,-9.37378 24.05695,-9.33443 6.04007,0.0221 8.66794,0.56558 13.5,2.79215 7.40573,3.4125 10.57263,6.32275 15.9438,14.65168 24.50667,38.00179 40.33874,83.42718 45.65733,131 1.70692,15.26774 1.44589,49.87065 -0.49741,65.93757 -4.38366,36.24362 -13.29563,65.69254 -30.13006,99.56243 -17.75231,35.71661 -25.07609,43.37708 -42.97366,44.94924 -2.75,0.24157 -6.86523,0.0458 -9.14495,-0.43493 z"
         id="path96" />
      <path
         style="fill:#095955"
         d="m 828.19842,886.32053 c -2.36587,-0.83687 -6.92093,-3.94664 -10.12236,-6.91059 -7.72483,-7.15184 -10.32893,-13.123 -10.42744,-23.90994 -0.0961,-10.52419 1.96218,-16.25737 8.97533,-25 41.08507,-51.21681 74.35792,-118.14142 91.35151,-183.7433 11.5825,-44.71296 15.55058,-76.844 15.46879,-125.2567 -0.056,-33.13853 -0.98192,-46.50267 -5.02316,-72.5 -12.83965,-82.5976 -45.6926,-159.35402 -97.76238,-228.40836 -11.76135,-15.59778 -13.23139,-19.06267 -13.02161,-30.6922 0.17113,-9.48715 2.67931,-15.57452 9.15951,-22.23021 C 824.62143,159.63249 827.61078,158.5 841,158.5 c 17.33545,0 19.90757,1.77832 38.49288,26.61326 64.82151,86.61889 102.58938,187.93918 110.48031,296.38674 1.31559,18.08054 1.31019,65.03084 -0.01,83 -7.94148,108.12923 -45.76468,209.67726 -110.24996,296 -17.57277,23.52365 -23.33034,27.5717 -39.0012,27.42105 -4.59304,-0.0442 -10.10831,-0.74954 -12.51407,-1.60052 z m -82.26681,-87.32967 c -15.84652,-2.68171 -26.96332,-16.43043 -26.90787,-33.27837 0.0307,-9.32125 2.45239,-15.15459 11.71244,-28.21249 46.76514,-65.945 71.19471,-150.20252 67.21687,-231.83073 C 794.47796,434.35782 772.8651,370.23308 732.17243,310.5 720.92965,293.99665 719,289.53257 719,280.02679 c 0,-10.21313 2.86211,-17.16075 9.94305,-24.13619 7.15038,-7.04384 13.29547,-9.39797 24.25436,-9.29163 6.55264,0.0636 8.66568,0.55137 14.20803,3.27986 7.98199,3.92953 10.84847,7.15733 24.08512,27.12117 22.33553,33.68699 37.32141,64.09541 50.30398,102.07372 42.3441,123.87042 27.93993,260.5555 -39.24709,372.42628 -10.71804,17.84623 -24.21003,37.07585 -28.49087,40.60694 -6.70853,5.53358 -18.72482,8.47471 -28.12497,6.88392 z m -97.70909,-97.05297 c -14.50761,-2.85907 -25.26702,-15.58341 -26.0673,-30.82781 -0.50375,-9.59577 0.71432,-13.37655 8.42861,-26.16172 16.02319,-26.55581 26.79278,-55.51435 31.96392,-85.94836 2.18343,-12.85022 3.04312,-46.66175 1.52648,-60.03628 -3.9339,-34.69125 -15.85308,-69.37214 -34.00266,-98.93651 -6.65939,-10.84767 -8.05812,-14.96438 -8.06599,-23.7397 -0.025,-27.7988 32.19427,-42.86446 54.79823,-25.62358 9.08081,6.92627 30.1787,46.69108 39.54195,74.52774 11.35026,33.74398 15.94587,62.14709 15.90625,98.30833 -0.0417,38.089 -5.61526,69.22751 -18.88358,105.5 -5.0367,13.76915 -19.11799,41.83386 -27.10949,54.03053 -7.81822,11.93222 -13.21043,16.27882 -23.07501,18.60049 -6.32662,1.489 -8.71449,1.53797 -14.96141,0.30687 z"
         id="path94" />
      <path
         style="fill:#074441"
         d="m 829.25696,885.8806 c -7.46725,-2.87007 -15.3186,-10.39827 -18.69789,-17.92833 -5.53019,-12.32289 -3.2,-24.69506 7.05379,-37.45227 8.38773,-10.43556 23.13077,-31.42826 31.60322,-45 40.58568,-65.01291 64.50867,-135.99162 72.97016,-216.5 2.011,-19.13405 1.68348,-78.45719 -0.5383,-97.5 -11.14109,-95.49002 -42.99592,-175.39008 -100.06956,-251 -11.68889,-15.48518 -13.96363,-20.46378 -13.81983,-30.2467 0.16937,-11.52318 7.69737,-23.205 18.74145,-29.08268 4.40384,-2.34373 6.13271,-2.66101 14.5,-2.66101 8.42598,0 10.08976,0.31035 14.71657,2.7451 6.94447,3.65437 10.25246,7.12369 22.87496,23.99053 65.17036,87.08407 103.4808,189.67073 111.38166,298.25476 1.31413,18.06046 1.30893,61.04794 -0.01,79 -8.00092,108.93848 -46.5281,211.692 -112.16285,299.14275 -5.42524,7.22852 -12.0101,15.15011 -14.63302,17.60354 -8.9354,8.35803 -22.51432,11.01461 -33.91082,6.63431 z M 745.92045,798.00022 C 739.10776,796.83145 733.89524,793.75995 728.2593,787.59333 722.22289,780.98854 720,775.1319 720,765.83259 c 0,-8.99883 2.07353,-14.07878 10.7484,-26.33259 40.45875,-57.15059 64.71517,-127.83867 68.18025,-198.69097 4.02692,-82.34044 -18.80021,-161.8466 -66.66482,-232.19144 -5.19529,-7.63532 -10.08,-15.6794 -10.8549,-17.87572 -2.08736,-5.91621 -1.79266,-16.64125 0.63561,-23.13137 1.52664,-4.08031 3.64277,-6.95958 8.35394,-11.36665 7.41306,-6.93455 12.47684,-8.80554 23.33192,-8.62079 14.38621,0.24485 20.64851,5.44428 37.79103,31.37694 22.22865,33.62681 36.39239,62.39337 49.27311,100.07372 42.14541,123.2892 28.00327,260.1033 -38.29884,370.51121 -11.02682,18.36213 -24.1402,36.93217 -29.26615,41.44422 -6.6311,5.83692 -17.59963,8.63681 -27.3091,6.97107 z"
         id="path92" />
      <path
         style="fill:#042f2d"
         d="m 829.19842,885.32053 c -6.14025,-2.17197 -15.43649,-11.12189 -18.18248,-17.50511 -2.82319,-6.56268 -3.13036,-17.16755 -0.70429,-24.31542 0.93337,-2.75 4.22391,-8.15 7.3123,-12 41.08507,-51.21681 74.35792,-118.14142 91.35151,-183.7433 11.65962,-45.01066 15.54885,-76.74969 15.47123,-126.2567 -0.0536,-34.21644 -0.94461,-47.24698 -5.0256,-73.5 -12.83965,-82.5976 -45.6926,-159.35402 -97.76238,-228.40836 -11.58182,-15.35968 -13.21347,-19.10336 -12.97223,-29.76371 0.19195,-8.48217 2.90667,-14.78725 9.11013,-21.1587 C 825.47337,160.78456 828.72403,159.5 841,159.5 c 16.19138,0 19.14654,2.09763 37.49288,26.61326 64.82151,86.61889 102.58938,187.93918 110.48031,296.38674 1.31488,18.07081 1.30958,63.03912 -0.01,81 -7.94148,108.12923 -45.76468,209.67726 -110.24996,296 -12.27121,16.42675 -18.88157,23.04496 -25.48557,25.51584 -6.41577,2.40045 -17.70038,2.54353 -24.0297,0.30469 z"
         id="path90" />
    </g>
  </g>
</svg>
