<?xml version="1.0" encoding="UTF-8" standalone="no"?>
<svg
   xmlns:dc="http://purl.org/dc/elements/1.1/"
   xmlns:cc="http://creativecommons.org/ns#"
   xmlns:rdf="http://www.w3.org/1999/02/22-rdf-syntax-ns#"
   xmlns:svg="http://www.w3.org/2000/svg"
   xmlns="http://www.w3.org/2000/svg"
   xmlns:sodipodi="http://sodipodi.sourceforge.net/DTD/sodipodi-0.dtd"
   xmlns:inkscape="http://www.inkscape.org/namespaces/inkscape"
   version="1.1"
   id="svg48"
   width="512"
   height="512"
   viewBox="0 0 512 512"
   sodipodi:docname="back-arrow-1767531-1502435.svg"
   inkscape:version="1.0.2-2 (e86c870879, 2021-01-15)">
  <metadata
     id="metadata54">
    <rdf:RDF>
      <cc:Work
         rdf:about="">
        <dc:format>image/svg+xml</dc:format>
        <dc:type
           rdf:resource="http://purl.org/dc/dcmitype/StillImage" />
        <dc:title></dc:title>
      </cc:Work>
    </rdf:RDF>
  </metadata>
  <defs
     id="defs52" />
  <sodipodi:namedview
     pagecolor="#ffffff"
     bordercolor="#666666"
     borderopacity="1"
     objecttolerance="10"
     gridtolerance="10"
     guidetolerance="10"
     inkscape:pageopacity="0"
     inkscape:pageshadow="2"
     inkscape:window-width="1366"
     inkscape:window-height="705"
     id="namedview50"
     showgrid="false"
     inkscape:zoom="1.0507812"
     inkscape:cx="406.07646"
     inkscape:cy="236.99897"
     inkscape:window-x="-8"
     inkscape:window-y="-8"
     inkscape:window-maximized="1"
     inkscape:current-layer="g56" />
  <g
     inkscape:groupmode="layer"
     inkscape:label="Image"
     id="g56">
    <g
       id="g60">
      <path
         style="fill:#0e9c97"
         d="m 220.59958,383.53373 c -2.79338,-1.30071 -6.06293,-3.65882 -7.26568,-5.24023 -2.18597,-2.87419 -4.45321,-5.6483 -9.15546,-11.20232 -1.375,-1.62406 -3.625,-4.32406 -5,-6 -1.375,-1.67593 -3.625,-4.37593 -5,-6 -1.375,-1.62406 -3.625,-4.32406 -5,-6 -1.375,-1.67593 -3.625,-4.37593 -5,-6 -1.375,-1.62406 -3.625,-4.32406 -5,-6 -1.375,-1.67593 -3.625,-4.37593 -5,-6 -1.375,-1.62406 -3.625,-4.32406 -5,-6 -1.375,-1.67593 -3.625,-4.37593 -5,-6 -1.375,-1.62406 -3.625,-4.32406 -5,-6 -1.375,-1.67593 -3.625,-4.37593 -5,-6 -1.375,-1.62406 -3.625,-4.32406 -5,-6 -1.375,-1.67593 -3.625,-4.37593 -5,-6 -1.375,-1.62406 -3.625,-4.32406 -5,-6 -1.375,-1.67593 -3.625,-4.37593 -5,-6 -1.375,-1.62406 -3.625,-4.32406 -5,-6 -1.375,-1.67593 -3.625,-4.37692 -5,-6.00219 -3.78745,-4.47683 -7.22775,-8.63549 -10,-12.08807 -1.375,-1.71243 -3.32483,-3.89408 -4.33297,-4.84811 -3.42492,-3.24112 -6.66703,-10.95118 -6.66703,-15.85486 0,-4.96884 3.44079,-13.52629 6.68032,-16.61434 1.00082,-0.95403 2.94468,-3.14105 4.31968,-4.86006 1.375,-1.71901 3.625,-4.45425 5,-6.07831 1.375,-1.62407 3.625,-4.32407 5,-6 1.375,-1.67594 3.625,-4.37594 5,-6 1.375,-1.62407 3.625,-4.32407 5,-6 1.375,-1.67594 3.625,-4.37594 5,-6 1.375,-1.62407 3.625,-4.32407 5,-6 1.375,-1.67594 3.625,-4.37594 5,-6 1.375,-1.62407 3.625,-4.32406 5,-5.99999 1.375,-1.67594 3.625,-4.37594 5,-6 1.375,-1.62407 3.625,-4.32407 5,-6 1.375,-1.67594 3.625,-4.37594 5,-6 1.375,-1.62407 3.625,-4.32407 5,-6 1.375,-1.67594 3.625,-4.37594 5,-6 1.375,-1.62407 3.625,-4.32407 5,-6 1.375,-1.67594 3.625,-4.37594 5,-6 1.375,-1.62407 3.625,-4.32407 5,-6 1.375,-1.67594 3.625,-4.37594 5,-6 1.375,-1.62407 3.625,-4.33156 5,-6.01666 1.375,-1.68509 3.40126,-4.041 4.5028,-5.23534 1.10155,-1.19435 2.80043,-3.38887 3.7753,-4.876714 2.87171,-4.38278 9.33283,-7.85578 15.62411,-8.3983 7.6368,-0.65855 15.48132,3.39365 18.83059,9.72721 4.13538,7.820114 2.72627,18.166764 -3.39889,24.956984 -1.55865,1.72788 -3.95891,4.51283 -5.33391,6.18876 -1.375,1.67594 -3.625,4.37594 -5,6 -1.375,1.62407 -3.625,4.32407 -5,6 -1.375,1.67594 -3.625,4.37594 -5,6 -1.375,1.62407 -3.625,4.32407 -5,6 -1.375,1.67594 -3.625,4.37594 -5,6 -1.375,1.62407 -3.625,4.32407 -5,6 -1.375,1.67594 -3.625,4.37593 -5,5.99999 -1.375,1.62407 -3.625,4.32407 -5,6 -1.375,1.67594 -3.625,4.37594 -5,6 -1.375,1.62407 -3.625,4.32407 -5,6 -1.375,1.67594 -3.625,4.37594 -5,6 -1.375,1.62407 -3.625,4.32175 -5,5.99485 -1.375,1.6731 -3.97919,4.68124 -5.7871,6.68476 -1.8991,2.10458 -3.16586,4.48825 -3,5.64509 0.28509,1.98831 1.19012,2.00583 129.2871,2.50233 l 129,0.5 4.68968,2.80967 c 11.97891,7.17678 11.97891,26.20388 0,33.38066 l -4.68968,2.80967 -129,0.5 c -128.09698,0.4965 -129.00201,0.51402 -129.2871,2.50233 -0.16586,1.15684 1.1009,3.54051 3,5.64509 1.80791,2.00352 4.4121,5.01166 5.7871,6.68476 1.375,1.6731 3.625,4.37078 5,5.99485 1.375,1.62406 3.625,4.32406 5,6 1.375,1.67593 3.625,4.37593 5,6 1.375,1.62406 3.625,4.32406 5,6 1.375,1.67593 3.625,4.37593 5,6 1.375,1.62406 3.625,4.32406 5,6 1.375,1.67593 3.625,4.37593 5,6 1.375,1.62406 3.625,4.32406 5,6 1.375,1.67593 3.625,4.37593 5,6 1.375,1.62406 3.625,4.32406 5,6 1.375,1.67593 3.625,4.37593 5,6 1.375,1.62406 3.625,4.32406 5,6 1.375,1.67593 3.77526,4.46088 5.33391,6.18876 3.94838,4.37709 5.66609,9.01381 5.66609,15.29481 0,7.89126 -3.12413,13.19597 -9.90557,16.81945 -6.6389,3.54732 -11.8091,3.68174 -18.67329,0.48547 z"
         id="path62" />
    </g>
  </g>
</svg>
