<?xml version="1.0" encoding="UTF-8" standalone="no"?>
<svg
   xmlns:dc="http://purl.org/dc/elements/1.1/"
   xmlns:cc="http://creativecommons.org/ns#"
   xmlns:rdf="http://www.w3.org/1999/02/22-rdf-syntax-ns#"
   xmlns:svg="http://www.w3.org/2000/svg"
   xmlns="http://www.w3.org/2000/svg"
   xmlns:sodipodi="http://sodipodi.sourceforge.net/DTD/sodipodi-0.dtd"
   xmlns:inkscape="http://www.inkscape.org/namespaces/inkscape"
   version="1.1"
   id="svg10"
   width="444.86902"
   height="445.33005"
   viewBox="0 0 444.86902 445.33004"
   sodipodi:docname="door_exit_logout.svg"
   inkscape:version="1.0.2-2 (e86c870879, 2021-01-15)">
  <metadata
     id="metadata16">
    <rdf:RDF>
      <cc:Work
         rdf:about="">
        <dc:format>image/svg+xml</dc:format>
        <dc:type
           rdf:resource="http://purl.org/dc/dcmitype/StillImage" />
        <dc:title></dc:title>
      </cc:Work>
    </rdf:RDF>
  </metadata>
  <defs
     id="defs14" />
  <sodipodi:namedview
     pagecolor="#ffffff"
     bordercolor="#666666"
     borderopacity="1"
     objecttolerance="10"
     gridtolerance="10"
     guidetolerance="10"
     inkscape:pageopacity="1"
     inkscape:pageshadow="2"
     inkscape:window-width="1366"
     inkscape:window-height="705"
     id="namedview12"
     showgrid="false"
     inkscape:zoom="0.5253906"
     inkscape:cx="255.74775"
     inkscape:cy="237.93266"
     inkscape:window-x="-8"
     inkscape:window-y="-8"
     inkscape:window-maximized="1"
     inkscape:current-layer="g18"
     inkscape:document-rotation="0"
     fit-margin-top="0"
     fit-margin-left="0"
     fit-margin-right="0"
     fit-margin-bottom="0"
     showborder="true"
     inkscape:pagecheckerboard="true" />
  <g
     inkscape:groupmode="layer"
     inkscape:label="Image"
     id="g18"
     transform="translate(-486.65478,-24.448407)">
    <g
       id="g32"
       transform="translate(-5.7100412,-11.420074)">
      <path
         style="fill:#0e9c97"
         d="m 678.01904,480.06264 c -0.6435,-0.77537 -3.75211,-2.20225 -6.90804,-3.17085 -3.15592,-0.9686 -7.08804,-2.54893 -8.73804,-3.51185 -1.65,-0.96292 -4.8,-2.28941 -7,-2.94776 -2.2,-0.65835 -6.0859,-2.28793 -8.63533,-3.62128 -2.54943,-1.33335 -5.29851,-2.42428 -6.10908,-2.42428 -0.81056,0 -4.12466,-1.3443 -7.36467,-2.98733 -3.24001,-1.64304 -6.63272,-2.99304 -7.53937,-3 -0.90665,-0.007 -4.21485,-1.36267 -7.35155,-3.01267 -3.1367,-1.65 -6.26898,-3 -6.96062,-3 -0.69165,0 -3.90845,-1.3443 -7.14846,-2.98733 -3.24001,-1.64304 -6.7378,-2.99304 -7.77289,-3 -1.03508,-0.007 -3.28508,-0.86925 -5,-1.91619 -1.71491,-1.04693 -5.14303,-2.47456 -7.61803,-3.17252 -2.475,-0.69795 -5.175,-1.81103 -6,-2.4735 -0.825,-0.66248 -3.3,-1.77102 -5.5,-2.46344 -2.2,-0.69242 -6.65071,-2.54776 -9.89046,-4.12298 -3.23976,-1.57522 -6.61476,-2.86414 -7.5,-2.86427 -0.88525,-1.2e-4 -4.08454,-1.33227 -7.10954,-2.96032 -3.025,-1.62805 -6.22409,-2.97795 -7.10908,-2.99977 -0.88499,-0.0218 -4.25999,-1.38398 -7.5,-3.02701 -3.24001,-1.64304 -6.7357,-2.99304 -7.76821,-3 -3.54044,-0.0239 -15.12307,-6.43808 -19.12271,-10.58971 -2.2,-2.2836 -4.45829,-4.32547 -5.01842,-4.53748 -0.56013,-0.21201 -2.42008,-3.31048 -4.13323,-6.88548 -2.29074,-4.78034 -3.36764,-8.88107 -4.07046,-15.5 -0.57295,-5.39574 -0.8779,-69.47146 -0.76149,-160 l 0.19418,-151.000003 3.32264,-7 c 4.44628,-9.367242 13.10383,-18.023589 22.46678,-22.463659 l 7,-3.319519 121.5,-0.185869 c 105.02117,-0.160659 122.65284,0.02079 130,1.337814 4.675,0.838025 9.04699,2.062732 9.71554,2.72157 0.66855,0.658838 3.25605,2.18568 5.75,3.392982 2.49395,1.207301 4.53446,2.624229 4.53446,3.148728 0,0.524499 2.025,3.118524 4.5,5.764499 2.475,2.645975 4.5,5.289389 4.5,5.874254 0,0.584864 0.94695,3.238197 2.10433,5.896295 1.93654,4.447543 2.11268,6.763149 2.20907,29.040505 0.0576,13.314183 -0.22506,24.537393 -0.62814,24.940483 -0.40308,0.40308 -9.08013,0.73287 -19.28233,0.73287 -13.78692,0 -18.74833,-0.32178 -19.32404,-1.2533 -0.42602,-0.68931 -0.63494,-9.63677 -0.46427,-19.883243 0.17548,-10.534902 -0.0941,-19.117223 -0.62041,-19.751384 -0.67668,-0.815351 -27.48379,-1.103925 -98.21247,-1.057239 -95.91463,0.06331 -97.28174,0.09174 -97.28174,2.023218 0,1.376672 0.898,2.142664 3.02092,2.576849 1.66151,0.339814 4.13651,1.334133 5.5,2.209597 1.36349,0.875463 4.50408,2.111311 6.97908,2.746327 2.475,0.635016 6.72585,2.246645 9.44634,3.581398 2.72049,1.334753 5.88287,2.426824 7.0275,2.426824 1.14463,0 2.98845,0.6355 4.09736,1.41221 1.10892,0.77672 4.47155,2.18299 7.47251,3.12505 3.00096,0.94207 7.79092,2.78157 10.64436,4.087793 2.85345,1.30622 6.09213,2.37495 7.19709,2.37495 1.10496,0 4.12485,1.125 6.71086,2.5 2.58602,1.375 5.49443,2.5 6.46313,2.5 0.9687,0 4.61418,1.34964 8.10106,2.99921 3.48689,1.64957 7.11343,2.99957 8.059,3 0.94556,4.3e-4 3.56905,0.96499 5.82998,2.14345 2.26093,1.17846 5.53729,2.43276 7.2808,2.78734 3.16003,0.64266 3.17158,0.66818 3.67001,8.10734 0.275,4.10446 0.4583,61.16274 0.40733,126.79617 -0.0873,112.35652 0.01,119.46018 1.66178,121.5 1.7472,2.15753 1.92221,2.16649 42.30704,2.16649 37.59715,0 40.68272,-0.13014 42.33822,-1.78571 1.5934,-1.59348 1.78563,-3.90799 1.78563,-21.5 v -19.71429 h 19.75 19.75 l 0.15995,5.5 c 0.49531,17.03096 -0.27011,46.80377 -1.28209,49.8701 -2.76084,8.36541 -17.86257,23.3196 -26.39263,26.13477 -2.99174,0.98737 -15.1094,1.29889 -50.79565,1.30586 -37.7738,0.007 -47.12598,0.26852 -48.20343,1.34598 -1.06483,1.06483 -1.30114,7.48911 -1.16148,31.57613 0.15625,26.94897 0.002,30.27271 -1.41663,30.54613 -0.87558,0.16875 -2.11846,-0.32758 -2.76196,-1.10295 z M 855.37296,279.43285 c 0,-23.2376 -0.29121,-30.23639 -1.30007,-31.24565 -1.03826,-1.03866 -13.8263,-1.30889 -63.5,-1.34186 l -62.19993,-0.0413 -0.54728,-4.05857 c -0.75592,-5.60588 -0.40227,-34.24266 0.43321,-35.07813 0.3739,-0.3739 28.8064,-0.70252 63.18334,-0.73028 53.46946,-0.0432 62.633,-0.25993 63.3993,-1.49973 0.49268,-0.7971 0.79297,-14.8596 0.66731,-31.25 -0.12565,-16.3904 0.0174,-29.7834 0.31783,-29.76221 0.30046,0.0212 1.45191,1.47807 2.55878,3.23751 1.10686,1.75945 3.3717,4.08978 5.03296,5.17852 1.66127,1.08873 3.91127,3.33873 5,5 1.08874,1.66126 3.33874,3.91126 5,5 1.66127,1.08873 3.91127,3.33873 5,5 1.08874,1.66126 3.33874,3.91126 5,5 1.66127,1.08873 3.91127,3.33873 5,5 1.08874,1.66126 3.33874,3.91126 5,5 1.66127,1.08873 3.91127,3.33873 5,5 1.08874,1.66126 3.33874,3.91126 5,5 1.66127,1.08873 3.91127,3.33873 5,5 1.08874,1.66126 3.33874,3.91126 5,5 1.66127,1.08873 3.91127,3.33873 5,5 1.08874,1.66126 3.33874,3.91126 5,5 1.66127,1.08873 3.91127,3.33873 5,5 1.08874,1.66126 3.41347,3.9261 5.16608,5.03296 1.7526,1.10687 3.39364,2.50536 3.64675,3.10775 0.25311,0.6024 -18.06146,19.61294 -40.69904,42.24566 l -41.15924,41.15041 z"
         id="path34" />
    </g>
  </g>
</svg>
