<svg id="svg" xmlns="http://www.w3.org/2000/svg" xmlns:xlink="http://www.w3.org/1999/xlink" width="400" height="400" viewBox="0, 0, 400,400" version="1.1"><g id="svgg"><path id="path0" d="M167.745 74.815 C 167.517 75.043,165.771 75.340,163.865 75.474 C 161.959 75.609,160.400 75.872,160.400 76.059 C 160.400 76.247,159.421 76.400,158.224 76.400 C 157.027 76.400,155.944 76.567,155.817 76.772 C 155.691 76.977,154.600 77.267,153.394 77.418 C 152.187 77.569,151.200 77.851,151.200 78.046 C 151.200 78.241,150.390 78.400,149.400 78.400 C 148.410 78.400,147.600 78.567,147.600 78.771 C 147.600 78.975,146.610 79.266,145.400 79.417 C 144.190 79.568,143.200 79.851,143.200 80.046 C 143.200 80.241,142.750 80.400,142.200 80.400 C 141.650 80.400,141.200 80.563,141.200 80.762 C 141.200 80.962,140.300 81.249,139.200 81.400 C 138.100 81.551,137.200 81.838,137.200 82.038 C 137.200 82.237,136.750 82.400,136.200 82.400 C 135.650 82.400,135.200 82.569,135.200 82.775 C 135.200 82.982,134.390 83.272,133.400 83.421 C 132.410 83.569,131.600 83.850,131.600 84.045 C 131.600 84.240,131.330 84.400,131.000 84.400 C 130.670 84.400,130.400 84.578,130.400 84.795 C 130.400 85.013,129.680 85.306,128.800 85.446 C 127.920 85.587,127.200 85.859,127.200 86.051 C 127.200 86.243,126.840 86.400,126.400 86.400 C 125.960 86.400,125.600 86.566,125.600 86.768 C 125.600 86.971,125.060 87.255,124.400 87.400 C 123.740 87.545,123.200 87.829,123.200 88.032 C 123.200 88.234,122.840 88.400,122.400 88.400 C 121.960 88.400,121.600 88.560,121.600 88.757 C 121.600 88.953,121.116 89.235,120.524 89.383 C 119.932 89.532,119.146 90.001,118.777 90.426 C 118.409 90.851,117.543 91.311,116.854 91.449 C 116.164 91.587,115.600 91.858,115.600 92.050 C 115.600 92.243,115.330 92.400,115.000 92.400 C 114.670 92.400,114.400 92.580,114.400 92.800 C 114.400 93.020,114.132 93.200,113.803 93.200 C 113.475 93.200,112.691 93.740,112.060 94.400 C 111.429 95.060,110.630 95.600,110.284 95.600 C 109.937 95.600,109.543 95.951,109.406 96.380 C 109.270 96.808,108.817 97.267,108.400 97.400 C 107.983 97.533,107.530 97.992,107.394 98.420 C 107.257 98.849,106.978 99.200,106.773 99.200 C 106.568 99.200,106.400 99.470,106.400 99.800 C 106.400 100.130,106.220 100.400,106.000 100.400 C 105.769 100.400,105.600 101.667,105.600 103.400 C 105.600 105.133,105.769 106.400,106.000 106.400 C 106.220 106.400,106.400 106.578,106.400 106.795 C 106.400 107.498,107.757 108.800,108.489 108.800 C 108.880 108.800,109.200 108.980,109.200 109.200 C 109.200 109.420,109.650 109.600,110.200 109.600 C 110.750 109.600,111.200 109.763,111.200 109.962 C 111.200 110.160,113.090 110.452,115.400 110.609 C 117.710 110.767,119.600 111.054,119.600 111.248 C 119.600 111.442,121.364 111.600,123.520 111.600 C 125.676 111.600,127.611 111.768,127.820 111.974 C 128.029 112.179,132.565 112.476,137.900 112.633 C 143.235 112.790,147.600 113.072,147.600 113.259 C 147.600 113.447,148.230 113.600,149.000 113.600 C 149.770 113.600,150.400 113.759,150.400 113.953 C 150.400 114.148,151.570 114.432,153.000 114.585 C 154.430 114.738,155.600 115.029,155.600 115.232 C 155.600 115.434,156.230 115.600,157.000 115.600 C 157.770 115.600,158.400 115.759,158.400 115.953 C 158.400 116.147,159.750 116.433,161.400 116.587 C 163.050 116.742,164.400 117.033,164.400 117.234 C 164.400 117.435,165.030 117.600,165.800 117.600 C 166.570 117.600,167.200 117.766,167.200 117.968 C 167.200 118.171,168.370 118.462,169.800 118.615 C 171.230 118.768,172.400 119.052,172.400 119.247 C 172.400 119.441,173.030 119.600,173.800 119.600 C 174.570 119.600,175.200 119.759,175.200 119.954 C 175.200 120.149,176.190 120.432,177.400 120.583 C 181.717 121.122,179.463 121.401,170.367 121.452 C 164.156 121.488,160.989 121.651,160.688 121.952 C 160.441 122.199,159.826 122.400,159.320 122.400 C 158.814 122.400,158.400 122.566,158.400 122.770 C 158.400 122.973,156.780 123.267,154.800 123.422 C 152.820 123.576,151.200 123.860,151.200 124.052 C 151.200 124.243,150.671 124.400,150.024 124.400 C 149.377 124.400,148.746 124.563,148.623 124.763 C 148.500 124.962,147.499 125.249,146.400 125.400 C 145.300 125.551,144.400 125.838,144.400 126.038 C 144.400 126.237,144.130 126.400,143.800 126.400 C 143.470 126.400,143.200 126.560,143.200 126.755 C 143.200 126.951,142.570 127.229,141.800 127.374 C 141.030 127.518,140.400 127.808,140.400 128.018 C 140.400 128.228,140.130 128.400,139.800 128.400 C 139.470 128.400,139.200 128.560,139.200 128.755 C 139.200 128.951,138.570 129.229,137.800 129.374 C 137.030 129.518,136.400 129.808,136.400 130.018 C 136.400 130.228,136.130 130.400,135.800 130.400 C 135.470 130.400,135.200 130.577,135.200 130.792 C 135.200 131.008,134.750 131.298,134.200 131.436 C 133.650 131.574,133.200 131.847,133.200 132.043 C 133.200 132.240,132.840 132.400,132.400 132.400 C 131.960 132.400,131.600 132.560,131.600 132.757 C 131.600 132.953,131.150 133.226,130.600 133.364 C 130.050 133.502,129.600 133.792,129.600 134.008 C 129.600 134.223,129.330 134.400,129.000 134.400 C 128.670 134.400,128.400 134.580,128.400 134.800 C 128.400 135.020,128.138 135.200,127.818 135.200 C 127.498 135.200,126.808 135.628,126.284 136.152 C 125.761 136.676,124.942 137.228,124.466 137.379 C 123.990 137.530,123.600 137.822,123.600 138.027 C 123.600 138.232,123.410 138.400,123.177 138.400 C 122.625 138.400,112.400 148.625,112.400 149.177 C 112.400 149.410,112.232 149.600,112.027 149.600 C 111.822 149.600,111.543 149.951,111.406 150.380 C 111.270 150.808,110.817 151.267,110.400 151.400 C 109.983 151.533,109.516 152.037,109.363 152.520 C 109.211 153.004,108.752 153.691,108.344 154.046 C 107.935 154.402,107.490 155.251,107.353 155.934 C 107.210 156.650,106.787 157.277,106.353 157.415 C 105.940 157.546,105.492 158.091,105.358 158.627 C 105.223 159.162,104.953 159.600,104.757 159.600 C 104.560 159.600,104.400 159.960,104.400 160.400 C 104.400 160.840,104.240 161.200,104.043 161.200 C 103.847 161.200,103.574 161.650,103.436 162.200 C 103.298 162.750,103.008 163.200,102.792 163.200 C 102.577 163.200,102.400 163.470,102.400 163.800 C 102.400 164.130,102.228 164.400,102.018 164.400 C 101.808 164.400,101.518 165.030,101.374 165.800 C 101.229 166.570,100.951 167.200,100.755 167.200 C 100.560 167.200,100.400 167.650,100.400 168.200 C 100.400 168.750,100.234 169.200,100.032 169.200 C 99.829 169.200,99.545 169.740,99.400 170.400 C 99.255 171.060,98.971 171.600,98.768 171.600 C 98.566 171.600,98.400 172.050,98.400 172.600 C 98.400 173.150,98.240 173.600,98.045 173.600 C 97.850 173.600,97.569 174.410,97.421 175.400 C 97.272 176.390,96.982 177.200,96.775 177.200 C 96.569 177.200,96.400 177.650,96.400 178.200 C 96.400 178.750,96.233 179.200,96.029 179.200 C 95.825 179.200,95.534 180.190,95.383 181.400 C 95.232 182.610,94.949 183.600,94.754 183.600 C 94.559 183.600,94.400 184.230,94.400 185.000 C 94.400 185.770,94.243 186.400,94.052 186.400 C 93.860 186.400,93.581 187.480,93.432 188.800 C 93.282 190.120,93.014 191.200,92.835 191.200 C 92.655 191.200,92.477 192.589,92.437 194.287 C 92.398 195.985,92.220 197.470,92.042 197.587 C 91.864 197.704,91.592 199.960,91.439 202.600 C 91.285 205.240,90.989 207.460,90.780 207.533 C 90.215 207.732,90.277 226.692,90.843 226.881 C 91.122 226.974,91.365 228.983,91.501 232.314 C 91.618 235.221,91.869 237.600,92.057 237.600 C 92.246 237.600,92.400 238.680,92.400 240.000 C 92.400 241.320,92.559 242.400,92.754 242.400 C 92.949 242.400,93.232 243.390,93.383 244.600 C 93.534 245.810,93.825 246.800,94.029 246.800 C 94.233 246.800,94.400 247.610,94.400 248.600 C 94.400 249.590,94.563 250.400,94.762 250.400 C 94.962 250.400,95.249 251.300,95.400 252.400 C 95.551 253.500,95.838 254.400,96.038 254.400 C 96.237 254.400,96.400 254.835,96.400 255.367 C 96.400 255.898,96.598 256.399,96.839 256.480 C 97.081 256.560,97.374 257.475,97.491 258.513 C 97.608 259.551,97.861 260.400,98.052 260.400 C 98.243 260.400,98.400 260.850,98.400 261.400 C 98.400 261.950,98.578 262.400,98.795 262.400 C 99.013 262.400,99.306 263.120,99.446 264.000 C 99.587 264.880,99.859 265.600,100.051 265.600 C 100.243 265.600,100.400 265.870,100.400 266.200 C 100.400 266.530,100.560 266.800,100.755 266.800 C 100.951 266.800,101.229 267.430,101.374 268.200 C 101.518 268.970,101.808 269.600,102.018 269.600 C 102.228 269.600,102.400 269.870,102.400 270.200 C 102.400 270.530,102.558 270.800,102.750 270.800 C 102.942 270.800,103.213 271.364,103.351 272.054 C 103.489 272.743,103.949 273.609,104.374 273.977 C 104.799 274.346,105.268 275.132,105.417 275.724 C 105.565 276.316,105.847 276.800,106.043 276.800 C 106.240 276.800,106.400 277.141,106.400 277.557 C 106.400 277.974,106.670 278.418,107.000 278.545 C 107.330 278.671,107.600 279.141,107.600 279.587 C 107.600 280.034,107.780 280.400,108.000 280.400 C 108.220 280.400,108.400 280.604,108.400 280.854 C 108.400 281.104,108.850 281.725,109.400 282.235 C 109.950 282.745,110.400 283.440,110.400 283.781 C 110.400 284.121,110.560 284.400,110.757 284.400 C 110.953 284.400,111.223 284.838,111.358 285.373 C 111.492 285.909,111.961 286.461,112.401 286.600 C 112.842 286.740,113.200 287.206,113.200 287.640 C 113.200 288.072,113.470 288.529,113.800 288.655 C 114.130 288.782,114.400 289.140,114.400 289.450 C 114.400 289.760,115.006 290.602,115.746 291.321 C 116.486 292.040,117.215 293.017,117.366 293.493 C 117.517 293.970,117.983 294.467,118.400 294.600 C 118.817 294.733,119.267 295.183,119.400 295.600 C 119.533 296.017,119.983 296.467,120.400 296.600 C 120.817 296.733,121.270 297.192,121.406 297.620 C 121.543 298.049,121.822 298.400,122.027 298.400 C 122.232 298.400,122.400 298.592,122.400 298.827 C 122.400 299.468,129.345 306.265,130.316 306.573 C 130.780 306.720,131.267 307.183,131.400 307.600 C 131.533 308.017,131.992 308.470,132.420 308.606 C 132.849 308.743,133.200 309.022,133.200 309.227 C 133.200 309.432,133.404 309.600,133.654 309.600 C 133.904 309.600,134.525 310.050,135.035 310.600 C 135.545 311.150,136.159 311.600,136.400 311.600 C 136.641 311.600,137.255 312.050,137.765 312.600 C 138.275 313.150,138.896 313.600,139.146 313.600 C 139.396 313.600,139.600 313.780,139.600 314.000 C 139.600 314.220,139.966 314.400,140.413 314.400 C 140.859 314.400,141.329 314.670,141.455 315.000 C 141.582 315.330,142.007 315.600,142.400 315.600 C 142.793 315.600,143.218 315.870,143.345 316.200 C 143.471 316.530,143.941 316.800,144.387 316.800 C 144.834 316.800,145.200 316.980,145.200 317.200 C 145.200 317.420,145.470 317.600,145.800 317.600 C 146.130 317.600,146.400 317.772,146.400 317.982 C 146.400 318.192,147.030 318.482,147.800 318.626 C 148.570 318.771,149.200 319.049,149.200 319.245 C 149.200 319.440,149.455 319.600,149.767 319.600 C 150.078 319.600,150.399 319.798,150.480 320.039 C 150.560 320.281,151.475 320.574,152.513 320.691 C 153.551 320.808,154.400 321.061,154.400 321.252 C 154.400 321.443,154.850 321.600,155.400 321.600 C 155.950 321.600,156.400 321.771,156.400 321.980 C 156.400 322.189,157.480 322.482,158.800 322.632 C 160.120 322.781,161.200 323.060,161.200 323.252 C 161.200 323.443,161.920 323.600,162.800 323.600 C 163.680 323.600,164.400 323.765,164.400 323.966 C 164.400 324.168,166.380 324.461,168.800 324.618 C 171.220 324.775,173.200 325.060,173.200 325.251 C 173.200 325.443,174.460 325.600,176.000 325.600 C 177.540 325.600,178.800 325.447,178.800 325.261 C 178.800 325.075,181.003 324.811,183.695 324.676 C 186.500 324.535,188.649 324.253,188.728 324.015 C 188.804 323.787,189.917 323.600,191.200 323.600 C 192.546 323.600,193.596 323.413,193.680 323.159 C 193.902 322.495,204.078 322.439,204.299 323.100 C 204.395 323.386,205.136 323.600,206.033 323.600 C 206.895 323.600,207.600 323.766,207.600 323.968 C 207.600 324.170,209.400 324.463,211.600 324.619 C 213.800 324.775,215.600 325.060,215.600 325.252 C 215.600 325.443,217.490 325.600,219.800 325.600 C 222.110 325.600,224.000 325.441,224.000 325.247 C 224.000 325.053,225.530 324.767,227.400 324.611 C 229.270 324.456,230.800 324.164,230.800 323.964 C 230.800 323.764,231.880 323.600,233.200 323.600 C 234.520 323.600,235.600 323.437,235.600 323.238 C 235.600 323.038,236.500 322.751,237.600 322.600 C 238.700 322.449,239.600 322.162,239.600 321.962 C 239.600 321.763,240.050 321.600,240.600 321.600 C 241.150 321.600,241.600 321.443,241.600 321.251 C 241.600 321.059,242.320 320.787,243.200 320.646 C 244.080 320.506,244.800 320.213,244.800 319.995 C 244.800 319.778,245.160 319.600,245.600 319.600 C 246.040 319.600,246.400 319.422,246.400 319.205 C 246.400 318.987,247.120 318.694,248.000 318.554 C 248.880 318.413,249.600 318.141,249.600 317.949 C 249.600 317.757,249.870 317.600,250.200 317.600 C 250.530 317.600,250.800 317.423,250.800 317.208 C 250.800 316.992,251.250 316.702,251.800 316.564 C 252.350 316.426,252.800 316.153,252.800 315.957 C 252.800 315.760,253.141 315.600,253.557 315.600 C 253.974 315.600,254.418 315.330,254.545 315.000 C 254.671 314.670,255.128 314.400,255.560 314.400 C 255.995 314.400,256.460 314.042,256.600 313.600 C 256.740 313.158,257.205 312.800,257.640 312.800 C 258.072 312.800,258.529 312.530,258.655 312.200 C 258.782 311.870,259.207 311.600,259.600 311.600 C 259.993 311.600,260.418 311.330,260.545 311.000 C 260.671 310.670,261.128 310.400,261.560 310.400 C 261.993 310.400,262.457 310.049,262.594 309.620 C 262.730 309.192,263.192 308.730,263.620 308.594 C 264.049 308.457,264.400 308.178,264.400 307.973 C 264.400 307.768,264.591 307.600,264.825 307.600 C 265.470 307.600,276.266 296.651,276.573 295.686 C 276.720 295.221,277.192 294.730,277.620 294.594 C 278.049 294.457,278.400 294.023,278.400 293.629 C 278.400 293.235,278.839 292.582,279.376 292.179 C 279.913 291.776,280.456 291.031,280.584 290.523 C 280.711 290.015,280.992 289.600,281.208 289.600 C 281.423 289.600,281.600 289.330,281.600 289.000 C 281.600 288.670,281.768 288.400,281.973 288.400 C 282.178 288.400,282.474 287.995,282.630 287.500 C 282.787 287.005,283.248 286.309,283.656 285.954 C 284.065 285.598,284.510 284.749,284.647 284.066 C 284.790 283.349,285.213 282.723,285.648 282.585 C 286.061 282.454,286.400 281.993,286.400 281.560 C 286.400 281.128,286.670 280.671,287.000 280.545 C 287.330 280.418,287.600 279.993,287.600 279.600 C 287.600 279.207,287.870 278.782,288.200 278.655 C 288.530 278.529,288.800 278.059,288.800 277.613 C 288.800 277.166,288.980 276.800,289.200 276.800 C 289.420 276.800,289.600 276.530,289.600 276.200 C 289.600 275.870,289.772 275.600,289.982 275.600 C 290.192 275.600,290.482 274.970,290.626 274.200 C 290.771 273.430,291.049 272.800,291.245 272.800 C 291.440 272.800,291.600 272.530,291.600 272.200 C 291.600 271.870,291.772 271.600,291.982 271.600 C 292.192 271.600,292.482 270.970,292.626 270.200 C 292.771 269.430,293.049 268.800,293.245 268.800 C 293.440 268.800,293.600 268.530,293.600 268.200 C 293.600 267.870,293.778 267.600,293.995 267.600 C 294.213 267.600,294.506 266.880,294.646 266.000 C 294.787 265.120,295.059 264.400,295.251 264.400 C 295.443 264.400,295.600 264.040,295.600 263.600 C 295.600 263.160,295.778 262.800,295.995 262.800 C 296.213 262.800,296.506 262.080,296.646 261.200 C 296.787 260.320,297.059 259.600,297.251 259.600 C 297.443 259.600,297.600 259.330,297.600 259.000 C 297.600 258.670,297.763 258.400,297.962 258.400 C 298.162 258.400,298.449 257.500,298.600 256.400 C 298.751 255.300,299.038 254.400,299.238 254.400 C 299.437 254.400,299.600 254.040,299.600 253.600 C 299.600 253.160,299.763 252.800,299.962 252.800 C 300.162 252.800,300.449 251.900,300.600 250.800 C 300.751 249.700,301.038 248.800,301.238 248.800 C 301.437 248.800,301.600 248.545,301.600 248.233 C 301.600 247.922,301.798 247.601,302.039 247.520 C 302.281 247.440,302.574 246.525,302.691 245.487 C 302.808 244.449,303.061 243.600,303.252 243.600 C 303.443 243.600,303.600 243.150,303.600 242.600 C 303.600 242.050,303.763 241.600,303.962 241.600 C 304.162 241.600,304.449 240.700,304.600 239.600 C 304.751 238.500,305.038 237.600,305.238 237.600 C 305.437 237.600,305.600 236.880,305.600 236.000 C 305.600 235.120,305.765 234.400,305.966 234.400 C 306.167 234.400,306.458 233.050,306.613 231.400 C 306.767 229.750,307.053 228.400,307.247 228.400 C 307.441 228.400,307.600 227.770,307.600 227.000 C 307.600 226.230,307.754 225.600,307.943 225.600 C 308.131 225.600,308.386 224.135,308.509 222.345 C 308.632 220.554,308.911 218.978,309.131 218.843 C 310.371 218.076,310.450 191.600,309.213 191.600 C 309.043 191.600,308.776 189.980,308.622 188.000 C 308.467 186.020,308.173 184.400,307.970 184.400 C 307.766 184.400,307.600 183.680,307.600 182.800 C 307.600 181.920,307.437 181.200,307.238 181.200 C 307.038 181.200,306.751 180.300,306.600 179.200 C 306.449 178.100,306.162 177.200,305.962 177.200 C 305.763 177.200,305.600 176.750,305.600 176.200 C 305.600 175.650,305.437 175.200,305.238 175.200 C 305.038 175.200,304.751 174.300,304.600 173.200 C 304.449 172.100,304.162 171.200,303.962 171.200 C 303.763 171.200,303.600 170.840,303.600 170.400 C 303.600 169.960,303.434 169.600,303.232 169.600 C 303.029 169.600,302.745 169.060,302.600 168.400 C 302.455 167.740,302.171 167.200,301.968 167.200 C 301.766 167.200,301.600 166.840,301.600 166.400 C 301.600 165.960,301.434 165.600,301.232 165.600 C 301.029 165.600,300.745 165.060,300.600 164.400 C 300.455 163.740,300.171 163.200,299.968 163.200 C 299.766 163.200,299.600 162.859,299.600 162.443 C 299.600 162.026,299.330 161.582,299.000 161.455 C 298.670 161.329,298.400 160.872,298.400 160.440 C 298.400 160.007,298.049 159.543,297.620 159.406 C 297.192 159.270,296.730 158.808,296.594 158.380 C 296.457 157.951,296.178 157.600,295.973 157.600 C 295.768 157.600,295.600 157.396,295.600 157.147 C 295.600 156.898,294.970 156.100,294.200 155.374 C 293.430 154.648,292.800 153.874,292.800 153.654 C 292.800 153.122,288.105 148.400,287.576 148.400 C 287.348 148.400,286.745 147.950,286.235 147.400 C 285.725 146.850,285.181 146.400,285.026 146.400 C 284.870 146.400,284.492 146.175,284.185 145.900 C 282.862 144.713,282.409 144.400,282.017 144.400 C 281.788 144.400,281.600 144.232,281.600 144.027 C 281.600 143.822,281.195 143.526,280.700 143.370 C 280.205 143.213,279.530 142.777,279.200 142.400 C 278.870 142.023,278.195 141.587,277.700 141.430 C 277.205 141.274,276.800 140.978,276.800 140.773 C 276.800 140.568,276.530 140.400,276.200 140.400 C 275.870 140.400,275.600 140.228,275.600 140.018 C 275.600 139.808,274.976 139.519,274.214 139.376 C 273.373 139.218,272.735 138.826,272.594 138.380 C 272.432 137.872,271.806 137.560,270.580 137.376 C 269.601 137.229,268.800 136.950,268.800 136.755 C 268.800 136.560,268.530 136.400,268.200 136.400 C 267.870 136.400,267.600 136.222,267.600 136.005 C 267.600 135.787,266.880 135.494,266.000 135.354 C 265.120 135.213,264.400 134.941,264.400 134.749 C 264.400 134.557,263.950 134.400,263.400 134.400 C 262.850 134.400,262.400 134.231,262.400 134.025 C 262.400 133.818,261.590 133.528,260.600 133.379 C 259.610 133.231,258.800 132.950,258.800 132.755 C 258.800 132.560,258.260 132.400,257.600 132.400 C 256.940 132.400,256.400 132.238,256.400 132.041 C 256.400 131.843,255.140 131.555,253.600 131.400 C 252.060 131.245,250.800 130.957,250.800 130.759 C 250.800 130.562,249.915 130.400,248.833 130.400 C 247.752 130.400,246.807 130.225,246.733 130.011 C 246.660 129.796,244.305 129.499,241.500 129.350 C 235.553 129.033,235.654 129.174,239.000 125.844 C 240.430 124.421,241.600 123.064,241.600 122.829 C 241.600 122.593,241.760 122.400,241.955 122.400 C 242.151 122.400,242.429 121.770,242.574 121.000 C 242.718 120.230,243.008 119.600,243.218 119.600 C 243.429 119.600,243.600 118.165,243.600 116.400 C 243.600 114.640,243.443 113.200,243.252 113.200 C 243.061 113.200,242.808 112.351,242.691 111.313 C 242.574 110.275,242.281 109.360,242.039 109.280 C 241.798 109.199,241.600 108.808,241.600 108.409 C 241.600 108.011,241.330 107.582,241.000 107.455 C 240.670 107.329,240.400 106.872,240.400 106.440 C 240.400 106.007,240.049 105.543,239.620 105.406 C 239.192 105.270,238.733 104.817,238.600 104.400 C 238.467 103.983,238.008 103.530,237.580 103.394 C 237.151 103.257,236.800 102.978,236.800 102.773 C 236.800 102.568,236.530 102.400,236.200 102.400 C 235.870 102.400,235.600 102.223,235.600 102.008 C 235.600 101.792,235.150 101.502,234.600 101.364 C 234.050 101.226,233.600 100.953,233.600 100.757 C 233.600 100.560,233.165 100.400,232.633 100.400 C 232.102 100.400,231.598 100.195,231.515 99.945 C 231.416 99.647,230.004 99.491,227.400 99.491 C 224.796 99.491,223.384 99.647,223.285 99.945 C 223.202 100.195,222.808 100.400,222.409 100.400 C 222.011 100.400,221.582 100.670,221.455 101.000 C 221.329 101.330,220.872 101.600,220.440 101.600 C 219.985 101.600,219.538 101.965,219.379 102.466 C 219.228 102.942,218.676 103.761,218.152 104.284 C 217.628 104.808,217.200 105.421,217.200 105.647 C 217.200 106.272,216.000 107.336,215.681 106.993 C 215.526 106.827,215.625 106.610,215.900 106.512 C 216.175 106.414,216.400 105.983,216.400 105.554 C 216.400 105.126,216.670 104.671,217.000 104.545 C 217.330 104.418,217.600 103.974,217.600 103.557 C 217.600 103.141,217.759 102.800,217.954 102.800 C 218.149 102.800,218.432 101.810,218.583 100.600 C 218.734 99.390,219.025 98.400,219.229 98.400 C 219.433 98.400,219.600 97.320,219.600 96.000 C 219.600 94.667,219.778 93.600,220.000 93.600 C 220.220 93.600,220.400 93.150,220.400 92.600 C 220.400 92.050,220.220 91.600,220.000 91.600 C 219.780 91.600,219.600 90.700,219.600 89.600 C 219.600 88.500,219.434 87.600,219.232 87.600 C 219.029 87.600,218.745 87.060,218.600 86.400 C 218.455 85.740,218.171 85.200,217.968 85.200 C 217.766 85.200,217.600 84.927,217.600 84.593 C 217.600 83.836,214.932 81.200,214.166 81.200 C 213.855 81.200,213.600 81.020,213.600 80.800 C 213.600 80.580,213.345 80.400,213.033 80.400 C 212.722 80.400,212.406 80.217,212.331 79.994 C 212.257 79.771,210.982 79.475,209.498 79.336 C 208.014 79.198,206.800 78.930,206.800 78.742 C 206.800 78.554,203.830 78.400,200.200 78.400 C 196.570 78.400,193.600 78.243,193.600 78.051 C 193.600 77.859,192.880 77.587,192.000 77.446 C 191.120 77.306,190.400 77.013,190.400 76.795 C 190.400 76.578,190.040 76.400,189.600 76.400 C 189.160 76.400,188.800 76.234,188.800 76.030 C 188.800 75.827,187.180 75.533,185.200 75.378 C 183.220 75.224,181.600 74.940,181.600 74.748 C 181.600 74.242,168.254 74.306,167.745 74.815 M185.600 81.551 C 187.030 82.028,188.963 82.775,189.896 83.209 C 191.311 83.869,192.469 84.002,196.896 84.013 C 206.691 84.037,210.253 85.023,212.596 88.356 C 215.442 92.406,213.660 99.228,207.620 107.400 C 206.319 109.160,204.593 111.530,203.784 112.666 L 202.314 114.732 204.357 120.592 C 205.481 123.815,206.400 126.930,206.400 127.515 C 206.400 128.937,203.095 138.424,202.649 138.280 C 202.246 138.149,200.417 133.319,200.407 132.360 C 200.403 132.007,199.933 130.837,199.362 129.760 C 193.725 119.114,193.227 118.534,188.751 117.405 C 187.348 117.051,185.120 116.418,183.800 115.997 C 181.086 115.133,176.168 113.829,172.600 113.027 C 171.280 112.730,166.960 111.667,163.000 110.663 C 149.979 107.364,147.848 107.076,128.400 105.989 C 115.955 105.293,111.859 104.561,112.080 103.073 C 112.466 100.463,127.416 92.032,138.533 88.154 C 158.122 81.322,176.983 78.676,185.600 81.551 M230.513 106.141 C 233.088 107.223,236.409 111.707,237.011 114.916 C 237.784 119.041,234.177 122.625,230.898 120.989 C 222.180 116.640,221.813 102.485,230.513 106.141 M215.035 109.098 C 214.605 109.528,214.377 108.926,214.679 108.157 C 214.962 107.436,214.983 107.435,215.124 108.131 C 215.204 108.534,215.165 108.969,215.035 109.098 M213.316 111.600 C 213.201 112.040,212.948 112.400,212.753 112.400 C 212.559 112.400,212.400 112.670,212.400 113.000 C 212.400 113.330,212.243 113.600,212.050 113.600 C 211.857 113.600,211.590 114.150,211.455 114.823 C 211.230 115.950,210.374 117.200,209.829 117.200 C 209.169 117.200,209.731 115.041,210.600 114.235 C 211.150 113.725,211.600 113.104,211.600 112.854 C 211.600 112.604,211.768 112.400,211.973 112.400 C 212.178 112.400,212.460 112.040,212.600 111.600 C 212.740 111.160,213.005 110.800,213.190 110.800 C 213.374 110.800,213.431 111.160,213.316 111.600 M221.409 116.900 C 223.046 120.142,225.355 122.764,227.900 124.270 C 228.942 124.887,229.491 125.455,229.319 125.738 C 228.969 126.312,226.848 128.654,224.141 131.456 C 221.440 134.252,218.085 139.390,215.167 145.201 C 212.167 151.175,212.362 151.024,208.712 150.212 C 204.492 149.273,204.533 149.318,205.374 146.536 C 206.591 142.504,208.037 138.228,208.426 137.505 C 208.632 137.123,208.800 136.553,208.800 136.238 C 208.800 135.923,209.070 135.155,209.400 134.532 C 210.313 132.809,212.800 127.182,212.800 126.839 C 212.800 126.672,213.249 125.650,213.798 124.568 C 214.347 123.486,214.797 122.468,214.798 122.308 C 214.799 122.147,215.430 121.031,216.200 119.827 C 216.970 118.623,217.600 117.536,217.600 117.411 C 217.600 117.092,219.574 114.000,219.778 114.000 C 219.870 114.000,220.604 115.305,221.409 116.900 M184.800 128.555 C 193.542 130.266,196.800 131.660,196.800 133.689 C 196.800 133.865,197.152 134.772,197.583 135.704 C 199.223 139.254,200.708 145.420,200.226 146.676 C 199.884 147.568,198.013 147.014,193.200 144.595 C 184.575 140.262,176.142 138.992,173.047 141.561 C 172.028 142.407,172.276 142.925,173.576 142.665 C 174.788 142.422,179.547 143.197,182.825 144.170 C 184.635 144.708,189.147 146.810,193.600 149.190 C 194.810 149.837,196.025 150.374,196.300 150.383 C 196.575 150.392,196.800 150.580,196.800 150.800 C 196.800 151.020,197.057 151.200,197.371 151.200 C 197.685 151.200,199.302 151.829,200.966 152.597 C 207.103 155.432,217.003 156.486,222.200 154.859 C 222.860 154.652,224.480 154.180,225.800 153.811 C 228.820 152.965,229.302 152.783,232.006 151.471 C 233.220 150.882,234.390 150.399,234.606 150.398 C 234.823 150.397,235.524 149.977,236.165 149.464 C 238.594 147.520,236.352 147.129,231.200 148.597 C 228.478 149.372,222.443 150.653,219.900 150.994 C 218.089 151.237,218.000 151.204,218.000 150.286 C 218.000 148.565,223.170 140.836,226.954 136.900 L 228.973 134.800 233.154 134.800 C 235.453 134.800,238.429 134.973,239.767 135.184 C 241.105 135.395,244.180 135.863,246.600 136.224 C 264.606 138.909,283.708 150.362,292.597 163.800 C 297.473 171.173,299.703 176.919,302.375 189.000 C 304.257 197.509,304.194 209.597,302.212 219.800 C 301.871 221.560,301.418 223.990,301.206 225.200 C 300.576 228.808,299.171 234.797,298.205 238.000 C 296.240 244.513,294.280 250.659,293.804 251.800 C 291.863 256.457,289.630 261.559,288.114 264.800 C 287.136 266.890,286.048 269.230,285.696 270.000 C 276.613 289.882,254.264 311.619,238.200 316.198 C 236.880 316.574,235.350 317.036,234.800 317.224 C 232.592 317.978,226.499 318.966,221.143 319.439 C 217.199 319.787,210.594 318.792,204.422 316.921 C 201.096 315.913,199.422 315.596,198.319 315.766 C 197.484 315.895,196.080 316.109,195.200 316.242 C 194.320 316.375,193.600 316.606,193.600 316.755 C 193.600 317.053,191.296 317.732,188.200 318.347 C 173.892 321.188,158.914 318.485,146.398 310.803 C 144.747 309.790,143.127 308.852,142.798 308.718 C 141.463 308.178,133.762 301.437,130.703 298.132 C 128.905 296.190,126.752 293.867,125.918 292.971 C 116.823 283.194,109.365 270.572,102.299 253.000 C 95.789 236.809,95.183 203.674,101.038 184.000 C 108.377 159.335,123.990 141.379,145.264 133.136 C 153.797 129.830,156.138 129.213,163.200 128.410 C 165.510 128.147,167.670 127.865,168.000 127.784 C 169.409 127.437,182.054 128.017,184.800 128.555 " stroke="none" fill="#1b1511" fill-rule="evenodd"></path><path id="path1" d="M170.119 81.567 C 166.302 81.876,166.299 81.879,166.840 86.425 C 167.087 88.501,167.314 90.740,167.344 91.400 L 167.400 92.600 162.800 92.859 C 155.064 93.294,147.087 94.005,145.606 94.390 C 144.833 94.591,142.490 95.061,140.400 95.433 C 129.690 97.343,118.000 101.002,118.000 102.446 C 118.000 102.986,119.448 102.797,125.800 101.430 C 128.220 100.909,132.000 100.180,134.200 99.811 C 136.400 99.442,138.920 98.982,139.800 98.790 C 146.235 97.386,173.906 97.236,177.200 98.587 C 181.493 100.348,184.736 103.277,191.723 111.700 C 196.097 116.973,196.260 117.086,196.069 114.678 C 195.927 112.893,196.789 111.870,201.669 108.031 C 203.195 106.831,209.539 100.398,210.971 98.600 C 213.198 95.802,213.331 94.906,212.220 90.188 C 211.725 88.086,208.036 85.600,205.410 85.600 C 204.660 85.600,203.936 85.420,203.800 85.200 C 203.654 84.963,201.206 84.800,197.806 84.800 L 192.059 84.800 191.451 86.018 C 191.117 86.687,190.723 88.040,190.576 89.023 C 190.428 90.006,190.148 90.908,189.954 91.029 C 189.759 91.149,189.600 91.597,189.600 92.024 C 189.600 92.451,189.420 92.800,189.200 92.800 C 188.980 92.800,188.800 93.082,188.800 93.426 C 188.800 94.197,186.906 98.400,186.559 98.400 C 186.421 98.400,185.408 97.740,184.310 96.934 C 183.211 96.127,180.847 94.974,179.056 94.371 C 175.352 93.124,175.406 93.248,176.366 88.200 C 176.617 86.880,176.930 84.855,177.061 83.700 L 177.299 81.600 175.682 81.600 C 174.793 81.600,173.826 81.540,173.533 81.467 C 173.240 81.394,171.703 81.439,170.119 81.567 M150.800 152.661 C 143.483 154.113,135.591 160.565,132.214 167.853 C 123.489 186.690,130.402 195.156,146.800 185.715 C 157.078 179.798,156.167 179.947,159.904 183.570 C 164.586 188.109,166.525 188.431,175.000 186.074 L 177.800 185.295 180.518 186.301 C 188.088 189.101,195.792 176.222,188.575 172.830 C 187.663 172.402,186.150 171.135,185.213 170.016 C 182.325 166.566,180.909 165.978,175.686 166.060 C 169.880 166.152,169.097 165.688,166.134 160.400 C 162.727 154.319,157.003 151.430,150.800 152.661 M255.989 160.282 C 254.676 161.187,254.201 161.814,252.980 164.253 C 250.875 168.457,247.517 169.860,244.486 167.800 C 239.901 164.685,235.492 168.483,235.430 175.600 C 235.365 183.037,238.815 184.294,243.800 178.651 C 247.695 174.243,250.476 173.556,254.938 175.900 C 261.807 179.510,267.416 176.865,267.387 170.030 C 267.357 163.049,260.492 157.178,255.989 160.282 M205.571 172.369 C 200.139 175.323,196.925 184.355,200.106 187.728 C 204.260 192.132,210.925 187.067,212.380 178.400 C 213.277 173.056,209.865 170.034,205.571 172.369 " stroke="none" fill="#d2d5a6" fill-rule="evenodd"></path><path id="path2" d="M142.600 135.303 C 139.472 135.918,134.789 138.418,130.146 141.950 C 129.677 142.308,128.887 142.870,128.391 143.200 C 124.325 145.905,117.409 153.105,114.175 158.000 C 112.649 160.310,111.310 162.290,111.200 162.400 C 110.593 163.007,104.800 174.314,104.800 174.892 C 104.800 175.105,104.512 175.936,104.159 176.740 C 102.331 180.907,100.964 185.562,100.208 190.200 C 99.849 192.400,99.394 195.100,99.198 196.200 C 97.216 207.275,97.189 232.070,99.151 239.200 C 99.363 239.970,99.841 242.040,100.213 243.800 C 100.585 245.560,101.050 247.313,101.245 247.695 C 101.440 248.077,101.600 248.831,101.600 249.371 C 101.600 249.911,101.780 250.464,102.000 250.600 C 102.220 250.736,102.400 251.105,102.400 251.421 C 102.400 253.575,103.758 255.139,106.382 256.008 C 119.274 260.278,127.032 261.671,144.400 262.834 C 154.416 263.504,178.143 262.811,185.561 261.631 C 187.012 261.400,190.900 260.834,194.200 260.372 C 197.500 259.910,202.270 259.175,204.800 258.739 C 207.330 258.302,210.930 257.703,212.800 257.408 C 220.092 256.256,232.933 252.805,237.400 250.797 C 237.840 250.600,239.383 250.085,240.829 249.654 C 242.275 249.223,244.568 248.403,245.925 247.832 C 247.282 247.260,249.249 246.504,250.296 246.151 C 251.343 245.798,254.720 244.293,257.800 242.806 C 260.880 241.320,264.840 239.417,266.600 238.579 C 268.360 237.741,271.311 236.188,273.157 235.128 C 275.004 234.068,276.553 233.200,276.600 233.200 C 276.757 233.200,283.360 229.342,287.525 226.816 C 291.138 224.625,298.169 219.607,301.236 217.030 C 302.895 215.636,303.769 198.913,302.513 192.600 C 302.250 191.280,301.849 189.120,301.622 187.800 C 300.520 181.413,295.437 168.202,292.696 164.600 C 287.915 158.320,284.293 154.453,281.000 152.113 C 277.009 149.276,269.400 146.497,263.000 145.539 C 257.435 144.705,256.126 144.712,250.962 145.604 C 242.940 146.988,241.555 147.485,234.000 151.692 C 227.332 155.405,215.451 157.319,208.400 155.817 C 202.982 154.662,203.440 154.846,191.664 149.120 C 182.887 144.852,177.880 143.372,173.533 143.761 C 170.695 144.015,170.145 143.705,170.885 142.269 C 171.441 141.189,171.086 140.668,169.146 139.716 C 161.356 135.892,149.571 133.933,142.600 135.303 M162.241 146.824 C 168.839 148.006,176.489 150.349,183.400 153.308 C 198.750 159.878,210.005 161.177,223.200 157.902 C 242.288 153.164,253.545 153.835,263.496 160.304 C 264.505 160.960,264.557 160.891,264.979 158.341 C 266.389 149.829,282.229 155.092,285.207 165.061 C 287.049 171.228,281.288 175.016,273.397 172.828 C 269.988 171.882,270.275 171.514,270.218 176.901 C 270.060 191.860,260.228 205.238,246.200 209.582 C 241.348 211.084,230.075 212.229,226.127 211.620 C 224.627 211.388,221.960 211.021,220.200 210.804 C 218.440 210.586,215.470 210.061,213.600 209.636 C 211.730 209.211,209.210 208.644,208.000 208.376 C 206.790 208.108,204.200 207.382,202.244 206.763 C 191.133 203.247,174.893 200.401,169.012 200.939 C 160.810 201.689,159.090 201.999,149.800 204.410 C 135.764 208.053,124.675 205.387,119.486 197.120 C 116.772 192.797,115.673 181.098,117.352 174.400 C 121.419 158.173,136.507 147.311,156.719 146.057 C 157.224 146.026,159.709 146.371,162.241 146.824 M231.943 264.909 C 229.397 266.650,226.586 268.878,224.248 271.008 C 222.285 272.795,211.494 281.305,209.679 282.496 C 206.617 284.505,205.776 284.435,201.637 281.823 C 199.740 280.626,197.879 279.529,197.502 279.384 C 196.853 279.135,193.578 280.448,192.524 281.379 C 192.262 281.611,191.452 282.206,190.724 282.703 C 189.996 283.200,187.690 284.881,185.600 286.439 C 178.967 291.385,178.355 291.510,171.471 289.335 C 168.427 288.374,166.419 287.438,154.200 281.285 C 151.560 279.956,148.703 278.552,147.851 278.165 L 146.303 277.463 144.585 279.307 C 143.640 280.322,142.717 281.418,142.533 281.743 C 142.185 282.360,139.323 285.737,136.621 288.719 C 134.363 291.211,133.358 291.621,129.784 291.515 C 128.109 291.465,126.652 291.283,126.546 291.112 C 126.440 290.940,126.185 290.800,125.979 290.800 C 125.537 290.800,126.739 292.294,129.100 294.678 C 130.035 295.623,130.800 296.557,130.800 296.755 C 130.800 296.953,131.071 297.218,131.401 297.345 C 131.732 297.472,132.519 298.390,133.150 299.385 C 133.781 300.380,135.895 302.584,137.849 304.282 C 139.802 305.981,141.149 307.058,140.843 306.675 C 139.794 305.367,140.760 305.509,143.698 307.094 C 155.891 313.670,178.633 317.212,184.678 313.475 C 184.886 313.347,185.649 313.602,186.373 314.042 C 188.745 315.484,188.039 314.595,185.473 312.908 C 182.480 310.940,181.514 309.515,182.503 308.525 C 183.255 307.774,184.348 308.101,190.200 310.829 C 194.603 312.883,199.319 314.815,199.495 314.638 C 199.576 314.558,198.237 313.913,196.521 313.205 C 191.250 311.031,191.902 310.675,198.400 312.178 C 213.862 315.755,234.678 314.360,246.268 308.969 C 247.551 308.373,250.997 306.740,253.926 305.342 C 260.093 302.399,260.126 302.390,258.575 304.080 C 257.929 304.783,258.825 304.108,260.567 302.580 C 264.486 299.140,271.221 291.718,272.668 289.244 C 273.262 288.230,273.939 287.207,274.174 286.971 C 274.408 286.735,275.050 285.881,275.600 285.074 C 276.150 284.266,276.735 283.604,276.900 283.603 C 278.251 283.590,276.433 281.374,273.337 279.262 C 269.267 276.483,267.587 276.801,259.465 281.885 C 254.354 285.085,251.477 286.783,249.278 287.898 C 246.909 289.100,247.231 289.744,241.608 272.600 C 238.099 261.902,237.285 261.255,231.943 264.909 M188.400 314.983 C 188.400 315.257,192.012 317.321,192.186 317.147 C 192.268 317.065,191.450 316.503,190.368 315.899 C 189.286 315.295,188.400 314.883,188.400 314.983 M168.500 318.676 C 168.885 318.776,169.515 318.776,169.900 318.676 C 170.285 318.575,169.970 318.493,169.200 318.493 C 168.430 318.493,168.115 318.575,168.500 318.676 M181.900 318.682 C 182.395 318.778,183.205 318.778,183.700 318.682 C 184.195 318.587,183.790 318.509,182.800 318.509 C 181.810 318.509,181.405 318.587,181.900 318.682 M224.900 318.676 C 225.285 318.776,225.915 318.776,226.300 318.676 C 226.685 318.575,226.370 318.493,225.600 318.493 C 224.830 318.493,224.515 318.575,224.900 318.676 " stroke="none" fill="#da3126" fill-rule="evenodd"></path><path id="path3" d="M150.200 147.200 C 149.760 147.389,148.826 147.556,148.124 147.572 C 147.422 147.587,146.742 147.770,146.614 147.977 C 146.486 148.184,145.576 148.475,144.591 148.622 C 143.606 148.770,142.800 149.050,142.800 149.245 C 142.800 149.440,142.438 149.600,141.995 149.600 C 141.552 149.600,140.877 149.766,140.495 149.969 C 140.113 150.173,138.540 150.938,137.000 151.669 C 135.460 152.401,134.140 153.135,134.067 153.300 C 133.993 153.465,133.678 153.600,133.367 153.600 C 133.055 153.600,132.800 153.768,132.800 153.973 C 132.800 154.178,132.477 154.448,132.083 154.574 C 131.689 154.699,129.913 156.196,128.137 157.901 C 122.919 162.908,119.609 168.165,118.376 173.400 C 118.116 174.500,117.821 176.480,117.719 177.800 C 117.616 179.120,117.368 180.371,117.166 180.580 C 116.965 180.789,116.800 181.878,116.800 183.000 C 116.800 184.122,116.965 185.211,117.166 185.420 C 117.368 185.629,117.615 186.880,117.715 188.200 C 117.991 191.833,119.712 196.702,121.179 198.000 C 121.303 198.110,121.877 198.835,122.455 199.612 C 123.033 200.388,124.202 201.378,125.053 201.812 C 125.904 202.245,126.690 202.702,126.800 202.827 C 128.155 204.362,140.223 205.775,143.954 204.836 C 144.749 204.635,146.750 204.173,148.400 203.809 C 150.050 203.445,152.627 202.783,154.127 202.337 C 155.627 201.891,158.327 201.372,160.127 201.183 C 161.927 200.994,164.840 200.634,166.600 200.383 C 171.804 199.641,184.425 200.963,192.400 203.086 C 193.610 203.409,195.320 203.851,196.200 204.070 C 197.080 204.289,198.160 204.611,198.600 204.785 C 204.684 207.196,217.487 209.823,227.000 210.614 C 237.043 211.448,251.571 207.946,256.200 203.574 C 256.640 203.158,258.022 201.869,259.271 200.709 C 261.206 198.912,265.200 193.690,265.200 192.958 C 265.200 192.829,265.826 191.404,266.591 189.791 C 268.864 185.002,269.681 180.983,269.517 175.400 L 269.400 171.400 270.800 171.439 C 271.570 171.460,273.621 171.864,275.358 172.337 C 286.980 175.501,287.770 160.935,276.235 156.190 C 275.336 155.821,274.287 155.356,273.905 155.159 C 271.958 154.153,267.041 155.050,266.574 156.497 C 266.030 158.177,265.989 159.432,266.449 160.291 C 267.215 161.723,266.414 162.234,264.746 161.375 L 263.400 160.683 264.629 161.841 C 273.626 170.321,265.825 181.909,254.798 176.447 C 252.352 175.235,251.120 174.834,250.400 175.014 C 248.122 175.585,245.711 176.901,245.083 177.916 C 240.121 185.945,234.040 183.698,234.930 174.166 C 235.523 167.815,239.850 164.429,244.151 166.950 C 247.702 169.031,250.316 167.979,252.738 163.493 C 254.453 160.317,255.888 159.221,258.400 159.167 L 260.200 159.128 258.800 158.747 C 258.030 158.538,256.500 158.033,255.400 157.625 C 250.589 155.840,248.983 155.562,243.358 155.539 C 237.970 155.518,231.092 156.352,229.505 157.220 C 229.123 157.429,228.279 157.600,227.629 157.600 C 226.979 157.600,226.342 157.770,226.214 157.977 C 226.086 158.184,224.722 158.478,223.182 158.629 C 221.642 158.781,220.286 159.061,220.168 159.253 C 220.049 159.444,219.502 159.600,218.950 159.600 C 218.399 159.600,217.600 159.786,217.176 160.013 C 215.316 161.008,201.044 160.344,199.400 159.186 C 199.180 159.031,197.878 158.782,196.507 158.633 C 193.068 158.259,189.568 156.999,183.000 153.771 C 181.900 153.230,180.855 152.790,180.678 152.794 C 180.501 152.797,179.514 152.416,178.485 151.948 C 175.552 150.611,166.976 148.256,163.097 147.722 C 162.271 147.609,161.495 147.355,161.374 147.158 C 161.093 146.703,151.270 146.740,150.200 147.200 M158.074 152.521 C 161.940 154.015,163.759 155.608,166.580 159.970 C 169.922 165.135,170.380 165.426,174.989 165.305 C 180.096 165.170,181.854 165.833,185.198 169.154 C 186.663 170.610,188.682 172.275,189.685 172.856 C 193.179 174.880,193.146 178.052,189.581 182.907 C 186.250 187.444,183.947 188.365,180.018 186.732 C 177.960 185.877,177.889 185.874,175.264 186.561 C 166.017 188.982,164.598 188.781,159.981 184.395 C 155.899 180.518,156.488 180.449,147.600 185.830 C 135.113 193.390,127.563 191.154,128.111 180.057 C 128.919 163.666,146.089 147.887,158.074 152.521 M211.228 172.107 C 215.791 175.182,210.967 188.782,204.965 189.764 C 198.873 190.760,196.300 184.907,199.797 178.007 C 202.700 172.277,207.672 169.711,211.228 172.107 M255.200 304.720 C 242.822 310.844,240.372 311.661,229.000 313.455 C 220.537 314.790,207.305 314.238,198.400 312.178 C 191.576 310.599,191.277 311.006,197.366 313.582 C 208.294 318.205,217.411 319.969,224.176 318.770 C 225.509 318.534,228.130 318.066,230.000 317.731 C 238.988 316.117,247.403 312.273,256.600 305.578 C 260.942 302.417,260.456 302.119,255.200 304.720 M140.400 305.953 C 140.400 306.299,142.942 308.400,143.361 308.400 C 143.479 308.400,144.796 309.187,146.288 310.148 C 149.580 312.270,151.879 313.336,160.600 316.786 C 166.571 319.147,183.836 319.582,190.336 317.535 L 191.671 317.115 190.336 316.295 C 187.380 314.483,184.901 313.233,184.687 313.447 C 184.129 314.005,177.524 315.180,174.896 315.190 C 167.195 315.217,150.863 310.989,143.806 307.141 C 140.863 305.537,140.400 305.375,140.400 305.953 " stroke="none" fill="#e96552" fill-rule="evenodd"></path><path id="path4" d="M168.000 127.784 C 167.670 127.865,165.510 128.147,163.200 128.410 C 156.138 129.213,153.797 129.830,145.264 133.136 C 123.990 141.379,108.377 159.335,101.038 184.000 C 95.183 203.674,95.789 236.809,102.299 253.000 C 108.893 269.400,111.988 274.984,121.272 287.241 L 123.576 290.283 126.553 290.792 C 133.745 292.022,133.933 291.921,141.501 282.733 C 146.551 276.602,145.579 276.750,153.732 280.862 C 177.273 292.732,177.016 292.696,186.600 285.488 C 196.183 278.281,196.216 278.272,201.471 281.520 C 206.861 284.852,208.004 284.572,215.021 278.200 C 215.264 277.980,216.958 276.630,218.786 275.200 C 220.615 273.770,224.021 271.000,226.356 269.045 C 237.819 259.443,237.534 259.272,244.045 279.600 C 247.391 290.048,246.440 289.791,257.101 283.128 C 263.361 279.215,267.308 277.201,268.713 277.200 C 270.628 277.200,275.893 280.370,277.291 282.366 C 277.831 283.137,277.848 283.136,278.395 282.274 C 281.683 277.099,285.019 271.472,285.774 269.828 C 286.286 268.713,287.422 266.270,288.297 264.400 C 289.658 261.495,291.944 256.263,293.804 251.800 C 294.280 250.659,296.240 244.513,298.205 238.000 C 299.171 234.797,300.576 228.808,301.206 225.200 C 301.418 223.990,301.871 221.560,302.212 219.800 C 304.194 209.597,304.257 197.509,302.375 189.000 C 299.703 176.919,297.473 171.173,292.597 163.800 C 283.708 150.362,264.606 138.909,246.600 136.224 C 244.180 135.863,241.105 135.395,239.767 135.184 C 238.429 134.973,235.435 134.800,233.113 134.800 L 228.892 134.800 226.463 137.397 C 222.407 141.732,217.331 149.864,218.162 150.695 C 218.665 151.199,226.954 149.533,233.323 147.649 C 236.640 146.668,237.329 146.844,237.122 148.621 L 236.969 149.928 238.785 149.009 C 243.057 146.848,254.274 144.520,258.362 144.946 C 265.657 145.706,271.374 147.166,276.400 149.552 C 282.316 152.360,285.891 155.661,292.696 164.600 C 295.437 168.202,300.520 181.413,301.622 187.800 C 301.849 189.120,302.250 191.280,302.513 192.600 C 303.769 198.913,302.895 215.636,301.236 217.030 C 298.169 219.607,291.138 224.625,287.525 226.816 C 283.360 229.342,276.757 233.200,276.600 233.200 C 276.553 233.200,275.004 234.068,273.157 235.128 C 271.311 236.188,268.360 237.741,266.600 238.579 C 264.840 239.417,260.880 241.320,257.800 242.806 C 254.720 244.293,251.343 245.798,250.296 246.151 C 249.249 246.504,247.282 247.260,245.925 247.832 C 244.568 248.403,242.275 249.223,240.829 249.654 C 239.383 250.085,237.840 250.600,237.400 250.797 C 232.933 252.805,220.092 256.256,212.800 257.408 C 210.930 257.703,207.330 258.302,204.800 258.739 C 202.270 259.175,197.500 259.910,194.200 260.372 C 190.900 260.834,187.012 261.400,185.561 261.631 C 178.143 262.811,154.416 263.504,144.400 262.834 C 127.032 261.671,119.274 260.278,106.382 256.008 C 103.758 255.139,102.400 253.575,102.400 251.421 C 102.400 251.105,102.220 250.736,102.000 250.600 C 101.780 250.464,101.600 249.911,101.600 249.371 C 101.600 248.831,101.440 248.077,101.245 247.695 C 101.050 247.313,100.585 245.560,100.213 243.800 C 99.841 242.040,99.363 239.970,99.151 239.200 C 97.189 232.070,97.216 207.275,99.198 196.200 C 99.394 195.100,99.849 192.400,100.208 190.200 C 100.964 185.562,102.331 180.907,104.159 176.740 C 104.512 175.936,104.800 175.105,104.800 174.892 C 104.800 174.314,110.593 163.007,111.200 162.400 C 111.310 162.290,112.649 160.310,114.175 158.000 C 117.409 153.105,124.325 145.905,128.391 143.200 C 128.887 142.870,129.677 142.308,130.146 141.950 C 138.922 135.273,144.505 133.786,154.662 135.420 C 161.741 136.559,168.969 138.969,170.801 140.801 C 171.483 141.483,171.643 141.490,173.265 140.907 C 178.621 138.982,184.676 140.022,193.504 144.385 C 200.723 147.952,200.977 147.735,198.595 140.019 C 195.622 130.387,196.085 130.772,184.800 128.556 C 182.056 128.018,169.413 127.436,168.000 127.784 " stroke="none" fill="#ac2014" fill-rule="evenodd"></path><path id="path5" d="M169.705 80.687 C 170.314 80.779,171.214 80.777,171.705 80.682 C 172.197 80.587,171.700 80.511,170.600 80.514 C 169.500 80.517,169.097 80.595,169.705 80.687 M179.300 80.676 C 179.685 80.776,180.315 80.776,180.700 80.676 C 181.085 80.575,180.770 80.493,180.000 80.493 C 179.230 80.493,178.915 80.575,179.300 80.676 M193.500 84.289 C 194.215 84.378,195.385 84.378,196.100 84.289 C 196.815 84.201,196.230 84.128,194.800 84.128 C 193.370 84.128,192.785 84.201,193.500 84.289 M211.500 100.300 C 211.234 100.905,210.923 101.490,210.808 101.600 C 210.468 101.927,209.625 103.339,209.233 104.238 C 209.032 104.698,207.901 106.228,206.721 107.638 C 203.698 111.246,202.176 113.282,201.867 114.131 C 201.641 114.752,203.651 121.939,204.795 124.600 C 205.493 126.224,205.558 128.965,204.934 130.393 C 203.894 132.770,203.660 133.367,203.398 134.300 C 202.939 135.939,202.867 135.835,200.062 129.505 C 199.698 128.682,199.265 128.007,199.100 128.005 C 198.935 128.002,198.800 127.682,198.800 127.293 C 198.800 126.904,198.359 125.937,197.821 125.144 C 197.282 124.352,196.722 123.230,196.577 122.651 C 196.432 122.073,196.153 121.600,195.957 121.600 C 195.760 121.600,195.600 121.412,195.600 121.183 C 195.600 120.520,194.319 119.358,192.800 118.642 C 191.480 118.020,191.453 118.020,192.326 118.657 C 193.783 119.719,195.382 122.242,199.362 129.760 C 199.933 130.837,200.403 132.007,200.407 132.360 C 200.417 133.319,202.246 138.149,202.649 138.280 C 203.096 138.425,206.400 128.936,206.400 127.510 C 206.400 126.923,205.500 123.868,204.400 120.721 C 203.300 117.575,202.400 114.879,202.400 114.732 C 202.400 114.585,203.726 112.691,205.346 110.524 C 208.813 105.888,211.050 102.457,211.841 100.563 C 212.517 98.947,212.201 98.703,211.500 100.300 M112.662 101.931 C 111.209 103.537,112.835 105.038,115.653 104.693 L 117.000 104.528 115.474 104.464 C 112.694 104.347,111.761 103.369,113.062 101.931 C 113.426 101.529,113.634 101.200,113.524 101.200 C 113.414 101.200,113.026 101.529,112.662 101.931 M122.600 105.613 C 124.140 105.771,126.570 105.895,128.000 105.888 C 130.525 105.876,130.501 105.867,127.200 105.578 C 125.330 105.414,122.900 105.290,121.800 105.303 C 120.059 105.323,120.163 105.363,122.600 105.613 M225.200 106.387 C 221.932 108.900,225.623 118.357,230.898 120.989 C 234.177 122.625,237.784 119.041,237.011 114.916 C 235.829 108.617,228.852 103.578,225.200 106.387 M134.100 106.287 C 134.705 106.378,135.695 106.378,136.300 106.287 C 136.905 106.195,136.410 106.120,135.200 106.120 C 133.990 106.120,133.495 106.195,134.100 106.287 M138.900 106.691 C 139.725 106.778,141.075 106.778,141.900 106.691 C 142.725 106.605,142.050 106.534,140.400 106.534 C 138.750 106.534,138.075 106.605,138.900 106.691 M144.500 107.076 C 144.885 107.176,145.515 107.176,145.900 107.076 C 146.285 106.975,145.970 106.893,145.200 106.893 C 144.430 106.893,144.115 106.975,144.500 107.076 M148.433 107.349 C 148.525 107.431,149.500 107.601,150.600 107.728 C 151.949 107.884,152.274 107.849,151.600 107.620 C 150.601 107.280,148.118 107.068,148.433 107.349 M156.580 109.013 C 158.769 109.563,160.740 109.953,160.960 109.880 C 161.422 109.726,156.565 108.536,154.200 108.224 C 153.320 108.108,154.391 108.463,156.580 109.013 M161.600 110.098 C 161.889 110.402,168.472 112.061,168.657 111.877 C 168.742 111.792,167.684 111.428,166.306 111.069 C 162.734 110.138,161.370 109.856,161.600 110.098 M169.800 112.350 C 170.240 112.535,171.320 112.799,172.200 112.937 C 173.215 113.095,173.508 113.064,173.000 112.850 C 172.560 112.665,171.480 112.401,170.600 112.263 C 169.585 112.105,169.292 112.136,169.800 112.350 M174.433 113.354 C 174.725 113.624,181.295 115.238,181.454 115.080 C 181.538 114.996,180.188 114.539,178.455 114.064 C 175.500 113.254,174.048 112.998,174.433 113.354 M218.605 115.592 C 218.052 116.468,217.600 117.286,217.600 117.411 C 217.600 117.536,216.970 118.623,216.200 119.827 C 215.430 121.031,214.799 122.147,214.798 122.308 C 214.797 122.468,214.347 123.486,213.798 124.568 C 213.249 125.650,212.800 126.672,212.800 126.839 C 212.800 127.182,210.313 132.809,209.400 134.532 C 209.070 135.155,208.800 135.923,208.800 136.238 C 208.800 136.553,208.632 137.123,208.426 137.505 C 208.037 138.228,206.591 142.504,205.374 146.536 C 204.533 149.318,204.492 149.273,208.712 150.212 C 212.362 151.024,212.167 151.175,215.167 145.201 C 218.085 139.390,221.440 134.252,224.141 131.456 C 226.848 128.654,228.969 126.312,229.319 125.738 C 229.491 125.455,228.942 124.887,227.900 124.270 C 225.355 122.764,223.046 120.142,221.409 116.900 C 219.690 113.495,219.875 113.581,218.605 115.592 M183.838 115.984 C 184.959 116.383,186.489 116.817,187.238 116.949 C 187.987 117.080,187.250 116.744,185.600 116.202 C 182.150 115.067,180.791 114.899,183.838 115.984 M188.833 117.344 C 188.925 117.423,189.540 117.608,190.200 117.756 C 191.076 117.952,191.238 117.915,190.800 117.618 C 190.260 117.253,188.432 116.998,188.833 117.344 M196.425 133.512 C 196.411 133.794,196.853 135.101,197.407 136.417 C 199.451 141.274,200.417 146.632,199.300 146.924 C 198.644 147.096,198.645 147.110,199.313 147.154 C 200.962 147.261,200.123 141.190,197.792 136.156 C 197.475 135.472,197.044 134.482,196.833 133.956 C 196.623 133.430,196.439 133.230,196.425 133.512 M175.200 140.413 C 174.554 140.629,174.980 140.666,176.400 140.519 C 177.610 140.394,178.675 140.226,178.767 140.146 C 179.087 139.865,176.191 140.083,175.200 140.413 M179.233 140.144 C 179.325 140.224,180.480 140.395,181.800 140.524 C 183.324 140.674,183.908 140.631,183.400 140.408 C 182.643 140.075,178.879 139.837,179.233 140.144 M172.200 141.262 C 169.461 142.760,170.108 144.093,173.410 143.755 C 175.152 143.576,176.837 143.702,178.865 144.162 C 183.398 145.189,184.109 145.466,191.800 149.190 C 202.819 154.526,204.340 155.127,208.973 155.969 C 217.104 157.446,234.342 153.662,236.894 149.840 C 237.522 148.899,237.149 148.782,236.038 149.573 C 235.399 150.028,234.727 150.400,234.545 150.400 C 234.362 150.400,233.220 150.882,232.006 151.471 C 229.302 152.783,228.820 152.965,225.800 153.811 C 224.480 154.180,222.860 154.652,222.200 154.859 C 217.003 156.486,207.103 155.432,200.966 152.597 C 199.302 151.829,197.685 151.200,197.371 151.200 C 197.057 151.200,196.800 151.020,196.800 150.800 C 196.800 150.580,196.575 150.392,196.300 150.383 C 196.025 150.374,194.810 149.837,193.600 149.190 C 189.147 146.810,184.635 144.708,182.825 144.170 C 179.547 143.197,174.788 142.422,173.576 142.665 C 172.164 142.947,172.017 142.313,173.289 141.423 C 174.324 140.698,173.464 140.571,172.200 141.262 M187.200 141.734 C 187.200 141.837,187.781 142.124,188.491 142.372 C 189.201 142.619,189.606 142.657,189.391 142.456 C 188.935 142.029,187.200 141.458,187.200 141.734 M190.400 142.984 C 190.400 143.094,191.120 143.551,192.000 144.000 C 192.880 144.449,193.600 144.726,193.600 144.616 C 193.600 144.506,192.880 144.049,192.000 143.600 C 191.120 143.151,190.400 142.874,190.400 142.984 M195.600 145.800 C 196.590 146.330,197.580 146.764,197.800 146.764 C 198.020 146.764,197.390 146.330,196.400 145.800 C 195.410 145.270,194.420 144.836,194.200 144.836 C 193.980 144.836,194.610 145.270,195.600 145.800 M235.400 147.011 C 235.180 147.093,233.952 147.455,232.670 147.817 C 231.389 148.178,230.432 148.566,230.544 148.678 C 230.656 148.790,231.672 148.575,232.802 148.199 C 233.931 147.824,235.383 147.595,236.028 147.689 C 237.274 147.872,237.627 147.449,236.567 147.043 C 236.219 146.909,235.904 146.814,235.867 146.832 C 235.830 146.849,235.620 146.930,235.400 147.011 M227.600 149.200 C 226.796 149.457,226.757 149.523,227.400 149.532 C 227.840 149.538,228.560 149.389,229.000 149.200 C 230.019 148.762,228.968 148.762,227.600 149.200 M221.800 150.400 C 220.722 150.674,220.702 150.706,221.600 150.713 C 222.150 150.717,223.050 150.576,223.600 150.400 C 224.944 149.969,223.492 149.969,221.800 150.400 M268.100 277.476 C 268.485 277.576,269.115 277.576,269.500 277.476 C 269.885 277.375,269.570 277.293,268.800 277.293 C 268.030 277.293,267.715 277.375,268.100 277.476 M276.500 281.831 C 277.222 282.689,277.427 283.598,276.900 283.603 C 276.735 283.604,276.150 284.266,275.600 285.074 C 275.050 285.881,274.408 286.735,274.174 286.971 C 273.939 287.207,273.262 288.230,272.668 289.244 C 269.864 294.037,260.380 303.356,254.000 307.587 C 250.378 309.989,248.064 311.772,250.600 310.206 C 260.004 304.401,267.629 297.198,274.634 287.502 C 277.932 282.938,277.968 282.836,276.700 281.762 C 275.801 281.001,275.801 281.001,276.500 281.831 M246.412 287.051 C 246.393 287.763,247.491 288.484,248.281 288.279 C 248.857 288.130,248.826 288.084,248.120 288.046 C 247.636 288.021,247.056 287.685,246.832 287.300 C 246.608 286.915,246.419 286.803,246.412 287.051 M124.067 290.776 C 124.207 291.171,131.706 299.343,133.816 301.400 C 136.038 303.566,142.814 308.919,143.044 308.689 C 143.167 308.566,142.914 308.275,142.480 308.043 C 140.693 307.087,134.239 301.103,133.162 299.404 C 132.524 298.399,131.732 297.472,131.401 297.345 C 131.071 297.218,130.800 296.966,130.800 296.784 C 130.800 296.602,129.810 295.432,128.600 294.182 C 126.213 291.718,125.931 291.152,127.263 291.500 C 127.882 291.662,128.039 291.586,127.819 291.231 C 127.637 290.936,127.124 290.833,126.556 290.975 C 126.017 291.111,125.600 291.038,125.600 290.808 C 125.600 290.583,125.225 290.400,124.767 290.400 C 124.308 290.400,123.993 290.569,124.067 290.776 M130.100 291.487 C 130.705 291.578,131.695 291.578,132.300 291.487 C 132.905 291.395,132.410 291.320,131.200 291.320 C 129.990 291.320,129.495 291.395,130.100 291.487 M182.389 308.614 C 181.550 309.625,182.651 311.057,185.919 313.202 C 190.281 316.065,193.163 317.489,193.510 316.952 C 193.778 316.537,194.583 316.341,198.436 315.749 C 199.338 315.610,200.884 315.841,202.597 316.370 C 204.095 316.833,205.403 317.131,205.501 317.032 C 205.600 316.933,204.954 316.657,204.067 316.418 C 202.050 315.875,194.383 312.796,190.400 310.930 C 184.071 307.964,183.149 307.698,182.389 308.614 M144.200 309.407 C 144.640 309.766,145.360 310.235,145.800 310.451 L 146.600 310.844 145.800 310.193 C 145.360 309.834,144.640 309.365,144.200 309.149 L 143.400 308.756 144.200 309.407 M154.358 314.837 C 155.325 315.266,156.188 315.545,156.275 315.458 C 156.448 315.286,153.365 313.982,152.892 314.028 C 152.731 314.044,153.391 314.408,154.358 314.837 M240.600 315.042 C 239.280 315.585,238.661 315.937,239.223 315.826 C 240.479 315.577,243.200 314.461,243.200 314.195 C 243.200 313.954,243.441 313.875,240.600 315.042 M160.400 317.182 C 160.730 317.405,161.345 317.591,161.767 317.594 C 162.790 317.602,162.471 317.373,161.000 317.044 C 160.124 316.848,159.962 316.885,160.400 317.182 M233.600 317.200 C 232.776 317.464,232.741 317.526,233.400 317.554 C 233.840 317.573,234.470 317.413,234.800 317.200 C 235.501 316.747,235.014 316.747,233.600 317.200 M206.600 317.600 C 207.040 317.789,207.670 317.944,208.000 317.944 C 208.378 317.944,208.304 317.817,207.800 317.600 C 207.360 317.411,206.730 317.256,206.400 317.256 C 206.022 317.256,206.096 317.383,206.600 317.600 M165.400 318.381 C 166.168 318.729,168.310 318.956,167.967 318.653 C 167.875 318.572,167.080 318.396,166.200 318.262 C 165.085 318.093,164.842 318.129,165.400 318.381 M185.800 318.400 L 184.200 318.686 185.600 318.703 C 186.370 318.713,187.450 318.576,188.000 318.400 C 189.285 317.988,188.099 317.988,185.800 318.400 M209.800 318.400 C 210.460 318.568,211.450 318.705,212.000 318.705 C 212.892 318.705,212.870 318.672,211.800 318.400 C 211.140 318.232,210.150 318.095,209.600 318.095 C 208.708 318.095,208.730 318.128,209.800 318.400 M227.800 318.400 C 226.711 318.677,226.693 318.707,227.600 318.725 C 228.150 318.735,228.960 318.589,229.400 318.400 C 230.386 317.976,229.466 317.976,227.800 318.400 M179.500 319.082 C 179.995 319.178,180.805 319.178,181.300 319.082 C 181.795 318.987,181.390 318.909,180.400 318.909 C 179.410 318.909,179.005 318.987,179.500 319.082 M173.511 319.493 C 174.451 319.578,175.891 319.577,176.711 319.491 C 177.530 319.405,176.760 319.336,175.000 319.337 C 173.240 319.339,172.570 319.409,173.511 319.493 M217.712 319.495 C 218.764 319.577,220.384 319.576,221.312 319.492 C 222.240 319.408,221.380 319.341,219.400 319.342 C 217.420 319.343,216.660 319.412,217.712 319.495 " stroke="none" fill="#8c271f" fill-rule="evenodd"></path><path id="path6" d="M171.000 80.638 C 160.028 81.730,140.433 87.011,130.891 91.448 C 129.291 92.191,127.867 92.800,127.725 92.800 C 126.327 92.800,112.993 101.432,112.530 102.637 C 111.880 104.333,115.313 104.873,133.800 105.980 C 147.946 106.828,152.533 107.509,163.840 110.439 C 167.338 111.346,171.370 112.357,172.800 112.687 C 186.681 115.886,195.600 119.195,195.600 121.146 C 195.600 121.396,195.760 121.600,195.957 121.600 C 196.153 121.600,196.432 122.073,196.577 122.651 C 196.722 123.230,197.282 124.352,197.821 125.144 C 198.359 125.937,198.800 126.799,198.800 127.060 C 198.800 127.320,199.008 127.603,199.262 127.687 C 199.516 127.772,200.019 128.732,200.380 129.821 C 201.939 134.522,202.926 135.986,203.398 134.300 C 203.660 133.367,203.894 132.770,204.934 130.393 C 205.558 128.965,205.493 126.224,204.795 124.600 C 203.651 121.939,201.641 114.752,201.867 114.131 C 202.176 113.282,203.698 111.246,206.721 107.638 C 207.901 106.228,209.032 104.698,209.233 104.238 C 209.625 103.339,210.468 101.927,210.808 101.600 C 210.923 101.490,211.598 100.230,212.309 98.800 C 217.171 89.020,210.737 83.169,196.297 84.240 C 193.727 84.431,192.603 84.336,191.200 83.811 C 183.414 80.897,177.592 79.982,171.000 80.638 M175.682 81.600 L 177.299 81.600 177.061 83.700 C 176.930 84.855,176.617 86.880,176.366 88.200 C 175.406 93.248,175.352 93.124,179.056 94.371 C 180.847 94.974,183.211 96.127,184.310 96.934 C 185.408 97.740,186.421 98.400,186.559 98.400 C 186.906 98.400,188.800 94.197,188.800 93.426 C 188.800 93.082,188.980 92.800,189.200 92.800 C 189.420 92.800,189.600 92.451,189.600 92.024 C 189.600 91.597,189.759 91.149,189.954 91.029 C 190.148 90.908,190.428 90.006,190.576 89.023 C 190.723 88.040,191.117 86.687,191.451 86.018 L 192.059 84.800 197.806 84.800 C 201.206 84.800,203.654 84.963,203.800 85.200 C 203.936 85.420,204.660 85.600,205.410 85.600 C 208.036 85.600,211.725 88.086,212.220 90.188 C 213.331 94.906,213.198 95.802,210.971 98.600 C 209.272 100.734,203.322 106.677,200.927 108.633 C 196.518 112.231,195.875 113.055,196.110 114.804 C 196.375 116.780,195.988 116.810,194.310 114.944 C 193.589 114.143,192.818 113.288,192.596 113.044 C 192.374 112.800,190.534 110.620,188.508 108.200 C 183.647 102.393,180.323 99.797,176.156 98.550 C 173.219 97.671,150.128 97.532,144.400 98.358 C 138.663 99.187,127.176 101.217,123.800 101.999 C 118.644 103.194,117.492 103.331,117.679 102.726 C 118.225 100.959,129.246 97.421,140.400 95.433 C 142.490 95.061,144.833 94.591,145.606 94.390 C 147.087 94.005,155.064 93.294,162.800 92.859 L 167.400 92.600 167.344 91.400 C 167.314 90.740,167.087 88.501,166.840 86.425 C 166.524 83.769,166.516 82.523,166.814 82.225 C 167.233 81.805,172.504 81.210,173.533 81.467 C 173.826 81.540,174.793 81.600,175.682 81.600 " stroke="none" fill="#618a3f" fill-rule="evenodd"></path><path id="path7" d="M152.400 146.393 C 149.314 146.643,143.200 148.161,143.200 148.678 C 143.200 148.971,146.109 148.401,146.600 148.012 C 147.256 147.492,149.885 147.159,155.600 146.872 C 159.703 146.665,160.616 146.529,159.400 146.304 C 157.660 145.983,157.428 145.986,152.400 146.393 M161.346 147.113 C 161.483 147.334,162.271 147.609,163.097 147.722 C 166.976 148.256,175.552 150.611,178.485 151.948 C 179.514 152.416,180.501 152.797,180.678 152.794 C 180.855 152.790,181.900 153.230,183.000 153.771 C 189.568 156.999,193.068 158.259,196.507 158.633 C 197.878 158.782,199.180 159.031,199.400 159.186 C 201.044 160.344,215.316 161.008,217.176 160.013 C 217.600 159.786,218.399 159.600,218.950 159.600 C 219.502 159.600,220.049 159.444,220.168 159.253 C 220.286 159.061,221.642 158.781,223.182 158.629 C 224.722 158.478,226.086 158.184,226.214 157.977 C 226.342 157.770,226.979 157.600,227.629 157.600 C 228.279 157.600,229.123 157.429,229.505 157.220 C 231.092 156.352,237.970 155.518,243.358 155.539 C 248.978 155.562,250.557 155.835,255.400 157.620 C 257.660 158.453,260.499 159.234,260.665 159.068 C 260.726 159.007,259.404 158.368,257.728 157.647 C 248.188 153.545,240.560 153.600,223.200 157.898 C 209.841 161.206,198.893 159.899,182.800 153.075 C 174.479 149.547,160.439 145.645,161.346 147.113 M138.298 150.390 C 124.207 156.709,116.546 168.312,116.635 183.200 C 116.706 195.204,120.224 201.409,128.600 204.303 C 135.089 206.546,141.449 206.578,149.800 204.410 C 159.090 201.999,160.810 201.689,169.012 200.939 C 174.893 200.401,191.133 203.247,202.244 206.763 C 204.200 207.382,206.790 208.108,208.000 208.376 C 209.210 208.644,211.730 209.211,213.600 209.636 C 215.470 210.061,218.440 210.586,220.200 210.804 C 221.960 211.021,224.627 211.388,226.127 211.620 C 230.075 212.229,241.348 211.084,246.200 209.582 C 260.228 205.238,270.060 191.860,270.218 176.901 C 270.275 171.514,269.988 171.882,273.397 172.828 C 281.288 175.016,287.049 171.228,285.207 165.061 C 282.229 155.092,266.389 149.829,264.979 158.341 C 264.549 160.937,264.535 160.949,262.979 159.987 C 262.197 159.504,261.485 159.182,261.396 159.271 C 261.306 159.360,262.321 160.032,263.651 160.763 C 266.324 162.232,267.391 162.052,266.449 160.291 C 265.989 159.432,266.030 158.177,266.574 156.497 C 267.041 155.050,271.958 154.153,273.905 155.159 C 274.287 155.356,275.336 155.821,276.235 156.190 C 287.770 160.935,286.980 175.501,275.358 172.337 C 273.621 171.864,271.570 171.460,270.800 171.439 L 269.400 171.400 269.517 175.400 C 269.681 180.983,268.864 185.002,266.591 189.791 C 265.826 191.404,265.200 192.829,265.200 192.958 C 265.200 193.690,261.206 198.912,259.271 200.709 C 258.022 201.869,256.640 203.158,256.200 203.574 C 251.571 207.946,237.043 211.448,227.000 210.614 C 217.487 209.823,204.684 207.196,198.600 204.785 C 198.160 204.611,197.080 204.289,196.200 204.070 C 195.320 203.851,193.610 203.409,192.400 203.086 C 184.425 200.963,171.804 199.641,166.600 200.383 C 164.840 200.634,161.927 200.994,160.127 201.183 C 158.327 201.372,155.627 201.891,154.127 202.337 C 152.627 202.783,150.050 203.445,148.400 203.809 C 146.750 204.173,144.749 204.635,143.954 204.836 C 140.223 205.775,128.155 204.362,126.800 202.827 C 126.690 202.702,125.904 202.245,125.053 201.812 C 124.202 201.378,123.033 200.388,122.455 199.612 C 121.877 198.835,121.303 198.110,121.179 198.000 C 119.712 196.702,117.991 191.833,117.715 188.200 C 117.615 186.880,117.368 185.629,117.166 185.420 C 116.965 185.211,116.800 184.122,116.800 183.000 C 116.800 181.878,116.965 180.789,117.166 180.580 C 117.368 180.371,117.616 179.120,117.719 177.800 C 118.134 172.435,119.534 168.689,122.951 163.800 C 124.993 160.878,130.843 154.967,132.083 154.574 C 132.477 154.448,132.800 154.178,132.800 153.973 C 132.800 153.768,133.055 153.600,133.367 153.600 C 133.678 153.600,133.993 153.465,134.067 153.300 C 134.140 153.135,135.460 152.401,137.000 151.669 C 138.540 150.938,140.113 150.173,140.495 149.969 C 140.877 149.766,141.552 149.600,141.995 149.600 C 142.438 149.600,142.800 149.420,142.800 149.200 C 142.800 148.528,141.945 148.754,138.298 150.390 " stroke="none" fill="#eb5c54" fill-rule="evenodd"></path><path id="path8" d="M156.900 97.887 C 157.505 97.978,158.495 97.978,159.100 97.887 C 159.705 97.795,159.210 97.720,158.000 97.720 C 156.790 97.720,156.295 97.795,156.900 97.887 M165.905 97.883 C 166.402 97.979,167.122 97.975,167.505 97.875 C 167.887 97.775,167.480 97.696,166.600 97.701 C 165.720 97.705,165.407 97.787,165.905 97.883 M171.105 97.883 C 171.602 97.979,172.322 97.975,172.705 97.875 C 173.087 97.775,172.680 97.696,171.800 97.701 C 170.920 97.705,170.607 97.787,171.105 97.883 M141.300 98.676 C 141.685 98.776,142.315 98.776,142.700 98.676 C 143.085 98.575,142.770 98.493,142.000 98.493 C 141.230 98.493,140.915 98.575,141.300 98.676 M150.000 152.221 C 132.689 155.936,119.734 186.167,133.790 190.048 C 136.781 190.874,141.802 189.341,147.600 185.830 C 156.488 180.449,155.899 180.518,159.981 184.395 C 164.598 188.781,166.017 188.982,175.264 186.561 C 177.889 185.874,177.960 185.877,180.018 186.732 C 183.947 188.365,186.250 187.444,189.581 182.907 C 193.146 178.052,193.179 174.880,189.685 172.856 C 188.682 172.275,186.663 170.610,185.198 169.154 C 181.854 165.833,180.096 165.170,174.989 165.305 C 170.380 165.426,169.922 165.135,166.580 159.970 C 162.036 152.945,157.188 150.679,150.000 152.221 M159.800 153.916 C 162.657 155.348,164.173 156.900,166.134 160.400 C 169.097 165.688,169.880 166.152,175.686 166.060 C 180.909 165.978,182.325 166.566,185.213 170.016 C 186.150 171.135,187.663 172.402,188.575 172.830 C 195.792 176.222,188.088 189.101,180.518 186.301 L 177.800 185.295 175.000 186.074 C 166.525 188.431,164.586 188.109,159.904 183.570 C 156.167 179.947,157.078 179.798,146.800 185.715 C 130.402 195.156,123.489 186.690,132.214 167.853 C 137.547 156.340,151.036 149.526,159.800 153.916 M255.400 159.995 C 254.740 160.430,253.542 162.004,252.738 163.493 C 250.316 167.979,247.702 169.031,244.151 166.950 C 239.850 164.429,235.523 167.815,234.930 174.166 C 234.040 183.698,240.121 185.945,245.083 177.916 C 245.711 176.901,248.122 175.585,250.400 175.014 C 251.120 174.834,252.352 175.235,254.798 176.447 C 260.603 179.322,264.360 178.613,267.221 174.102 C 271.629 167.151,261.994 155.654,255.400 159.995 M261.480 160.208 C 266.552 162.327,269.306 170.559,266.273 174.538 C 263.625 178.014,259.828 178.470,254.938 175.900 C 250.476 173.556,247.695 174.243,243.800 178.651 C 238.815 184.294,235.365 183.037,235.430 175.600 C 235.492 168.483,239.901 164.685,244.486 167.800 C 247.517 169.860,250.875 168.457,252.980 164.253 C 255.223 159.770,257.659 158.611,261.480 160.208 M205.171 171.991 C 199.472 175.004,196.154 184.974,199.731 188.336 C 204.399 192.721,211.501 187.331,212.914 178.330 C 213.825 172.526,210.032 169.421,205.171 171.991 M211.144 172.698 C 214.090 174.898,212.151 183.546,207.816 187.543 C 203.732 191.307,198.552 189.040,198.874 183.628 C 199.343 175.755,206.591 169.298,211.144 172.698 " stroke="none" fill="#f49c94" fill-rule="evenodd"></path></g></svg>