<svg id="svg" xmlns="http://www.w3.org/2000/svg" xmlns:xlink="http://www.w3.org/1999/xlink" width="400" height="400" viewBox="0, 0, 400,400" version="1.1"><g id="svgg"><path id="path0" d="M163.200 79.754 C 158.314 80.158,157.613 80.314,155.839 81.400 C 153.375 82.908,148.907 87.039,148.140 88.519 C 147.820 89.135,146.849 90.281,145.980 91.066 C 145.111 91.851,144.400 92.706,144.400 92.965 C 144.400 93.225,143.665 94.149,142.767 95.019 C 141.869 95.888,140.865 97.113,140.537 97.739 C 140.208 98.365,139.314 99.427,138.549 100.098 C 137.785 100.770,136.889 101.841,136.559 102.479 C 136.229 103.117,135.249 104.281,134.380 105.066 C 133.511 105.851,132.800 106.681,132.800 106.910 C 132.800 107.140,131.855 108.379,130.700 109.663 C 125.678 115.249,124.800 116.297,124.800 116.709 C 124.800 116.949,123.900 117.997,122.800 119.039 C 121.700 120.080,120.799 121.128,120.797 121.366 C 120.795 121.605,119.990 122.590,119.006 123.556 C 118.023 124.521,117.117 125.630,116.994 126.020 C 116.870 126.410,116.144 127.205,115.381 127.788 C 114.617 128.370,113.652 129.511,113.236 130.323 C 112.820 131.135,111.912 132.217,111.219 132.728 C 110.525 133.238,109.751 134.138,109.498 134.728 C 109.245 135.317,108.174 136.676,107.119 137.746 C 106.064 138.817,105.200 139.927,105.200 140.213 C 105.200 140.499,104.501 141.286,103.647 141.962 C 102.794 142.639,101.815 143.781,101.474 144.502 C 101.132 145.222,100.303 146.217,99.633 146.713 C 98.962 147.208,98.117 148.196,97.755 148.907 C 97.394 149.618,96.487 150.711,95.740 151.336 C 94.994 151.961,94.105 153.011,93.764 153.669 C 93.424 154.327,92.348 155.630,91.373 156.564 C 90.398 157.499,89.600 158.534,89.600 158.864 C 89.600 159.195,88.861 160.060,87.959 160.785 C 87.056 161.510,86.111 162.583,85.859 163.170 C 85.606 163.756,84.643 164.916,83.717 165.749 C 82.791 166.581,81.914 167.653,81.767 168.131 C 81.620 168.609,80.889 169.511,80.142 170.136 C 79.395 170.761,78.492 171.841,78.136 172.536 C 77.779 173.231,76.804 174.390,75.967 175.111 C 75.131 175.832,74.322 176.822,74.169 177.311 C 74.016 177.800,73.191 178.803,72.335 179.540 C 71.479 180.277,70.500 181.420,70.159 182.079 C 69.818 182.738,68.912 183.828,68.146 184.501 C 66.741 185.735,65.200 188.273,65.200 189.353 C 65.200 189.675,64.727 190.501,64.148 191.189 C 62.628 192.995,62.356 206.196,63.802 207.952 C 64.276 208.529,64.908 209.890,65.206 210.978 C 65.591 212.382,66.316 213.542,67.708 214.978 C 68.786 216.090,69.914 217.468,70.214 218.041 C 70.514 218.613,71.385 219.630,72.149 220.302 C 72.914 220.973,73.805 222.035,74.129 222.661 C 74.454 223.287,75.458 224.462,76.360 225.271 C 77.262 226.080,78.000 227.004,78.000 227.324 C 78.000 227.645,78.711 228.549,79.580 229.334 C 80.449 230.119,81.429 231.283,81.759 231.921 C 82.089 232.559,82.985 233.630,83.749 234.302 C 84.514 234.973,85.418 236.062,85.759 236.721 C 86.100 237.380,87.079 238.523,87.935 239.260 C 88.791 239.997,89.616 241.000,89.769 241.489 C 89.922 241.978,90.731 242.968,91.567 243.689 C 92.404 244.410,93.365 245.540,93.704 246.200 C 94.042 246.860,95.058 248.062,95.960 248.871 C 96.862 249.680,97.600 250.609,97.600 250.937 C 97.600 251.264,98.366 252.222,99.302 253.066 C 100.238 253.910,101.273 255.123,101.602 255.761 C 101.931 256.400,102.875 257.465,103.700 258.128 C 104.525 258.791,105.200 259.605,105.200 259.936 C 105.200 260.266,105.998 261.301,106.973 262.236 C 107.948 263.170,109.031 264.486,109.379 265.160 C 109.728 265.834,110.568 266.794,111.247 267.293 C 111.925 267.792,112.823 268.871,113.243 269.690 C 113.663 270.510,114.563 271.590,115.243 272.090 C 115.923 272.591,116.818 273.660,117.231 274.466 C 117.644 275.273,118.529 276.322,119.197 276.798 C 119.865 277.274,120.664 278.151,120.973 278.748 C 121.281 279.344,122.268 280.545,123.166 281.416 C 124.065 282.287,124.799 283.223,124.800 283.495 C 124.800 283.767,125.700 284.894,126.800 286.000 C 127.900 287.106,128.800 288.180,128.800 288.386 C 128.800 288.593,129.655 289.667,130.700 290.773 C 131.745 291.879,133.500 293.878,134.600 295.214 C 135.700 296.551,137.455 298.565,138.500 299.690 C 139.545 300.815,140.400 301.883,140.400 302.064 C 140.400 302.244,141.295 303.428,142.388 304.696 C 143.481 305.963,145.236 308.041,146.288 309.313 C 151.809 315.992,155.560 319.200,157.850 319.200 C 158.419 319.200,159.901 319.453,161.142 319.761 C 172.937 322.693,183.309 317.959,186.472 308.200 C 187.284 305.696,187.294 292.334,186.485 291.525 C 186.218 291.258,186.000 290.796,186.000 290.498 C 186.000 289.700,183.029 285.464,181.663 284.315 C 181.015 283.769,180.204 282.781,179.862 282.120 C 179.520 281.459,178.615 280.370,177.851 279.698 C 177.086 279.027,176.192 277.965,175.863 277.339 C 175.535 276.713,174.531 275.510,173.633 274.666 C 172.735 273.823,172.000 272.899,172.000 272.613 C 172.000 272.327,171.289 271.451,170.420 270.666 C 169.551 269.881,168.571 268.717,168.241 268.079 C 167.911 267.441,167.015 266.370,166.251 265.698 C 165.486 265.027,164.586 263.947,164.251 263.298 C 163.915 262.650,163.015 261.570,162.251 260.898 C 161.486 260.227,160.581 259.136,160.239 258.475 C 159.897 257.813,159.006 256.761,158.260 256.136 C 157.513 255.511,156.613 254.431,156.260 253.736 C 155.906 253.041,155.005 251.961,154.258 251.336 C 153.511 250.711,152.780 249.809,152.633 249.331 C 152.486 248.853,151.609 247.781,150.683 246.949 C 149.757 246.116,148.794 244.956,148.541 244.370 C 148.289 243.783,147.344 242.710,146.441 241.985 C 145.539 241.260,144.800 240.421,144.800 240.123 C 144.800 239.824,143.994 238.773,143.010 237.789 C 142.025 236.804,140.943 235.462,140.603 234.807 C 140.264 234.151,139.432 233.206,138.753 232.707 C 138.075 232.208,137.177 231.129,136.757 230.310 C 136.337 229.490,135.451 228.418,134.788 227.928 C 134.125 227.438,133.209 226.404,132.753 225.631 C 132.297 224.857,131.311 223.701,130.562 223.061 C 129.813 222.422,129.200 221.557,129.200 221.141 C 129.200 220.399,131.267 220.384,226.101 220.409 C 333.812 220.438,324.336 220.686,328.800 217.712 C 332.853 215.012,335.226 212.067,336.464 208.200 C 337.217 205.850,337.260 192.786,336.520 191.400 C 336.285 190.960,335.876 190.132,335.611 189.560 C 334.003 186.091,329.836 182.424,325.285 180.472 L 323.171 179.565 226.185 179.591 C 132.007 179.616,129.200 179.595,129.200 178.875 C 129.200 178.468,129.939 177.540,130.841 176.815 C 131.744 176.090,132.689 175.006,132.941 174.406 C 133.194 173.807,133.991 172.818,134.714 172.210 C 135.437 171.602,136.315 170.541,136.666 169.852 C 137.016 169.164,137.913 168.089,138.660 167.464 C 139.406 166.839,140.295 165.789,140.636 165.131 C 140.976 164.473,142.052 163.170,143.027 162.236 C 144.002 161.301,144.800 160.266,144.800 159.936 C 144.800 159.605,145.520 158.756,146.399 158.049 C 147.279 157.342,148.278 156.223,148.619 155.563 C 148.961 154.902,149.944 153.726,150.803 152.950 C 151.663 152.173,152.490 151.147,152.641 150.669 C 152.793 150.191,153.700 149.110,154.658 148.266 C 155.616 147.422,156.400 146.464,156.400 146.137 C 156.400 145.809,157.138 144.880,158.040 144.071 C 158.942 143.262,159.946 142.087,160.271 141.461 C 160.595 140.835,161.486 139.773,162.251 139.102 C 163.015 138.430,163.915 137.350,164.251 136.702 C 164.586 136.053,165.486 134.973,166.251 134.302 C 167.015 133.630,167.911 132.559,168.241 131.921 C 168.571 131.283,169.551 130.119,170.420 129.334 C 171.289 128.549,172.000 127.693,172.000 127.432 C 172.000 127.171,172.652 126.337,173.449 125.578 C 174.246 124.820,175.230 123.660,175.637 123.000 C 176.043 122.340,177.107 120.990,178.002 120.000 C 186.819 110.238,187.141 109.497,187.032 99.200 C 186.988 95.095,186.779 91.869,186.525 91.400 C 186.288 90.960,185.876 90.132,185.611 89.560 C 184.211 86.540,179.116 81.696,177.262 81.622 C 176.966 81.610,176.246 81.268,175.662 80.861 C 173.135 79.103,172.150 79.016,163.200 79.754 " stroke="none" fill="#049c9c" fill-rule="evenodd"></path><path id="path1" d="" stroke="none" fill="#089c9c" fill-rule="evenodd"></path><path id="path2" d="" stroke="none" fill="#089c9c" fill-rule="evenodd"></path><path id="path3" d="" stroke="none" fill="#089c9c" fill-rule="evenodd"></path></g></svg>