<svg id="svg" xmlns="http://www.w3.org/2000/svg" xmlns:xlink="http://www.w3.org/1999/xlink" width="400" height="390.6341463414634" viewBox="0, 0, 400,390.6341463414634" version="1.1"><g id="svgg"><path id="path0" d="M164.195 43.192 C 163.390 43.287,162.732 43.513,162.732 43.695 C 162.732 43.876,161.784 44.323,160.625 44.688 C 159.466 45.052,156.349 46.736,153.698 48.430 C 151.047 50.123,148.571 51.510,148.195 51.511 C 147.820 51.511,147.468 51.516,147.415 51.521 C 147.361 51.526,146.470 51.785,145.434 52.096 C 142.921 52.853,141.373 52.020,141.629 50.049 C 141.720 49.351,141.534 49.391,136.577 51.151 C 134.113 52.025,131.571 52.920,130.927 53.140 C 130.283 53.360,129.229 53.765,128.585 54.040 C 127.941 54.314,125.922 55.106,124.098 55.799 C 119.731 57.457,118.634 58.048,118.634 58.742 C 118.634 59.058,118.400 59.317,118.114 59.317 C 117.656 59.317,112.910 61.197,107.707 63.438 C 99.651 66.910,91.707 72.522,91.707 74.742 C 91.707 76.469,86.816 81.663,82.341 84.689 C 78.702 87.150,76.469 89.551,74.851 92.742 C 74.073 94.277,72.341 96.911,71.002 98.595 C 60.222 112.160,48.821 134.454,44.091 151.220 C 43.849 152.078,43.393 153.659,43.078 154.732 C 41.947 158.586,41.061 162.176,40.833 163.832 C 40.705 164.760,40.428 166.165,40.216 166.954 C 40.005 167.744,39.756 169.005,39.662 169.756 C 39.569 170.507,39.390 171.737,39.266 172.488 C 38.505 177.077,37.961 181.792,37.624 186.732 C 37.507 188.449,37.266 190.512,37.089 191.316 C 36.758 192.817,36.857 206.884,37.225 210.732 C 37.338 211.912,37.532 214.031,37.655 215.441 C 37.778 216.850,37.953 218.431,38.044 218.953 C 38.506 221.617,39.059 224.645,39.288 225.756 C 39.376 226.185,39.705 227.854,40.019 229.463 C 40.333 231.073,40.868 233.520,41.209 234.901 C 41.550 236.282,41.888 237.687,41.960 238.023 C 42.561 240.829,46.373 252.672,47.450 255.083 C 47.753 255.760,48.000 256.433,48.000 256.579 C 48.000 257.202,50.336 262.459,53.825 269.692 C 55.129 272.393,56.195 274.821,56.195 275.088 C 56.195 278.466,70.177 297.052,82.827 310.491 C 87.170 315.105,88.896 317.346,91.802 322.146 C 93.306 324.630,93.973 325.188,96.539 326.114 C 98.103 326.678,98.640 326.832,100.324 327.203 C 102.207 327.618,103.003 328.028,106.341 330.307 C 113.841 335.428,121.653 339.961,128.780 343.329 C 132.324 345.003,134.018 345.746,138.829 347.735 C 139.312 347.934,140.102 348.272,140.585 348.486 C 141.807 349.027,153.130 352.667,155.902 353.411 C 160.136 354.546,161.191 354.785,165.854 355.665 C 167.678 356.009,169.610 356.385,170.146 356.500 C 170.683 356.616,171.649 356.786,172.293 356.879 C 175.787 357.384,176.724 357.507,178.146 357.650 C 183.697 358.207,185.365 358.362,186.927 358.467 C 189.995 358.673,204.222 358.683,206.049 358.481 C 207.015 358.374,209.210 358.172,210.927 358.033 C 233.937 356.170,259.317 347.168,278.829 333.950 C 308.415 313.907,331.665 282.349,340.859 249.756 C 342.568 243.697,343.492 240.012,344.380 235.707 C 345.416 230.690,345.503 230.206,345.945 226.989 C 346.088 225.950,346.267 224.779,346.342 224.387 C 346.418 223.995,346.596 222.386,346.740 220.813 C 346.883 219.239,347.134 216.722,347.298 215.220 C 347.578 212.654,347.485 192.246,347.180 189.268 C 347.103 188.517,346.912 186.585,346.756 184.976 C 346.451 181.842,346.425 181.634,345.771 177.171 C 345.235 173.515,345.019 172.183,344.749 170.857 C 344.632 170.282,344.465 169.316,344.379 168.711 C 344.189 167.370,344.008 166.577,341.865 157.659 C 340.426 151.668,336.346 139.723,334.035 134.736 C 333.613 133.826,333.268 133.002,333.268 132.905 C 333.268 132.433,329.687 125.277,327.102 120.585 C 315.162 98.913,297.379 81.320,273.561 67.618 C 269.351 65.196,256.570 58.869,254.829 58.345 C 254.293 58.183,253.678 57.922,253.463 57.765 C 253.249 57.608,252.546 57.291,251.902 57.061 C 251.259 56.830,249.766 56.269,248.585 55.813 C 245.832 54.750,241.081 53.230,238.829 52.691 C 237.863 52.460,236.766 52.188,236.390 52.087 C 235.141 51.750,232.743 51.160,231.610 50.910 C 231.180 50.816,230.390 50.634,229.854 50.507 C 228.105 50.094,225.395 49.542,224.000 49.315 C 223.249 49.193,222.543 49.038,222.431 48.969 C 222.319 48.901,221.441 48.731,220.480 48.591 C 219.518 48.451,217.151 48.003,215.220 47.596 C 213.288 47.188,211.268 46.771,210.732 46.669 C 210.195 46.566,208.527 46.206,207.024 45.868 C 205.522 45.530,203.766 45.152,203.122 45.030 C 202.478 44.907,201.106 44.541,200.072 44.217 C 199.039 43.893,198.106 43.715,198.000 43.821 C 197.893 43.928,198.914 44.382,200.269 44.831 C 201.623 45.280,202.293 45.611,201.756 45.567 C 201.220 45.523,200.595 45.603,200.369 45.744 C 200.142 45.885,199.264 45.840,198.417 45.644 C 196.435 45.184,194.919 45.167,196.069 45.618 C 196.769 45.892,196.774 45.931,196.131 46.177 C 195.752 46.322,195.289 46.347,195.102 46.231 C 194.731 46.002,189.067 44.685,185.951 44.104 C 184.878 43.904,183.561 43.621,183.024 43.475 C 181.897 43.170,166.377 42.936,164.195 43.192 M169.348 44.657 C 172.433 44.964,172.598 45.099,170.804 45.849 C 168.977 46.612,167.844 46.596,166.958 45.793 C 166.278 45.178,165.922 43.856,166.537 44.229 C 166.698 44.327,167.963 44.519,169.348 44.657 M206.110 51.568 C 217.665 58.431,225.973 61.714,228.165 60.282 C 229.334 59.519,232.050 60.482,236.720 63.317 C 240.677 65.718,243.441 67.029,245.199 67.339 C 245.845 67.453,246.539 67.649,246.742 67.774 C 246.945 67.900,248.494 67.984,250.184 67.963 L 253.257 67.923 259.019 71.403 C 262.450 73.475,265.211 75.431,265.845 76.239 C 266.540 77.125,267.652 77.874,269.046 78.395 C 272.754 79.783,283.160 87.702,292.377 96.151 C 301.878 104.861,313.292 118.171,314.669 122.146 C 315.004 123.112,315.912 125.727,316.688 127.958 C 319.747 136.753,324.148 143.944,326.572 144.109 C 328.276 144.225,329.861 148.578,329.516 152.194 C 328.915 158.496,329.345 161.114,330.701 159.413 C 332.423 157.254,334.501 160.063,332.843 162.306 C 331.668 163.894,331.732 166.349,333.045 170.066 C 333.370 170.988,333.753 172.624,333.896 173.701 L 334.156 175.659 335.403 174.450 C 336.099 173.775,336.666 173.463,336.686 173.743 C 336.705 174.018,336.812 174.836,336.923 175.560 C 337.124 176.863,337.114 176.873,335.817 176.663 C 334.147 176.392,334.091 176.468,334.470 178.498 C 334.644 179.430,334.898 181.224,335.034 182.486 C 335.663 188.345,335.438 187.814,337.099 187.338 C 338.182 187.027,338.349 187.078,338.400 187.735 C 338.432 188.149,338.476 188.707,338.498 188.976 C 338.519 189.244,338.098 189.490,337.561 189.523 C 337.024 189.555,336.394 189.599,336.159 189.620 C 335.370 189.691,334.240 194.820,334.389 197.659 C 334.504 199.867,335.197 200.453,337.026 199.891 C 338.676 199.385,339.107 199.521,338.922 200.489 C 338.850 200.864,338.778 201.497,338.762 201.895 C 338.740 202.428,338.551 202.546,338.049 202.339 C 336.141 201.553,336.192 201.452,336.253 205.931 C 336.321 210.969,336.661 215.197,337.127 216.824 C 337.465 218.002,337.412 220.751,337.013 222.760 C 336.898 223.335,336.705 224.595,336.584 225.561 C 335.984 230.320,335.556 231.426,334.006 232.217 C 331.448 233.522,330.734 235.480,331.752 238.401 C 332.178 239.621,332.206 239.633,332.980 238.947 C 333.898 238.132,333.863 238.601,332.730 242.341 C 330.809 248.681,330.201 250.253,328.961 252.098 C 325.535 257.193,322.558 263.919,323.462 264.520 C 324.340 265.102,321.270 271.795,317.380 277.779 C 316.586 279.000,315.600 280.615,315.188 281.366 C 314.582 282.472,313.340 284.416,312.721 285.226 C 312.657 285.311,312.347 285.166,312.032 284.905 C 311.556 284.510,311.218 284.809,310.006 286.703 C 301.991 299.220,297.456 304.943,291.902 309.553 C 278.842 320.392,270.424 326.578,263.662 330.306 C 262.617 330.881,261.476 331.639,261.126 331.989 C 260.311 332.804,251.451 337.037,246.634 338.913 C 244.595 339.707,242.312 340.605,241.561 340.908 C 238.972 341.953,235.119 342.986,233.949 342.949 C 233.304 342.928,232.396 343.032,231.932 343.179 C 231.467 343.327,230.720 343.518,230.273 343.604 C 229.825 343.690,228.362 344.048,227.022 344.399 C 225.682 344.749,224.150 345.121,223.618 345.225 C 223.086 345.329,222.552 345.574,222.431 345.769 C 222.310 345.965,221.516 346.229,220.667 346.356 C 219.817 346.484,218.507 346.742,217.756 346.930 C 217.005 347.119,214.674 347.234,212.577 347.187 C 209.618 347.120,208.807 347.213,208.955 347.599 C 209.087 347.944,208.698 348.113,207.695 348.147 C 206.897 348.175,205.805 348.266,205.268 348.349 C 201.235 348.977,190.155 348.645,188.293 347.840 C 185.242 346.522,182.048 346.223,182.630 347.309 C 183.067 348.125,180.820 348.221,177.951 347.507 C 177.629 347.427,176.400 347.247,175.220 347.106 C 174.039 346.966,172.973 346.789,172.851 346.714 C 172.729 346.639,171.763 346.462,170.705 346.320 C 169.646 346.178,168.669 345.996,168.533 345.914 C 168.397 345.833,167.608 345.659,166.780 345.527 C 165.951 345.395,164.803 345.045,164.229 344.748 C 163.127 344.178,158.906 342.528,158.244 342.409 C 158.029 342.370,156.577 341.957,155.017 341.492 C 153.456 341.026,151.539 340.563,150.755 340.463 C 149.972 340.363,148.829 340.192,148.216 340.084 C 146.286 339.744,142.089 338.021,140.774 337.029 C 139.251 335.880,136.903 334.876,135.052 334.581 C 132.403 334.160,127.587 331.349,124.209 328.251 C 120.446 324.800,117.599 323.122,115.508 323.122 C 113.509 323.122,108.899 319.799,102.539 313.775 C 99.838 311.217,96.941 308.773,96.100 308.343 C 92.358 306.435,75.902 287.330,75.902 284.895 C 75.902 284.221,75.576 283.763,74.845 283.410 C 72.771 282.408,64.421 268.202,60.341 258.732 C 59.740 257.337,58.934 255.493,58.550 254.634 C 57.086 251.361,53.042 238.593,52.871 236.706 C 52.556 233.214,52.256 230.084,52.104 228.683 C 51.793 225.814,51.085 220.658,50.926 220.098 C 50.835 219.776,50.668 218.985,50.557 218.341 C 50.277 216.730,48.948 212.174,48.495 211.275 C 47.526 209.350,47.571 189.460,48.557 184.341 C 48.641 183.905,48.818 182.596,48.950 181.433 C 49.361 177.800,49.913 174.116,50.182 173.202 C 50.386 172.511,50.605 171.475,50.952 169.561 C 51.211 168.133,51.580 166.701,52.861 162.146 C 53.404 160.215,53.857 158.546,53.868 158.439 C 53.984 157.298,56.429 148.919,57.000 147.707 C 57.202 147.278,57.793 145.698,58.312 144.195 C 64.821 125.370,78.690 104.718,94.829 89.818 C 101.992 83.205,113.880 74.012,117.854 72.011 C 118.605 71.633,119.571 71.015,120.000 70.638 C 121.857 69.008,139.432 60.125,141.257 59.894 C 143.523 59.607,145.561 58.885,145.561 58.368 C 145.561 57.683,146.525 57.316,147.022 57.812 C 147.275 58.066,148.993 57.865,152.045 57.224 C 158.836 55.799,161.268 55.525,173.268 54.841 C 175.307 54.724,177.854 54.545,178.927 54.442 C 180.000 54.339,182.073 54.153,183.534 54.028 C 184.995 53.903,186.488 53.746,186.851 53.678 C 187.215 53.611,188.829 53.341,190.439 53.079 C 195.344 52.278,201.756 50.290,201.756 49.571 C 201.756 48.980,201.742 48.974,206.110 51.568 M111.220 171.080 C 110.448 171.324,108.920 172.467,107.707 173.710 C 104.501 176.995,101.905 178.829,100.842 178.562 C 100.051 178.364,99.892 178.567,99.334 180.487 C 98.991 181.668,98.560 182.634,98.376 182.634 C 98.193 182.634,98.042 183.117,98.041 183.707 C 98.039 184.298,97.946 185.153,97.832 185.609 C 97.718 186.065,97.527 187.031,97.407 187.755 C 97.287 188.480,97.042 189.600,96.863 190.244 C 96.407 191.877,96.672 194.307,97.463 195.744 C 98.123 196.941,101.687 199.514,104.988 201.177 C 110.379 203.892,111.922 204.085,111.522 201.993 C 111.337 201.023,111.407 200.976,113.023 200.976 L 114.719 200.976 114.099 202.276 C 113.632 203.256,112.758 203.953,110.560 205.099 C 108.954 205.936,107.549 206.769,107.438 206.950 C 107.180 207.366,111.455 205.171,114.537 203.304 C 115.824 202.524,117.317 201.657,117.854 201.378 L 118.829 200.870 117.883 201.898 C 115.994 203.952,119.706 202.764,124.192 199.880 C 126.338 198.500,126.921 197.854,126.020 197.854 C 125.790 197.854,126.141 197.199,126.801 196.399 C 127.460 195.599,128.000 194.649,128.000 194.287 C 128.000 193.926,129.117 192.254,130.483 190.572 C 134.188 186.006,135.235 183.127,131.906 186.658 L 130.365 188.293 131.131 186.721 C 132.126 184.682,132.430 181.933,131.798 180.695 C 131.198 179.520,128.818 177.853,128.122 178.120 C 127.836 178.230,127.360 177.820,127.027 177.177 C 126.264 175.700,126.268 175.685,127.415 175.904 C 128.705 176.151,128.647 175.611,127.238 174.262 C 126.604 173.654,126.121 172.990,126.165 172.786 C 126.472 171.341,114.667 169.994,111.220 171.080 M267.122 171.602 C 265.223 171.750,265.076 171.855,261.659 175.488 C 259.182 178.121,257.863 179.236,257.187 179.270 C 256.087 179.324,255.568 180.904,255.882 183.235 C 255.981 183.974,255.860 185.191,255.613 185.941 C 254.420 189.556,255.422 193.524,258.401 196.977 C 259.334 198.059,260.567 199.629,261.140 200.467 C 262.670 202.703,267.517 204.682,268.516 203.479 C 268.836 203.093,269.192 203.069,269.981 203.381 C 270.555 203.607,272.561 203.807,274.439 203.824 C 277.711 203.855,277.854 203.893,277.854 204.734 C 277.854 206.181,278.545 206.156,279.075 204.689 C 279.565 203.335,280.585 202.788,280.585 203.879 C 280.585 205.133,281.368 204.675,284.759 201.438 C 288.641 197.732,289.398 196.235,289.068 192.925 C 288.976 192.003,289.014 191.318,289.152 191.403 C 289.290 191.488,289.658 191.394,289.970 191.194 C 290.602 190.787,289.731 189.898,289.089 190.295 C 288.559 190.622,288.076 188.747,288.440 187.779 C 288.891 186.582,288.871 185.756,288.390 185.756 C 288.176 185.756,288.000 186.055,288.000 186.420 C 288.000 187.636,287.289 186.389,287.177 184.976 C 287.117 184.224,286.976 183.434,286.863 183.220 C 286.749 183.005,286.603 182.478,286.537 182.049 C 286.397 181.143,284.488 179.082,284.488 179.837 C 284.488 180.113,284.309 180.228,284.091 180.094 C 283.873 179.959,283.796 179.685,283.919 179.485 C 284.043 179.285,283.970 179.122,283.757 179.122 C 283.544 179.122,282.973 178.563,282.486 177.881 C 282.000 177.198,281.813 176.769,282.070 176.928 C 283.074 177.549,282.465 176.408,281.199 175.297 C 280.463 174.651,279.952 174.032,280.062 173.922 C 281.185 172.799,272.269 171.200,267.122 171.602 M115.122 173.268 C 113.462 174.177,113.130 174.219,113.411 173.486 C 113.636 172.900,114.375 172.599,115.707 172.549 C 116.261 172.529,116.091 172.738,115.122 173.268 M271.220 173.659 C 271.639 173.929,271.661 174.039,271.298 174.043 C 271.020 174.046,270.067 174.399,269.182 174.827 C 267.298 175.737,267.127 175.673,267.755 174.294 C 268.253 173.201,270.013 172.879,271.220 173.659 M144.821 234.552 C 143.920 235.205,143.081 236.005,142.956 236.331 C 142.831 236.656,142.481 236.828,142.179 236.712 C 140.988 236.255,140.626 240.699,141.704 242.526 C 142.131 243.249,142.564 244.337,142.668 244.945 C 143.726 251.127,147.910 257.074,154.537 261.811 C 155.502 262.502,157.346 264.275,158.634 265.752 C 162.435 270.112,165.945 272.153,163.671 268.682 C 162.730 267.247,163.146 266.829,164.621 267.726 C 165.433 268.220,165.845 268.729,165.712 269.075 C 165.427 269.817,166.734 270.792,170.836 272.895 L 174.244 274.642 179.902 274.859 C 183.015 274.978,185.912 275.154,186.341 275.251 C 188.891 275.826,203.374 276.221,205.224 275.766 C 207.163 275.289,206.856 274.754,204.562 274.611 C 203.121 274.521,201.881 274.029,202.764 273.898 C 205.761 273.452,207.474 273.758,208.948 275.000 C 210.491 276.300,211.118 276.491,213.262 276.314 C 214.911 276.178,216.242 275.404,218.214 273.432 C 219.157 272.489,220.537 271.409,221.281 271.032 C 222.025 270.656,222.985 270.044,223.415 269.674 C 223.844 269.303,225.337 268.325,226.732 267.500 C 229.899 265.629,232.107 263.917,235.187 260.945 C 236.865 259.326,237.789 258.698,238.240 258.871 C 238.712 259.053,238.848 258.936,238.744 258.438 C 238.666 258.063,239.073 256.947,239.648 255.959 C 240.223 254.970,240.820 253.566,240.974 252.837 C 241.129 252.108,241.600 251.136,242.021 250.677 C 242.443 250.217,243.099 248.637,243.481 247.165 C 243.862 245.692,244.552 243.663,245.014 242.656 C 246.767 238.831,245.531 235.432,242.514 235.784 C 241.370 235.918,241.170 235.822,241.169 235.141 C 241.167 234.513,240.979 234.642,240.291 235.744 C 234.097 245.659,225.441 252.644,208.780 261.172 C 205.024 263.095,200.820 265.457,199.437 266.422 C 197.016 268.112,196.869 268.160,195.434 267.730 C 193.790 267.238,184.662 262.748,180.683 260.475 C 179.288 259.678,177.532 258.676,176.780 258.247 C 172.926 256.049,169.777 253.651,164.150 248.630 C 157.160 242.392,151.165 237.744,148.171 236.240 C 145.657 234.978,145.807 235.145,146.324 234.180 C 146.894 233.113,146.762 233.146,144.821 234.552 M241.567 253.756 C 241.564 254.561,241.628 255.220,241.711 255.220 C 242.049 255.220,242.200 253.281,241.898 252.806 C 241.691 252.479,241.571 252.823,241.567 253.756 M234.808 263.224 C 234.451 263.973,234.239 264.585,234.338 264.585 C 234.605 264.585,235.789 262.196,235.611 262.017 C 235.526 261.933,235.165 262.476,234.808 263.224 M193.561 270.981 C 191.475 272.036,190.833 272.199,189.951 271.898 C 188.493 271.402,188.220 270.829,189.440 270.829 C 189.990 270.829,190.483 270.814,190.537 270.795 C 191.198 270.566,195.072 269.722,195.512 269.711 C 195.834 269.704,194.956 270.275,193.561 270.981 M224.431 270.194 C 224.187 270.489,224.096 271.016,224.230 271.365 C 224.670 272.511,225.448 272.039,225.756 270.440 C 225.930 269.537,225.104 269.384,224.431 270.194 M162.954 271.566 C 162.599 272.140,163.866 272.973,164.353 272.486 C 164.583 272.256,164.653 271.877,164.509 271.644 C 164.193 271.132,163.251 271.085,162.954 271.566 M217.589 275.519 C 216.160 276.432,215.749 277.141,216.226 277.871 C 216.653 278.525,218.927 276.369,218.927 275.311 C 218.927 274.622,219.013 274.609,217.589 275.519 M199.462 277.951 C 197.763 278.391,197.442 280.585,199.076 280.585 C 199.750 280.585,202.537 278.431,202.537 277.911 C 202.537 277.570,200.847 277.592,199.462 277.951 " stroke="none" fill="#000000" fill-rule="evenodd"></path></g></svg>