<svg id="svg" version="1.1" xmlns="http://www.w3.org/2000/svg" xmlns:xlink="http://www.w3.org/1999/xlink" width="400" height="449.438202247191" viewBox="0, 0, 400,449.438202247191"><g id="svgg"><path id="path0" d="M132.200 0.275 C 131.320 0.373,130.429 0.621,130.220 0.827 C 130.011 1.032,129.336 1.200,128.720 1.200 C 128.104 1.200,127.600 1.380,127.600 1.600 C 127.600 1.820,127.150 2.000,126.600 2.000 C 126.050 2.000,125.600 2.180,125.600 2.400 C 125.600 2.620,125.151 2.800,124.603 2.800 C 123.463 2.800,120.400 4.035,120.400 4.494 C 120.400 4.662,120.080 4.800,119.688 4.800 C 119.297 4.800,118.717 5.160,118.400 5.600 C 118.083 6.040,117.580 6.400,117.283 6.400 C 116.986 6.400,116.515 6.625,116.237 6.900 C 115.959 7.175,115.222 7.760,114.599 8.200 C 113.976 8.640,112.310 10.170,110.896 11.600 C 107.162 15.377,106.800 15.786,106.800 16.226 C 106.800 16.444,106.440 16.883,106.000 17.200 C 105.560 17.517,105.200 18.097,105.200 18.488 C 105.200 18.880,105.020 19.200,104.800 19.200 C 104.580 19.200,104.400 19.560,104.400 20.000 C 104.400 20.440,104.257 20.800,104.082 20.800 C 103.711 20.800,102.400 24.866,102.400 26.016 C 102.400 26.447,102.220 26.800,102.000 26.800 C 101.735 26.800,101.600 53.540,101.600 106.219 L 101.600 185.638 99.700 184.331 C 98.655 183.613,97.379 182.524,96.865 181.912 C 96.350 181.300,95.741 180.800,95.511 180.800 C 95.282 180.800,94.803 180.483,94.447 180.094 C 94.091 179.706,93.080 179.031,92.200 178.594 C 91.320 178.158,90.309 177.485,89.953 177.100 C 89.597 176.715,89.012 176.400,88.653 176.400 C 88.294 176.400,88.000 176.220,88.000 176.000 C 88.000 175.780,87.640 175.600,87.200 175.600 C 86.760 175.600,86.400 175.454,86.400 175.275 C 86.400 175.096,85.770 174.702,85.000 174.400 C 84.230 174.098,83.600 173.704,83.600 173.525 C 83.600 173.346,83.240 173.200,82.800 173.200 C 82.360 173.200,82.000 173.036,82.000 172.835 C 82.000 172.634,81.280 172.349,80.400 172.200 C 79.520 172.051,78.800 171.766,78.800 171.565 C 78.800 171.364,78.350 171.200,77.800 171.200 C 77.250 171.200,76.800 171.020,76.800 170.800 C 76.800 170.580,76.451 170.400,76.024 170.400 C 75.597 170.400,75.136 170.220,75.000 170.000 C 74.864 169.780,74.223 169.600,73.576 169.600 C 72.929 169.600,72.400 169.420,72.400 169.200 C 72.400 168.980,71.860 168.800,71.200 168.800 C 70.540 168.800,70.000 168.620,70.000 168.400 C 70.000 168.180,69.381 168.000,68.624 168.000 C 67.867 168.000,67.148 167.839,67.026 167.642 C 66.905 167.445,66.129 167.185,65.303 167.063 C 64.476 166.941,62.810 166.665,61.600 166.450 C 60.390 166.234,58.286 166.045,56.924 166.029 C 55.562 166.013,54.336 165.820,54.200 165.600 C 53.865 165.058,36.135 165.058,35.800 165.600 C 35.664 165.820,34.708 166.011,33.676 166.024 C 32.644 166.037,30.900 166.227,29.800 166.446 C 28.700 166.665,27.215 166.944,26.500 167.066 C 25.785 167.188,25.200 167.448,25.200 167.644 C 25.200 167.840,24.761 168.000,24.224 168.000 C 23.687 168.000,23.136 168.180,23.000 168.400 C 22.864 168.620,22.403 168.800,21.976 168.800 C 21.549 168.800,21.200 168.980,21.200 169.200 C 21.200 169.420,20.930 169.600,20.600 169.600 C 20.270 169.600,20.000 169.780,20.000 170.000 C 20.000 170.220,19.640 170.400,19.200 170.400 C 18.760 170.400,18.400 170.580,18.400 170.800 C 18.400 171.020,18.040 171.200,17.600 171.200 C 17.160 171.200,16.800 171.380,16.800 171.600 C 16.800 171.820,16.434 172.000,15.987 172.000 C 15.541 172.000,15.071 172.270,14.945 172.600 C 14.818 172.930,14.467 173.200,14.164 173.200 C 13.861 173.200,13.048 173.695,12.356 174.300 C 9.315 176.960,6.400 179.792,6.400 180.087 C 6.400 180.263,5.860 180.972,5.200 181.663 C 4.540 182.354,4.000 183.147,4.000 183.426 C 4.000 183.705,3.865 183.993,3.700 184.067 C 3.203 184.288,2.000 186.810,2.000 187.632 C 2.000 188.055,1.820 188.400,1.600 188.400 C 1.380 188.400,1.200 188.745,1.200 189.167 C 1.200 189.588,0.975 190.008,0.700 190.100 C 0.319 190.227,0.200 192.489,0.200 199.600 C 0.200 206.711,0.319 208.973,0.700 209.100 C 0.975 209.192,1.200 209.614,1.200 210.039 C 1.200 210.767,1.915 212.361,2.438 212.800 C 2.570 212.910,2.798 213.495,2.946 214.100 C 3.094 214.705,3.392 215.200,3.608 215.200 C 3.823 215.200,4.000 215.520,4.000 215.912 C 4.000 216.303,4.360 216.883,4.800 217.200 C 5.240 217.517,5.600 217.922,5.600 218.099 C 5.600 218.396,7.294 220.270,10.483 223.500 C 11.189 224.215,12.050 224.800,12.395 224.800 C 12.741 224.800,13.283 225.160,13.600 225.600 C 13.917 226.040,14.324 226.400,14.505 226.400 C 14.686 226.400,15.220 226.760,15.692 227.200 C 16.164 227.640,16.787 228.000,17.075 228.000 C 17.364 228.000,17.600 228.180,17.600 228.400 C 17.600 228.620,17.960 228.800,18.400 228.800 C 18.840 228.800,19.200 228.980,19.200 229.200 C 19.200 229.420,19.449 229.600,19.754 229.600 C 20.059 229.600,20.824 229.869,21.454 230.198 C 22.084 230.526,23.005 230.796,23.500 230.798 C 23.995 230.799,24.400 230.980,24.400 231.200 C 24.400 231.420,24.940 231.600,25.600 231.600 C 26.260 231.600,26.800 231.780,26.800 232.000 C 26.800 232.220,27.329 232.400,27.976 232.400 C 28.623 232.400,29.264 232.580,29.400 232.800 C 29.536 233.020,29.997 233.200,30.424 233.200 C 30.851 233.200,31.200 233.380,31.200 233.600 C 31.200 233.820,31.650 234.000,32.200 234.000 C 32.750 234.000,33.200 234.180,33.200 234.400 C 33.200 234.620,33.560 234.800,34.000 234.800 C 34.440 234.800,34.800 234.966,34.800 235.169 C 34.800 235.373,35.571 235.509,36.513 235.473 C 39.076 235.373,49.600 243.924,49.600 246.105 C 49.600 246.309,49.930 246.954,50.334 247.538 C 51.857 249.743,52.470 251.921,51.691 252.360 C 51.138 252.673,51.100 252.851,51.500 253.255 C 51.775 253.533,52.000 254.714,52.000 255.880 C 52.000 257.046,52.180 258.000,52.400 258.000 C 52.658 258.000,52.800 262.467,52.800 270.600 C 52.800 278.733,52.942 283.200,53.200 283.200 C 53.425 283.200,53.600 284.325,53.600 285.776 C 53.600 287.193,53.780 288.464,54.000 288.600 C 54.220 288.736,54.400 289.827,54.400 291.024 C 54.400 292.221,54.580 293.200,54.800 293.200 C 55.020 293.200,55.200 294.010,55.200 295.000 C 55.200 295.990,55.359 296.800,55.553 296.800 C 55.748 296.800,56.032 297.970,56.185 299.400 C 56.338 300.830,56.629 302.000,56.832 302.000 C 57.034 302.000,57.200 302.529,57.200 303.176 C 57.200 303.823,57.380 304.464,57.600 304.600 C 57.820 304.736,58.000 305.377,58.000 306.024 C 58.000 306.671,58.180 307.200,58.400 307.200 C 58.620 307.200,58.800 307.639,58.800 308.176 C 58.800 308.713,58.980 309.264,59.200 309.400 C 59.420 309.536,59.600 309.997,59.600 310.424 C 59.600 310.851,59.780 311.200,60.000 311.200 C 60.220 311.200,60.400 311.650,60.400 312.200 C 60.400 312.750,60.544 313.200,60.721 313.200 C 60.897 313.200,61.376 314.370,61.785 315.800 C 62.194 317.230,62.680 318.400,62.864 318.400 C 63.049 318.400,63.200 318.760,63.200 319.200 C 63.200 319.640,63.380 320.000,63.600 320.000 C 63.820 320.000,64.000 320.360,64.000 320.800 C 64.000 321.240,64.180 321.600,64.400 321.600 C 64.620 321.600,64.800 321.960,64.800 322.400 C 64.800 322.840,64.980 323.200,65.200 323.200 C 65.420 323.200,65.600 323.470,65.600 323.800 C 65.600 324.130,65.780 324.400,66.000 324.400 C 66.220 324.400,66.400 324.760,66.400 325.200 C 66.400 325.640,66.580 326.000,66.800 326.000 C 67.020 326.000,67.200 326.247,67.200 326.550 C 67.200 327.206,69.222 330.943,69.680 331.133 C 69.856 331.207,70.000 331.529,70.000 331.850 C 70.000 332.171,70.360 332.820,70.800 333.292 C 71.240 333.764,71.600 334.387,71.600 334.675 C 71.600 334.964,71.780 335.200,72.000 335.200 C 72.220 335.200,72.400 335.470,72.400 335.800 C 72.400 336.130,72.539 336.400,72.709 336.400 C 72.879 336.400,73.372 337.075,73.804 337.900 C 74.236 338.725,74.906 339.691,75.294 340.047 C 75.683 340.403,76.000 340.858,76.000 341.059 C 76.000 341.259,76.360 341.683,76.800 342.000 C 77.240 342.317,77.600 342.773,77.600 343.013 C 77.600 343.253,77.920 343.798,78.312 344.225 C 78.704 344.651,79.559 345.720,80.212 346.600 C 80.865 347.480,82.255 349.043,83.300 350.074 C 84.345 351.105,85.200 352.057,85.200 352.191 C 85.200 352.802,94.351 362.124,96.600 363.805 C 97.480 364.462,99.043 365.855,100.074 366.900 C 101.105 367.945,102.131 368.800,102.355 368.800 C 102.578 368.800,103.373 369.430,104.121 370.200 C 104.869 370.970,105.705 371.600,105.980 371.600 C 106.254 371.600,106.983 372.140,107.600 372.800 C 108.217 373.460,108.919 374.000,109.160 374.000 C 109.402 374.000,109.600 374.143,109.600 374.317 C 109.600 374.492,110.496 375.167,111.592 375.817 C 112.688 376.468,113.588 377.135,113.592 377.300 C 113.596 377.465,113.870 377.600,114.200 377.600 C 114.530 377.600,114.800 377.750,114.800 377.932 C 114.800 378.115,115.295 378.520,115.900 378.832 C 116.505 379.145,117.349 379.715,117.775 380.100 C 118.202 380.485,118.787 380.800,119.075 380.800 C 119.364 380.800,119.600 380.960,119.600 381.157 C 119.600 381.353,120.050 381.626,120.600 381.764 C 121.150 381.902,121.600 382.192,121.600 382.408 C 121.600 382.623,121.920 382.800,122.312 382.800 C 122.703 382.800,123.283 383.160,123.600 383.600 C 123.917 384.040,124.454 384.400,124.793 384.400 C 125.133 384.400,125.749 384.852,126.164 385.404 C 126.578 385.956,127.566 386.803,128.359 387.287 C 129.151 387.770,130.277 388.668,130.860 389.283 C 131.444 389.897,132.196 390.400,132.532 390.400 C 133.161 390.400,133.480 390.666,135.213 392.644 C 138.578 396.484,142.995 405.557,140.855 404.234 C 140.605 404.079,140.400 404.133,140.400 404.353 C 140.400 404.573,140.580 404.864,140.800 405.000 C 141.020 405.136,141.200 405.777,141.200 406.424 C 141.200 407.071,141.380 407.600,141.600 407.600 C 141.820 407.600,142.000 408.410,142.000 409.400 C 142.000 410.390,142.180 411.200,142.400 411.200 C 142.661 411.200,142.800 417.267,142.800 428.600 C 142.800 439.933,142.939 446.000,143.200 446.000 C 143.420 446.000,143.600 446.450,143.600 447.000 C 143.600 447.550,143.793 448.000,144.029 448.000 C 144.264 448.000,144.727 448.270,145.057 448.600 C 146.206 449.749,151.284 449.416,152.690 448.100 C 153.947 446.924,154.664 445.010,154.001 444.601 C 153.744 444.442,153.597 438.660,153.593 428.476 C 153.585 410.770,153.307 407.796,151.023 401.000 C 148.492 393.472,142.409 384.756,135.757 379.128 C 132.318 376.219,131.988 375.974,128.439 373.696 C 126.547 372.481,124.010 370.842,122.800 370.052 C 120.609 368.622,114.342 364.230,113.200 363.324 C 92.944 347.265,78.008 328.052,70.813 308.800 C 70.114 306.930,69.393 305.040,69.211 304.600 C 67.426 300.280,65.163 290.651,64.041 282.600 C 63.795 280.840,63.596 275.111,63.597 269.868 C 63.600 260.849,63.147 253.826,62.420 251.600 C 62.240 251.050,61.855 249.790,61.565 248.800 C 58.548 238.517,47.995 228.198,35.800 223.608 C 35.360 223.443,34.550 223.127,34.000 222.906 C 33.450 222.686,31.470 222.025,29.600 221.438 C 26.556 220.483,22.937 218.958,22.400 218.405 C 22.290 218.291,21.660 217.929,21.000 217.599 C 15.217 214.711,10.416 206.553,10.406 199.594 C 10.389 188.616,18.760 180.367,33.600 176.738 C 37.057 175.893,53.993 176.047,58.400 176.964 C 60.270 177.353,62.476 177.765,63.303 177.878 C 64.129 177.992,64.905 178.245,65.026 178.442 C 65.148 178.639,65.678 178.800,66.205 178.800 C 66.731 178.800,67.576 178.968,68.081 179.173 C 68.587 179.379,70.800 180.223,73.000 181.049 C 84.599 185.406,94.929 193.206,100.953 202.156 L 102.000 203.712 101.993 223.956 C 101.984 246.659,101.835 248.312,99.010 257.000 C 98.260 259.307,98.287 259.245,95.648 264.826 C 93.498 269.374,91.468 274.310,90.560 277.200 C 90.248 278.190,89.825 279.540,89.619 280.200 C 87.511 286.944,87.217 294.137,88.975 295.973 C 91.727 298.848,97.200 296.495,97.200 292.436 C 97.200 288.379,100.571 277.232,103.798 270.622 C 105.927 266.259,107.501 262.415,108.640 258.800 C 109.676 255.508,109.922 254.616,110.351 252.600 C 110.585 251.500,110.999 249.790,111.271 248.800 C 111.655 247.400,111.815 222.860,111.988 138.400 C 112.156 56.902,112.328 29.474,112.680 28.493 C 121.503 3.876,165.885 4.280,173.398 29.045 C 173.915 30.747,173.992 42.610,173.996 120.851 C 174.000 218.948,173.845 212.476,176.244 214.363 C 178.508 216.144,182.187 214.914,183.360 211.984 C 183.934 210.549,184.000 205.634,184.000 164.452 C 184.000 132.478,184.132 118.106,184.435 117.160 C 188.448 104.609,203.301 96.752,219.460 98.632 C 224.177 99.180,230.446 101.009,232.414 102.410 C 233.024 102.844,233.643 103.200,233.790 103.200 C 234.977 103.200,242.800 110.356,242.800 111.441 C 242.800 111.571,243.142 112.156,243.559 112.742 C 246.093 116.301,245.997 114.274,246.030 164.766 C 246.054 200.464,246.172 210.910,246.563 212.000 C 247.571 214.811,250.921 215.977,253.490 214.411 C 256.120 212.807,256.000 214.929,256.000 170.078 C 256.000 122.424,255.678 125.101,262.198 118.581 C 266.612 114.167,272.407 111.366,280.800 109.591 C 287.983 108.071,304.094 111.256,307.200 114.810 C 307.310 114.936,308.030 115.464,308.800 115.983 C 310.579 117.184,314.800 121.623,314.800 122.293 C 314.800 122.572,314.936 122.800,315.102 122.800 C 315.269 122.800,315.621 123.295,315.886 123.900 C 316.151 124.505,316.690 125.720,317.084 126.600 C 317.753 128.095,317.813 130.948,318.000 170.000 C 318.220 216.035,318.021 212.787,320.727 214.472 C 322.283 215.441,324.786 215.298,326.034 214.169 C 328.046 212.348,328.000 213.093,328.000 182.667 C 328.000 153.925,328.018 153.518,329.461 150.140 C 329.758 149.446,330.000 148.759,330.000 148.612 C 330.000 147.333,335.109 141.729,338.200 139.618 C 347.024 133.591,362.279 131.812,371.949 135.683 C 376.649 137.563,381.683 140.685,383.724 142.984 C 386.523 146.137,387.738 147.977,388.908 150.837 L 389.793 153.000 389.906 220.779 C 390.015 285.796,389.868 297.285,388.829 304.434 C 388.183 308.888,386.231 316.365,384.819 319.800 C 384.638 320.240,383.811 322.296,382.981 324.368 C 378.812 334.785,372.474 344.597,363.333 354.787 C 362.635 355.564,361.652 356.740,361.146 357.400 C 360.641 358.060,360.121 358.690,359.990 358.800 C 359.859 358.910,358.866 360.260,357.783 361.800 C 356.701 363.340,355.677 364.660,355.507 364.733 C 355.338 364.807,355.200 365.044,355.200 365.261 C 355.200 365.478,354.687 366.408,354.060 367.328 C 351.408 371.216,348.219 377.467,346.268 382.600 C 345.432 384.800,344.579 386.913,344.374 387.295 C 344.168 387.677,344.000 388.264,344.000 388.600 C 344.000 388.936,343.830 389.523,343.623 389.905 C 343.416 390.287,342.885 392.130,342.443 394.000 C 340.059 404.094,339.600 409.595,339.600 428.114 C 339.600 439.287,339.467 443.714,339.100 444.737 C 338.700 445.852,338.700 446.164,339.100 446.299 C 339.375 446.391,339.600 446.735,339.600 447.062 C 339.600 448.527,340.821 449.000,344.600 449.000 C 350.259 449.000,349.778 450.670,349.916 430.529 C 349.988 420.072,350.179 413.600,350.416 413.600 C 350.637 413.600,350.800 411.823,350.800 409.424 C 350.800 407.071,350.975 405.139,351.200 405.000 C 351.420 404.864,351.600 403.863,351.600 402.776 C 351.600 401.659,351.783 400.800,352.021 400.800 C 352.278 400.800,352.429 399.745,352.409 398.100 C 352.354 393.570,354.383 387.153,358.071 380.200 C 358.537 379.320,359.117 378.196,359.360 377.703 C 359.602 377.210,360.010 376.805,360.267 376.803 C 360.523 376.801,360.824 376.575,360.935 376.300 C 361.073 375.958,361.147 375.990,361.169 376.400 C 361.186 376.730,361.599 376.190,362.086 375.200 C 362.573 374.210,363.293 373.051,363.686 372.625 C 364.079 372.198,364.400 371.705,364.400 371.529 C 364.400 371.230,365.215 370.131,366.248 369.036 C 366.495 368.775,367.016 367.942,367.408 367.185 C 367.799 366.429,368.632 365.331,369.259 364.745 C 369.887 364.158,370.400 363.567,370.400 363.429 C 370.400 363.291,371.165 362.398,372.100 361.444 C 373.035 360.490,374.160 359.205,374.600 358.589 C 375.040 357.973,376.064 356.775,376.875 355.927 C 377.687 355.080,378.458 354.046,378.590 353.630 C 378.722 353.214,379.094 352.773,379.415 352.650 C 379.737 352.526,380.000 352.149,380.000 351.813 C 380.000 351.476,380.180 351.200,380.400 351.200 C 380.620 351.200,380.800 350.970,380.800 350.688 C 380.800 350.407,381.160 349.917,381.600 349.600 C 382.040 349.283,382.400 348.743,382.400 348.400 C 382.400 348.057,382.760 347.517,383.200 347.200 C 383.640 346.883,384.000 346.470,384.000 346.283 C 384.000 346.096,384.270 345.673,384.600 345.343 C 384.930 345.013,385.200 344.396,385.200 343.971 C 385.200 343.547,385.380 343.200,385.600 343.200 C 385.820 343.200,386.000 342.880,386.000 342.488 C 386.000 342.097,386.360 341.517,386.800 341.200 C 387.240 340.883,387.600 340.393,387.600 340.112 C 387.600 339.830,387.780 339.600,388.000 339.600 C 388.220 339.600,388.400 339.240,388.400 338.800 C 388.400 338.360,388.580 338.000,388.800 338.000 C 389.020 338.000,389.200 337.640,389.200 337.200 C 389.200 336.760,389.338 336.400,389.506 336.400 C 389.877 336.400,391.200 333.431,391.200 332.597 C 391.200 332.269,391.380 332.000,391.600 332.000 C 391.820 332.000,392.000 331.640,392.000 331.200 C 392.000 330.760,392.180 330.400,392.400 330.400 C 392.620 330.400,392.800 329.950,392.800 329.400 C 392.800 328.850,392.980 328.400,393.200 328.400 C 393.420 328.400,393.600 328.040,393.600 327.600 C 393.600 327.160,393.780 326.800,394.000 326.800 C 394.220 326.800,394.400 326.260,394.400 325.600 C 394.400 324.940,394.580 324.400,394.800 324.400 C 395.020 324.400,395.200 323.950,395.200 323.400 C 395.200 322.850,395.380 322.400,395.600 322.400 C 395.820 322.400,396.000 321.871,396.000 321.224 C 396.000 320.577,396.172 319.941,396.382 319.811 C 396.591 319.682,396.885 318.501,397.033 317.188 C 397.182 315.875,397.460 314.800,397.652 314.800 C 397.843 314.800,398.000 314.080,398.000 313.200 C 398.000 312.320,398.180 311.600,398.400 311.600 C 398.620 311.600,398.800 310.805,398.800 309.833 C 398.800 308.776,399.001 308.000,399.300 307.900 C 400.035 307.655,400.035 147.545,399.300 147.300 C 399.025 147.208,398.800 146.788,398.800 146.367 C 398.800 145.945,398.620 145.600,398.400 145.600 C 398.180 145.600,397.994 145.285,397.987 144.900 C 397.980 144.515,397.710 143.851,397.387 143.424 C 397.064 142.996,396.800 142.321,396.800 141.924 C 396.800 141.526,396.620 141.200,396.400 141.200 C 396.180 141.200,396.000 140.957,396.000 140.659 C 396.000 140.362,395.460 139.554,394.800 138.863 C 394.140 138.172,393.600 137.504,393.600 137.378 C 393.600 136.666,386.841 130.830,385.996 130.813 C 385.664 130.806,385.168 130.440,384.893 130.000 C 384.618 129.560,384.125 129.200,383.797 129.200 C 383.468 129.200,383.200 129.020,383.200 128.800 C 383.200 128.580,382.840 128.400,382.400 128.400 C 381.960 128.400,381.600 128.220,381.600 128.000 C 381.600 127.780,381.240 127.600,380.800 127.600 C 380.360 127.600,380.000 127.464,380.000 127.298 C 380.000 126.869,377.917 126.001,376.230 125.727 C 375.443 125.600,374.800 125.339,374.800 125.148 C 374.800 124.956,374.170 124.800,373.400 124.800 C 372.630 124.800,372.000 124.620,372.000 124.400 C 372.000 124.180,371.280 124.000,370.400 124.000 C 369.520 124.000,368.800 123.820,368.800 123.600 C 368.800 123.369,367.541 123.200,365.824 123.200 C 364.187 123.200,362.736 123.020,362.600 122.800 C 362.278 122.278,355.722 122.278,355.400 122.800 C 355.264 123.020,353.903 123.200,352.376 123.200 C 350.792 123.200,349.600 123.372,349.600 123.600 C 349.600 123.820,348.700 124.000,347.600 124.000 C 346.500 124.000,345.600 124.180,345.600 124.400 C 345.600 124.620,345.150 124.800,344.600 124.800 C 344.050 124.800,343.600 124.957,343.600 125.148 C 343.600 125.340,342.707 125.615,341.616 125.760 C 340.525 125.905,339.525 126.198,339.393 126.412 C 339.261 126.625,338.803 126.800,338.376 126.800 C 337.949 126.800,337.600 126.980,337.600 127.200 C 337.600 127.420,337.240 127.600,336.800 127.600 C 336.360 127.600,336.000 127.780,336.000 128.000 C 336.000 128.220,335.680 128.400,335.288 128.400 C 334.897 128.400,334.317 128.760,334.000 129.200 C 333.683 129.640,333.193 130.000,332.912 130.000 C 332.630 130.000,332.400 130.147,332.400 130.326 C 332.400 130.609,329.896 132.000,329.386 132.000 C 329.284 132.000,329.200 131.550,329.200 131.000 C 329.200 130.450,329.020 130.000,328.800 130.000 C 328.580 130.000,328.400 129.010,328.400 127.800 C 328.400 126.590,328.220 125.600,328.000 125.600 C 327.780 125.600,327.600 125.071,327.600 124.424 C 327.600 123.777,327.444 123.151,327.253 123.032 C 327.061 122.914,326.789 122.094,326.648 121.209 C 326.506 120.324,326.213 119.600,325.995 119.600 C 325.778 119.600,325.600 119.240,325.600 118.800 C 325.600 118.360,325.420 118.000,325.200 118.000 C 324.980 118.000,324.800 117.680,324.800 117.288 C 324.800 116.897,324.440 116.317,324.000 116.000 C 323.560 115.683,323.200 115.278,323.200 115.100 C 323.200 114.395,315.679 106.800,314.980 106.800 C 314.863 106.800,314.380 106.440,313.908 106.000 C 313.436 105.560,312.813 105.200,312.525 105.200 C 312.236 105.200,312.000 105.020,312.000 104.800 C 312.000 104.580,311.655 104.400,311.233 104.400 C 310.812 104.400,310.407 104.258,310.333 104.084 C 310.102 103.537,305.624 101.600,304.589 101.600 C 304.045 101.600,303.600 101.420,303.600 101.200 C 303.600 100.980,303.150 100.800,302.600 100.800 C 302.050 100.800,301.600 100.620,301.600 100.400 C 301.600 100.180,300.981 100.000,300.224 100.000 C 299.467 100.000,298.736 99.820,298.600 99.600 C 298.464 99.380,297.553 99.200,296.576 99.200 C 295.599 99.200,294.800 99.020,294.800 98.800 C 294.800 98.547,291.933 98.400,287.000 98.400 C 282.067 98.400,279.200 98.547,279.200 98.800 C 279.200 99.020,278.300 99.200,277.200 99.200 C 276.100 99.200,275.200 99.380,275.200 99.600 C 275.200 99.820,274.570 100.000,273.800 100.000 C 273.030 100.000,272.400 100.180,272.400 100.400 C 272.400 100.620,271.860 100.800,271.200 100.800 C 270.540 100.800,270.000 100.960,270.000 101.155 C 270.000 101.350,269.505 101.606,268.900 101.725 C 267.145 102.069,264.800 102.969,264.800 103.298 C 264.800 103.464,264.440 103.600,264.000 103.600 C 263.560 103.600,263.200 103.780,263.200 104.000 C 263.200 104.220,262.970 104.400,262.688 104.400 C 262.407 104.400,261.917 104.760,261.600 105.200 C 261.283 105.640,260.743 106.000,260.400 106.000 C 260.057 106.000,259.517 106.360,259.200 106.800 C 258.883 107.240,258.409 107.600,258.146 107.600 C 257.883 107.600,257.020 108.230,256.227 109.000 C 254.553 110.626,254.400 110.676,254.400 109.600 C 254.400 109.160,254.220 108.800,254.000 108.800 C 253.780 108.800,253.600 108.530,253.600 108.200 C 253.600 107.870,253.420 107.600,253.200 107.600 C 252.980 107.600,252.800 107.240,252.800 106.800 C 252.800 106.360,252.620 106.000,252.400 106.000 C 252.180 106.000,252.000 105.730,252.000 105.400 C 252.000 105.070,251.820 104.800,251.600 104.800 C 251.380 104.800,251.200 104.610,251.200 104.378 C 251.200 104.146,250.661 103.381,250.002 102.678 C 249.343 101.975,248.803 101.293,248.802 101.161 C 248.799 100.744,247.446 99.394,246.062 98.427 C 245.326 97.912,244.265 97.066,243.704 96.546 C 243.142 96.026,242.479 95.600,242.230 95.600 C 241.981 95.600,241.517 95.240,241.200 94.800 C 240.883 94.360,240.303 94.000,239.912 94.000 C 239.520 94.000,239.200 93.854,239.200 93.675 C 239.200 93.496,238.570 93.102,237.800 92.800 C 237.030 92.498,236.400 92.104,236.400 91.925 C 236.400 91.746,236.151 91.600,235.846 91.600 C 235.541 91.600,234.776 91.331,234.146 91.002 C 233.516 90.674,232.606 90.404,232.124 90.402 C 231.642 90.401,231.136 90.220,231.000 90.000 C 230.864 89.780,230.133 89.600,229.376 89.600 C 228.619 89.600,228.000 89.420,228.000 89.200 C 228.000 88.980,227.381 88.800,226.624 88.800 C 225.867 88.800,225.136 88.620,225.000 88.400 C 224.864 88.180,223.604 88.000,222.200 88.000 C 220.796 88.000,219.536 87.820,219.400 87.600 C 219.260 87.373,217.263 87.200,214.776 87.200 C 212.125 87.200,210.400 87.358,210.400 87.600 C 210.400 87.829,209.200 88.000,207.600 88.000 C 206.000 88.000,204.800 88.171,204.800 88.400 C 204.800 88.620,204.170 88.800,203.400 88.800 C 202.630 88.800,202.000 88.980,202.000 89.200 C 202.000 89.420,201.280 89.600,200.400 89.600 C 199.520 89.600,198.800 89.760,198.800 89.955 C 198.800 90.150,197.990 90.431,197.000 90.579 C 196.010 90.728,195.200 91.018,195.200 91.225 C 195.200 91.431,194.840 91.600,194.400 91.600 C 193.960 91.600,193.600 91.780,193.600 92.000 C 193.600 92.220,193.240 92.400,192.800 92.400 C 192.360 92.400,192.000 92.580,192.000 92.800 C 192.000 93.020,191.730 93.200,191.400 93.200 C 191.070 93.200,190.800 93.380,190.800 93.600 C 190.800 93.820,190.480 94.000,190.088 94.000 C 189.697 94.000,189.117 94.360,188.800 94.800 C 188.483 95.240,187.985 95.600,187.694 95.600 C 187.403 95.600,186.678 96.052,186.083 96.604 L 185.000 97.608 184.778 62.704 C 184.657 43.507,184.418 27.260,184.248 26.600 C 183.933 25.376,183.386 23.948,182.753 22.705 C 182.559 22.323,182.400 21.738,182.400 21.405 C 182.400 21.072,182.220 20.800,182.000 20.800 C 181.780 20.800,181.600 20.440,181.600 20.000 C 181.600 19.560,181.465 19.198,181.300 19.195 C 181.135 19.193,180.646 18.452,180.213 17.548 C 179.321 15.687,172.024 8.000,171.149 8.000 C 170.834 8.000,170.317 7.640,170.000 7.200 C 169.683 6.760,169.186 6.400,168.895 6.400 C 168.604 6.400,167.989 6.048,167.526 5.617 C 166.504 4.665,163.863 3.400,162.100 3.018 C 161.385 2.863,160.800 2.571,160.800 2.368 C 160.800 2.166,160.260 2.000,159.600 2.000 C 158.940 2.000,158.400 1.820,158.400 1.600 C 158.400 1.380,157.806 1.200,157.080 1.200 C 156.354 1.200,155.535 0.975,155.260 0.700 C 154.760 0.200,135.979 -0.146,132.200 0.275 " stroke="none" fill="#060605" fill-rule="evenodd"></path><path id="path1" d="M137.400 11.071 C 124.907 13.847,118.162 18.246,114.508 26.000 C 112.302 30.683,112.401 25.399,112.381 138.931 C 112.363 241.103,112.335 245.154,111.607 249.200 C 110.660 254.468,110.418 255.601,110.025 256.600 C 109.852 257.040,109.494 258.120,109.229 259.000 C 108.964 259.880,108.596 260.960,108.410 261.400 C 108.225 261.840,107.622 263.370,107.070 264.800 C 106.518 266.230,105.155 269.315,104.041 271.655 C 101.144 277.738,99.365 283.220,98.412 289.000 C 97.434 294.927,96.917 296.110,94.789 297.283 C 90.771 299.498,86.402 295.991,86.959 291.000 C 87.569 285.543,89.355 277.900,90.814 274.500 C 91.401 273.133,92.073 271.491,92.410 270.600 C 92.577 270.160,93.293 268.540,94.002 267.000 C 98.146 258.000,98.444 257.232,99.754 252.177 C 101.361 245.971,101.600 242.199,101.600 222.994 L 101.600 204.383 100.513 202.691 C 98.451 199.482,93.647 194.190,90.626 191.800 C 89.792 191.140,88.725 190.267,88.255 189.861 C 87.151 188.906,80.895 185.200,80.388 185.200 C 80.174 185.200,80.000 185.062,80.000 184.894 C 80.000 184.449,71.190 180.771,68.200 179.968 C 67.540 179.790,66.280 179.441,65.400 179.192 C 53.826 175.918,36.975 175.730,28.600 178.783 C 4.667 187.506,5.207 213.381,29.478 220.808 C 33.138 221.928,39.496 224.369,41.100 225.270 C 41.815 225.671,43.075 226.380,43.900 226.845 C 48.061 229.188,54.808 235.334,57.463 239.200 C 59.011 241.453,61.600 246.502,61.600 247.267 C 61.600 247.582,61.749 248.011,61.930 248.220 C 62.313 248.659,62.950 250.882,63.568 253.931 C 63.810 255.126,64.000 260.541,64.000 266.265 C 64.000 278.116,64.817 286.278,66.815 294.400 C 67.059 295.390,67.355 296.787,67.473 297.504 C 67.592 298.221,67.849 298.906,68.044 299.027 C 68.240 299.148,68.400 299.676,68.400 300.200 C 68.400 300.724,68.580 301.264,68.800 301.400 C 69.020 301.536,69.200 301.999,69.200 302.429 C 69.200 302.859,69.364 303.523,69.565 303.905 C 69.765 304.287,70.229 305.500,70.596 306.600 C 72.255 311.580,75.075 317.478,79.584 325.400 C 82.346 330.253,87.319 336.956,93.046 343.545 C 98.961 350.351,102.899 354.068,113.409 362.767 C 113.853 363.135,115.113 364.046,116.209 364.792 C 117.304 365.537,118.290 366.256,118.400 366.390 C 118.600 366.633,120.675 368.004,128.251 372.904 C 130.479 374.345,132.711 375.856,133.211 376.262 C 137.075 379.401,139.711 381.817,141.226 383.607 C 142.202 384.761,143.207 385.921,143.461 386.185 C 144.248 387.005,147.570 392.084,148.096 393.272 C 148.371 393.892,148.731 394.400,148.898 394.400 C 149.064 394.400,149.200 394.760,149.200 395.200 C 149.200 395.640,149.380 396.000,149.600 396.000 C 149.820 396.000,150.000 396.324,150.000 396.720 C 150.000 397.116,150.159 397.611,150.353 397.820 C 150.811 398.312,152.187 402.289,153.046 405.600 C 153.614 407.792,153.744 410.934,153.875 425.600 C 153.974 436.790,154.185 443.393,154.463 444.100 L 154.897 445.200 246.841 445.200 L 338.785 445.200 338.993 444.300 C 339.108 443.805,339.270 435.030,339.354 424.800 C 339.514 405.123,339.758 401.883,341.625 394.636 C 342.246 392.223,343.634 387.519,343.996 386.600 C 344.169 386.160,344.984 384.090,345.807 382.000 C 348.125 376.118,351.781 369.396,355.863 363.512 C 358.757 359.341,360.341 357.324,364.450 352.579 C 367.279 349.312,368.625 347.687,369.437 346.559 C 369.857 345.976,370.576 345.027,371.035 344.450 C 373.200 341.727,376.130 336.983,379.589 330.600 C 380.124 329.613,381.692 326.044,383.632 321.400 C 384.281 319.846,386.109 314.179,386.470 312.600 C 386.672 311.720,387.011 310.280,387.224 309.400 C 388.996 302.089,388.922 305.338,389.082 227.800 C 389.241 150.416,389.302 153.127,387.307 148.913 C 385.066 144.180,375.548 136.400,371.999 136.400 C 371.774 136.400,371.277 136.237,370.895 136.037 C 366.249 133.613,351.914 133.620,347.105 136.049 C 346.723 136.242,346.154 136.400,345.839 136.400 C 343.899 136.400,336.862 141.027,333.690 144.388 C 328.552 149.833,328.431 150.741,328.414 183.851 C 328.398 214.714,328.503 213.520,325.679 215.108 C 323.659 216.243,322.075 216.238,320.359 215.092 C 317.418 213.127,317.603 216.065,317.583 171.000 C 317.565 131.083,317.467 127.734,316.286 126.553 C 316.129 126.395,316.000 126.017,316.000 125.711 C 316.000 124.855,312.870 120.380,311.076 118.671 C 294.600 102.978,262.099 109.137,256.998 128.920 C 256.488 130.899,256.396 137.141,256.371 171.520 C 256.338 216.405,256.547 213.112,253.611 215.100 C 251.144 216.770,247.954 215.802,246.335 212.891 C 245.645 211.651,245.599 209.161,245.467 165.291 C 245.334 121.531,245.217 116.305,244.356 115.773 C 244.160 115.652,244.000 115.284,244.000 114.954 C 244.000 114.148,241.209 110.086,239.325 108.151 C 230.689 99.280,213.453 96.368,200.600 101.607 C 200.160 101.786,199.215 102.172,198.500 102.464 C 197.785 102.756,197.200 103.131,197.200 103.298 C 197.200 103.464,197.007 103.600,196.772 103.600 C 195.580 103.600,188.000 110.173,188.000 111.206 C 188.000 111.391,187.775 111.781,187.500 112.071 C 186.823 112.787,185.771 115.156,184.855 118.028 C 184.526 119.061,184.395 132.202,184.381 165.428 C 184.359 216.636,184.553 213.127,181.641 215.086 C 179.194 216.732,176.092 215.883,174.398 213.104 C 173.611 211.813,173.603 210.901,173.601 122.106 C 173.600 56.031,173.479 31.910,173.141 30.506 C 172.226 26.706,169.518 21.746,167.225 19.673 C 165.548 18.157,161.333 15.200,160.849 15.200 C 160.602 15.200,160.400 15.020,160.400 14.800 C 160.400 14.580,160.076 14.400,159.680 14.400 C 159.284 14.400,158.789 14.235,158.580 14.034 C 156.460 11.995,142.212 10.001,137.400 11.071 M37.200 236.195 C 37.200 236.339,37.425 236.692,37.700 236.980 C 37.975 237.267,38.470 237.920,38.800 238.430 C 39.130 238.941,40.480 240.476,41.800 241.841 C 43.120 243.207,44.611 244.863,45.113 245.522 C 45.616 246.181,46.996 247.729,48.181 248.962 C 49.365 250.195,50.405 251.415,50.491 251.673 C 50.577 251.931,50.836 252.025,51.067 251.882 C 51.534 251.594,50.840 248.800,50.302 248.800 C 50.136 248.800,50.000 248.598,50.000 248.351 C 50.000 246.788,41.552 237.600,40.116 237.600 C 39.832 237.600,39.600 237.441,39.600 237.247 C 39.600 237.052,39.285 236.782,38.900 236.646 C 38.515 236.511,37.975 236.295,37.700 236.166 C 37.425 236.038,37.200 236.051,37.200 236.195 M359.200 379.800 C 359.200 380.130,359.020 380.400,358.800 380.400 C 358.580 380.400,358.400 380.760,358.400 381.200 C 358.400 381.640,358.220 382.000,358.000 382.000 C 357.780 382.000,357.600 382.360,357.600 382.800 C 357.600 383.240,357.420 383.600,357.200 383.600 C 356.980 383.600,356.800 383.960,356.800 384.400 C 356.800 384.840,356.620 385.200,356.400 385.200 C 356.180 385.200,356.000 385.650,356.000 386.200 C 356.000 386.750,355.820 387.200,355.600 387.200 C 355.380 387.200,355.200 387.639,355.200 388.176 C 355.200 388.713,355.030 389.258,354.823 389.386 C 354.386 389.656,353.794 393.128,354.128 393.462 C 354.419 393.752,355.492 391.182,355.828 389.390 C 355.972 388.626,356.249 388.000,356.445 388.000 C 356.640 388.000,356.800 387.550,356.800 387.000 C 356.800 386.450,356.980 386.000,357.200 386.000 C 357.420 386.000,357.600 385.640,357.600 385.200 C 357.600 384.760,357.780 384.400,358.000 384.400 C 358.220 384.400,358.400 383.860,358.400 383.200 C 358.400 382.540,358.535 381.999,358.700 381.997 C 359.006 381.994,360.000 380.100,360.000 379.520 C 360.000 379.344,359.820 379.200,359.600 379.200 C 359.380 379.200,359.200 379.470,359.200 379.800 M133.100 392.265 C 133.375 392.376,133.600 392.722,133.600 393.033 C 133.600 393.345,133.780 393.600,134.000 393.600 C 134.220 393.600,134.400 393.870,134.400 394.200 C 134.400 394.530,134.580 394.800,134.800 394.800 C 135.020 394.800,135.200 395.036,135.200 395.325 C 135.200 395.613,135.560 396.236,136.000 396.708 C 136.440 397.180,136.800 397.829,136.800 398.150 C 136.800 398.471,136.972 398.793,137.183 398.867 C 137.393 398.940,137.986 399.798,138.500 400.773 C 139.015 401.748,139.698 402.616,140.018 402.703 C 140.415 402.811,140.453 402.756,140.137 402.530 C 139.882 402.347,139.547 401.524,139.392 400.699 C 139.238 399.875,138.951 399.200,138.755 399.200 C 138.560 399.200,138.400 398.840,138.400 398.400 C 138.400 397.960,138.220 397.600,138.000 397.600 C 137.780 397.600,137.600 397.330,137.600 397.000 C 137.600 396.670,137.459 396.400,137.286 396.400 C 137.114 396.400,136.651 395.855,136.257 395.189 C 135.328 393.617,133.694 391.991,133.082 392.032 C 132.725 392.055,132.730 392.116,133.100 392.265 M353.200 394.800 C 353.200 395.240,353.380 395.600,353.600 395.600 C 353.820 395.600,354.000 395.240,354.000 394.800 C 354.000 394.360,353.820 394.000,353.600 394.000 C 353.380 394.000,353.200 394.360,353.200 394.800 " stroke="none" fill="#fbd3ab" fill-rule="evenodd"></path><path id="path2" d="M214.105 98.687 C 214.714 98.779,215.614 98.777,216.105 98.682 C 216.597 98.587,216.100 98.511,215.000 98.514 C 213.900 98.517,213.497 98.595,214.105 98.687 M184.193 165.600 C 184.193 190.570,184.241 200.785,184.300 188.300 C 184.359 175.815,184.359 155.385,184.300 142.900 C 184.241 130.415,184.193 140.630,184.193 165.600 M256.192 171.000 C 256.192 193.000,256.241 202.059,256.300 191.130 C 256.359 180.202,256.359 162.202,256.300 151.130 C 256.241 140.059,256.192 149.000,256.192 171.000 M317.792 171.400 C 317.792 193.180,317.841 202.031,317.900 191.070 C 317.959 180.108,317.959 162.288,317.900 151.470 C 317.841 140.651,317.792 149.620,317.792 171.400 M328.189 183.200 C 328.189 198.490,328.239 204.745,328.300 197.100 C 328.361 189.455,328.361 176.945,328.300 169.300 C 328.239 161.655,328.189 167.910,328.189 183.200 M93.600 194.125 C 93.600 194.194,94.185 194.779,94.900 195.425 L 96.200 196.600 95.025 195.300 C 93.930 194.088,93.600 193.816,93.600 194.125 M359.445 378.188 C 358.938 378.961,358.919 379.129,359.359 378.960 C 359.668 378.842,360.012 378.397,360.123 377.972 C 360.392 376.945,360.224 376.999,359.445 378.188 M339.382 428.200 C 339.382 436.780,339.435 440.233,339.500 435.874 C 339.564 431.514,339.564 424.494,339.499 420.274 C 339.435 416.053,339.382 419.620,339.382 428.200 " stroke="none" fill="#7c6454" fill-rule="evenodd"></path><path id="path3" d="M140.915 10.696 C 142.188 10.776,144.168 10.775,145.315 10.694 C 146.462 10.614,145.420 10.549,143.000 10.550 C 140.580 10.551,139.642 10.616,140.915 10.696 M133.400 11.619 C 132.842 11.871,133.085 11.907,134.200 11.738 C 135.080 11.604,135.875 11.428,135.967 11.347 C 136.310 11.044,134.168 11.271,133.400 11.619 M154.200 12.400 C 154.640 12.589,155.270 12.744,155.600 12.744 C 155.978 12.744,155.904 12.617,155.400 12.400 C 154.960 12.211,154.330 12.056,154.000 12.056 C 153.622 12.056,153.696 12.183,154.200 12.400 M163.000 16.271 C 163.220 16.474,164.300 17.321,165.400 18.153 L 167.400 19.666 165.800 18.198 C 164.920 17.391,163.840 16.544,163.400 16.316 C 162.960 16.088,162.780 16.068,163.000 16.271 M119.707 18.619 C 118.563 19.620,117.241 21.015,116.769 21.719 C 116.044 22.801,116.121 22.760,117.265 21.459 C 118.010 20.612,119.425 19.222,120.410 18.371 C 121.394 17.520,122.107 16.819,121.993 16.812 C 121.879 16.805,120.850 17.619,119.707 18.619 M170.624 24.268 C 171.381 25.525,172.000 26.778,172.000 27.053 C 172.000 27.328,172.179 27.664,172.399 27.799 C 172.942 28.135,172.204 26.234,170.971 24.121 C 170.432 23.197,169.823 22.338,169.619 22.212 C 169.415 22.086,169.867 23.011,170.624 24.268 M172.868 29.400 C 172.862 29.840,173.011 30.560,173.200 31.000 C 173.638 32.019,173.638 30.968,173.200 29.600 C 172.943 28.796,172.877 28.757,172.868 29.400 M112.600 30.400 C 112.448 31.091,112.407 31.741,112.509 31.842 C 112.611 31.944,112.809 31.453,112.950 30.750 C 113.283 29.083,112.960 28.760,112.600 30.400 M208.000 99.188 C 207.450 99.357,208.440 99.405,210.200 99.293 C 211.960 99.182,213.475 99.025,213.567 98.945 C 213.884 98.668,208.995 98.881,208.000 99.188 M217.100 99.089 C 217.815 99.178,218.985 99.178,219.700 99.089 C 220.415 99.001,219.830 98.928,218.400 98.928 C 216.970 98.928,216.385 99.001,217.100 99.089 M224.000 100.000 C 225.368 100.438,226.419 100.438,225.400 100.000 C 224.960 99.811,224.240 99.662,223.800 99.668 C 223.157 99.677,223.196 99.743,224.000 100.000 M235.200 104.546 C 235.200 104.656,235.740 105.130,236.400 105.600 C 237.060 106.070,237.600 106.364,237.600 106.254 C 237.600 106.144,237.060 105.670,236.400 105.200 C 235.740 104.730,235.200 104.436,235.200 104.546 M190.596 107.604 C 189.966 108.262,189.582 108.800,189.743 108.800 C 190.156 108.800,192.122 106.788,191.913 106.580 C 191.819 106.486,191.226 106.946,190.596 107.604 M241.404 110.600 C 243.007 112.826,243.450 113.239,242.557 111.673 C 242.141 110.943,241.452 110.043,241.026 109.673 C 240.576 109.282,240.734 109.669,241.404 110.600 M282.500 109.876 C 282.885 109.976,283.515 109.976,283.900 109.876 C 284.285 109.775,283.970 109.693,283.200 109.693 C 282.430 109.693,282.115 109.775,282.500 109.876 M290.100 109.876 C 290.485 109.976,291.115 109.976,291.500 109.876 C 291.885 109.775,291.570 109.693,290.800 109.693 C 290.030 109.693,289.715 109.775,290.100 109.876 M187.755 111.012 C 187.390 111.569,187.164 112.098,187.253 112.187 C 187.342 112.276,187.718 111.820,188.089 111.174 C 188.914 109.736,188.669 109.617,187.755 111.012 M278.421 110.379 C 278.046 110.616,278.470 110.665,279.621 110.518 C 280.599 110.392,281.475 110.225,281.567 110.145 C 281.942 109.819,278.955 110.040,278.421 110.379 M292.433 110.144 C 292.525 110.223,293.500 110.391,294.600 110.518 C 295.887 110.667,296.315 110.626,295.800 110.403 C 295.036 110.072,292.086 109.845,292.433 110.144 M296.833 110.944 C 296.925 111.023,297.540 111.208,298.200 111.356 C 299.076 111.552,299.238 111.515,298.800 111.218 C 298.260 110.853,296.432 110.598,296.833 110.944 M266.595 115.370 C 264.136 117.058,262.142 118.800,262.668 118.800 C 262.884 118.800,263.487 118.347,264.007 117.792 C 264.528 117.238,265.819 116.229,266.877 115.551 C 268.537 114.485,269.106 114.000,268.695 114.000 C 268.637 114.000,267.692 114.616,266.595 115.370 M305.200 114.097 C 305.200 114.202,306.145 114.935,307.300 115.727 C 308.455 116.519,309.895 117.549,310.500 118.017 C 311.105 118.484,311.600 118.784,311.600 118.682 C 311.600 118.467,307.910 115.630,306.300 114.607 C 305.695 114.222,305.200 113.993,305.200 114.097 M184.600 117.600 C 184.450 118.073,184.417 118.550,184.527 118.660 C 184.637 118.770,184.850 118.473,185.000 118.000 C 185.150 117.527,185.183 117.050,185.073 116.940 C 184.963 116.830,184.750 117.127,184.600 117.600 M244.834 117.400 C 244.822 117.840,244.987 118.470,245.200 118.800 C 245.714 119.595,245.714 118.596,245.200 117.400 L 244.856 116.600 244.834 117.400 M314.237 122.500 C 315.049 123.765,315.788 124.800,315.879 124.800 C 316.147 124.800,314.700 122.482,313.690 121.294 C 313.179 120.692,313.425 121.235,314.237 122.500 M259.014 123.035 C 258.641 123.604,258.405 124.138,258.489 124.222 C 258.573 124.307,258.958 123.841,259.344 123.188 C 260.206 121.728,259.948 121.609,259.014 123.035 M257.579 125.855 C 257.358 126.436,257.252 126.985,257.343 127.076 C 257.433 127.167,257.699 126.692,257.933 126.020 C 258.453 124.528,258.139 124.382,257.579 125.855 M256.650 128.850 C 256.317 130.517,256.640 130.840,257.000 129.200 C 257.152 128.509,257.193 127.859,257.091 127.758 C 256.989 127.656,256.791 128.147,256.650 128.850 M316.856 128.000 C 316.856 128.330,317.011 128.960,317.200 129.400 C 317.417 129.904,317.544 129.978,317.544 129.600 C 317.544 129.270,317.389 128.640,317.200 128.200 C 316.983 127.696,316.856 127.622,316.856 128.000 M352.400 134.407 C 351.779 134.611,352.309 134.651,353.800 134.512 C 355.120 134.389,356.275 134.224,356.367 134.144 C 356.689 133.865,353.388 134.084,352.400 134.407 M361.633 134.144 C 361.725 134.224,362.880 134.389,364.200 134.512 C 365.691 134.651,366.221 134.611,365.600 134.407 C 364.612 134.084,361.311 133.865,361.633 134.144 M339.971 138.791 C 339.186 139.206,338.291 139.850,337.982 140.221 C 337.625 140.651,337.945 140.552,338.861 139.948 C 339.653 139.427,340.638 138.786,341.050 138.524 C 342.205 137.790,341.565 137.948,339.971 138.791 M383.000 143.200 C 384.306 144.520,385.465 145.600,385.575 145.600 C 385.685 145.600,384.706 144.520,383.400 143.200 C 382.094 141.880,380.935 140.800,380.825 140.800 C 380.715 140.800,381.694 141.880,383.000 143.200 M389.295 225.000 C 389.239 264.160,389.111 297.190,389.010 298.400 L 388.826 300.600 389.214 298.470 C 389.458 297.131,389.564 269.835,389.500 225.070 L 389.398 153.800 389.295 225.000 M40.200 176.359 C 38.330 176.526,39.898 176.624,44.917 176.654 C 49.051 176.679,52.381 176.654,52.317 176.597 C 52.005 176.323,42.660 176.139,40.200 176.359 M33.200 177.200 L 32.200 177.520 33.200 177.532 C 33.750 177.538,34.560 177.389,35.000 177.200 L 35.800 176.856 35.000 176.868 C 34.560 176.874,33.750 177.024,33.200 177.200 M55.600 177.200 C 56.150 177.376,57.050 177.517,57.600 177.513 C 58.498 177.506,58.478 177.474,57.400 177.200 C 55.708 176.769,54.256 176.769,55.600 177.200 M60.400 178.000 C 60.730 178.213,61.450 178.373,62.000 178.354 L 63.000 178.320 62.000 178.000 C 60.458 177.506,59.636 177.506,60.400 178.000 M64.000 178.782 C 64.330 179.005,64.945 179.191,65.367 179.194 C 66.390 179.202,66.071 178.973,64.600 178.644 C 63.724 178.448,63.562 178.485,64.000 178.782 M66.800 179.582 C 67.130 179.805,67.745 179.991,68.167 179.994 C 69.190 180.002,68.871 179.773,67.400 179.444 C 66.524 179.248,66.362 179.285,66.800 179.582 M23.500 180.626 C 22.455 181.170,21.600 181.705,21.600 181.814 C 21.600 181.993,25.560 180.123,25.967 179.752 C 26.462 179.301,25.161 179.762,23.500 180.626 M69.600 180.333 C 69.930 180.536,70.650 180.824,71.200 180.971 C 71.895 181.157,72.017 181.125,71.600 180.867 C 71.270 180.664,70.550 180.376,70.000 180.229 C 69.305 180.043,69.183 180.075,69.600 180.333 M19.585 183.232 L 18.200 184.463 19.488 183.613 C 20.630 182.859,21.493 182.000,21.108 182.000 C 21.032 182.000,20.347 182.554,19.585 183.232 M81.400 185.490 C 81.620 185.698,82.700 186.359,83.800 186.959 C 84.900 187.559,85.440 187.755,85.000 187.394 C 84.105 186.659,80.773 184.897,81.400 185.490 M95.983 196.900 C 97.641 198.666,98.000 198.984,98.000 198.683 C 98.000 198.619,97.145 197.764,96.100 196.783 L 94.200 195.000 95.983 196.900 M10.534 199.600 C 10.534 201.250,10.605 201.925,10.691 201.100 C 10.778 200.275,10.778 198.925,10.691 198.100 C 10.605 197.275,10.534 197.950,10.534 199.600 M99.842 201.700 C 100.001 201.975,100.460 202.675,100.862 203.256 C 101.540 204.237,101.600 205.668,101.700 223.256 L 101.808 242.200 101.904 223.291 L 102.000 204.383 100.947 202.791 C 99.983 201.335,99.162 200.524,99.842 201.700 M11.044 204.000 C 11.180 204.770,11.454 205.670,11.651 206.000 C 12.077 206.710,11.668 204.637,11.139 203.400 C 10.908 202.860,10.877 203.056,11.044 204.000 M13.363 209.529 C 13.684 210.150,14.260 210.915,14.642 211.229 C 15.034 211.552,14.849 211.061,14.215 210.100 C 12.932 208.155,12.504 207.868,13.363 209.529 M327.840 211.782 C 327.678 212.428,326.883 213.586,326.073 214.354 L 324.600 215.752 325.933 214.976 C 327.208 214.234,328.577 211.930,328.277 211.032 C 328.199 210.798,328.003 211.135,327.840 211.782 M16.400 213.365 C 17.684 214.745,20.000 216.644,20.000 216.316 C 20.000 216.240,18.875 215.206,17.500 214.019 C 15.748 212.505,15.419 212.310,16.400 213.365 M183.071 213.359 C 182.716 214.285,180.859 215.333,179.048 215.630 C 177.500 215.884,177.480 215.903,178.720 215.950 C 180.630 216.022,184.289 213.756,183.514 212.980 C 183.395 212.862,183.196 213.033,183.071 213.359 M255.071 213.359 C 254.716 214.285,252.859 215.333,251.048 215.630 C 249.500 215.884,249.480 215.903,250.720 215.950 C 252.630 216.022,256.289 213.756,255.514 212.980 C 255.395 212.862,255.196 213.033,255.071 213.359 M174.998 213.937 C 175.434 214.452,176.153 215.059,176.596 215.286 C 177.445 215.721,177.321 215.587,175.403 213.994 C 174.248 213.035,174.234 213.033,174.998 213.937 M246.998 213.937 C 247.434 214.452,248.153 215.059,248.596 215.286 C 249.445 215.721,249.321 215.587,247.403 213.994 C 246.248 213.035,246.234 213.033,246.998 213.937 M318.999 213.955 C 320.123 215.259,321.737 216.009,323.280 215.946 C 324.326 215.902,324.393 215.858,323.600 215.734 C 321.382 215.384,320.806 215.155,319.531 214.114 C 318.427 213.213,318.336 213.186,318.999 213.955 M21.600 217.355 C 21.600 217.631,24.421 219.312,24.594 219.139 C 24.678 219.055,24.038 218.580,23.173 218.082 C 22.308 217.584,21.600 217.257,21.600 217.355 M43.600 226.990 C 43.600 227.094,44.185 227.465,44.900 227.814 L 46.200 228.448 45.200 227.633 C 44.237 226.848,43.600 226.592,43.600 226.990 M52.600 234.000 C 53.683 235.100,54.660 236.000,54.770 236.000 C 54.880 236.000,54.083 235.100,53.000 234.000 C 51.917 232.900,50.940 232.000,50.830 232.000 C 50.720 232.000,51.517 232.900,52.600 234.000 M57.054 239.200 C 58.862 241.874,59.585 242.677,58.557 240.870 C 58.141 240.138,57.297 238.968,56.683 238.270 C 55.876 237.352,55.979 237.610,57.054 239.200 M43.630 240.300 C 45.296 241.861,47.351 244.141,48.196 245.369 C 49.749 247.623,50.389 248.275,49.597 246.795 C 48.911 245.512,45.623 241.596,44.138 240.292 C 41.114 237.637,40.791 237.642,43.630 240.300 M101.293 244.000 C 101.293 244.770,101.375 245.085,101.476 244.700 C 101.576 244.315,101.576 243.685,101.476 243.300 C 101.375 242.915,101.293 243.230,101.293 244.000 M111.800 245.600 C 111.644 246.947,111.601 248.134,111.705 248.238 C 111.809 248.342,112.019 247.322,112.171 245.971 C 112.324 244.621,112.367 243.434,112.267 243.333 C 112.166 243.233,111.956 244.253,111.800 245.600 M100.859 246.600 C 100.820 247.260,100.696 248.250,100.583 248.800 L 100.377 249.800 100.808 248.814 C 101.044 248.272,101.168 247.282,101.083 246.614 L 100.928 245.400 100.859 246.600 M62.658 251.200 C 62.975 252.925,63.202 253.251,63.194 251.967 C 63.191 251.435,63.011 250.730,62.794 250.400 C 62.518 249.978,62.477 250.215,62.658 251.200 M99.850 251.650 C 99.517 253.317,99.840 253.640,100.200 252.000 C 100.352 251.309,100.393 250.659,100.291 250.558 C 100.189 250.456,99.991 250.947,99.850 251.650 M110.854 251.867 C 110.825 252.344,110.696 253.064,110.570 253.467 C 110.352 254.161,110.364 254.162,110.796 253.488 C 111.047 253.097,111.175 252.377,111.081 251.888 C 110.909 251.001,110.909 251.001,110.854 251.867 M63.507 263.270 C 63.567 268.622,63.669 273.810,63.735 274.800 C 63.802 275.790,63.870 271.830,63.888 266.000 C 63.906 260.170,63.803 254.982,63.660 254.470 C 63.517 253.959,63.448 257.919,63.507 263.270 M94.880 265.020 C 94.176 266.448,93.609 267.747,93.620 267.908 C 93.630 268.068,94.272 266.967,95.046 265.459 C 95.819 263.952,96.386 262.653,96.306 262.572 C 96.225 262.492,95.583 263.593,94.880 265.020 M104.880 269.020 C 104.176 270.448,103.609 271.747,103.620 271.908 C 103.630 272.068,104.272 270.967,105.046 269.459 C 105.819 267.952,106.386 266.653,106.306 266.572 C 106.225 266.492,105.583 267.593,104.880 269.020 M64.101 279.400 C 64.105 280.280,64.187 280.593,64.283 280.095 C 64.379 279.598,64.375 278.878,64.275 278.495 C 64.175 278.113,64.096 278.520,64.101 279.400 M88.650 281.250 C 88.317 282.917,88.640 283.240,89.000 281.600 C 89.152 280.909,89.193 280.259,89.091 280.158 C 88.989 280.056,88.791 280.547,88.650 281.250 M99.600 282.000 C 99.351 282.924,99.226 283.759,99.321 283.855 C 99.417 283.950,99.690 283.263,99.927 282.327 C 100.165 281.391,100.290 280.557,100.206 280.473 C 100.122 280.388,99.849 281.076,99.600 282.000 M64.440 282.833 C 64.462 283.805,64.625 285.050,64.802 285.600 C 64.995 286.200,65.037 285.560,64.906 284.000 C 64.651 280.962,64.382 280.289,64.440 282.833 M87.829 285.029 C 87.681 285.615,87.638 286.172,87.732 286.266 C 87.827 286.360,88.024 285.958,88.171 285.371 C 88.319 284.785,88.362 284.228,88.268 284.134 C 88.173 284.040,87.976 284.442,87.829 285.029 M98.854 285.067 C 98.825 285.544,98.696 286.264,98.570 286.667 C 98.352 287.361,98.364 287.362,98.796 286.688 C 99.047 286.297,99.175 285.577,99.081 285.088 C 98.909 284.201,98.909 284.201,98.854 285.067 M65.228 288.433 C 65.244 288.965,65.419 289.760,65.619 290.200 C 65.871 290.758,65.907 290.515,65.738 289.400 C 65.455 287.543,65.187 287.036,65.228 288.433 M98.064 288.650 C 98.029 289.118,97.905 290.108,97.789 290.850 C 97.596 292.086,97.615 292.117,98.008 291.214 C 98.245 290.672,98.368 289.682,98.283 289.014 C 98.191 288.297,98.102 288.148,98.064 288.650 M87.052 289.300 C 86.718 290.546,86.751 293.304,87.106 293.861 C 87.268 294.115,87.407 292.990,87.416 291.361 C 87.434 288.121,87.408 287.972,87.052 289.300 M88.686 296.388 C 90.106 297.899,93.743 298.420,94.879 297.275 C 95.309 296.841,95.190 296.830,94.200 297.207 C 92.510 297.850,90.018 297.353,88.600 296.088 C 87.461 295.073,87.466 295.088,88.686 296.388 M68.428 301.476 C 68.518 302.515,69.144 303.396,69.172 302.524 C 69.187 302.042,69.020 301.536,68.800 301.400 C 68.580 301.264,68.413 301.298,68.428 301.476 M388.493 302.800 C 388.493 303.570,388.575 303.885,388.676 303.500 C 388.776 303.115,388.776 302.485,388.676 302.100 C 388.575 301.715,388.493 302.030,388.493 302.800 M69.595 304.781 C 69.804 305.511,70.086 306.219,70.220 306.354 C 70.596 306.729,69.944 304.252,69.555 303.827 C 69.368 303.622,69.385 304.051,69.595 304.781 M387.429 308.229 C 387.281 308.815,387.238 309.372,387.332 309.466 C 387.427 309.560,387.624 309.158,387.771 308.571 C 387.919 307.985,387.962 307.428,387.868 307.334 C 387.773 307.240,387.576 307.642,387.429 308.229 M386.649 311.415 C 386.512 311.773,386.415 312.366,386.434 312.733 C 386.453 313.100,386.627 312.869,386.821 312.220 C 387.198 310.958,387.065 310.333,386.649 311.415 M76.000 319.600 C 76.449 320.480,76.906 321.200,77.016 321.200 C 77.126 321.200,76.849 320.480,76.400 319.600 C 75.951 318.720,75.494 318.000,75.384 318.000 C 75.274 318.000,75.551 318.720,76.000 319.600 M80.608 327.600 C 81.375 329.014,85.733 335.235,86.129 335.480 C 86.368 335.627,85.329 333.960,83.822 331.774 C 81.200 327.973,79.883 326.262,80.608 327.600 M378.551 332.500 C 378.183 333.215,377.619 334.250,377.298 334.800 C 376.739 335.759,376.743 335.767,377.389 335.000 C 378.178 334.063,379.707 331.200,379.418 331.200 C 379.310 331.200,378.919 331.785,378.551 332.500 M87.540 337.516 C 88.033 338.209,88.644 338.904,88.897 339.060 C 89.150 339.217,88.954 338.777,88.460 338.084 C 87.967 337.391,87.356 336.696,87.103 336.540 C 86.850 336.383,87.046 336.823,87.540 337.516 M90.723 341.500 C 91.601 342.545,92.824 343.850,93.439 344.400 C 94.055 344.950,93.417 344.095,92.021 342.500 C 89.201 339.278,88.218 338.520,90.723 341.500 M371.123 344.300 C 370.418 345.121,369.890 346.000,370.101 346.000 C 370.183 346.000,370.649 345.460,371.137 344.800 C 372.101 343.496,372.092 343.172,371.123 344.300 M98.994 350.313 C 101.630 353.001,103.909 355.200,104.058 355.200 C 104.288 355.200,95.232 346.148,94.467 345.613 C 94.320 345.511,96.357 347.626,98.994 350.313 M366.826 349.722 L 365.851 351.000 367.126 349.825 C 368.451 348.603,368.603 348.385,368.100 348.422 C 367.935 348.434,367.362 349.019,366.826 349.722 M364.571 352.500 C 362.258 355.034,361.463 356.000,361.691 356.000 C 361.817 356.000,362.856 354.920,364.000 353.600 C 366.186 351.077,366.603 350.273,364.571 352.500 M105.159 356.120 C 105.806 356.934,109.600 360.162,109.600 359.897 C 109.600 359.800,108.475 358.751,107.100 357.568 C 105.725 356.384,104.852 355.732,105.159 356.120 M111.600 361.566 C 112.590 362.464,113.565 363.198,113.767 363.199 C 113.968 363.200,114.058 363.149,113.967 363.086 C 113.875 363.023,112.900 362.289,111.800 361.453 L 109.800 359.935 111.600 361.566 M352.600 368.400 C 352.259 369.060,352.069 369.600,352.179 369.600 C 352.289 369.600,352.659 369.060,353.000 368.400 C 353.341 367.740,353.531 367.200,353.421 367.200 C 353.311 367.200,352.941 367.740,352.600 368.400 M121.974 369.124 C 122.509 369.559,123.499 370.219,124.174 370.591 L 125.400 371.267 124.426 370.476 C 123.891 370.041,122.901 369.381,122.226 369.009 L 121.000 368.333 121.974 369.124 M351.000 371.200 C 350.659 371.860,350.469 372.400,350.579 372.400 C 350.689 372.400,351.059 371.860,351.400 371.200 C 351.741 370.540,351.931 370.000,351.821 370.000 C 351.711 370.000,351.341 370.540,351.000 371.200 M128.000 372.897 C 128.000 373.150,132.305 376.000,132.687 376.000 C 132.964 376.000,131.792 375.156,129.100 373.418 C 128.495 373.028,128.000 372.793,128.000 372.897 M348.393 376.014 C 347.421 377.919,346.643 379.890,347.006 379.527 C 347.387 379.146,349.595 374.400,349.391 374.400 C 349.295 374.400,348.846 375.126,348.393 376.014 M134.400 377.276 C 134.400 377.361,135.975 378.852,137.900 380.590 C 139.825 382.328,140.860 383.160,140.200 382.438 C 138.924 381.041,134.400 377.015,134.400 377.276 M358.800 379.600 C 358.510 380.142,358.505 380.400,358.786 380.400 C 359.014 380.400,359.200 380.145,359.200 379.833 C 359.200 379.522,359.425 379.176,359.700 379.065 C 360.077 378.913,360.080 378.855,359.714 378.832 C 359.447 378.814,359.035 379.160,358.800 379.600 M357.606 381.863 C 357.294 382.488,356.974 383.135,356.895 383.300 C 356.817 383.465,356.943 383.600,357.176 383.600 C 357.409 383.600,357.600 383.255,357.600 382.833 C 357.600 382.412,357.807 381.998,358.060 381.913 C 358.313 381.829,358.442 381.527,358.348 381.243 C 358.245 380.936,357.944 381.188,357.606 381.863 M353.844 390.843 C 353.406 392.238,353.252 394.000,353.568 394.000 C 353.759 394.000,353.996 393.235,354.094 392.300 C 354.276 390.557,354.155 389.851,353.844 390.843 M342.046 392.867 C 342.021 393.234,341.896 393.864,341.770 394.267 C 341.552 394.962,341.563 394.963,341.997 394.287 C 342.248 393.896,342.373 393.266,342.273 392.887 C 342.111 392.268,342.088 392.266,342.046 392.867 M135.200 393.339 C 135.200 393.815,136.987 396.390,137.320 396.395 C 137.497 396.398,137.144 395.725,136.537 394.900 C 135.929 394.075,135.380 393.325,135.316 393.233 C 135.252 393.142,135.200 393.189,135.200 393.339 M341.050 396.850 C 340.909 397.553,340.869 398.202,340.959 398.292 C 341.050 398.383,341.248 397.891,341.400 397.200 C 341.552 396.509,341.593 395.859,341.491 395.758 C 341.389 395.656,341.191 396.147,341.050 396.850 M340.200 401.200 C 340.046 402.110,340.004 402.938,340.107 403.040 C 340.210 403.143,340.413 402.477,340.560 401.560 C 340.707 400.643,340.748 399.815,340.653 399.720 C 340.558 399.624,340.354 400.290,340.200 401.200 M139.341 400.533 C 139.484 400.936,139.600 401.521,139.600 401.833 C 139.600 402.145,139.792 402.400,140.027 402.400 C 140.518 402.400,140.136 400.818,139.496 400.200 C 139.214 399.927,139.165 400.033,139.341 400.533 M152.828 406.433 C 152.844 406.965,153.019 407.760,153.219 408.200 C 153.471 408.758,153.507 408.515,153.338 407.400 C 153.055 405.543,152.787 405.036,152.828 406.433 M339.453 406.836 C 339.314 407.531,339.225 409.203,339.256 410.550 C 339.307 412.804,339.337 412.713,339.629 409.407 C 339.959 405.678,339.889 404.656,339.453 406.836 M153.704 427.400 C 153.634 441.922,153.699 443.892,154.267 444.600 L 154.908 445.400 154.554 444.600 C 154.359 444.160,154.106 436.420,153.991 427.400 L 153.782 411.000 153.704 427.400 " stroke="none" fill="#9b8269" fill-rule="evenodd"></path><path id="path4" d="M135.400 10.819 C 134.842 11.071,135.085 11.107,136.200 10.938 C 137.080 10.804,137.875 10.628,137.967 10.547 C 138.310 10.244,136.168 10.471,135.400 10.819 M148.033 10.547 C 148.125 10.628,148.920 10.804,149.800 10.938 C 150.915 11.107,151.158 11.071,150.600 10.819 C 149.832 10.471,147.690 10.244,148.033 10.547 M167.400 19.600 C 168.706 20.920,169.865 22.000,169.975 22.000 C 170.085 22.000,169.106 20.920,167.800 19.600 C 166.494 18.280,165.335 17.200,165.225 17.200 C 165.115 17.200,166.094 18.280,167.400 19.600 M118.181 19.700 L 116.600 21.400 118.300 19.819 C 119.235 18.949,120.000 18.184,120.000 18.119 C 120.000 17.816,119.652 18.119,118.181 19.700 M115.271 23.043 C 114.005 24.997,114.337 25.085,115.696 23.156 C 116.299 22.300,116.659 21.602,116.496 21.605 C 116.333 21.608,115.782 22.255,115.271 23.043 M173.797 120.200 C 173.797 169.700,173.843 189.891,173.900 165.068 C 173.957 140.245,173.957 99.745,173.900 75.068 C 173.843 50.391,173.797 70.700,173.797 120.200 M112.197 137.000 C 112.197 194.860,112.243 218.589,112.300 189.732 C 112.357 160.875,112.357 113.535,112.300 84.532 C 112.243 55.529,112.197 79.140,112.197 137.000 M211.105 98.683 C 211.602 98.779,212.322 98.775,212.705 98.675 C 213.087 98.575,212.680 98.496,211.800 98.501 C 210.920 98.505,210.607 98.587,211.105 98.683 M217.300 98.676 C 217.685 98.776,218.315 98.776,218.700 98.676 C 219.085 98.575,218.770 98.493,218.000 98.493 C 217.230 98.493,216.915 98.575,217.300 98.676 M190.170 107.700 C 189.291 108.635,188.309 109.765,187.986 110.211 C 187.664 110.657,188.269 110.073,189.331 108.913 C 190.393 107.754,191.563 106.630,191.931 106.415 C 192.299 106.200,192.412 106.019,192.183 106.012 C 191.954 106.005,191.048 106.765,190.170 107.700 M281.000 109.603 C 280.485 109.826,280.913 109.867,282.200 109.718 C 283.300 109.591,284.275 109.423,284.367 109.344 C 284.714 109.045,281.764 109.272,281.000 109.603 M289.633 109.344 C 289.725 109.423,290.700 109.591,291.800 109.718 C 293.087 109.867,293.515 109.826,293.000 109.603 C 292.236 109.272,289.286 109.045,289.633 109.344 M184.093 119.200 C 184.093 119.970,184.175 120.285,184.276 119.900 C 184.376 119.515,184.376 118.885,184.276 118.500 C 184.175 118.115,184.093 118.430,184.093 119.200 M245.793 164.400 C 245.793 189.810,245.841 200.205,245.900 187.500 C 245.959 174.795,245.959 154.005,245.900 141.300 C 245.841 128.595,245.793 138.990,245.793 164.400 M256.249 128.615 C 256.112 128.973,256.021 129.746,256.046 130.333 C 256.080 131.132,256.170 130.998,256.404 129.800 C 256.735 128.100,256.662 127.540,256.249 128.615 M317.693 130.800 C 317.693 131.570,317.775 131.885,317.876 131.500 C 317.976 131.115,317.976 130.485,317.876 130.100 C 317.775 129.715,317.693 130.030,317.693 130.800 M357.113 133.895 C 358.276 133.976,360.076 133.976,361.113 133.893 C 362.151 133.811,361.200 133.745,359.000 133.746 C 356.800 133.747,355.951 133.814,357.113 133.895 M350.600 134.400 C 350.096 134.617,350.022 134.744,350.400 134.744 C 350.730 134.744,351.360 134.589,351.800 134.400 C 352.304 134.183,352.378 134.056,352.000 134.056 C 351.670 134.056,351.040 134.211,350.600 134.400 M366.200 134.400 C 366.640 134.589,367.270 134.744,367.600 134.744 C 367.978 134.744,367.904 134.617,367.400 134.400 C 366.960 134.211,366.330 134.056,366.000 134.056 C 365.622 134.056,365.696 134.183,366.200 134.400 M344.900 136.012 C 343.561 136.551,343.811 136.824,345.200 136.340 C 345.860 136.110,346.400 135.849,346.400 135.761 C 346.400 135.524,345.913 135.605,344.900 136.012 M328.249 153.415 C 328.112 153.773,328.018 154.456,328.041 154.933 C 328.067 155.481,328.203 155.286,328.410 154.403 C 328.760 152.916,328.665 152.333,328.249 153.415 M389.795 224.200 C 389.795 261.820,389.842 277.151,389.900 258.268 C 389.957 239.386,389.957 208.606,389.900 189.868 C 389.842 171.131,389.795 186.580,389.795 224.200 M38.705 176.283 C 39.202 176.379,39.922 176.375,40.305 176.275 C 40.687 176.175,40.280 176.096,39.400 176.101 C 38.520 176.105,38.207 176.187,38.705 176.283 M49.905 176.283 C 50.402 176.379,51.122 176.375,51.505 176.275 C 51.887 176.175,51.480 176.096,50.600 176.101 C 49.720 176.105,49.407 176.187,49.905 176.283 M34.900 176.676 C 35.285 176.776,35.915 176.776,36.300 176.676 C 36.685 176.575,36.370 176.493,35.600 176.493 C 34.830 176.493,34.515 176.575,34.900 176.676 M53.900 176.682 C 54.395 176.778,55.205 176.778,55.700 176.682 C 56.195 176.587,55.790 176.509,54.800 176.509 C 53.810 176.509,53.405 176.587,53.900 176.682 M59.233 177.343 C 59.325 177.421,60.030 177.601,60.800 177.742 C 61.785 177.923,62.022 177.882,61.600 177.606 C 61.058 177.250,58.837 177.003,59.233 177.343 M16.575 185.300 L 15.400 186.600 16.700 185.425 C 17.415 184.779,18.000 184.194,18.000 184.125 C 18.000 183.816,17.670 184.088,16.575 185.300 M85.200 187.324 C 85.200 187.417,85.965 187.998,86.900 188.615 C 87.835 189.232,88.389 189.480,88.131 189.168 C 87.634 188.567,85.200 187.036,85.200 187.324 M100.214 201.600 C 101.941 204.206,102.335 204.645,101.472 203.000 C 101.126 202.340,100.373 201.260,99.799 200.600 C 99.131 199.831,99.280 200.190,100.214 201.600 M16.000 213.345 C 16.770 214.184,18.120 215.426,19.000 216.104 C 20.870 217.546,20.326 216.967,17.000 213.977 C 15.430 212.565,15.084 212.347,16.000 213.345 M174.432 212.430 C 174.414 212.777,174.895 213.497,175.500 214.030 L 176.600 215.000 175.751 214.000 C 175.284 213.450,174.803 212.730,174.682 212.400 C 174.495 211.886,174.459 211.891,174.432 212.430 M183.200 212.352 C 183.200 212.620,182.705 213.305,182.100 213.875 C 181.189 214.733,181.153 214.831,181.891 214.447 C 182.849 213.946,183.813 212.479,183.432 212.099 C 183.305 211.971,183.200 212.085,183.200 212.352 M246.425 212.430 C 246.340 214.560,251.202 216.437,253.024 214.978 C 253.774 214.377,253.770 214.370,252.926 214.778 C 250.903 215.755,247.587 214.627,246.812 212.697 C 246.582 212.126,246.442 212.029,246.425 212.430 M320.744 214.776 C 321.728 215.634,323.771 215.859,324.779 215.221 C 325.156 214.983,324.776 214.933,323.688 215.079 C 322.505 215.238,321.693 215.106,320.908 214.628 L 319.800 213.953 320.744 214.776 M179.000 215.200 L 177.400 215.486 178.876 215.543 C 179.688 215.574,180.464 215.420,180.600 215.200 C 180.736 214.980,180.792 214.826,180.724 214.857 C 180.656 214.888,179.880 215.042,179.000 215.200 M52.400 234.200 C 53.595 235.410,54.663 236.400,54.773 236.400 C 54.883 236.400,53.995 235.410,52.800 234.200 C 51.605 232.990,50.537 232.000,50.427 232.000 C 50.317 232.000,51.205 232.990,52.400 234.200 M36.446 235.356 C 36.581 235.504,37.289 235.796,38.019 236.005 C 38.785 236.225,39.188 236.232,38.973 236.021 C 38.543 235.601,36.075 234.951,36.446 235.356 M111.693 243.600 C 111.693 244.370,111.775 244.685,111.876 244.300 C 111.976 243.915,111.976 243.285,111.876 242.900 C 111.775 242.515,111.693 242.830,111.693 243.600 M101.693 244.000 C 101.693 244.770,101.775 245.085,101.876 244.700 C 101.976 244.315,101.976 243.685,101.876 243.300 C 101.775 242.915,101.693 243.230,101.693 244.000 M100.629 249.829 C 100.481 250.415,100.438 250.972,100.532 251.066 C 100.627 251.160,100.824 250.758,100.971 250.171 C 101.119 249.585,101.162 249.028,101.068 248.934 C 100.973 248.840,100.776 249.242,100.629 249.829 M51.519 251.311 C 51.405 251.910,51.455 252.400,51.632 252.400 C 52.164 252.400,52.317 251.846,52.014 251.011 C 51.759 250.311,51.704 250.344,51.519 251.311 M109.449 255.815 C 109.312 256.173,109.215 256.766,109.234 257.133 C 109.253 257.500,109.427 257.269,109.621 256.620 C 109.998 255.358,109.865 254.733,109.449 255.815 M63.309 257.200 C 63.309 258.190,63.387 258.595,63.482 258.100 C 63.578 257.605,63.578 256.795,63.482 256.300 C 63.387 255.805,63.309 256.210,63.309 257.200 M107.644 261.644 C 107.398 262.351,107.266 263.000,107.352 263.085 C 107.438 263.171,107.709 262.662,107.956 261.956 C 108.202 261.249,108.334 260.600,108.248 260.515 C 108.162 260.429,107.891 260.938,107.644 261.644 M63.701 279.400 C 63.705 280.280,63.787 280.593,63.883 280.095 C 63.979 279.598,63.975 278.878,63.875 278.495 C 63.775 278.113,63.696 278.520,63.701 279.400 M98.249 285.815 C 98.112 286.173,98.015 286.766,98.034 287.133 C 98.053 287.500,98.227 287.269,98.421 286.620 C 98.798 285.358,98.665 284.733,98.249 285.815 M87.856 286.484 C 87.721 286.988,87.628 287.850,87.649 288.400 C 87.672 288.989,87.831 288.671,88.036 287.625 C 88.403 285.752,88.273 284.927,87.856 286.484 M87.301 291.800 C 87.305 292.680,87.387 292.993,87.483 292.495 C 87.579 291.998,87.575 291.278,87.475 290.895 C 87.375 290.513,87.296 290.920,87.301 291.800 M97.301 291.800 C 97.305 292.680,97.387 292.993,97.483 292.495 C 97.579 291.998,97.575 291.278,97.475 290.895 C 97.375 290.513,97.296 290.920,97.301 291.800 M389.055 300.255 C 388.913 301.286,388.874 302.208,388.969 302.302 C 389.063 302.396,389.265 301.639,389.418 300.618 C 389.571 299.598,389.610 298.676,389.504 298.571 C 389.398 298.465,389.196 299.223,389.055 300.255 M90.400 341.725 C 90.400 341.794,90.985 342.379,91.700 343.025 L 93.000 344.200 91.825 342.900 C 90.730 341.688,90.400 341.416,90.400 341.725 M370.975 345.068 C 370.359 345.876,370.059 346.411,370.309 346.256 C 370.821 345.940,372.553 343.600,372.275 343.600 C 372.176 343.600,371.591 344.261,370.975 345.068 M98.794 350.500 C 101.761 353.525,104.236 356.000,104.294 356.000 C 104.581 356.000,104.009 355.406,98.900 350.394 L 93.400 345.000 98.794 350.500 M367.375 349.700 L 366.200 351.000 367.500 349.825 C 368.215 349.179,368.800 348.594,368.800 348.525 C 368.800 348.216,368.470 348.488,367.375 349.700 M105.200 356.525 C 105.200 356.594,105.785 357.179,106.500 357.825 L 107.800 359.000 106.625 357.700 C 105.530 356.488,105.200 356.216,105.200 356.525 M360.800 376.333 C 360.800 376.590,360.530 376.800,360.200 376.800 C 359.870 376.800,359.600 376.950,359.600 377.133 C 359.600 377.317,359.862 377.467,360.183 377.467 C 360.781 377.467,361.385 376.451,361.009 376.076 C 360.894 375.961,360.800 376.077,360.800 376.333 M134.800 378.125 C 134.800 378.194,135.385 378.779,136.100 379.425 L 137.400 380.600 136.225 379.300 C 135.130 378.088,134.800 377.816,134.800 378.125 M140.800 384.125 C 140.800 384.194,141.385 384.779,142.100 385.425 L 143.400 386.600 142.225 385.300 C 141.130 384.088,140.800 383.816,140.800 384.125 M132.400 390.813 C 132.400 391.039,132.715 391.336,133.100 391.472 C 133.485 391.608,134.250 392.097,134.800 392.560 L 135.800 393.400 134.800 392.203 C 133.310 390.421,132.400 389.893,132.400 390.813 M341.829 395.029 C 341.681 395.615,341.638 396.172,341.732 396.266 C 341.827 396.360,342.024 395.958,342.171 395.371 C 342.319 394.785,342.362 394.228,342.268 394.134 C 342.173 394.040,341.976 394.442,341.829 395.029 M352.268 395.367 C 352.148 395.679,352.309 396.033,352.625 396.154 C 353.005 396.300,353.200 396.108,353.200 395.587 C 353.200 394.677,352.588 394.532,352.268 395.367 M341.056 398.484 C 340.921 398.988,340.827 399.760,340.846 400.200 C 340.865 400.640,341.045 400.298,341.246 399.440 C 341.636 397.778,341.470 396.940,341.056 398.484 M140.400 403.376 C 140.400 403.693,140.580 404.064,140.800 404.200 C 141.020 404.336,141.200 404.077,141.200 403.624 C 141.200 403.171,141.020 402.800,140.800 402.800 C 140.580 402.800,140.400 403.059,140.400 403.376 M152.056 404.400 C 152.056 404.730,152.211 405.360,152.400 405.800 C 152.617 406.304,152.744 406.378,152.744 406.000 C 152.744 405.670,152.589 405.040,152.400 404.600 C 152.183 404.096,152.056 404.022,152.056 404.400 M340.109 405.600 C 340.109 406.590,340.187 406.995,340.282 406.500 C 340.378 406.005,340.378 405.195,340.282 404.700 C 340.187 404.205,340.109 404.610,340.109 405.600 M339.709 409.600 C 339.709 410.590,339.787 410.995,339.882 410.500 C 339.978 410.005,339.978 409.195,339.882 408.700 C 339.787 408.205,339.709 408.610,339.709 409.600 " stroke="none" fill="#74644c" fill-rule="evenodd"></path></g></svg>