<svg id="svg" xmlns="http://www.w3.org/2000/svg" xmlns:xlink="http://www.w3.org/1999/xlink" width="400" height="400" viewBox="0, 0, 400,400" version="1.1"><g id="svgg"><path id="path0" d="M286.000 162.800 C 286.000 184.976,285.870 194.800,285.578 194.800 C 285.346 194.800,284.096 194.080,282.800 193.200 C 281.504 192.320,280.336 191.600,280.204 191.600 C 280.072 191.600,278.667 190.727,277.082 189.660 C 275.497 188.594,273.030 187.004,271.600 186.129 C 268.862 184.452,254.331 175.232,246.200 170.011 C 240.222 166.174,231.020 160.334,230.110 159.800 C 229.735 159.580,227.582 158.185,225.327 156.700 C 223.072 155.215,221.137 154.000,221.027 154.000 C 220.917 154.000,219.066 152.857,216.914 151.461 C 210.770 147.474,202.723 142.368,201.341 141.579 C 200.648 141.183,198.578 139.879,196.741 138.681 C 187.403 132.591,185.117 131.204,184.774 131.416 C 184.549 131.555,184.400 140.257,184.400 153.224 C 184.400 176.092,184.448 175.529,182.589 174.263 C 182.155 173.967,180.810 173.183,179.600 172.521 C 177.563 171.407,176.595 170.861,173.100 168.853 C 165.176 164.302,158.255 160.400,158.107 160.400 C 158.006 160.400,157.446 160.067,156.862 159.661 C 156.278 159.255,154.810 158.381,153.600 157.720 C 152.390 157.059,150.725 156.131,149.900 155.659 C 149.075 155.187,147.770 154.440,147.000 154.000 C 146.230 153.560,145.015 152.865,144.300 152.455 C 140.015 149.999,125.911 141.965,124.400 141.120 C 122.495 140.054,120.443 138.887,118.300 137.649 C 110.502 133.146,107.012 131.200,106.734 131.200 C 106.550 131.200,106.400 162.160,106.400 200.000 C 106.400 245.022,106.537 268.800,106.795 268.800 C 107.012 268.800,109.127 267.656,111.495 266.257 C 113.863 264.858,116.610 263.264,117.600 262.713 C 118.590 262.163,120.075 261.328,120.900 260.857 C 124.525 258.786,125.274 258.357,126.500 257.645 C 131.680 254.638,146.951 246.000,147.087 246.000 C 147.180 246.000,148.008 245.499,148.928 244.888 C 149.848 244.276,151.140 243.511,151.800 243.188 C 152.460 242.865,153.090 242.511,153.200 242.401 C 153.310 242.290,154.120 241.818,155.000 241.351 C 155.880 240.883,160.895 238.048,166.145 235.051 C 171.395 232.053,175.773 229.600,175.873 229.600 C 175.974 229.600,176.808 229.099,177.728 228.488 C 178.648 227.876,179.940 227.111,180.600 226.788 C 181.260 226.465,181.890 226.111,182.000 226.001 C 182.563 225.436,184.111 224.778,184.339 225.006 C 184.483 225.150,184.533 235.062,184.452 247.034 C 184.341 263.257,184.421 268.800,184.764 268.800 C 185.017 268.800,187.373 267.360,190.000 265.600 C 192.627 263.840,194.873 262.400,194.991 262.400 C 195.109 262.400,197.229 261.078,199.703 259.462 C 210.400 252.473,223.232 244.400,223.642 244.400 C 223.839 244.400,224.000 244.220,224.000 244.000 C 224.000 243.780,224.187 243.600,224.415 243.600 C 224.644 243.600,226.399 242.557,228.315 241.281 C 230.232 240.006,233.649 237.801,235.910 236.381 C 242.230 232.411,245.342 230.447,246.000 230.013 C 246.922 229.404,253.923 224.955,260.800 220.607 C 264.210 218.451,268.754 215.543,270.897 214.144 C 273.040 212.745,274.975 211.600,275.197 211.600 C 275.419 211.600,275.600 211.420,275.600 211.200 C 275.600 210.980,275.790 210.800,276.022 210.800 C 276.254 210.800,277.491 210.089,278.771 209.219 C 281.829 207.143,285.139 205.200,285.618 205.200 C 285.858 205.200,286.000 217.115,286.000 237.200 L 286.000 269.200 289.800 269.200 L 293.600 269.200 293.600 200.000 L 293.600 130.800 289.800 130.800 L 286.000 130.800 286.000 162.800 " stroke="none" fill="#fbfbfb" fill-rule="evenodd"></path><path id="path1" d="M179.200 0.440 C 177.110 0.629,174.140 0.892,172.600 1.024 C 171.060 1.157,169.629 1.430,169.420 1.632 C 169.211 1.835,167.996 2.000,166.720 2.000 C 165.440 2.000,164.400 2.179,164.400 2.400 C 164.400 2.620,163.511 2.800,162.424 2.800 C 161.337 2.800,160.336 2.980,160.200 3.200 C 160.064 3.420,159.254 3.600,158.400 3.600 C 157.546 3.600,156.736 3.780,156.600 4.000 C 156.464 4.220,155.643 4.400,154.776 4.400 C 153.909 4.400,153.200 4.580,153.200 4.800 C 153.200 5.020,152.491 5.200,151.624 5.200 C 150.757 5.200,149.936 5.380,149.800 5.600 C 149.664 5.820,149.034 6.000,148.400 6.000 C 147.766 6.000,147.136 6.180,147.000 6.400 C 146.864 6.620,146.234 6.800,145.600 6.800 C 144.966 6.800,144.336 6.980,144.200 7.200 C 144.064 7.420,143.459 7.600,142.856 7.600 C 142.253 7.600,141.581 7.779,141.362 7.998 C 141.144 8.216,140.478 8.436,139.882 8.485 C 139.287 8.534,138.800 8.745,138.800 8.954 C 138.800 9.163,138.700 9.234,138.579 9.112 C 138.457 8.991,137.557 9.132,136.579 9.426 C 135.600 9.721,134.797 9.835,134.794 9.681 C 134.791 9.526,134.625 9.657,134.426 9.972 C 134.227 10.286,133.825 10.583,133.532 10.631 C 132.582 10.787,126.671 12.858,124.811 13.686 C 123.815 14.130,122.370 14.762,121.600 15.090 C 120.830 15.419,119.677 15.938,119.039 16.244 C 118.400 16.550,117.635 16.800,117.339 16.800 C 117.042 16.800,116.800 16.980,116.800 17.200 C 116.800 17.420,116.440 17.600,116.000 17.600 C 115.560 17.600,115.200 17.780,115.200 18.000 C 115.200 18.220,114.975 18.404,114.700 18.409 C 114.425 18.414,113.120 18.950,111.800 19.600 C 110.480 20.250,109.175 20.786,108.900 20.791 C 108.625 20.796,108.400 20.980,108.400 21.200 C 108.400 21.420,108.164 21.600,107.875 21.600 C 107.587 21.600,106.964 21.960,106.492 22.400 C 106.020 22.840,105.356 23.200,105.017 23.200 C 104.678 23.200,104.400 23.380,104.400 23.600 C 104.400 23.820,104.040 24.000,103.600 24.000 C 103.160 24.000,102.800 24.180,102.800 24.400 C 102.800 24.620,102.440 24.800,102.000 24.800 C 101.560 24.800,101.200 25.010,101.200 25.267 C 101.200 25.523,101.081 25.614,100.935 25.469 C 100.790 25.323,100.039 25.686,99.267 26.274 C 98.495 26.863,97.995 27.132,98.155 26.873 C 98.613 26.133,98.209 26.314,97.088 27.353 C 96.522 27.878,95.506 28.552,94.830 28.851 C 94.153 29.150,93.600 29.510,93.600 29.649 C 93.600 29.789,93.060 30.127,92.400 30.400 C 91.740 30.673,91.200 31.055,91.200 31.249 C 91.200 31.442,90.952 31.600,90.649 31.600 C 90.346 31.600,89.871 31.873,89.594 32.207 C 89.317 32.541,88.485 33.102,87.745 33.453 C 87.005 33.804,86.400 34.251,86.400 34.446 C 86.400 34.641,86.124 34.800,85.787 34.800 C 85.451 34.800,85.072 35.069,84.946 35.398 C 84.819 35.726,84.555 35.896,84.358 35.774 C 84.161 35.652,84.000 35.705,84.000 35.890 C 84.000 36.076,83.505 36.520,82.900 36.879 C 82.295 37.237,81.372 37.902,80.848 38.356 C 80.325 38.811,79.695 39.068,79.448 38.928 C 79.202 38.787,79.126 38.812,79.281 38.983 C 79.609 39.347,79.130 39.858,77.200 41.200 C 76.430 41.736,75.591 42.360,75.335 42.587 C 75.079 42.814,74.279 43.450,73.558 44.000 C 72.837 44.550,71.832 45.413,71.324 45.918 C 70.816 46.423,70.400 46.719,70.400 46.576 C 70.400 46.433,69.886 46.866,69.257 47.539 C 68.629 48.211,67.864 48.815,67.557 48.881 C 67.251 48.946,66.820 49.274,66.600 49.608 C 66.380 49.943,64.726 51.608,62.925 53.308 C 61.124 55.009,59.733 56.400,59.835 56.400 C 59.936 56.400,59.249 57.183,58.309 58.140 C 57.369 59.097,56.544 59.835,56.475 59.781 C 56.406 59.727,55.056 61.038,53.475 62.695 C 51.894 64.352,50.362 65.953,50.071 66.254 C 49.781 66.554,49.365 66.800,49.148 66.800 C 48.931 66.800,48.858 66.970,48.986 67.177 C 49.114 67.385,48.579 68.195,47.796 68.977 C 47.014 69.760,46.478 70.400,46.605 70.400 C 46.732 70.400,46.423 70.839,45.918 71.375 C 45.413 71.911,44.550 72.910,44.000 73.594 C 43.450 74.279,42.762 75.100,42.471 75.420 C 42.181 75.739,42.046 76.000,42.171 76.000 C 42.297 76.000,42.085 76.333,41.700 76.740 C 40.384 78.131,39.600 79.209,39.600 79.628 C 39.600 79.859,39.420 79.936,39.200 79.800 C 38.980 79.664,38.800 79.754,38.800 80.000 C 38.800 80.471,36.415 83.705,35.898 83.934 C 35.731 84.008,35.709 84.253,35.849 84.479 C 35.988 84.705,35.854 85.043,35.551 85.230 C 35.248 85.418,34.992 85.802,34.982 86.085 C 34.972 86.368,34.765 86.561,34.521 86.513 C 34.278 86.465,33.794 87.026,33.447 87.758 C 33.099 88.490,32.541 89.317,32.207 89.594 C 31.873 89.871,31.600 90.269,31.600 90.478 C 31.600 90.686,31.320 91.137,30.977 91.480 C 30.634 91.823,30.455 92.367,30.579 92.689 C 30.713 93.039,30.521 93.348,30.102 93.459 C 29.716 93.561,29.046 94.375,28.613 95.268 C 28.181 96.161,27.607 96.976,27.339 97.079 C 27.070 97.182,26.960 97.551,27.093 97.899 C 27.245 98.294,27.173 98.431,26.903 98.264 C 26.645 98.104,26.513 98.280,26.575 98.698 C 26.633 99.084,26.344 99.637,25.933 99.927 C 25.523 100.217,25.290 100.622,25.417 100.827 C 25.544 101.032,25.457 101.200,25.224 101.200 C 24.991 101.200,24.800 101.560,24.800 102.000 C 24.800 102.440,24.620 102.800,24.400 102.800 C 24.180 102.800,24.000 103.081,24.000 103.424 C 24.000 103.767,23.850 103.955,23.667 103.841 C 23.483 103.728,23.303 103.897,23.267 104.218 C 23.230 104.538,23.170 105.070,23.133 105.400 C 23.097 105.730,22.917 106.000,22.733 106.000 C 22.550 106.000,22.400 106.270,22.400 106.600 C 22.400 106.930,22.220 107.200,22.000 107.200 C 21.780 107.200,21.600 107.470,21.600 107.800 C 21.600 108.130,21.456 108.400,21.280 108.400 C 21.105 108.400,20.719 109.075,20.424 109.900 C 20.129 110.725,19.733 111.500,19.546 111.622 C 19.358 111.745,19.164 112.321,19.116 112.903 C 19.068 113.486,18.950 113.883,18.854 113.787 C 18.579 113.512,17.600 115.606,17.600 116.469 C 17.600 116.897,17.420 117.136,17.200 117.000 C 16.980 116.864,16.800 117.093,16.800 117.510 C 16.800 117.926,16.665 118.402,16.500 118.567 C 16.335 118.732,16.194 118.987,16.186 119.133 C 16.178 119.280,15.945 119.809,15.667 120.308 C 15.390 120.808,15.273 121.394,15.407 121.611 C 15.541 121.828,15.369 122.114,15.025 122.246 C 14.681 122.378,14.400 122.732,14.400 123.032 C 14.400 123.333,14.014 124.438,13.541 125.489 C 13.069 126.540,12.508 127.788,12.294 128.262 C 12.081 128.736,12.016 129.302,12.151 129.520 C 12.285 129.738,12.141 130.014,11.830 130.133 C 11.494 130.262,11.312 130.778,11.381 131.407 C 11.449 132.024,11.268 132.552,10.949 132.675 C 10.647 132.791,10.400 133.226,10.400 133.643 C 10.400 134.059,10.230 134.400,10.023 134.400 C 9.816 134.400,9.715 134.756,9.798 135.192 C 9.882 135.627,9.782 136.088,9.575 136.215 C 9.369 136.343,9.200 136.977,9.200 137.624 C 9.200 138.271,9.059 138.800,8.887 138.800 C 8.715 138.800,8.535 139.277,8.487 139.860 C 8.439 140.442,8.206 141.152,7.970 141.436 C 7.735 141.720,7.600 142.295,7.671 142.715 C 7.742 143.134,7.555 143.772,7.255 144.133 C 6.596 144.927,6.976 146.171,7.783 145.862 C 8.176 145.711,8.285 145.834,8.127 146.247 C 7.966 146.664,7.765 146.725,7.481 146.441 C 6.911 145.871,6.029 147.095,6.013 148.476 C 6.006 149.068,5.820 149.664,5.600 149.800 C 5.380 149.936,5.200 150.656,5.200 151.400 C 5.200 152.144,5.026 152.860,4.813 152.992 C 4.600 153.124,4.449 153.861,4.478 154.630 C 4.507 155.400,4.321 156.239,4.065 156.495 C 3.809 156.751,3.600 157.633,3.600 158.456 C 3.600 159.279,3.420 160.064,3.200 160.200 C 2.980 160.336,2.800 161.077,2.800 161.847 C 2.800 162.743,2.955 163.152,3.230 162.982 C 3.466 162.836,3.422 163.095,3.133 163.558 C 2.844 164.021,2.484 164.400,2.332 164.400 C 2.181 164.400,2.057 165.401,2.057 166.625 C 2.057 167.848,1.857 169.091,1.612 169.386 C 1.023 170.096,1.288 173.433,1.923 173.300 C 2.185 173.245,2.400 173.380,2.400 173.600 C 2.400 173.820,2.115 174.000,1.767 174.000 C 1.085 174.000,1.172 174.857,1.877 175.092 C 2.537 175.312,2.948 173.141,2.323 172.738 C 1.985 172.519,1.943 172.294,2.205 172.100 C 2.428 171.935,2.635 171.281,2.666 170.648 C 2.697 170.014,2.902 169.384,3.123 169.248 C 3.343 169.111,3.459 168.145,3.381 167.100 C 3.272 165.641,3.374 165.200,3.819 165.200 C 4.139 165.200,4.400 164.830,4.400 164.376 C 4.400 163.856,4.230 163.658,3.938 163.838 C 3.622 164.034,3.587 163.946,3.827 163.562 C 4.019 163.253,4.232 162.640,4.300 162.200 C 4.368 161.760,4.598 161.340,4.812 161.267 C 5.025 161.193,5.200 160.338,5.200 159.367 C 5.200 158.395,5.380 157.600,5.600 157.600 C 6.122 157.600,6.119 155.101,5.597 154.483 C 5.375 154.221,5.313 154.094,5.460 154.200 C 6.063 154.637,6.800 153.401,6.800 151.951 C 6.800 151.098,6.980 150.400,7.200 150.400 C 7.420 150.400,7.600 150.237,7.600 150.037 C 7.600 149.838,7.237 149.770,6.794 149.886 C 6.185 150.045,6.047 149.944,6.227 149.473 C 6.359 149.131,6.721 148.948,7.033 149.068 C 7.377 149.200,7.600 149.033,7.600 148.643 C 7.600 148.289,7.780 148.000,8.000 148.000 C 8.265 148.000,8.400 165.600,8.400 200.000 C 8.400 234.400,8.265 252.000,8.000 252.000 C 7.611 252.000,7.429 251.158,7.579 250.060 C 7.620 249.763,7.461 249.638,7.227 249.783 C 6.948 249.956,6.800 249.401,6.800 248.181 C 6.800 246.777,6.666 246.366,6.259 246.522 C 5.851 246.678,5.756 246.382,5.873 245.319 C 5.985 244.307,5.827 243.752,5.314 243.354 C 4.642 242.831,4.647 242.812,5.400 243.037 C 6.027 243.224,6.074 243.186,5.620 242.865 C 5.238 242.594,5.074 241.878,5.140 240.763 C 5.200 239.744,5.041 238.949,4.740 238.763 C 4.446 238.581,4.279 237.797,4.334 236.860 C 4.386 235.982,4.242 235.150,4.014 235.009 C 3.786 234.868,3.600 234.393,3.600 233.953 C 3.600 233.450,3.428 233.259,3.138 233.438 C 2.850 233.616,2.785 233.548,2.966 233.255 C 3.593 232.241,3.617 230.782,3.012 230.549 C 2.678 230.421,2.517 230.135,2.654 229.913 C 2.790 229.692,2.654 229.353,2.351 229.161 C 2.036 228.962,1.992 228.810,2.249 228.806 C 3.022 228.796,2.877 225.285,2.085 224.824 C 1.708 224.604,1.580 224.416,1.800 224.406 C 2.241 224.386,1.182 223.616,0.700 223.606 C -0.044 223.591,0.507 224.837,1.500 225.413 C 2.105 225.764,2.322 225.969,1.982 225.869 C 1.212 225.643,1.028 227.104,1.719 227.958 C 2.097 228.427,2.093 228.490,1.700 228.253 C 1.338 228.036,1.200 228.337,1.200 229.343 C 1.200 230.108,1.393 230.798,1.629 230.876 C 1.868 230.956,2.057 232.044,2.057 233.335 C 2.057 235.419,2.122 235.598,2.705 235.125 C 3.223 234.706,3.291 234.704,3.042 235.118 C 2.869 235.407,2.967 235.926,3.266 236.294 C 3.560 236.657,3.604 236.836,3.365 236.693 C 3.085 236.526,2.908 236.989,2.869 237.995 C 2.835 238.854,2.986 239.668,3.204 239.802 C 3.422 239.937,3.600 240.509,3.600 241.073 C 3.600 241.865,3.717 242.001,4.116 241.669 C 4.508 241.344,4.648 241.438,4.694 242.055 C 4.736 242.613,4.574 242.799,4.178 242.647 C 3.467 242.374,3.465 242.448,4.139 243.748 C 4.436 244.320,4.820 244.656,4.992 244.494 C 5.164 244.332,5.058 244.605,4.756 245.100 C 4.314 245.825,4.304 246.155,4.704 246.795 C 4.977 247.232,5.200 248.132,5.200 248.795 C 5.200 249.458,5.380 250.000,5.600 250.000 C 5.820 250.000,6.000 250.542,6.000 251.205 C 6.000 252.414,6.651 253.944,7.400 254.494 C 7.648 254.676,7.610 254.790,7.300 254.794 C 7.025 254.797,6.803 255.115,6.806 255.500 C 6.811 256.045,6.888 256.080,7.156 255.657 C 7.396 255.279,7.583 255.249,7.774 255.557 C 7.924 255.801,7.924 256.199,7.774 256.443 C 7.503 256.881,8.143 259.555,8.839 260.895 C 9.038 261.277,9.200 262.012,9.200 262.528 C 9.200 263.044,9.335 263.602,9.500 263.767 C 9.665 263.932,9.824 264.367,9.854 264.733 C 9.949 265.907,10.481 267.200,10.870 267.200 C 11.078 267.200,11.136 267.380,11.000 267.600 C 10.864 267.820,10.954 268.000,11.200 268.000 C 11.446 268.000,11.544 268.167,11.419 268.370 C 11.293 268.574,11.395 269.249,11.645 269.870 C 13.287 273.950,13.790 275.402,13.679 275.749 C 13.617 275.941,13.811 276.005,14.108 275.891 C 14.507 275.737,14.605 275.987,14.479 276.841 C 14.349 277.725,14.468 278.000,14.978 278.000 C 15.361 278.000,15.531 278.187,15.376 278.438 C 15.228 278.679,15.511 279.425,16.007 280.095 C 16.503 280.766,16.709 281.191,16.465 281.040 C 16.222 280.890,16.364 281.449,16.781 282.283 C 17.198 283.118,17.771 284.372,18.055 285.071 C 18.338 285.770,18.712 286.255,18.885 286.148 C 19.201 285.952,19.353 286.557,19.228 287.509 C 19.191 287.789,19.441 288.298,19.784 288.641 C 20.127 288.984,20.315 289.415,20.201 289.598 C 20.088 289.782,20.131 289.992,20.298 290.066 C 20.464 290.140,21.405 291.775,22.390 293.700 C 23.374 295.625,24.319 297.200,24.490 297.200 C 24.660 297.200,24.800 297.560,24.800 298.000 C 24.800 298.440,24.991 298.800,25.224 298.800 C 25.457 298.800,25.549 298.960,25.428 299.155 C 25.307 299.350,25.477 299.732,25.804 300.004 C 26.132 300.276,26.400 300.757,26.400 301.073 C 26.400 301.389,26.571 301.542,26.779 301.413 C 26.988 301.284,27.090 301.535,27.006 301.971 C 26.904 302.496,27.124 302.849,27.657 303.018 C 28.099 303.158,28.361 303.372,28.241 303.493 C 27.990 303.743,29.194 306.053,29.800 306.485 C 30.020 306.642,30.208 307.002,30.218 307.285 C 30.228 307.568,30.453 307.755,30.718 307.700 C 30.983 307.645,31.162 307.735,31.116 307.900 C 30.981 308.383,32.457 311.200,32.846 311.200 C 33.041 311.200,33.200 311.520,33.200 311.912 C 33.200 312.303,33.560 312.883,34.000 313.200 C 34.440 313.517,34.800 313.962,34.800 314.188 C 34.801 314.415,35.251 315.123,35.800 315.762 C 36.350 316.401,36.800 317.057,36.800 317.220 C 36.800 317.382,37.339 318.093,37.998 318.798 C 38.658 319.504,39.098 320.241,38.978 320.436 C 38.857 320.631,39.067 320.672,39.445 320.527 C 39.911 320.349,40.038 320.415,39.842 320.732 C 39.683 320.989,39.743 321.200,39.976 321.200 C 40.209 321.200,40.400 321.393,40.400 321.629 C 40.400 322.268,41.458 323.204,41.817 322.881 C 41.988 322.726,42.013 322.802,41.872 323.048 C 41.732 323.295,41.973 323.908,42.408 324.410 C 42.844 324.912,43.200 325.475,43.200 325.661 C 43.200 325.848,43.500 326.000,43.867 326.000 C 44.233 326.000,44.419 326.115,44.278 326.255 C 43.954 326.579,45.094 328.182,47.173 330.324 C 48.067 331.246,48.735 332.000,48.656 332.000 C 48.388 332.000,50.995 334.835,53.918 337.720 C 61.604 345.308,63.055 346.812,62.868 346.999 C 62.757 347.109,62.853 347.200,63.080 347.200 C 63.308 347.200,64.508 348.190,65.747 349.400 C 66.986 350.610,68.000 351.482,68.000 351.339 C 68.000 351.195,68.336 351.465,68.747 351.939 C 69.158 352.412,69.728 352.800,70.014 352.800 C 70.299 352.800,70.419 352.914,70.279 353.054 C 70.139 353.194,71.234 354.218,72.712 355.328 C 74.191 356.439,75.490 357.458,75.600 357.593 C 75.710 357.728,76.430 358.274,77.200 358.806 C 79.124 360.136,79.610 360.652,79.281 361.017 C 79.126 361.188,79.201 361.214,79.446 361.074 C 79.844 360.847,82.416 362.567,84.571 364.500 C 85.000 364.885,85.587 365.200,85.875 365.200 C 86.164 365.200,86.400 365.358,86.400 365.551 C 86.400 365.745,86.940 366.127,87.600 366.400 C 88.260 366.673,88.800 367.025,88.800 367.181 C 88.800 367.337,89.295 367.719,89.900 368.030 C 90.505 368.340,91.270 368.866,91.600 369.197 C 91.930 369.529,92.470 369.859,92.800 369.930 C 93.130 370.002,93.460 370.227,93.533 370.430 C 93.607 370.634,93.828 370.800,94.026 370.800 C 94.223 370.800,95.369 371.430,96.573 372.200 C 97.777 372.970,98.923 373.600,99.120 373.600 C 99.316 373.600,99.893 373.960,100.400 374.400 C 100.907 374.840,101.655 375.200,102.061 375.200 C 102.468 375.200,102.801 375.335,102.803 375.500 C 102.806 375.811,104.703 376.800,105.296 376.800 C 105.482 376.800,106.020 377.160,106.492 377.600 C 106.964 378.040,107.587 378.400,107.875 378.400 C 108.164 378.400,108.400 378.580,108.400 378.800 C 108.400 379.020,108.634 379.200,108.920 379.200 C 109.656 379.200,111.593 380.141,111.597 380.500 C 111.599 380.665,111.853 380.800,112.162 380.800 C 112.471 380.800,113.416 381.144,114.262 381.564 C 117.555 383.201,121.169 384.800,121.575 384.800 C 121.809 384.800,122.000 384.980,122.000 385.200 C 122.000 385.420,122.435 385.600,122.967 385.600 C 123.498 385.600,123.993 385.742,124.067 385.916 C 124.140 386.090,125.100 386.526,126.200 386.885 C 127.300 387.245,129.730 388.107,131.600 388.802 C 133.470 389.497,135.270 390.127,135.600 390.202 C 135.930 390.277,136.200 390.366,136.200 390.399 C 136.200 390.432,136.646 390.541,137.191 390.641 C 137.737 390.741,138.358 390.998,138.571 391.211 C 138.785 391.425,139.554 391.600,140.280 391.600 C 141.006 391.600,141.600 391.780,141.600 392.000 C 141.600 392.220,142.129 392.400,142.776 392.400 C 143.423 392.400,144.064 392.580,144.200 392.800 C 144.336 393.020,144.966 393.200,145.600 393.200 C 146.234 393.200,146.864 393.380,147.000 393.600 C 147.136 393.820,147.856 394.000,148.600 394.000 C 149.344 394.000,150.064 394.180,150.200 394.400 C 150.336 394.620,151.056 394.800,151.800 394.800 C 152.544 394.800,153.264 394.980,153.400 395.200 C 153.536 395.420,154.357 395.600,155.224 395.600 C 156.091 395.600,156.800 395.780,156.800 396.000 C 156.800 396.220,157.689 396.400,158.776 396.400 C 159.863 396.400,160.864 396.580,161.000 396.800 C 161.136 397.020,162.047 397.200,163.024 397.200 C 164.001 397.200,164.800 397.380,164.800 397.600 C 164.800 397.820,165.754 398.000,166.920 398.000 C 168.086 398.000,169.211 398.165,169.420 398.368 C 169.629 398.570,170.970 398.832,172.400 398.951 C 173.830 399.069,177.340 399.366,180.200 399.610 C 187.300 400.216,224.223 399.937,224.888 399.272 C 225.158 399.002,226.523 398.800,228.080 398.800 C 229.627 398.800,230.800 398.627,230.800 398.400 C 230.800 398.178,231.867 398.000,233.200 398.000 C 234.533 398.000,235.600 397.822,235.600 397.600 C 235.600 397.380,236.601 397.200,237.824 397.200 C 239.204 397.200,239.953 397.048,239.800 396.800 C 239.649 396.556,240.263 396.400,241.376 396.400 C 242.379 396.400,243.200 396.220,243.200 396.000 C 243.200 395.780,244.010 395.600,245.000 395.600 C 245.990 395.600,246.800 395.420,246.800 395.200 C 246.800 394.980,247.419 394.800,248.176 394.800 C 248.933 394.800,249.664 394.620,249.800 394.400 C 249.936 394.180,250.566 394.000,251.200 394.000 C 251.834 394.000,252.464 393.820,252.600 393.600 C 252.736 393.380,253.456 393.200,254.200 393.200 C 254.944 393.200,255.664 393.020,255.800 392.800 C 255.936 392.580,256.677 392.400,257.447 392.400 C 258.279 392.400,258.747 392.238,258.600 392.000 C 258.462 391.777,258.805 391.578,259.376 391.550 C 260.498 391.495,260.712 391.450,261.600 391.083 C 262.908 390.541,267.201 389.200,267.627 389.200 C 267.876 389.200,268.736 388.912,269.540 388.559 C 271.921 387.514,272.519 387.279,274.200 386.729 C 275.080 386.440,275.890 386.113,276.000 386.001 C 276.189 385.809,277.286 385.281,279.300 384.411 C 279.795 384.198,280.470 383.973,280.800 383.911 C 281.130 383.850,281.490 383.710,281.600 383.600 C 282.078 383.122,283.639 382.400,284.195 382.400 C 284.528 382.400,284.800 382.220,284.800 382.000 C 284.800 381.780,285.034 381.600,285.320 381.600 C 286.080 381.600,287.993 380.654,287.997 380.276 C 287.999 380.098,288.165 380.055,288.368 380.180 C 288.570 380.305,289.007 380.136,289.339 379.804 C 289.671 379.472,290.226 379.200,290.571 379.200 C 290.917 379.200,291.200 379.020,291.200 378.800 C 291.200 378.580,291.571 378.400,292.024 378.400 C 292.477 378.400,292.736 378.220,292.600 378.000 C 292.459 377.772,292.804 377.600,293.400 377.600 C 293.996 377.600,294.341 377.428,294.200 377.200 C 294.064 376.980,294.323 376.800,294.776 376.800 C 295.229 376.800,295.600 376.620,295.600 376.400 C 295.600 376.180,295.960 376.000,296.400 376.000 C 296.840 376.000,297.200 375.840,297.200 375.643 C 297.200 375.447,297.693 375.163,298.296 375.012 C 298.899 374.860,299.484 374.590,299.596 374.411 C 299.708 374.233,301.239 373.316,302.998 372.374 C 304.757 371.432,306.437 370.421,306.730 370.127 C 307.024 369.833,307.458 369.712,307.694 369.858 C 307.949 370.015,308.007 369.936,307.838 369.662 C 307.669 369.388,307.807 369.200,308.176 369.200 C 308.519 369.200,308.800 369.032,308.800 368.827 C 308.800 368.622,309.138 368.347,309.551 368.216 C 309.964 368.084,310.819 367.533,311.451 366.989 C 312.083 366.446,312.825 366.001,313.100 366.000 C 313.375 366.000,313.600 365.820,313.600 365.600 C 313.600 365.380,313.825 365.199,314.100 365.198 C 314.375 365.197,315.175 364.657,315.878 363.998 C 316.581 363.339,317.301 362.799,317.478 362.798 C 317.655 362.797,318.375 362.257,319.078 361.598 C 319.781 360.939,320.466 360.400,320.600 360.400 C 320.734 360.400,321.419 359.861,322.122 359.202 C 322.825 358.543,323.543 358.003,323.718 358.002 C 323.893 358.001,324.477 357.595,325.016 357.100 C 326.013 356.184,327.404 355.002,329.200 353.548 C 329.750 353.102,330.954 352.032,331.877 351.169 C 332.799 350.306,333.657 349.600,333.784 349.600 C 333.911 349.600,335.437 348.160,337.176 346.400 C 338.915 344.640,340.532 343.200,340.769 343.200 C 341.006 343.200,341.200 343.032,341.200 342.828 C 341.200 342.623,343.090 340.545,345.400 338.209 C 347.710 335.874,349.600 333.858,349.600 333.729 C 349.600 333.600,350.365 332.724,351.300 331.782 C 352.235 330.840,353.270 329.665,353.600 329.172 C 354.128 328.382,356.249 325.748,356.799 325.200 C 356.910 325.090,357.623 324.190,358.385 323.200 C 359.147 322.210,359.912 321.340,360.085 321.267 C 360.258 321.193,360.400 320.878,360.400 320.567 C 360.400 320.255,360.550 320.000,360.732 320.000 C 360.915 320.000,361.320 319.505,361.632 318.900 C 361.945 318.295,362.380 317.604,362.600 317.363 C 362.820 317.123,363.450 316.330,364.000 315.600 C 364.550 314.870,365.193 314.077,365.429 313.837 C 365.664 313.596,365.896 313.220,365.943 313.000 C 365.991 312.780,366.383 312.194,366.815 311.697 C 367.247 311.200,367.600 310.696,367.600 310.576 C 367.600 310.154,369.473 307.606,369.652 307.785 C 369.751 307.884,369.862 307.572,369.898 307.091 C 369.935 306.609,370.254 306.003,370.609 305.744 C 370.963 305.485,371.240 305.121,371.223 304.936 C 371.207 304.751,371.502 304.240,371.878 303.800 C 372.255 303.360,372.542 302.959,372.517 302.909 C 372.358 302.600,372.955 301.200,373.247 301.200 C 373.441 301.200,373.600 300.939,373.600 300.620 C 373.600 300.301,373.886 299.880,374.236 299.684 C 374.586 299.488,374.871 299.213,374.871 299.073 C 374.869 298.335,375.339 297.200,375.647 297.200 C 375.841 297.200,376.000 296.840,376.000 296.400 C 376.000 295.960,376.180 295.600,376.400 295.600 C 376.620 295.600,376.800 295.240,376.800 294.800 C 376.800 294.360,376.980 294.000,377.200 294.000 C 377.420 294.000,377.600 293.629,377.600 293.176 C 377.600 292.723,377.780 292.464,378.000 292.600 C 378.220 292.736,378.400 292.477,378.400 292.024 C 378.400 291.571,378.580 291.200,378.800 291.200 C 379.020 291.200,379.200 290.862,379.200 290.449 C 379.200 290.036,379.468 289.476,379.796 289.204 C 380.123 288.932,380.305 288.570,380.200 288.400 C 380.095 288.230,380.275 287.870,380.600 287.600 C 380.925 287.330,381.093 286.950,380.972 286.755 C 380.851 286.560,380.943 286.400,381.176 286.400 C 381.409 286.400,381.600 286.040,381.600 285.600 C 381.600 285.160,381.780 284.800,382.000 284.800 C 382.220 284.800,382.400 284.470,382.400 284.067 C 382.400 283.663,382.525 283.209,382.677 283.056 C 382.829 282.904,383.015 282.379,383.089 281.890 C 383.163 281.400,383.398 280.940,383.612 280.867 C 383.825 280.793,384.000 280.484,384.000 280.179 C 384.000 279.874,384.360 278.983,384.800 278.200 C 385.240 277.417,385.600 276.501,385.600 276.164 C 385.600 275.828,385.742 275.640,385.915 275.748 C 386.088 275.855,386.265 275.517,386.308 274.998 C 386.351 274.478,386.839 273.065,387.391 271.857 C 387.944 270.649,388.451 269.332,388.517 268.930 C 388.584 268.529,388.849 267.819,389.105 267.353 C 389.362 266.887,389.485 266.418,389.379 266.312 C 389.273 266.206,389.545 265.327,389.984 264.360 C 390.423 263.392,390.786 262.105,390.791 261.500 C 390.796 260.895,390.980 260.400,391.200 260.400 C 391.420 260.400,391.600 259.939,391.600 259.376 C 391.600 258.813,391.753 258.447,391.940 258.563 C 392.126 258.678,392.295 258.226,392.314 257.558 C 392.333 256.891,392.530 256.125,392.753 255.857 C 392.975 255.589,393.202 254.611,393.257 253.685 C 393.312 252.758,393.501 252.000,393.678 252.000 C 393.855 252.000,394.000 251.370,394.000 250.600 C 394.000 249.830,394.180 249.200,394.400 249.200 C 394.620 249.200,394.800 248.750,394.800 248.200 C 394.800 247.650,395.025 247.197,395.300 247.194 C 395.633 247.190,395.600 247.058,395.200 246.800 C 394.800 246.542,394.767 246.410,395.100 246.406 C 395.416 246.402,395.600 245.810,395.600 244.800 C 395.600 243.920,395.735 243.200,395.900 243.200 C 396.065 243.200,396.249 242.345,396.308 241.300 C 396.368 240.255,396.593 239.340,396.808 239.267 C 397.024 239.193,397.200 238.148,397.200 236.943 C 397.200 235.738,397.351 234.846,397.535 234.960 C 397.719 235.074,397.910 234.055,397.959 232.695 C 398.008 231.336,398.262 229.966,398.524 229.650 C 398.786 229.335,398.955 229.015,398.900 228.939 C 398.615 228.543,398.852 223.585,399.147 223.768 C 399.666 224.088,399.800 219.217,399.800 200.000 C 399.800 182.915,399.615 175.605,399.182 175.602 C 399.062 175.601,398.911 174.925,398.846 174.100 C 398.782 173.275,398.649 172.060,398.550 171.400 C 398.452 170.740,398.271 169.210,398.149 168.000 C 398.026 166.790,397.763 165.629,397.563 165.420 C 397.363 165.211,397.200 164.011,397.200 162.753 C 397.200 161.496,397.026 160.407,396.813 160.333 C 396.600 160.260,396.381 159.615,396.328 158.900 C 396.274 158.185,396.123 157.600,395.993 157.600 C 395.863 157.600,395.712 156.851,395.658 155.936 C 395.604 155.021,395.389 153.953,395.180 153.563 C 394.971 153.172,394.800 152.401,394.800 151.850 C 394.800 151.298,394.620 150.736,394.400 150.600 C 394.180 150.464,394.000 149.733,394.000 148.976 C 394.000 148.219,393.839 147.600,393.642 147.600 C 393.445 147.600,393.185 146.925,393.065 146.100 C 392.649 143.259,392.308 142.000,391.955 142.000 C 391.760 142.000,391.600 141.608,391.600 141.128 C 391.600 140.075,390.735 137.495,390.268 137.155 C 390.083 137.021,389.966 136.792,390.009 136.647 C 390.166 136.110,389.509 133.367,388.991 132.400 C 388.697 131.850,387.971 129.960,387.377 128.200 C 386.784 126.440,385.962 124.291,385.549 123.425 C 385.137 122.559,384.800 121.513,384.800 121.101 C 384.800 120.690,384.620 120.464,384.400 120.600 C 384.180 120.736,384.000 120.564,384.000 120.218 C 384.000 119.872,383.835 119.277,383.634 118.895 C 382.916 117.534,381.839 114.991,381.747 114.440 C 381.695 114.132,381.506 113.772,381.327 113.640 C 381.147 113.508,380.371 112.140,379.603 110.600 C 378.835 109.060,378.114 107.710,378.002 107.600 C 377.890 107.490,377.553 106.860,377.253 106.200 C 376.952 105.540,376.515 104.640,376.280 104.200 C 376.045 103.760,375.612 102.924,375.318 102.342 C 375.024 101.760,374.528 101.072,374.215 100.813 C 373.903 100.554,373.746 100.085,373.867 99.771 C 373.987 99.457,373.905 99.200,373.683 99.200 C 373.462 99.200,372.912 98.493,372.462 97.629 C 371.127 95.068,370.618 94.214,370.280 93.964 C 370.104 93.834,369.932 93.352,369.897 92.892 C 369.862 92.432,369.691 92.144,369.517 92.251 C 369.343 92.359,369.200 92.206,369.200 91.912 C 369.200 91.617,368.840 91.117,368.400 90.800 C 367.960 90.483,367.600 89.903,367.600 89.512 C 367.600 89.120,367.465 88.795,367.300 88.789 C 367.135 88.783,366.559 88.063,366.020 87.189 C 365.480 86.315,364.895 85.600,364.720 85.600 C 364.544 85.600,364.400 85.330,364.400 85.000 C 364.400 84.670,364.265 84.399,364.100 84.398 C 363.935 84.397,363.176 83.420,362.413 82.228 C 361.651 81.035,360.907 80.134,360.760 80.225 C 360.613 80.316,360.270 79.852,359.998 79.195 C 359.726 78.538,359.375 78.000,359.219 78.000 C 359.063 78.000,358.680 77.508,358.368 76.906 C 357.791 75.794,356.725 74.407,355.553 73.243 C 353.899 71.601,351.283 68.047,351.527 67.775 C 351.677 67.608,351.574 67.602,351.297 67.761 C 350.996 67.935,350.687 67.772,350.528 67.357 C 350.382 66.975,347.143 63.520,343.331 59.679 C 339.519 55.839,336.392 52.585,336.381 52.448 C 336.371 52.312,335.473 51.570,334.386 50.800 C 333.298 50.030,332.407 49.145,332.404 48.833 C 332.402 48.522,332.295 48.372,332.166 48.501 C 332.037 48.630,331.542 48.405,331.066 48.002 C 330.590 47.600,329.075 46.339,327.700 45.200 C 326.325 44.062,325.200 42.966,325.200 42.765 C 325.200 42.564,325.041 42.445,324.846 42.500 C 324.423 42.619,321.223 40.331,321.209 39.900 C 321.204 39.735,321.022 39.600,320.805 39.600 C 320.422 39.600,319.371 38.841,318.033 37.600 C 317.192 36.819,315.274 35.578,314.974 35.620 C 314.845 35.638,314.438 35.324,314.070 34.924 C 313.701 34.523,312.905 33.940,312.300 33.630 C 311.695 33.319,311.200 32.915,311.200 32.732 C 311.200 32.550,310.930 32.400,310.600 32.400 C 310.270 32.400,310.000 32.264,310.000 32.098 C 310.000 31.931,309.494 31.571,308.875 31.297 C 308.256 31.024,307.360 30.436,306.883 29.991 C 306.406 29.547,305.877 29.165,305.708 29.142 C 305.538 29.119,304.680 28.622,303.800 28.036 C 302.920 27.450,301.120 26.443,299.800 25.798 C 298.480 25.152,297.153 24.385,296.852 24.092 C 296.550 23.800,295.785 23.457,295.152 23.330 C 294.518 23.204,294.000 22.942,294.000 22.750 C 294.000 22.558,293.629 22.400,293.176 22.400 C 292.723 22.400,292.464 22.220,292.600 22.000 C 292.736 21.780,292.492 21.600,292.057 21.600 C 291.622 21.600,291.207 21.465,291.133 21.300 C 290.966 20.923,282.330 16.720,279.400 15.590 C 278.960 15.420,277.880 14.955,277.000 14.556 C 276.120 14.157,275.310 13.811,275.200 13.787 C 275.090 13.763,274.550 13.546,274.000 13.304 C 271.496 12.207,267.317 10.706,266.508 10.613 C 266.018 10.558,265.362 10.300,265.050 10.042 C 264.739 9.783,264.330 9.607,264.142 9.649 C 263.811 9.724,263.214 9.540,261.281 8.767 C 260.776 8.565,259.831 8.400,259.181 8.400 C 258.532 8.400,258.000 8.220,258.000 8.000 C 258.000 7.780,257.586 7.600,257.080 7.600 C 256.574 7.600,255.986 7.426,255.773 7.213 C 255.561 7.001,254.805 6.783,254.093 6.728 C 253.382 6.674,252.800 6.488,252.800 6.315 C 252.800 6.142,252.181 6.000,251.424 6.000 C 250.667 6.000,249.936 5.820,249.800 5.600 C 249.664 5.380,248.944 5.200,248.200 5.200 C 247.456 5.200,246.736 5.020,246.600 4.800 C 246.464 4.580,245.744 4.400,245.000 4.400 C 244.256 4.400,243.536 4.220,243.400 4.000 C 243.264 3.780,242.263 3.600,241.176 3.600 C 240.089 3.600,239.200 3.420,239.200 3.200 C 239.200 2.980,238.390 2.800,237.400 2.800 C 236.410 2.800,235.600 2.620,235.600 2.400 C 235.600 2.178,234.533 2.000,233.200 2.000 C 231.867 2.000,230.800 1.822,230.800 1.600 C 230.800 1.372,229.622 1.200,228.067 1.200 C 226.563 1.200,225.208 1.075,225.055 0.922 C 224.902 0.769,224.467 0.573,224.088 0.487 C 222.627 0.156,182.799 0.114,179.200 0.440 M294.000 133.400 L 294.000 136.800 297.000 136.800 L 300.000 136.800 300.000 206.414 L 300.000 276.029 296.100 275.914 L 292.200 275.800 292.200 272.800 L 292.200 269.800 289.000 269.800 L 285.800 269.800 285.697 242.900 C 285.641 228.105,285.488 216.000,285.359 216.000 C 285.122 216.000,280.254 219.038,270.600 225.210 C 267.740 227.039,262.790 230.181,259.600 232.193 C 256.410 234.205,252.540 236.666,251.000 237.662 C 249.460 238.658,246.490 240.556,244.400 241.879 C 242.310 243.202,239.070 245.268,237.200 246.471 C 235.330 247.674,232.270 249.616,230.400 250.787 C 228.530 251.957,225.081 254.163,222.735 255.689 C 220.389 257.215,217.943 258.764,217.298 259.132 C 216.186 259.766,213.442 261.512,202.062 268.826 C 199.346 270.572,196.961 272.000,196.762 272.000 C 196.563 272.000,196.400 272.180,196.400 272.400 C 196.400 272.620,196.210 272.800,195.978 272.800 C 195.746 272.800,194.484 273.528,193.173 274.419 C 190.355 276.332,190.447 276.451,190.306 270.719 L 190.200 266.438 187.715 268.019 C 183.664 270.597,184.000 272.007,184.000 252.425 L 184.000 235.250 181.500 236.759 C 180.125 237.588,178.010 238.811,176.800 239.475 C 175.590 240.139,173.925 241.069,173.100 241.541 C 172.275 242.013,170.994 242.743,170.253 243.163 C 169.513 243.583,167.694 244.663,166.212 245.563 C 164.731 246.463,163.470 247.200,163.410 247.200 C 163.315 247.200,154.823 252.001,151.300 254.045 C 150.585 254.460,149.370 255.160,148.600 255.600 C 147.830 256.040,146.525 256.788,145.700 257.262 C 144.875 257.735,143.480 258.500,142.600 258.962 C 141.720 259.423,140.910 259.890,140.800 260.000 C 140.690 260.110,140.170 260.442,139.645 260.738 C 139.120 261.033,138.040 261.645,137.245 262.097 C 136.450 262.548,134.810 263.459,133.600 264.120 C 132.390 264.781,130.922 265.655,130.338 266.061 C 129.754 266.467,129.184 266.800,129.071 266.800 C 128.958 266.800,127.546 267.578,125.933 268.529 C 124.320 269.480,122.010 270.804,120.800 271.470 C 119.590 272.137,117.925 273.069,117.100 273.541 C 113.599 275.546,112.766 276.000,112.588 276.000 C 112.485 276.000,112.400 273.930,112.400 271.400 C 112.400 266.200,112.506 266.313,109.372 268.200 C 108.093 268.970,106.811 269.600,106.524 269.600 C 105.881 269.600,105.732 131.013,106.374 130.616 C 106.580 130.489,107.435 130.778,108.274 131.258 C 109.113 131.739,111.780 133.241,114.200 134.596 C 116.620 135.951,119.275 137.451,120.100 137.930 C 122.272 139.190,125.219 140.871,128.045 142.462 C 128.570 142.758,129.090 143.090,129.200 143.200 C 129.310 143.310,130.120 143.777,131.000 144.238 C 131.880 144.700,133.275 145.465,134.100 145.938 C 134.925 146.412,136.275 147.182,137.100 147.649 C 137.925 148.116,140.040 149.316,141.800 150.316 C 143.560 151.315,145.990 152.671,147.200 153.328 C 148.410 153.985,149.850 154.816,150.400 155.175 C 150.950 155.535,151.940 156.092,152.600 156.414 C 153.260 156.735,153.890 157.089,154.000 157.199 C 154.187 157.387,155.095 157.921,157.000 158.962 C 157.440 159.203,157.890 159.490,158.000 159.600 C 158.110 159.710,158.920 160.177,159.800 160.638 C 160.680 161.100,162.120 161.890,163.000 162.395 C 163.880 162.900,165.410 163.764,166.400 164.316 C 167.390 164.867,169.460 166.035,171.000 166.912 C 172.540 167.788,174.790 169.049,176.000 169.714 C 177.210 170.378,178.650 171.226,179.200 171.598 C 179.750 171.970,180.785 172.527,181.500 172.835 C 182.215 173.143,182.800 173.531,182.800 173.698 C 182.800 173.864,183.070 174.000,183.400 174.000 C 183.926 174.000,184.000 171.311,184.000 152.200 C 184.000 133.353,184.079 130.400,184.584 130.400 C 184.905 130.400,187.650 132.023,190.684 134.008 C 193.718 135.992,196.470 137.733,196.800 137.877 C 197.130 138.022,198.697 139.008,200.282 140.070 C 201.867 141.131,203.270 142.000,203.399 142.000 C 203.528 142.000,204.020 142.360,204.492 142.800 C 204.964 143.240,205.587 143.600,205.875 143.600 C 206.164 143.600,206.400 143.780,206.400 144.000 C 206.400 144.220,206.636 144.400,206.925 144.400 C 207.213 144.400,207.836 144.760,208.308 145.200 C 208.780 145.640,209.274 146.000,209.405 146.000 C 209.665 146.000,214.274 148.857,219.496 152.255 C 221.309 153.435,222.974 154.400,223.196 154.400 C 223.418 154.400,223.600 154.580,223.600 154.800 C 223.600 155.020,223.870 155.200,224.200 155.200 C 224.530 155.200,224.800 155.380,224.800 155.600 C 224.800 155.820,225.070 156.000,225.400 156.000 C 225.730 156.000,226.000 156.180,226.000 156.400 C 226.000 156.620,226.236 156.800,226.525 156.800 C 226.813 156.800,227.436 157.160,227.908 157.600 C 228.380 158.040,228.877 158.400,229.011 158.400 C 229.146 158.400,230.008 158.901,230.928 159.512 C 231.848 160.124,233.095 160.874,233.700 161.180 C 234.305 161.485,234.800 161.885,234.800 162.068 C 234.800 162.250,234.979 162.400,235.197 162.400 C 235.573 162.400,244.461 167.921,245.483 168.789 C 245.749 169.015,246.072 169.200,246.201 169.200 C 246.330 169.200,247.770 170.100,249.400 171.200 C 251.030 172.300,252.552 173.200,252.782 173.200 C 253.012 173.200,253.200 173.380,253.200 173.600 C 253.200 173.820,253.470 174.000,253.800 174.000 C 254.130 174.000,254.400 174.180,254.400 174.400 C 254.400 174.620,254.670 174.800,255.000 174.800 C 255.330 174.800,255.600 174.980,255.600 175.200 C 255.600 175.420,255.836 175.600,256.125 175.600 C 256.413 175.600,257.007 175.915,257.445 176.300 C 258.194 176.959,259.132 177.560,261.000 178.578 C 261.933 179.086,262.431 179.401,267.914 182.943 C 270.176 184.404,272.201 185.600,272.414 185.600 C 272.626 185.600,272.800 185.780,272.800 186.000 C 272.800 186.220,273.036 186.400,273.325 186.400 C 273.613 186.400,274.207 186.715,274.645 187.100 C 275.083 187.485,275.837 188.025,276.320 188.300 C 276.804 188.575,277.596 189.025,278.080 189.300 C 278.563 189.575,279.317 190.115,279.755 190.500 C 280.193 190.885,280.787 191.200,281.075 191.200 C 281.364 191.200,281.600 191.380,281.600 191.600 C 281.600 191.820,281.836 192.000,282.125 192.000 C 282.413 192.000,282.998 192.324,283.425 192.720 C 285.756 194.885,285.600 197.064,285.600 162.254 C 285.600 144.808,285.720 130.413,285.867 130.267 C 286.013 130.120,287.903 130.000,290.067 130.000 L 294.000 130.000 294.000 133.400 M361.200 162.000 C 361.200 162.880,361.380 163.600,361.600 163.600 C 361.820 163.600,362.000 164.320,362.000 165.200 C 362.000 166.080,362.180 166.800,362.400 166.800 C 362.622 166.800,362.800 167.867,362.800 169.200 C 362.800 170.533,362.978 171.600,363.200 171.600 C 363.420 171.600,363.600 172.590,363.600 173.800 C 363.600 175.010,363.780 176.000,364.000 176.000 C 364.229 176.000,364.400 177.200,364.400 178.800 C 364.400 180.400,364.571 181.600,364.800 181.600 C 365.044 181.600,365.200 183.467,365.200 186.400 C 365.200 189.333,365.356 191.200,365.600 191.200 C 365.855 191.200,366.000 194.467,366.000 200.200 C 366.000 205.933,365.855 209.200,365.600 209.200 C 365.357 209.200,365.200 211.000,365.200 213.800 C 365.200 216.600,365.043 218.400,364.800 218.400 C 364.571 218.400,364.400 219.600,364.400 221.200 C 364.400 222.800,364.229 224.000,364.000 224.000 C 363.780 224.000,363.600 224.990,363.600 226.200 C 363.600 227.410,363.420 228.400,363.200 228.400 C 362.978 228.400,362.800 229.467,362.800 230.800 C 362.800 232.133,362.622 233.200,362.400 233.200 C 362.180 233.200,362.000 233.920,362.000 234.800 C 362.000 235.680,361.820 236.400,361.600 236.400 C 361.380 236.400,361.200 237.120,361.200 238.000 C 361.200 238.880,361.020 239.600,360.800 239.600 C 360.536 239.600,360.400 226.133,360.400 200.000 C 360.400 173.867,360.536 160.400,360.800 160.400 C 361.020 160.400,361.200 161.120,361.200 162.000 M0.400 175.553 C 0.400 175.968,0.730 176.393,1.133 176.498 C 1.571 176.613,1.867 176.477,1.867 176.163 C 1.867 175.873,1.717 175.728,1.533 175.841 C 1.350 175.955,1.200 175.767,1.200 175.424 C 1.200 175.081,1.020 174.800,0.800 174.800 C 0.580 174.800,0.400 175.139,0.400 175.553 M0.416 178.078 C 0.439 178.805,0.336 181.695,0.185 184.500 C -0.016 188.221,0.034 189.600,0.368 189.600 C 1.041 189.600,1.378 188.418,0.853 187.893 C 0.604 187.644,0.403 187.251,0.406 187.020 C 0.409 186.789,0.587 186.870,0.800 187.200 C 1.135 187.719,1.189 187.710,1.194 187.133 C 1.197 186.767,0.975 186.375,0.700 186.264 C 0.357 186.125,0.333 185.957,0.623 185.730 C 0.856 185.549,1.061 184.703,1.078 183.851 C 1.098 182.826,0.990 182.487,0.760 182.851 C 0.496 183.268,0.411 183.277,0.406 182.887 C 0.403 182.605,0.749 182.245,1.176 182.087 C 2.115 181.740,2.257 181.209,1.534 180.751 C 1.115 180.485,1.111 180.411,1.514 180.406 C 1.914 180.401,1.927 180.211,1.574 179.552 C 1.255 178.956,1.251 178.784,1.560 178.975 C 1.825 179.139,2.000 178.924,2.000 178.438 C 2.000 177.992,1.634 177.432,1.186 177.193 C 0.441 176.794,0.376 176.869,0.416 178.078 M0.069 194.875 C 0.072 199.217,0.133 199.638,0.687 199.084 C 1.180 198.591,1.217 198.226,0.875 197.243 C 0.634 196.552,0.602 195.922,0.801 195.799 C 1.328 195.473,1.087 190.443,0.533 190.230 C 0.193 190.099,0.067 191.361,0.069 194.875 M0.039 204.245 C 0.024 206.244,0.202 207.962,0.456 208.267 C 0.779 208.657,0.778 208.800,0.449 208.800 C 0.202 208.800,0.000 209.070,0.000 209.400 C 0.000 209.730,0.191 210.000,0.424 210.000 C 0.657 210.000,0.744 209.832,0.617 209.628 C 0.491 209.423,0.531 209.166,0.706 209.058 C 1.227 208.736,1.058 201.086,0.526 200.909 C 0.202 200.801,0.057 201.795,0.039 204.245 M0.000 210.779 C 0.000 210.974,0.225 211.224,0.500 211.335 C 0.900 211.496,0.900 211.543,0.500 211.568 C -0.207 211.613,-0.182 215.067,0.525 215.067 C 1.255 215.067,1.255 210.907,0.525 210.627 C 0.236 210.516,0.000 210.584,0.000 210.779 M0.252 217.567 C 0.326 218.575,0.439 220.120,0.503 221.000 C 0.634 222.801,1.021 223.615,1.724 223.568 C 2.065 223.546,2.057 223.479,1.698 223.334 C 1.421 223.223,1.326 222.922,1.486 222.666 C 1.981 221.872,2.017 220.800,1.549 220.800 C 1.243 220.800,1.259 220.611,1.600 220.200 C 2.000 219.718,1.994 219.600,1.569 219.600 C 1.190 219.600,1.162 219.478,1.473 219.167 C 1.783 218.857,1.742 218.406,1.326 217.572 C 1.007 216.933,0.841 216.258,0.956 216.072 C 1.071 215.886,0.929 215.733,0.642 215.733 C 0.267 215.733,0.156 216.255,0.252 217.567 " stroke="none" fill="#1aab91" fill-rule="evenodd"></path><path id="path2" d="M333.002 49.602 C 333.402 50.044,333.811 50.322,333.912 50.221 C 334.128 50.005,332.988 48.800,332.567 48.800 C 332.407 48.800,332.603 49.161,333.002 49.602 M294.000 203.600 C 294.000 269.733,293.997 270.000,293.200 270.000 C 292.476 270.000,292.400 270.267,292.400 272.800 L 292.400 275.600 296.000 275.600 L 299.600 275.600 299.600 206.400 L 299.600 137.200 296.800 137.200 L 294.000 137.200 294.000 203.600 M283.000 207.600 C 282.120 208.242,281.175 208.775,280.900 208.784 C 280.625 208.793,280.400 208.980,280.400 209.200 C 280.400 209.420,280.130 209.600,279.800 209.600 C 279.470 209.600,279.200 209.780,279.200 210.000 C 279.200 210.220,278.964 210.400,278.675 210.400 C 278.387 210.400,277.764 210.760,277.292 211.200 C 276.820 211.640,276.156 212.000,275.817 212.000 C 275.478 212.000,275.200 212.150,275.200 212.332 C 275.200 212.515,274.705 212.920,274.100 213.232 C 273.495 213.545,272.651 214.115,272.225 214.500 C 271.798 214.885,271.213 215.200,270.925 215.200 C 270.636 215.200,270.400 215.380,270.400 215.600 C 270.400 215.820,270.219 216.000,269.997 216.000 C 269.659 216.000,264.440 219.270,260.316 222.065 C 259.720 222.469,259.125 222.800,258.994 222.800 C 258.863 222.800,257.696 223.520,256.400 224.400 C 255.104 225.280,253.854 226.000,253.622 226.000 C 253.390 226.000,253.200 226.180,253.200 226.400 C 253.200 226.620,252.930 226.800,252.600 226.800 C 252.270 226.800,252.000 226.980,252.000 227.200 C 252.000 227.420,251.730 227.600,251.400 227.600 C 251.070 227.600,250.800 227.780,250.800 228.000 C 250.800 228.220,250.530 228.400,250.200 228.400 C 249.870 228.400,249.600 228.580,249.600 228.800 C 249.600 229.020,249.410 229.200,249.178 229.200 C 248.946 229.200,247.696 229.920,246.400 230.800 C 245.104 231.680,243.854 232.400,243.622 232.400 C 243.390 232.400,243.200 232.558,243.200 232.751 C 243.200 232.945,242.660 233.327,242.000 233.600 C 241.340 233.873,240.800 234.255,240.800 234.449 C 240.800 234.642,240.632 234.800,240.426 234.800 C 240.122 234.800,231.704 239.968,230.180 241.090 C 229.948 241.261,229.408 241.597,228.980 241.838 C 226.763 243.081,226.174 243.458,225.445 244.100 C 225.007 244.485,224.496 244.800,224.308 244.800 C 224.120 244.800,223.580 245.160,223.108 245.600 C 222.636 246.040,222.013 246.400,221.725 246.400 C 221.436 246.400,221.200 246.580,221.200 246.800 C 221.200 247.020,221.019 247.200,220.797 247.200 C 220.575 247.200,218.550 248.402,216.297 249.872 C 211.557 252.963,210.668 253.528,205.800 256.543 C 203.820 257.769,201.983 258.958,201.717 259.186 C 201.451 259.414,201.128 259.600,200.999 259.600 C 200.870 259.600,199.430 260.500,197.800 261.600 C 196.170 262.700,194.648 263.600,194.418 263.600 C 194.188 263.600,194.000 263.768,194.000 263.973 C 194.000 264.178,193.661 264.454,193.248 264.585 C 191.045 265.284,190.765 266.014,190.887 270.748 L 191.000 275.179 193.000 273.919 C 200.832 268.986,207.406 264.800,211.496 262.142 C 213.309 260.964,214.974 260.000,215.196 260.000 C 215.418 260.000,215.600 259.850,215.600 259.668 C 215.600 259.485,216.095 259.080,216.700 258.768 C 217.305 258.455,219.870 256.874,222.400 255.253 C 224.930 253.632,227.630 251.910,228.400 251.425 C 229.170 250.940,231.644 249.342,233.897 247.872 C 236.150 246.402,238.175 245.200,238.397 245.200 C 238.619 245.200,238.800 245.050,238.800 244.868 C 238.800 244.685,239.295 244.284,239.900 243.977 C 240.505 243.671,242.265 242.605,243.811 241.610 C 245.358 240.614,246.931 239.620,247.308 239.400 C 247.684 239.180,250.631 237.290,253.856 235.200 C 257.081 233.110,259.909 231.328,260.141 231.239 C 260.373 231.151,260.752 230.926,260.982 230.740 C 262.160 229.786,270.074 224.800,270.410 224.800 C 270.625 224.800,270.800 224.620,270.800 224.400 C 270.800 224.180,271.070 224.000,271.400 224.000 C 271.730 224.000,272.001 223.865,272.003 223.700 C 272.005 223.535,272.410 223.203,272.903 222.963 C 274.135 222.364,284.035 216.021,284.900 215.278 C 285.483 214.777,285.600 213.983,285.600 210.538 C 285.600 205.864,285.513 205.766,283.000 207.600 M181.800 226.935 C 180.920 227.411,180.110 227.890,180.000 228.000 C 179.890 228.110,179.395 228.425,178.900 228.700 C 178.405 228.975,177.595 229.425,177.100 229.700 C 176.605 229.975,176.110 230.290,176.000 230.400 C 175.890 230.510,175.080 230.987,174.200 231.460 C 172.043 232.620,170.262 233.622,167.400 235.287 C 166.080 236.056,164.010 237.224,162.800 237.883 C 161.590 238.542,159.790 239.566,158.800 240.158 C 157.810 240.751,156.685 241.338,156.300 241.464 C 155.915 241.590,155.600 241.852,155.600 242.047 C 155.600 242.241,155.240 242.400,154.800 242.400 C 154.360 242.400,154.000 242.559,154.000 242.753 C 154.000 242.948,153.685 243.207,153.300 243.329 C 152.613 243.546,150.394 244.805,150.000 245.201 C 149.890 245.311,149.260 245.671,148.600 246.000 C 147.940 246.329,147.310 246.689,147.200 246.799 C 147.090 246.910,146.280 247.387,145.400 247.860 C 143.243 249.020,141.462 250.022,138.600 251.687 C 137.280 252.456,135.210 253.624,134.000 254.283 C 132.790 254.943,131.080 255.896,130.200 256.403 C 129.320 256.909,127.880 257.700,127.000 258.162 C 126.120 258.623,125.310 259.090,125.200 259.200 C 125.090 259.310,124.570 259.642,124.045 259.938 C 122.575 260.765,120.544 261.918,119.000 262.800 C 117.456 263.682,115.425 264.835,113.955 265.662 C 113.430 265.958,112.868 266.380,112.706 266.600 C 112.263 267.203,112.341 274.716,112.793 274.996 C 113.108 275.190,120.688 271.041,131.500 264.756 C 134.094 263.248,135.843 262.259,138.000 261.080 C 139.210 260.419,140.678 259.545,141.262 259.139 C 141.846 258.733,142.420 258.400,142.539 258.400 C 142.657 258.400,144.699 257.263,147.077 255.874 C 149.455 254.485,152.390 252.801,153.600 252.133 C 156.035 250.788,157.440 249.986,161.000 247.909 C 162.320 247.139,164.210 246.054,165.200 245.499 C 166.190 244.944,170.060 242.731,173.800 240.581 C 177.540 238.431,181.365 236.236,182.300 235.702 L 184.000 234.732 184.000 230.366 C 184.000 227.965,183.865 226.016,183.700 226.035 C 183.535 226.055,182.680 226.460,181.800 226.935 " stroke="none" fill="#167a69" fill-rule="evenodd"></path><path id="path3" d="M285.791 162.600 C 285.791 180.200,285.840 187.342,285.900 178.470 C 285.960 169.599,285.960 155.199,285.900 146.470 C 285.840 137.742,285.791 145.000,285.791 162.600 M106.195 200.000 C 106.195 237.950,106.243 253.475,106.300 234.500 C 106.357 215.525,106.357 184.475,106.300 165.500 C 106.243 146.525,106.195 162.050,106.195 200.000 M184.096 152.924 C 184.024 169.070,183.885 174.376,183.538 174.162 C 183.241 173.978,183.185 174.053,183.383 174.373 C 184.264 175.798,184.399 172.616,184.300 152.776 L 184.193 131.400 184.096 152.924 M285.789 242.400 C 285.789 257.250,285.839 263.325,285.900 255.900 C 285.961 248.475,285.961 236.325,285.900 228.900 C 285.839 221.475,285.789 227.550,285.789 242.400 M184.183 252.000 C 184.183 261.130,184.235 264.865,184.300 260.300 C 184.364 255.735,184.364 248.265,184.300 243.700 C 184.235 239.135,184.183 242.870,184.183 252.000 " stroke="none" fill="#64c4b4" fill-rule="evenodd"></path><path id="path4" d="M289.783 130.691 L 293.567 130.829 293.710 133.816 L 293.854 136.803 293.827 133.701 L 293.800 130.600 289.899 130.577 L 285.998 130.554 289.783 130.691 M109.200 132.420 C 110.587 133.361,111.378 133.635,110.400 132.836 C 109.850 132.386,109.220 132.017,109.000 132.015 C 108.780 132.013,108.870 132.196,109.200 132.420 M190.620 134.736 C 191.248 135.292,194.000 136.879,194.000 136.686 C 194.000 136.445,190.894 134.400,190.529 134.400 C 190.370 134.400,190.411 134.551,190.620 134.736 M119.600 138.367 C 120.563 139.152,121.200 139.408,121.200 139.010 C 121.200 138.906,120.615 138.535,119.900 138.186 L 118.600 137.552 119.600 138.367 M196.800 138.511 C 196.800 138.738,201.105 141.600,201.448 141.600 C 201.591 141.600,201.279 141.273,200.754 140.874 C 199.441 139.874,196.800 138.296,196.800 138.511 M122.400 139.967 C 123.363 140.752,124.000 141.008,124.000 140.610 C 124.000 140.506,123.415 140.135,122.700 139.786 L 121.400 139.152 122.400 139.967 M205.174 143.924 C 205.709 144.359,206.699 145.019,207.374 145.391 L 208.600 146.067 207.626 145.276 C 207.091 144.841,206.101 144.181,205.426 143.809 L 204.200 143.133 205.174 143.924 M129.600 144.020 C 130.987 144.961,131.778 145.235,130.800 144.436 C 130.250 143.986,129.620 143.617,129.400 143.615 C 129.180 143.613,129.270 143.796,129.600 144.020 M135.411 147.327 C 137.001 148.388,140.000 150.028,140.000 149.836 C 140.000 149.603,135.281 146.800,134.890 146.800 C 134.742 146.800,134.977 147.037,135.411 147.327 M212.600 148.607 C 213.040 148.966,213.760 149.435,214.200 149.651 L 215.000 150.044 214.200 149.393 C 213.760 149.034,213.040 148.565,212.600 148.349 L 211.800 147.956 212.600 148.607 M217.600 151.701 C 217.600 151.955,220.696 154.000,221.080 154.000 C 221.244 154.000,221.023 153.758,220.589 153.461 C 218.681 152.159,217.600 151.522,217.600 151.701 M148.400 154.767 C 149.363 155.552,150.000 155.808,150.000 155.410 C 150.000 155.306,149.415 154.935,148.700 154.586 L 147.400 153.952 148.400 154.767 M151.200 156.364 C 151.750 156.814,152.380 157.183,152.600 157.185 C 153.028 157.188,152.305 156.634,151.000 155.960 C 150.469 155.685,150.536 155.821,151.200 156.364 M225.200 156.497 C 225.200 156.750,229.505 159.600,229.887 159.600 C 230.164 159.600,228.992 158.756,226.300 157.018 C 225.695 156.628,225.200 156.393,225.200 156.497 M156.800 159.564 C 157.350 160.014,157.980 160.383,158.200 160.385 C 158.628 160.388,157.905 159.834,156.600 159.160 C 156.069 158.885,156.136 159.021,156.800 159.564 M230.825 160.137 C 231.016 160.346,234.724 162.789,236.300 163.744 C 237.745 164.620,236.506 163.518,234.700 162.322 C 232.550 160.897,230.423 159.698,230.825 160.137 M164.000 163.620 C 165.387 164.561,166.178 164.835,165.200 164.036 C 164.650 163.586,164.020 163.217,163.800 163.215 C 163.580 163.213,163.670 163.396,164.000 163.620 M166.800 165.220 C 168.187 166.161,168.978 166.435,168.000 165.636 C 167.450 165.186,166.820 164.817,166.600 164.815 C 166.380 164.813,166.470 164.996,166.800 165.220 M239.800 165.890 C 240.020 166.100,240.920 166.676,241.800 167.170 C 242.680 167.665,243.040 167.770,242.600 167.404 C 241.706 166.661,239.172 165.291,239.800 165.890 M177.200 171.164 C 177.750 171.614,178.380 171.983,178.600 171.985 C 179.028 171.988,178.305 171.434,177.000 170.760 C 176.469 170.485,176.536 170.621,177.200 171.164 M248.000 171.133 C 249.143 172.079,252.000 173.744,252.000 173.465 C 252.000 173.363,251.399 172.925,250.665 172.492 C 249.931 172.059,248.806 171.389,248.165 171.005 L 247.000 170.305 248.000 171.133 M254.374 175.124 C 254.909 175.559,255.899 176.219,256.574 176.591 L 257.800 177.267 256.826 176.476 C 256.291 176.041,255.301 175.381,254.626 175.009 L 253.400 174.333 254.374 175.124 M259.200 178.142 C 259.200 178.246,260.145 178.913,261.300 179.623 C 262.455 180.333,263.805 181.179,264.300 181.503 C 264.795 181.827,265.200 181.997,265.200 181.882 C 265.200 181.766,264.075 180.968,262.700 180.107 C 259.326 177.996,259.200 177.925,259.200 178.142 M266.800 182.963 C 266.800 183.043,267.250 183.403,267.800 183.763 C 268.350 184.124,268.800 184.263,268.800 184.073 C 268.800 183.884,268.350 183.523,267.800 183.273 C 267.250 183.022,266.800 182.883,266.800 182.963 M269.800 185.011 C 270.240 185.369,271.140 185.926,271.800 186.250 C 272.922 186.801,272.948 186.797,272.200 186.189 C 271.760 185.831,270.860 185.274,270.200 184.950 C 269.078 184.399,269.052 184.403,269.800 185.011 M275.600 188.497 C 275.600 188.750,279.905 191.600,280.287 191.600 C 280.564 191.600,279.392 190.756,276.700 189.018 C 276.095 188.628,275.600 188.393,275.600 188.497 M282.000 192.501 C 282.000 192.835,285.159 194.800,285.691 194.798 C 285.971 194.796,285.750 194.560,285.200 194.273 C 284.650 193.985,283.705 193.426,283.100 193.029 C 282.495 192.633,282.000 192.395,282.000 192.501 M280.196 208.252 C 277.360 210.131,275.601 211.564,277.800 210.205 C 281.447 207.950,283.604 206.400,283.096 206.400 C 283.038 206.400,281.733 207.233,280.196 208.252 M272.687 212.968 C 270.504 214.479,269.618 215.323,271.365 214.227 C 272.006 213.825,273.131 213.141,273.865 212.708 C 274.599 212.275,275.200 211.849,275.200 211.760 C 275.200 211.381,274.480 211.727,272.687 212.968 M265.087 217.831 C 263.829 218.618,262.800 219.349,262.800 219.456 C 262.800 219.715,265.536 218.164,266.800 217.189 C 268.378 215.972,267.583 216.270,265.087 217.831 M259.393 221.456 C 257.352 222.809,256.632 223.523,258.226 222.614 C 259.630 221.814,261.501 220.422,261.193 220.409 C 261.079 220.404,260.269 220.875,259.393 221.456 M252.151 226.042 C 250.418 227.165,248.820 228.278,248.600 228.515 C 248.380 228.753,248.740 228.610,249.400 228.197 C 254.348 225.107,255.600 224.291,255.600 224.155 C 255.600 223.843,255.245 224.037,252.151 226.042 M184.550 230.200 C 184.551 232.620,184.616 233.558,184.696 232.285 C 184.776 231.012,184.775 229.032,184.694 227.885 C 184.614 226.738,184.549 227.780,184.550 230.200 M178.400 228.033 L 177.400 228.848 178.700 228.214 C 179.415 227.865,180.000 227.494,180.000 227.390 C 180.000 226.992,179.363 227.248,178.400 228.033 M246.900 229.288 C 246.405 229.527,246.000 229.879,246.000 230.070 C 246.000 230.262,246.450 230.124,247.000 229.763 C 248.467 228.802,248.416 228.557,246.900 229.288 M243.700 231.426 C 242.765 231.987,242.000 232.540,242.000 232.655 C 242.000 232.871,244.699 231.338,245.380 230.736 C 246.067 230.128,245.427 230.391,243.700 231.426 M169.500 233.077 C 168.456 233.658,167.663 234.197,167.740 234.273 C 167.900 234.434,171.600 232.414,171.600 232.166 C 171.600 231.915,171.543 231.940,169.500 233.077 M236.231 236.211 C 233.250 238.142,232.398 238.821,234.000 237.989 C 235.297 237.315,239.200 234.729,239.200 234.543 C 239.200 234.298,239.074 234.369,236.231 236.211 M163.000 236.800 C 162.340 237.237,161.980 237.592,162.200 237.588 C 162.601 237.582,164.776 236.023,164.400 236.012 C 164.290 236.008,163.660 236.363,163.000 236.800 M159.000 239.052 C 156.014 240.821,155.066 241.709,157.831 240.147 C 160.032 238.904,161.920 237.646,161.600 237.636 C 161.490 237.633,160.320 238.270,159.000 239.052 M230.395 239.854 C 228.012 241.431,226.649 242.610,228.600 241.406 C 231.875 239.383,233.215 238.400,232.695 238.400 C 232.637 238.400,231.602 239.054,230.395 239.854 M149.600 244.433 L 148.600 245.248 149.900 244.614 C 150.615 244.265,151.200 243.894,151.200 243.790 C 151.200 243.392,150.563 243.648,149.600 244.433 M222.000 245.236 C 221.336 245.779,221.269 245.915,221.800 245.640 C 223.105 244.966,223.828 244.412,223.400 244.415 C 223.180 244.417,222.550 244.786,222.000 245.236 M144.300 247.429 C 142.805 248.240,142.896 248.578,144.400 247.800 C 145.060 247.459,145.600 247.094,145.600 246.990 C 145.600 246.732,145.557 246.747,144.300 247.429 M215.519 249.325 C 213.097 250.864,211.297 252.233,212.800 251.393 C 214.422 250.486,218.400 247.908,218.400 247.764 C 218.400 247.500,218.328 247.539,215.519 249.325 M141.500 249.029 C 140.005 249.840,140.096 250.178,141.600 249.400 C 142.260 249.059,142.800 248.694,142.800 248.590 C 142.800 248.332,142.757 248.347,141.500 249.029 M138.700 250.629 C 137.205 251.440,137.296 251.778,138.800 251.000 C 139.460 250.659,140.000 250.294,140.000 250.190 C 140.000 249.932,139.957 249.947,138.700 250.629 M132.400 254.228 C 129.870 255.671,127.620 257.053,127.400 257.299 C 127.180 257.545,127.450 257.474,128.000 257.142 C 128.550 256.809,130.845 255.497,133.100 254.226 C 136.598 252.255,137.610 251.591,137.100 251.602 C 137.045 251.603,134.930 252.785,132.400 254.228 M208.200 253.939 C 206.220 255.223,203.115 257.225,201.300 258.387 C 199.485 259.550,198.000 260.589,198.000 260.696 C 198.000 260.804,198.495 260.570,199.100 260.177 C 199.705 259.784,201.100 258.893,202.200 258.196 C 210.003 253.253,212.450 251.589,211.900 251.602 C 211.845 251.604,210.180 252.655,208.200 253.939 M122.400 260.036 C 121.736 260.579,121.669 260.715,122.200 260.440 C 123.505 259.766,124.228 259.212,123.800 259.215 C 123.580 259.217,122.950 259.586,122.400 260.036 M193.281 263.372 C 192.556 263.884,191.836 264.439,191.681 264.603 C 191.264 265.047,193.673 263.759,194.600 263.043 C 195.875 262.059,194.737 262.342,193.281 263.372 M115.500 263.829 C 114.005 264.640,114.096 264.978,115.600 264.200 C 116.260 263.859,116.800 263.494,116.800 263.390 C 116.800 263.132,116.757 263.147,115.500 263.829 M112.296 265.750 C 110.375 266.931,109.838 267.489,111.400 266.681 C 112.654 266.033,114.345 264.826,114.000 264.825 C 113.890 264.825,113.123 265.241,112.296 265.750 M189.681 265.772 C 187.823 267.085,187.562 267.461,189.131 266.562 C 189.863 266.143,190.650 265.575,190.880 265.300 C 191.471 264.593,191.193 264.702,189.681 265.772 M108.700 267.829 C 107.205 268.640,107.296 268.978,108.800 268.200 C 109.460 267.859,110.000 267.494,110.000 267.390 C 110.000 267.132,109.957 267.147,108.700 267.829 M287.913 269.495 C 289.076 269.576,290.876 269.576,291.913 269.493 C 292.951 269.411,292.000 269.345,289.800 269.346 C 287.600 269.347,286.751 269.414,287.913 269.495 " stroke="none" fill="#96c4bc" fill-rule="evenodd"></path><path id="path5" d="M293.795 203.200 C 293.795 239.610,293.842 254.505,293.900 236.300 C 293.958 218.095,293.958 188.305,293.900 170.100 C 293.842 151.895,293.795 166.790,293.795 203.200 M285.755 210.600 C 285.756 213.460,285.820 214.578,285.897 213.083 C 285.974 211.589,285.974 209.249,285.896 207.883 C 285.818 206.518,285.755 207.740,285.755 210.600 " stroke="none" fill="#6eaea2" fill-rule="evenodd"></path><path id="path6" d="M285.860 130.300 C 285.758 130.465,286.962 130.551,288.537 130.491 C 293.682 130.294,294.276 130.136,290.124 130.067 C 287.882 130.030,285.963 130.135,285.860 130.300 M189.574 133.524 C 190.109 133.959,191.099 134.619,191.774 134.991 L 193.000 135.667 192.026 134.876 C 191.491 134.441,190.501 133.781,189.826 133.409 L 188.600 132.733 189.574 133.524 M197.200 138.420 C 198.587 139.361,199.378 139.635,198.400 138.836 C 197.850 138.386,197.220 138.017,197.000 138.015 C 196.780 138.013,196.870 138.196,197.200 138.420 M7.600 148.643 C 7.600 149.033,7.377 149.200,7.033 149.068 C 6.721 148.948,6.359 149.131,6.227 149.473 C 6.047 149.944,6.185 150.045,6.794 149.886 C 7.237 149.770,7.600 149.838,7.600 150.037 C 7.600 150.237,7.420 150.400,7.200 150.400 C 6.980 150.400,6.800 151.098,6.800 151.951 C 6.800 153.401,6.063 154.637,5.460 154.200 C 5.313 154.094,5.375 154.221,5.597 154.483 C 6.119 155.101,6.122 157.600,5.600 157.600 C 5.380 157.600,5.200 158.395,5.200 159.367 C 5.200 160.338,5.025 161.193,4.812 161.267 C 4.598 161.340,4.368 161.760,4.300 162.200 C 4.232 162.640,4.019 163.253,3.827 163.562 C 3.587 163.946,3.622 164.034,3.938 163.838 C 4.230 163.658,4.400 163.856,4.400 164.376 C 4.400 164.830,4.139 165.200,3.819 165.200 C 3.374 165.200,3.272 165.641,3.381 167.100 C 3.459 168.145,3.343 169.111,3.123 169.248 C 2.902 169.384,2.697 170.014,2.666 170.648 C 2.635 171.281,2.428 171.935,2.205 172.100 C 1.943 172.294,1.985 172.519,2.323 172.738 C 3.039 173.201,2.510 175.328,1.751 175.036 C 1.431 174.914,1.200 175.082,1.200 175.436 C 1.200 175.772,1.350 175.955,1.533 175.841 C 1.717 175.728,1.867 175.873,1.867 176.163 C 1.867 176.483,1.540 176.626,1.033 176.525 C 0.232 176.366,0.235 176.386,1.100 177.029 C 1.994 177.693,2.423 179.509,1.560 178.975 C 1.251 178.784,1.255 178.956,1.574 179.552 C 1.927 180.211,1.914 180.401,1.514 180.406 C 1.198 180.410,1.154 180.526,1.400 180.706 C 2.038 181.175,2.054 182.000,1.424 182.000 C 1.107 182.000,0.730 182.190,0.586 182.423 C 0.161 183.110,0.080 184.798,0.483 184.548 C 0.688 184.422,0.769 184.096,0.664 183.823 C 0.560 183.551,0.617 183.097,0.791 182.814 C 0.979 182.510,1.096 182.933,1.078 183.851 C 1.061 184.703,0.856 185.549,0.623 185.730 C 0.333 185.957,0.357 186.125,0.700 186.264 C 0.975 186.375,1.197 186.767,1.194 187.133 C 1.189 187.710,1.135 187.719,0.800 187.200 C 0.225 186.310,0.317 187.075,0.900 188.030 C 1.325 188.725,1.285 188.934,0.639 189.413 C 0.006 189.883,-0.022 190.017,0.472 190.206 C 0.799 190.332,1.067 190.689,1.067 191.000 C 1.067 191.310,0.929 191.480,0.761 191.376 C 0.593 191.272,0.339 191.374,0.198 191.603 C 0.056 191.832,0.163 191.970,0.435 191.910 C 1.206 191.738,1.355 195.374,0.601 195.999 C 0.271 196.273,0.003 196.701,0.006 196.949 C 0.010 197.218,0.150 197.183,0.353 196.862 C 0.604 196.467,0.767 196.612,0.967 197.409 C 1.151 198.142,1.038 198.716,0.619 199.179 C -0.135 200.012,-0.173 200.648,0.516 200.912 C 0.958 201.082,1.206 208.336,0.799 209.200 C 0.748 209.310,0.727 209.535,0.753 209.700 C 0.779 209.865,0.575 210.006,0.300 210.013 C -0.042 210.021,-0.007 210.179,0.412 210.513 C 1.093 211.055,1.347 215.214,0.691 215.079 C 0.481 215.035,0.235 215.447,0.143 215.992 C -0.019 216.961,-0.008 216.966,0.618 216.192 C 0.971 215.757,1.144 215.627,1.003 215.905 C 0.862 216.183,1.007 216.933,1.326 217.572 C 1.742 218.406,1.783 218.857,1.473 219.167 C 1.162 219.478,1.190 219.600,1.569 219.600 C 1.994 219.600,2.000 219.718,1.600 220.200 C 1.259 220.611,1.243 220.800,1.549 220.800 C 2.028 220.800,1.978 221.877,1.461 222.707 C 1.287 222.985,0.977 223.109,0.772 222.983 C 0.568 222.856,0.400 222.931,0.400 223.149 C 0.400 223.368,0.763 223.661,1.206 223.802 C 1.649 223.943,1.920 224.206,1.808 224.387 C 1.696 224.568,1.867 224.817,2.188 224.940 C 2.896 225.212,2.953 228.797,2.249 228.806 C 1.992 228.810,2.036 228.962,2.351 229.161 C 2.654 229.353,2.790 229.692,2.654 229.913 C 2.517 230.135,2.678 230.421,3.012 230.549 C 3.617 230.782,3.593 232.241,2.966 233.255 C 2.785 233.548,2.850 233.616,3.138 233.438 C 3.428 233.259,3.600 233.450,3.600 233.953 C 3.600 234.393,3.780 234.864,4.000 235.000 C 4.799 235.494,4.474 237.568,3.623 237.404 C 3.063 237.297,2.911 237.424,3.079 237.861 C 3.226 238.246,3.407 238.312,3.574 238.042 C 4.112 237.172,5.233 239.188,5.135 240.849 C 5.073 241.900,5.241 242.581,5.620 242.821 C 5.996 243.059,6.029 243.190,5.714 243.194 C 5.095 243.202,4.336 241.815,4.714 241.366 C 4.871 241.179,4.671 241.279,4.269 241.588 C 3.550 242.140,4.578 243.559,5.720 243.591 C 5.896 243.596,5.970 244.303,5.884 245.163 C 5.765 246.349,5.857 246.676,6.264 246.520 C 6.665 246.366,6.800 246.785,6.800 248.181 C 6.800 249.401,6.948 249.956,7.227 249.783 C 7.461 249.638,7.620 249.763,7.579 250.060 C 7.429 251.158,7.611 252.000,8.000 252.000 C 8.265 252.000,8.400 234.400,8.400 200.000 C 8.400 165.600,8.265 148.000,8.000 148.000 C 7.780 148.000,7.600 148.289,7.600 148.643 M216.600 150.607 C 217.040 150.966,217.760 151.435,218.200 151.651 L 219.000 152.044 218.200 151.393 C 217.760 151.034,217.040 150.565,216.600 150.349 L 215.800 149.956 216.600 150.607 M360.400 200.000 C 360.400 226.133,360.536 239.600,360.800 239.600 C 361.020 239.600,361.200 238.880,361.200 238.000 C 361.200 237.120,361.380 236.400,361.600 236.400 C 361.820 236.400,362.000 235.680,362.000 234.800 C 362.000 233.920,362.180 233.200,362.400 233.200 C 362.622 233.200,362.800 232.133,362.800 230.800 C 362.800 229.467,362.978 228.400,363.200 228.400 C 363.420 228.400,363.600 227.410,363.600 226.200 C 363.600 224.990,363.780 224.000,364.000 224.000 C 364.229 224.000,364.400 222.800,364.400 221.200 C 364.400 219.600,364.571 218.400,364.800 218.400 C 365.043 218.400,365.200 216.600,365.200 213.800 C 365.200 211.000,365.357 209.200,365.600 209.200 C 365.855 209.200,366.000 205.933,366.000 200.200 C 366.000 194.467,365.855 191.200,365.600 191.200 C 365.356 191.200,365.200 189.333,365.200 186.400 C 365.200 183.467,365.044 181.600,364.800 181.600 C 364.571 181.600,364.400 180.400,364.400 178.800 C 364.400 177.200,364.229 176.000,364.000 176.000 C 363.780 176.000,363.600 175.010,363.600 173.800 C 363.600 172.590,363.420 171.600,363.200 171.600 C 362.978 171.600,362.800 170.533,362.800 169.200 C 362.800 167.867,362.622 166.800,362.400 166.800 C 362.180 166.800,362.000 166.080,362.000 165.200 C 362.000 164.320,361.820 163.600,361.600 163.600 C 361.380 163.600,361.200 162.880,361.200 162.000 C 361.200 161.120,361.020 160.400,360.800 160.400 C 360.536 160.400,360.400 173.867,360.400 200.000 M233.594 161.582 C 234.141 162.002,234.668 162.266,234.765 162.169 C 234.991 161.942,233.529 160.827,233.000 160.822 C 232.780 160.820,233.047 161.161,233.594 161.582 M238.774 164.724 C 239.309 165.159,240.299 165.819,240.974 166.191 L 242.200 166.867 241.226 166.076 C 240.691 165.641,239.701 164.981,239.026 164.609 L 237.800 163.933 238.774 164.724 M246.400 169.620 C 247.787 170.561,248.578 170.835,247.600 170.036 C 247.050 169.586,246.420 169.217,246.200 169.215 C 245.980 169.213,246.070 169.396,246.400 169.620 M262.109 179.600 C 262.669 180.040,263.257 180.400,263.417 180.400 C 263.577 180.400,263.250 180.040,262.691 179.600 C 262.131 179.160,261.543 178.800,261.383 178.800 C 261.223 178.800,261.550 179.160,262.109 179.600 M265.200 181.301 C 265.200 181.476,266.005 182.041,269.300 184.178 C 269.905 184.571,270.400 184.805,270.400 184.699 C 270.400 184.524,269.595 183.959,266.300 181.822 C 265.695 181.429,265.200 181.195,265.200 181.301 M273.776 187.013 C 274.204 187.336,274.733 187.600,274.953 187.600 C 275.173 187.600,275.004 187.336,274.576 187.013 C 274.149 186.690,273.620 186.425,273.400 186.425 C 273.180 186.425,273.349 186.690,273.776 187.013 M282.794 192.782 C 283.341 193.202,283.868 193.466,283.965 193.369 C 284.191 193.142,282.729 192.027,282.200 192.022 C 281.980 192.020,282.247 192.361,282.794 192.782 M4.674 244.700 C 4.377 245.213,5.032 246.595,5.338 246.101 C 5.489 245.856,5.427 245.540,5.200 245.400 C 4.973 245.260,4.891 244.977,5.017 244.772 C 5.144 244.568,5.157 244.400,5.047 244.400 C 4.937 244.400,4.769 244.535,4.674 244.700 M187.700 267.646 C 186.337 268.519,185.895 269.106,187.100 268.443 C 188.018 267.939,189.456 266.827,189.200 266.819 C 189.090 266.816,188.415 267.188,187.700 267.646 M285.957 269.719 C 286.133 269.894,287.610 269.982,289.239 269.915 L 292.200 269.793 288.918 269.596 C 287.113 269.488,285.780 269.543,285.957 269.719 " stroke="none" fill="#4cbca9" fill-rule="evenodd"></path><path id="path7" d="M183.998 230.118 L 184.196 234.600 184.312 230.435 C 184.377 228.144,184.288 226.127,184.115 225.953 C 183.942 225.779,183.889 227.653,183.998 230.118 M294.313 275.895 C 295.476 275.976,297.276 275.976,298.313 275.893 C 299.351 275.811,298.400 275.745,296.200 275.746 C 294.000 275.747,293.151 275.814,294.313 275.895 " stroke="none" fill="#46968a" fill-rule="evenodd"></path><path id="path8" d="M353.211 70.246 C 353.217 70.441,353.712 71.147,354.311 71.816 C 355.517 73.162,355.411 72.819,354.072 71.046 C 353.592 70.411,353.205 70.051,353.211 70.246 M373.849 99.920 C 373.723 100.125,374.001 100.632,374.468 101.047 C 375.314 101.798,375.315 101.797,374.804 100.800 C 374.137 99.498,374.120 99.482,373.849 99.920 M296.699 137.097 L 299.598 137.235 299.700 206.518 L 299.802 275.800 299.901 206.300 L 300.000 136.800 296.900 136.879 L 293.800 136.959 296.699 137.097 M284.786 215.344 C 284.092 215.989,274.198 222.333,272.903 222.963 C 272.410 223.203,272.005 223.535,272.003 223.700 C 272.001 223.865,271.730 224.000,271.400 224.000 C 271.070 224.000,270.800 224.180,270.800 224.400 C 270.800 224.620,270.625 224.800,270.410 224.800 C 270.196 224.800,268.137 226.041,265.835 227.558 C 263.534 229.075,261.414 230.401,261.125 230.504 C 260.836 230.606,260.697 230.797,260.815 230.927 C 261.032 231.166,261.560 230.844,271.121 224.648 C 274.047 222.752,276.517 221.200,276.610 221.200 C 276.986 221.200,285.410 215.502,285.533 215.164 C 285.721 214.650,285.467 214.712,284.786 215.344 M263.793 219.456 C 261.752 220.809,261.032 221.523,262.626 220.614 C 264.030 219.814,265.901 218.422,265.593 218.409 C 265.479 218.404,264.669 218.875,263.793 219.456 M398.800 224.400 C 398.800 225.147,398.907 225.253,399.280 224.880 C 399.653 224.507,399.653 224.293,399.280 223.920 C 398.907 223.547,398.800 223.653,398.800 224.400 M253.800 235.238 C 250.500 237.426,247.530 239.334,247.200 239.478 C 246.870 239.622,245.340 240.568,243.800 241.580 C 242.260 242.592,240.505 243.671,239.900 243.977 C 239.295 244.284,238.800 244.685,238.800 244.868 C 238.800 245.050,238.619 245.200,238.397 245.200 C 238.175 245.200,236.150 246.402,233.897 247.872 C 231.644 249.342,229.170 250.940,228.400 251.425 C 227.630 251.910,224.930 253.632,222.400 255.253 C 219.870 256.874,217.305 258.455,216.700 258.768 C 216.095 259.080,215.600 259.485,215.600 259.668 C 215.600 259.850,215.418 260.000,215.196 260.000 C 214.974 260.000,213.309 260.964,211.496 262.142 C 209.683 263.320,206.130 265.601,203.600 267.210 C 199.243 269.981,197.705 270.955,193.000 273.920 L 191.000 275.180 190.780 270.690 L 190.560 266.200 190.480 270.676 C 190.373 276.695,189.640 276.748,200.000 269.992 C 200.330 269.776,203.750 267.604,207.600 265.163 C 211.450 262.723,216.490 259.512,218.800 258.028 C 221.110 256.545,224.710 254.249,226.800 252.927 C 228.890 251.605,233.714 248.516,237.519 246.062 C 241.325 243.608,244.522 241.600,244.622 241.600 C 244.723 241.600,246.829 240.277,249.303 238.661 C 251.776 237.044,255.285 234.771,257.100 233.610 C 258.915 232.449,260.400 231.432,260.400 231.350 C 260.400 230.940,259.331 231.569,253.800 235.238 M181.663 236.033 C 180.487 236.707,179.605 237.338,179.702 237.435 C 179.919 237.652,183.505 235.678,183.820 235.168 C 184.152 234.630,184.011 234.687,181.663 236.033 M173.000 241.048 C 169.700 242.943,166.190 244.947,165.200 245.501 C 164.210 246.055,162.320 247.139,161.000 247.909 C 157.440 249.986,156.035 250.788,153.600 252.133 C 152.390 252.801,149.455 254.485,147.077 255.874 C 144.699 257.263,142.657 258.400,142.539 258.400 C 142.420 258.400,141.846 258.733,141.262 259.139 C 140.678 259.545,139.210 260.419,138.000 261.080 C 135.843 262.259,134.094 263.248,131.500 264.756 C 120.688 271.041,113.108 275.190,112.793 274.996 C 112.577 274.862,112.400 275.033,112.400 275.376 C 112.400 276.284,112.087 276.406,117.100 273.543 C 117.925 273.072,119.410 272.234,120.400 271.680 C 121.390 271.126,122.871 270.251,123.692 269.736 C 124.513 269.221,125.247 268.800,125.323 268.800 C 125.399 268.800,128.747 266.910,132.762 264.600 C 136.778 262.290,140.229 260.400,140.431 260.400 C 140.634 260.400,140.800 260.220,140.800 260.000 C 140.800 259.780,140.983 259.600,141.207 259.600 C 141.431 259.600,142.800 258.880,144.248 258.000 C 145.697 257.120,146.935 256.400,147.001 256.400 C 147.066 256.400,149.973 254.763,153.460 252.761 C 156.947 250.760,160.520 248.715,161.400 248.216 C 162.280 247.718,164.080 246.680,165.400 245.909 C 166.720 245.139,168.624 244.055,169.632 243.500 C 172.698 241.813,173.392 241.409,173.600 241.190 C 173.710 241.075,174.656 240.535,175.702 239.990 C 177.540 239.033,179.610 237.625,179.200 237.611 C 179.090 237.607,176.300 239.154,173.000 241.048 M209.300 253.996 C 208.585 254.432,208.000 254.875,208.000 254.981 C 208.000 255.086,208.630 254.801,209.400 254.347 C 210.170 253.893,210.800 253.449,210.800 253.360 C 210.800 253.105,210.674 253.158,209.300 253.996 M390.828 261.500 C 390.853 262.475,390.895 262.509,391.200 261.800 C 391.669 260.707,391.669 260.400,391.200 260.400 C 390.980 260.400,390.813 260.895,390.828 261.500 M292.134 272.800 C 292.134 274.450,292.205 275.125,292.291 274.300 C 292.378 273.475,292.378 272.125,292.291 271.300 C 292.205 270.475,292.134 271.150,292.134 272.800 " stroke="none" fill="#2c8c7c" fill-rule="evenodd"></path></g></svg>