<svg id="svg" xmlns="http://www.w3.org/2000/svg" xmlns:xlink="http://www.w3.org/1999/xlink" width="400" height="373.93075356415477" viewBox="0, 0, 400,373.93075356415477" version="1.1"><g id="svgg"><path id="path0" d="M264.733 0.289 C 262.994 0.447,256.918 1.930,256.520 2.294 C 256.325 2.473,255.856 2.619,255.479 2.619 C 255.102 2.619,254.698 2.871,254.580 3.178 C 254.462 3.486,254.225 3.651,254.053 3.545 C 253.881 3.439,253.567 3.650,253.355 4.015 C 253.143 4.379,252.964 4.472,252.958 4.221 C 252.952 3.960,252.693 3.863,252.354 3.993 C 251.877 4.176,251.859 4.282,252.260 4.537 C 252.661 4.790,252.663 4.854,252.272 4.859 C 252.005 4.862,249.479 7.135,246.660 9.911 C 240.242 16.229,239.759 16.661,239.241 16.546 C 239.008 16.494,238.724 16.813,238.608 17.255 C 238.468 17.792,238.205 17.984,237.815 17.834 C 237.479 17.705,237.231 17.807,237.231 18.074 C 237.231 18.467,234.936 19.985,234.267 20.035 C 233.721 20.076,229.747 22.560,229.747 22.861 C 229.747 23.047,229.526 23.199,229.256 23.199 C 228.986 23.199,228.018 23.562,227.105 24.006 C 226.192 24.450,225.234 24.815,224.977 24.817 C 224.719 24.819,224.509 25.040,224.509 25.308 C 224.509 25.587,224.269 25.703,223.948 25.580 C 223.639 25.461,223.386 25.558,223.386 25.795 C 223.386 26.032,223.176 26.198,222.919 26.165 C 221.800 26.020,220.784 26.229,220.310 26.703 C 219.773 27.241,216.667 28.103,211.857 29.052 C 208.712 29.671,191.313 30.035,190.975 29.488 C 190.872 29.322,190.419 29.189,189.969 29.193 C 188.594 29.204,180.009 27.199,180.188 26.909 C 180.281 26.759,180.020 26.725,179.608 26.833 C 179.172 26.946,178.859 26.844,178.859 26.588 C 178.859 26.346,178.689 26.253,178.482 26.382 C 178.274 26.510,177.832 26.342,177.498 26.008 C 177.164 25.674,176.674 25.485,176.409 25.586 C 176.144 25.688,175.834 25.529,175.721 25.234 C 175.607 24.938,175.259 24.696,174.947 24.696 C 174.635 24.696,173.296 24.121,171.972 23.419 C 170.648 22.716,169.466 22.239,169.347 22.359 C 169.228 22.478,169.130 22.369,169.130 22.117 C 169.130 21.865,168.962 21.762,168.756 21.890 C 168.550 22.017,168.382 21.975,168.382 21.797 C 168.382 21.618,167.717 21.179,166.905 20.821 C 166.093 20.462,164.631 19.417,163.657 18.497 C 162.404 17.313,161.803 16.960,161.599 17.288 C 161.387 17.631,161.248 17.584,161.065 17.108 C 160.929 16.754,160.627 16.464,160.394 16.464 C 160.161 16.464,159.548 16.051,159.031 15.546 C 158.514 15.041,157.374 14.010,156.498 13.254 C 155.621 12.499,154.382 11.075,153.744 10.091 C 152.637 8.382,148.257 4.490,147.441 4.490 C 147.228 4.490,147.053 4.312,147.053 4.094 C 147.053 3.876,146.885 3.802,146.679 3.929 C 146.473 4.056,146.305 3.972,146.305 3.742 C 146.305 3.512,146.137 3.428,145.931 3.555 C 145.725 3.682,145.557 3.624,145.557 3.426 C 145.557 2.996,143.469 2.212,143.156 2.525 C 143.036 2.645,142.937 2.566,142.937 2.348 C 142.937 -0.240,124.891 -0.136,121.953 2.470 C 121.627 2.759,121.249 2.882,121.111 2.745 C 120.973 2.607,120.861 2.701,120.861 2.953 C 120.861 3.205,120.692 3.308,120.486 3.181 C 120.281 3.053,120.112 3.138,120.112 3.368 C 120.112 3.598,119.943 3.681,119.735 3.553 C 119.528 3.425,119.089 3.589,118.760 3.918 C 118.413 4.265,117.826 4.433,117.360 4.319 C 116.919 4.211,116.765 4.218,117.018 4.335 C 117.271 4.452,115.924 5.317,114.025 6.258 C 112.125 7.198,110.447 8.153,110.296 8.380 C 110.104 8.669,110.019 8.655,110.015 8.334 C 110.011 7.981,109.795 7.972,109.086 8.295 C 108.578 8.526,108.230 8.826,108.314 8.962 C 108.398 9.097,107.720 9.535,106.809 9.936 C 105.898 10.336,105.150 10.763,105.149 10.885 C 105.144 11.167,103.182 12.127,102.796 12.036 C 102.636 11.998,102.408 12.220,102.289 12.529 C 102.170 12.839,101.922 12.999,101.738 12.885 C 101.554 12.771,101.403 12.866,101.403 13.096 C 101.403 13.326,101.235 13.411,101.029 13.283 C 100.823 13.156,100.655 13.195,100.655 13.370 C 100.655 13.546,100.108 13.949,99.439 14.268 C 96.561 15.638,94.294 16.969,94.294 17.288 C 94.294 17.476,94.125 17.527,93.920 17.399 C 93.714 17.272,93.545 17.356,93.545 17.587 C 93.545 17.817,93.376 17.900,93.169 17.772 C 92.961 17.644,92.691 17.801,92.568 18.122 C 92.445 18.442,92.219 18.627,92.066 18.533 C 91.913 18.438,91.452 18.674,91.041 19.056 C 90.630 19.439,89.763 20.027,89.114 20.363 C 88.464 20.699,87.933 21.147,87.933 21.360 C 87.933 21.573,87.764 21.643,87.558 21.515 C 87.353 21.388,87.182 21.505,87.179 21.774 C 87.174 22.131,87.073 22.111,86.804 21.703 C 86.497 21.234,86.398 21.281,86.205 21.983 C 86.078 22.446,85.845 22.825,85.686 22.825 C 85.527 22.825,84.541 23.414,83.493 24.135 C 82.446 24.855,81.417 25.444,81.206 25.444 C 80.996 25.444,80.823 25.697,80.823 26.006 C 80.823 26.314,80.655 26.567,80.449 26.567 C 79.705 26.567,79.505 26.679,79.020 27.372 C 78.749 27.759,78.370 27.979,78.178 27.861 C 77.987 27.742,77.830 27.807,77.830 28.005 C 77.830 28.202,77.238 28.713,76.514 29.140 C 75.791 29.567,75.041 30.331,74.848 30.838 C 74.656 31.345,74.148 31.947,73.721 32.176 C 73.294 32.404,73.032 32.734,73.140 32.908 C 73.247 33.081,73.073 33.324,72.752 33.447 C 72.432 33.570,72.259 33.815,72.367 33.991 C 72.476 34.167,72.245 34.656,71.852 35.077 C 71.460 35.497,71.242 35.944,71.366 36.069 C 71.491 36.193,71.397 36.296,71.157 36.296 C 70.917 36.296,70.747 36.422,70.781 36.576 C 70.814 36.731,70.666 37.278,70.453 37.792 C 70.239 38.307,69.850 39.690,69.587 40.866 C 69.325 42.043,68.957 42.910,68.769 42.794 C 68.570 42.671,68.533 43.146,68.680 43.929 C 68.847 44.819,68.792 45.276,68.517 45.276 C 67.992 45.276,67.941 51.868,68.463 52.191 C 68.662 52.314,68.720 52.939,68.592 53.581 C 68.447 54.304,68.498 54.661,68.726 54.520 C 68.935 54.390,69.464 55.732,69.959 57.653 C 70.435 59.500,70.977 61.106,71.162 61.220 C 71.347 61.335,71.401 61.737,71.282 62.114 C 71.162 62.491,71.217 62.894,71.403 63.009 C 71.590 63.124,71.661 63.644,71.562 64.163 C 71.463 64.683,71.527 65.108,71.706 65.108 C 71.884 65.108,72.062 66.468,72.100 68.129 C 72.139 69.790,72.326 71.347,72.516 71.589 C 72.931 72.119,72.900 80.442,72.481 81.093 C 72.319 81.344,72.151 82.901,72.108 84.552 C 72.065 86.204,71.885 87.556,71.709 87.557 C 71.532 87.558,71.491 87.969,71.617 88.471 C 71.743 88.973,71.669 89.493,71.452 89.627 C 71.236 89.760,71.105 90.150,71.161 90.492 C 71.217 90.833,71.168 91.282,71.051 91.487 C 70.935 91.693,70.453 93.331,69.981 95.126 C 69.509 96.922,68.994 98.312,68.838 98.216 C 68.682 98.119,68.454 98.300,68.332 98.618 C 68.204 98.950,68.268 99.099,68.479 98.968 C 69.068 98.605,68.908 99.420,68.264 100.064 C 67.942 100.386,67.784 100.819,67.912 101.026 C 68.040 101.234,67.999 101.403,67.821 101.403 C 67.532 101.403,66.202 103.992,65.995 104.958 C 65.797 105.877,64.430 108.084,64.200 107.855 C 64.060 107.715,64.057 107.890,64.192 108.243 C 64.367 108.698,64.251 108.887,63.798 108.887 C 63.382 108.887,63.232 109.084,63.372 109.448 C 63.490 109.757,63.396 110.009,63.163 110.009 C 62.929 110.009,62.832 110.104,62.948 110.220 C 63.064 110.335,62.755 110.865,62.262 111.397 C 61.769 111.929,61.366 112.574,61.366 112.830 C 61.366 113.087,61.103 113.398,60.781 113.521 C 60.459 113.645,60.295 113.907,60.417 114.104 C 60.539 114.301,60.299 114.644,59.883 114.866 C 59.468 115.088,59.146 115.391,59.169 115.540 C 59.285 116.310,59.061 116.745,58.550 116.745 C 58.236 116.745,57.822 117.158,57.630 117.664 C 57.274 118.600,54.333 121.837,53.921 121.746 C 53.797 121.718,53.358 122.039,52.947 122.458 C 52.535 122.878,52.432 123.086,52.719 122.922 C 53.005 122.757,52.561 123.321,51.733 124.174 C 50.905 125.027,50.054 125.725,49.840 125.725 C 49.627 125.725,48.752 126.399,47.895 127.222 C 47.038 128.045,46.099 128.718,45.807 128.718 C 45.515 128.718,45.276 128.846,45.276 129.001 C 45.276 129.157,44.802 129.494,44.224 129.750 C 43.645 130.006,42.821 130.542,42.393 130.941 C 41.964 131.340,41.524 131.577,41.415 131.468 C 41.306 131.359,40.909 131.448,40.533 131.666 C 40.014 131.968,39.984 132.066,40.412 132.076 C 40.992 132.090,37.618 133.955,36.733 134.110 C 36.460 134.157,36.083 134.437,35.897 134.732 C 35.711 135.026,35.556 135.148,35.553 135.003 C 35.544 134.606,32.442 135.780,32.107 136.307 C 31.883 136.659,31.816 136.654,31.811 136.282 C 31.805 135.806,30.424 136.287,29.935 136.936 C 29.832 137.073,28.737 137.482,27.502 137.846 C 26.268 138.211,25.005 138.605,24.696 138.723 C 24.387 138.840,23.855 138.902,23.513 138.861 C 23.171 138.819,22.792 138.946,22.671 139.142 C 22.549 139.339,22.114 139.411,21.702 139.304 C 21.265 139.190,20.954 139.293,20.954 139.551 C 20.954 139.824,20.667 139.903,20.206 139.757 C 19.758 139.615,19.457 139.690,19.457 139.944 C 19.457 140.198,19.157 140.273,18.709 140.131 C 18.289 139.998,17.961 140.064,17.961 140.281 C 17.961 140.494,17.721 140.577,17.429 140.465 C 16.808 140.227,15.594 140.814,14.551 141.857 C 14.148 142.260,13.664 142.495,13.476 142.379 C 13.288 142.263,12.949 142.514,12.722 142.937 C 12.496 143.360,12.172 143.621,12.002 143.516 C 11.450 143.175,6.919 147.674,5.985 149.489 C 5.486 150.460,4.862 151.337,4.599 151.438 C 4.336 151.539,4.213 151.773,4.327 151.957 C 4.441 152.141,4.346 152.292,4.116 152.292 C 3.886 152.292,3.793 152.446,3.909 152.634 C 4.025 152.822,3.944 153.035,3.728 153.107 C 3.511 153.179,3.306 153.615,3.271 154.075 C 3.237 154.535,3.048 154.911,2.851 154.911 C 2.655 154.911,2.605 155.022,2.741 155.157 C 2.876 155.293,2.799 155.630,2.570 155.906 C 2.341 156.182,2.279 156.408,2.432 156.408 C 2.585 156.408,2.503 156.658,2.249 156.964 C 1.995 157.270,1.877 157.755,1.987 158.041 C 2.097 158.328,2.023 158.725,1.823 158.925 C 1.623 159.125,1.395 160.402,1.316 161.762 C 1.237 163.123,1.079 164.958,0.964 165.841 C 0.344 170.610,0.082 195.855,0.575 203.368 C 1.079 211.046,1.433 214.748,1.704 215.187 C 1.862 215.442,2.032 216.166,2.081 216.794 C 2.130 217.422,2.357 217.998,2.584 218.074 C 2.812 218.150,2.891 218.385,2.761 218.596 C 2.630 218.807,2.691 219.087,2.896 219.219 C 3.102 219.350,3.714 220.299,4.257 221.328 C 6.607 225.777,8.482 228.372,9.080 228.002 C 9.295 227.869,9.361 227.937,9.228 228.152 C 9.022 228.486,10.120 229.475,11.413 230.122 C 12.754 230.793,15.574 232.583,15.803 232.910 C 15.955 233.126,16.081 233.176,16.084 233.022 C 16.087 232.867,16.446 233.098,16.882 233.533 C 17.467 234.119,17.749 234.205,17.960 233.865 C 18.183 233.504,18.279 233.508,18.404 233.884 C 18.492 234.149,19.179 234.376,19.945 234.394 C 20.705 234.411,21.327 234.551,21.327 234.705 C 21.328 234.860,21.731 234.986,22.223 234.986 C 23.365 234.986,30.233 236.763,31.021 237.263 C 31.489 237.559,31.415 237.597,30.683 237.440 C 29.888 237.269,29.916 237.317,30.870 237.760 C 31.703 238.146,32.063 238.170,32.267 237.850 C 32.458 237.550,32.544 237.580,32.548 237.948 C 32.551 238.240,32.661 238.371,32.792 238.240 C 32.923 238.109,33.497 238.333,34.066 238.739 C 34.636 239.144,35.370 239.476,35.699 239.476 C 36.027 239.476,36.296 239.645,36.296 239.850 C 36.296 240.056,36.542 240.225,36.844 240.225 C 37.709 240.225,40.026 241.437,39.815 241.779 C 39.710 241.948,39.886 241.987,40.205 241.864 C 40.581 241.720,40.786 241.853,40.786 242.242 C 40.786 242.629,41.109 242.844,41.690 242.844 C 42.187 242.844,42.650 242.976,42.719 243.138 C 42.788 243.300,43.641 243.895,44.615 244.460 C 45.589 245.025,46.953 246.071,47.646 246.785 C 48.339 247.498,49.116 248.082,49.373 248.082 C 49.630 248.082,50.291 248.545,50.842 249.111 C 51.392 249.677,52.566 250.770,53.449 251.539 C 54.332 252.308,54.947 253.112,54.815 253.325 C 54.683 253.539,54.716 253.667,54.888 253.611 C 55.317 253.470,57.998 256.352,57.998 256.954 C 57.998 257.219,58.251 257.437,58.559 257.437 C 59.062 257.437,59.284 257.875,59.169 258.642 C 59.146 258.790,59.468 259.093,59.883 259.315 C 60.299 259.538,60.546 259.869,60.433 260.052 C 60.320 260.235,60.442 260.521,60.704 260.688 C 60.966 260.855,61.425 261.466,61.724 262.047 C 62.024 262.627,62.662 263.495,63.142 263.975 C 63.768 264.602,63.879 264.903,63.532 265.042 C 63.216 265.169,63.267 265.246,63.679 265.265 C 64.025 265.281,64.426 265.674,64.570 266.137 C 65.173 268.081,67.772 273.619,68.237 273.953 C 68.421 274.084,68.455 274.379,68.314 274.607 C 68.173 274.836,68.235 275.023,68.453 275.023 C 68.671 275.023,68.849 275.202,68.849 275.420 C 68.849 275.638,68.683 275.713,68.479 275.587 C 68.267 275.456,68.205 275.606,68.332 275.939 C 68.455 276.259,68.692 276.520,68.859 276.520 C 69.206 276.520,70.189 279.390,70.557 281.478 C 70.692 282.250,70.911 282.881,71.043 282.881 C 71.174 282.881,71.311 283.634,71.346 284.554 C 71.382 285.474,71.527 286.415,71.670 286.645 C 71.812 286.876,71.994 288.514,72.073 290.287 C 72.153 292.059,72.386 293.677,72.592 293.883 C 73.112 294.403,73.073 301.333,72.546 301.860 C 72.310 302.096,72.105 303.683,72.078 305.489 C 72.052 307.254,71.884 308.699,71.706 308.699 C 71.527 308.699,71.463 309.125,71.562 309.644 C 71.661 310.164,71.585 310.686,71.393 310.804 C 71.201 310.923,71.142 311.277,71.263 311.591 C 71.383 311.905,71.296 312.386,71.069 312.660 C 70.842 312.933,70.757 313.321,70.881 313.522 C 71.005 313.722,70.966 313.974,70.794 314.080 C 70.622 314.186,70.167 315.535,69.783 317.078 C 69.398 318.621,68.929 319.787,68.740 319.670 C 68.539 319.546,68.499 319.931,68.644 320.591 C 68.790 321.257,68.730 321.826,68.497 321.970 C 67.949 322.308,67.968 328.531,68.517 328.531 C 68.787 328.531,68.849 328.977,68.693 329.806 C 68.562 330.508,68.592 331.139,68.761 331.209 C 69.027 331.320,70.410 335.486,70.916 337.698 C 71.010 338.108,71.257 338.501,71.465 338.571 C 71.673 338.640,71.846 338.893,71.849 339.133 C 71.853 339.373,72.279 339.971,72.797 340.462 C 73.314 340.953,73.669 341.423,73.586 341.506 C 73.428 341.664,77.450 345.906,77.811 345.963 C 78.585 346.085,79.283 346.635,79.079 346.963 C 78.944 347.182,79.015 347.246,79.238 347.108 C 79.459 346.971,79.894 347.113,80.205 347.424 C 80.516 347.735,80.857 347.989,80.964 347.989 C 81.071 347.989,81.587 348.386,82.110 348.870 C 82.633 349.355,83.821 350.155,84.749 350.647 C 85.677 351.139,86.436 351.763,86.436 352.033 C 86.436 352.302,86.597 352.424,86.794 352.302 C 86.990 352.180,87.569 352.445,88.080 352.889 C 89.016 353.702,89.719 354.140,91.955 355.301 C 92.624 355.648,93.171 356.109,93.171 356.326 C 93.171 356.542,93.281 356.610,93.415 356.476 C 93.549 356.342,93.847 356.490,94.077 356.805 C 94.307 357.119,94.871 357.405,95.330 357.440 C 95.789 357.474,96.165 357.719,96.165 357.984 C 96.165 358.249,96.291 358.439,96.445 358.405 C 97.017 358.282,100.292 360.077,100.398 360.570 C 100.436 360.750,100.762 360.885,101.123 360.868 C 101.483 360.852,101.777 360.977,101.777 361.147 C 101.777 361.317,102.577 361.825,103.555 362.277 C 104.532 362.728,105.960 363.487,106.728 363.962 C 107.495 364.438,108.422 364.830,108.786 364.833 C 109.234 364.837,109.303 364.931,108.999 365.124 C 108.704 365.312,108.960 365.582,109.747 365.913 C 110.406 366.190,112.292 367.048,113.938 367.819 C 115.585 368.590,117.311 369.338,117.774 369.481 C 118.237 369.624,118.616 370.003,118.616 370.321 C 118.616 370.717,118.853 370.839,119.364 370.705 C 119.775 370.598,120.112 370.630,120.112 370.777 C 120.112 371.278,124.259 372.830,127.147 373.409 C 132.536 374.491,143.151 372.974,145.499 370.787 C 145.898 370.415,146.327 370.213,146.452 370.337 C 146.577 370.462,146.682 370.326,146.685 370.034 C 146.690 369.587,146.742 369.585,147.018 370.021 C 147.275 370.428,147.400 370.367,147.599 369.741 C 147.738 369.302,148.059 368.943,148.312 368.943 C 148.565 368.943,149.423 368.276,150.219 367.462 C 151.014 366.647,151.794 366.060,151.953 366.158 C 152.111 366.256,152.362 366.139,152.511 365.898 C 152.680 365.624,152.619 365.560,152.350 365.727 C 151.001 366.560,152.266 364.994,154.328 363.278 C 155.653 362.175,156.748 361.064,156.760 360.810 C 156.772 360.555,157.443 359.910,158.251 359.375 C 159.058 358.841,159.818 358.148,159.938 357.835 C 160.058 357.522,160.391 357.356,160.677 357.466 C 160.992 357.586,161.278 357.360,161.400 356.895 C 161.534 356.384,161.799 356.199,162.185 356.348 C 162.521 356.476,162.769 356.374,162.769 356.107 C 162.769 355.638,164.995 354.246,165.442 354.435 C 165.575 354.491,165.997 354.254,166.379 353.908 C 166.762 353.562,168.000 352.848,169.131 352.321 C 170.262 351.795,170.935 351.345,170.627 351.323 C 170.270 351.297,170.339 351.191,170.814 351.033 C 172.658 350.419,175.491 348.987,175.491 348.669 C 175.491 348.476,175.659 348.423,175.865 348.550 C 176.071 348.677,176.442 348.656,176.690 348.503 C 176.938 348.349,177.654 348.170,178.281 348.103 C 178.907 348.036,179.619 347.714,179.863 347.387 C 180.106 347.059,180.471 346.893,180.673 347.018 C 180.875 347.143,181.096 347.083,181.165 346.884 C 181.234 346.686,183.227 346.161,185.594 345.717 C 187.961 345.274,190.150 344.816,190.458 344.699 C 191.365 344.357,208.941 344.328,209.383 344.668 C 209.604 344.839,210.446 345.070,211.254 345.181 C 215.965 345.831,218.253 346.393,217.980 346.834 C 217.782 347.156,222.105 348.223,222.919 348.053 C 223.176 348.000,223.386 348.150,223.386 348.387 C 223.386 348.623,223.639 348.720,223.948 348.602 C 224.256 348.483,224.509 348.578,224.509 348.811 C 224.509 349.045,224.608 349.137,224.729 349.016 C 224.850 348.895,225.784 349.288,226.804 349.889 C 227.823 350.490,228.913 350.982,229.225 350.982 C 229.536 350.982,229.705 351.123,229.598 351.295 C 229.492 351.467,230.030 351.901,230.792 352.259 C 231.555 352.618,232.601 353.189,233.115 353.527 C 233.630 353.866,234.148 354.148,234.267 354.153 C 234.912 354.182,237.231 355.711,237.231 356.107 C 237.231 356.374,237.479 356.476,237.815 356.348 C 238.205 356.198,238.468 356.389,238.608 356.927 C 238.724 357.368,239.008 357.687,239.241 357.636 C 239.748 357.523,240.152 357.885,246.458 364.094 C 249.167 366.761,251.572 368.943,251.803 368.943 C 252.033 368.943,252.375 369.322,252.561 369.785 C 252.757 370.273,252.912 370.391,252.929 370.065 C 252.954 369.585,253.007 369.582,253.297 370.039 C 253.483 370.333,253.916 370.615,254.259 370.666 C 254.602 370.716,255.182 371.028,255.548 371.358 C 255.913 371.689,256.530 372.026,256.918 372.107 C 257.306 372.188,258.718 372.560,260.056 372.934 C 265.868 374.559,279.888 373.032,279.888 370.774 C 279.888 370.566,280.056 370.500,280.262 370.627 C 280.468 370.754,280.636 370.685,280.636 370.473 C 280.636 370.262,280.916 370.196,281.259 370.328 C 281.701 370.498,281.796 370.429,281.586 370.089 C 281.365 369.731,281.502 369.678,282.133 369.878 C 282.656 370.044,282.888 370.005,282.746 369.775 C 282.532 369.430,284.276 368.497,285.463 368.322 C 285.751 368.279,286.088 368.097,286.211 367.918 C 286.335 367.738,286.983 367.369,287.652 367.099 C 288.321 366.828,288.868 366.449,288.868 366.256 C 288.868 366.063,289.036 366.009,289.242 366.137 C 289.448 366.264,289.619 366.147,289.622 365.878 C 289.626 365.522,289.727 365.542,289.991 365.949 C 290.301 366.430,290.354 366.418,290.359 365.863 C 290.363 365.470,290.769 365.116,291.394 364.962 C 291.960 364.823,292.827 364.447,293.321 364.127 C 293.815 363.807,294.436 363.513,294.700 363.474 C 294.965 363.435,295.561 363.050,296.024 362.618 C 296.488 362.187,297.088 361.833,297.358 361.833 C 297.628 361.833,297.848 361.637,297.848 361.397 C 297.848 361.157,297.953 361.065,298.080 361.192 C 298.207 361.319,298.566 361.169,298.877 360.859 C 299.187 360.548,299.659 360.377,299.924 360.479 C 300.189 360.580,300.484 360.464,300.579 360.220 C 300.674 359.975,301.867 359.207,303.229 358.511 C 304.592 357.816,305.706 357.090,305.706 356.899 C 305.706 356.707,305.875 356.655,306.080 356.782 C 306.286 356.909,306.455 356.825,306.455 356.595 C 306.455 356.365,306.624 356.281,306.831 356.409 C 307.039 356.538,307.309 356.379,307.433 356.057 C 307.556 355.736,307.892 355.472,308.178 355.472 C 308.465 355.472,308.700 355.336,308.700 355.170 C 308.700 355.004,309.373 354.571,310.196 354.208 C 311.020 353.845,311.693 353.405,311.693 353.230 C 311.693 353.055,312.198 352.802,312.816 352.666 C 313.456 352.525,313.938 352.178,313.938 351.857 C 313.938 351.547,314.134 351.359,314.372 351.439 C 314.611 351.518,315.225 351.196,315.737 350.722 C 316.248 350.248,316.895 349.860,317.173 349.860 C 317.452 349.860,317.680 349.691,317.680 349.486 C 317.680 349.280,317.892 349.111,318.151 349.111 C 318.411 349.111,318.837 348.768,319.099 348.348 C 319.361 347.929,319.730 347.681,319.919 347.798 C 320.107 347.914,320.445 347.668,320.668 347.251 C 320.891 346.834,321.244 346.492,321.451 346.492 C 321.874 346.492,322.083 346.341,324.322 344.409 C 325.196 343.655,325.912 342.825,325.912 342.565 C 325.912 342.306,326.291 341.812,326.754 341.469 C 327.217 341.126,327.343 340.964,327.035 341.109 C 326.726 341.255,326.852 340.957,327.315 340.448 C 327.778 339.938,328.157 339.238,328.157 338.891 C 328.157 338.544,328.354 338.260,328.594 338.260 C 328.834 338.260,328.932 338.162,328.812 338.042 C 328.692 337.922,328.986 337.038,329.467 336.077 C 329.947 335.117,330.457 333.700,330.600 332.928 C 330.743 332.156,331.029 331.525,331.236 331.525 C 331.443 331.525,331.515 331.155,331.397 330.702 C 331.279 330.250,331.364 329.661,331.586 329.394 C 332.196 328.658,332.177 321.825,331.563 321.446 C 331.258 321.257,331.166 320.839,331.323 320.346 C 331.462 319.909,331.427 319.551,331.246 319.551 C 331.065 319.551,330.525 318.031,330.046 316.173 C 329.567 314.315,329.030 312.705,328.852 312.595 C 328.674 312.486,328.632 311.985,328.758 311.483 C 328.903 310.903,328.826 310.571,328.547 310.571 C 328.278 310.571,328.199 310.281,328.343 309.826 C 328.473 309.416,328.465 308.895,328.325 308.669 C 328.185 308.442,328.002 306.715,327.919 304.830 C 327.836 302.945,327.602 301.347,327.401 301.278 C 326.931 301.119,326.919 294.747,327.388 294.275 C 327.582 294.080,327.822 292.488,327.921 290.739 C 328.020 288.990,328.197 287.306,328.314 286.997 C 328.431 286.688,328.593 285.762,328.673 284.939 C 328.753 284.116,328.913 283.190,329.029 282.881 C 329.144 282.572,329.603 280.931,330.049 279.233 C 330.494 277.535,331.003 276.146,331.180 276.146 C 331.357 276.146,331.404 275.893,331.286 275.585 C 331.167 275.276,331.252 275.023,331.473 275.023 C 331.694 275.023,331.779 274.771,331.660 274.462 C 331.542 274.153,331.631 273.901,331.859 273.901 C 332.087 273.901,332.237 273.775,332.194 273.620 C 332.150 273.466,332.324 272.961,332.581 272.498 C 332.838 272.035,332.932 271.656,332.790 271.656 C 332.648 271.656,332.786 271.361,333.096 271.001 C 333.407 270.641,334.049 269.469,334.524 268.397 C 334.998 267.324,335.528 266.535,335.701 266.641 C 335.874 266.748,336.015 266.405,336.015 265.878 C 336.015 265.351,336.193 264.920,336.411 264.920 C 336.629 264.920,336.703 264.752,336.576 264.546 C 336.449 264.341,336.482 264.172,336.650 264.172 C 336.818 264.172,337.170 263.685,337.434 263.089 C 337.698 262.494,338.328 261.559,338.835 261.012 C 339.342 260.465,339.757 259.864,339.757 259.676 C 339.757 259.488,340.098 259.151,340.516 258.928 C 340.933 258.705,341.180 258.369,341.065 258.183 C 340.950 257.996,341.282 257.565,341.803 257.223 C 342.324 256.882,342.756 256.411,342.762 256.178 C 342.777 255.631,344.475 253.695,344.939 253.695 C 345.133 253.695,346.337 252.516,347.615 251.076 C 348.892 249.635,350.106 248.457,350.312 248.457 C 350.519 248.457,351.026 248.027,351.439 247.501 C 351.852 246.976,352.282 246.638,352.395 246.751 C 352.507 246.863,352.834 246.619,353.121 246.209 C 353.409 245.799,353.887 245.463,354.184 245.463 C 354.481 245.463,354.724 245.336,354.724 245.180 C 354.724 245.025,355.198 244.688,355.776 244.432 C 356.355 244.175,357.185 243.634,357.620 243.229 C 358.178 242.709,358.467 242.626,358.600 242.948 C 358.709 243.211,358.902 243.034,359.053 242.533 C 359.240 241.917,359.522 241.715,360.015 241.843 C 360.398 241.944,360.624 241.883,360.516 241.708 C 360.408 241.533,360.955 241.106,361.731 240.758 C 362.508 240.410,363.828 239.811,364.664 239.427 C 365.501 239.042,366.373 238.728,366.602 238.728 C 366.831 238.728,367.283 238.463,367.607 238.140 C 367.930 237.816,368.195 237.718,368.195 237.920 C 368.195 238.151,368.604 238.134,369.294 237.874 C 369.899 237.645,370.331 237.357,370.254 237.233 C 370.177 237.109,371.156 236.711,372.429 236.348 C 373.701 235.984,374.995 235.588,375.304 235.466 C 375.613 235.345,376.160 235.282,376.520 235.326 C 376.880 235.371,377.175 235.244,377.175 235.045 C 377.175 234.845,377.512 234.770,377.923 234.878 C 378.360 234.992,378.672 234.889,378.672 234.630 C 378.672 234.364,378.958 234.278,379.389 234.415 C 379.783 234.540,380.209 234.474,380.336 234.269 C 380.463 234.064,380.814 233.991,381.116 234.107 C 381.418 234.223,381.665 234.121,381.665 233.881 C 381.665 233.641,381.835 233.550,382.042 233.678 C 382.250 233.806,382.688 233.642,383.017 233.313 C 383.385 232.945,383.905 232.808,384.371 232.955 C 384.833 233.102,385.036 233.050,384.895 232.820 C 384.672 232.461,385.666 231.810,386.249 231.933 C 386.403 231.966,386.529 231.824,386.529 231.618 C 386.529 231.413,386.764 231.244,387.051 231.244 C 387.337 231.244,387.669 230.992,387.787 230.683 C 387.906 230.374,388.185 230.122,388.407 230.122 C 388.858 230.122,393.516 225.370,393.805 224.615 C 393.907 224.351,394.145 224.135,394.335 224.135 C 394.525 224.135,394.788 223.707,394.919 223.184 C 395.071 222.577,395.323 222.328,395.614 222.496 C 395.866 222.640,395.951 222.625,395.805 222.463 C 395.509 222.135,396.464 219.606,397.012 219.267 C 397.204 219.148,397.425 218.721,397.502 218.319 C 397.579 217.916,397.773 217.285,397.932 216.916 C 398.091 216.547,398.118 216.141,397.991 216.015 C 397.865 215.888,397.934 215.577,398.145 215.323 C 399.903 213.204,399.891 161.062,398.132 159.262 C 397.957 159.083,397.891 158.733,397.987 158.485 C 398.082 158.237,397.959 157.542,397.713 156.940 C 397.467 156.339,397.204 155.517,397.127 155.114 C 397.050 154.712,396.797 154.264,396.563 154.120 C 396.329 153.975,396.114 153.534,396.085 153.139 C 396.056 152.743,395.671 152.031,395.228 151.557 C 394.786 151.082,394.171 150.161,393.862 149.509 C 393.553 148.857,392.787 147.787,392.160 147.130 C 391.533 146.474,391.020 145.754,391.020 145.529 C 391.020 145.304,390.825 145.185,390.588 145.264 C 390.351 145.343,389.777 145.062,389.314 144.640 C 387.876 143.330,387.324 142.937,386.919 142.937 C 386.705 142.937,386.529 142.769,386.529 142.563 C 386.529 142.357,386.403 142.216,386.249 142.248 C 385.666 142.372,384.672 141.721,384.895 141.361 C 385.040 141.126,384.813 141.086,384.284 141.254 C 383.715 141.434,383.524 141.388,383.696 141.111 C 383.854 140.854,383.732 140.784,383.368 140.924 C 383.040 141.050,382.788 140.949,382.788 140.692 C 382.788 140.442,382.535 140.335,382.226 140.453 C 381.918 140.572,381.665 140.488,381.665 140.266 C 381.665 140.045,381.413 139.961,381.104 140.079 C 380.795 140.198,380.543 140.113,380.543 139.892 C 380.543 139.671,380.276 139.592,379.951 139.717 C 379.625 139.842,378.999 139.691,378.558 139.383 C 378.117 139.074,377.424 138.821,377.016 138.821 C 375.771 138.821,369.706 137.230,369.879 136.949 C 369.969 136.804,369.626 136.496,369.118 136.265 C 368.491 135.979,368.195 135.970,368.195 136.237 C 368.195 136.453,367.920 136.355,367.585 136.020 C 367.250 135.685,366.757 135.495,366.490 135.597 C 366.223 135.700,365.803 135.541,365.557 135.244 C 365.311 134.948,364.881 134.705,364.601 134.705 C 363.581 134.705,359.214 132.292,359.208 131.725 C 359.204 131.268,359.138 131.252,358.886 131.650 C 358.633 132.049,358.523 132.025,358.333 131.532 C 358.203 131.193,357.927 131.021,357.720 131.149 C 357.513 131.277,357.343 131.206,357.343 130.992 C 357.343 130.777,356.521 130.185,355.516 129.676 C 354.510 129.166,353.055 128.153,352.283 127.424 C 351.510 126.695,350.759 126.099,350.613 126.099 C 350.468 126.099,349.764 125.552,349.049 124.883 C 348.335 124.214,347.088 123.062,346.279 122.323 C 344.484 120.683,342.002 117.693,342.002 117.170 C 342.002 116.959,341.666 116.552,341.256 116.265 C 340.846 115.977,340.607 115.645,340.727 115.525 C 340.846 115.406,340.592 115.121,340.163 114.891 C 339.734 114.661,339.383 114.227,339.383 113.925 C 339.383 113.624,339.214 113.377,339.008 113.377 C 338.803 113.377,338.634 113.149,338.634 112.870 C 338.634 112.592,338.231 111.929,337.738 111.397 C 337.245 110.865,336.932 110.339,337.043 110.228 C 337.154 110.118,336.954 109.915,336.598 109.779 C 336.086 109.582,336.056 109.465,336.451 109.215 C 336.827 108.976,336.779 108.897,336.256 108.893 C 335.793 108.889,335.633 108.699,335.776 108.326 C 335.895 108.017,335.820 107.764,335.609 107.764 C 335.399 107.764,334.698 106.628,334.050 105.239 C 333.402 103.849,332.644 102.481,332.364 102.197 C 332.085 101.913,331.945 101.450,332.053 101.168 C 332.161 100.886,332.044 100.652,331.794 100.649 C 331.501 100.645,331.535 100.519,331.888 100.295 C 332.358 99.998,332.341 99.909,331.773 99.691 C 331.407 99.551,331.196 99.205,331.304 98.923 C 331.413 98.641,331.361 98.410,331.190 98.410 C 330.864 98.410,329.131 92.574,328.689 89.991 C 328.548 89.167,328.348 88.347,328.245 88.168 C 328.141 87.988,328.002 86.679,327.936 85.258 C 327.870 83.837,327.690 82.472,327.537 82.225 C 327.147 81.594,327.151 70.744,327.541 70.614 C 327.716 70.555,327.884 69.208,327.913 67.620 C 327.942 66.033,328.091 64.733,328.244 64.733 C 328.398 64.733,328.529 64.355,328.537 63.891 C 328.567 62.142,328.726 60.992,328.938 60.992 C 329.059 60.992,329.556 59.571,330.043 57.836 C 330.530 56.100,331.089 54.779,331.285 54.901 C 331.496 55.031,331.548 54.760,331.412 54.241 C 331.286 53.756,331.343 53.165,331.541 52.928 C 332.033 52.335,332.424 48.435,332.073 47.622 C 331.916 47.258,331.826 46.572,331.873 46.098 C 331.919 45.624,331.762 45.001,331.523 44.713 C 331.284 44.425,331.198 43.844,331.332 43.423 C 331.466 43.002,331.414 42.657,331.217 42.657 C 331.021 42.657,330.750 42.072,330.616 41.356 C 330.482 40.641,330.095 39.420,329.756 38.644 C 329.418 37.867,329.172 37.105,329.210 36.950 C 329.248 36.796,329.101 36.670,328.883 36.670 C 328.665 36.670,328.591 36.501,328.718 36.296 C 328.846 36.090,328.761 35.921,328.531 35.921 C 328.301 35.921,328.217 35.753,328.344 35.547 C 328.471 35.341,328.397 35.173,328.179 35.173 C 327.961 35.173,327.783 34.836,327.783 34.425 C 327.783 34.013,327.615 33.676,327.409 33.676 C 327.203 33.676,327.077 33.520,327.128 33.329 C 327.180 33.137,326.885 32.704,326.473 32.365 C 326.062 32.027,325.978 31.873,326.286 32.023 C 326.595 32.173,326.342 31.732,325.725 31.043 C 324.150 29.286,323.179 28.465,322.659 28.450 C 322.414 28.443,321.978 28.102,321.690 27.692 C 321.403 27.282,321.060 27.053,320.929 27.184 C 320.798 27.315,320.585 27.146,320.455 26.808 C 320.325 26.469,319.979 26.193,319.686 26.193 C 319.393 26.193,319.056 25.940,318.938 25.631 C 318.819 25.323,318.502 25.070,318.232 25.070 C 317.963 25.070,317.686 24.944,317.618 24.790 C 317.549 24.635,316.693 24.091,315.716 23.581 C 314.738 23.071,313.938 22.430,313.938 22.156 C 313.938 21.882,313.759 21.769,313.539 21.905 C 313.320 22.041,312.904 21.840,312.616 21.459 C 312.327 21.079,312.086 20.900,312.079 21.062 C 312.073 21.225,311.699 21.014,311.248 20.595 C 310.798 20.175,310.209 19.832,309.939 19.832 C 309.669 19.832,309.448 19.663,309.448 19.457 C 309.448 19.252,309.194 19.083,308.883 19.083 C 308.572 19.083,308.037 18.755,307.694 18.354 C 307.350 17.953,306.931 17.710,306.762 17.815 C 306.593 17.919,306.455 17.817,306.455 17.587 C 306.455 17.356,306.304 17.261,306.120 17.375 C 305.935 17.489,305.688 17.331,305.570 17.023 C 305.452 16.716,305.098 16.464,304.783 16.464 C 304.467 16.464,304.210 16.296,304.210 16.090 C 304.210 15.884,304.083 15.750,303.929 15.791 C 303.467 15.916,300.468 14.232,300.468 13.849 C 300.468 13.654,300.237 13.583,299.955 13.691 C 299.673 13.799,299.187 13.634,298.877 13.323 C 298.566 13.012,298.207 12.862,298.080 12.989 C 297.953 13.117,297.848 13.025,297.848 12.785 C 297.848 12.544,297.628 12.348,297.358 12.348 C 297.088 12.348,296.508 12.014,296.070 11.606 C 295.632 11.197,294.169 10.410,292.819 9.855 C 291.469 9.301,290.365 8.699,290.365 8.518 C 290.365 8.336,290.196 8.292,289.991 8.419 C 289.785 8.546,289.616 8.462,289.616 8.232 C 289.616 8.002,289.462 7.909,289.274 8.025 C 289.086 8.141,288.876 8.095,288.807 7.922 C 288.737 7.750,287.297 6.919,285.605 6.077 C 283.914 5.234,282.735 4.450,282.986 4.334 C 283.237 4.218,283.081 4.211,282.640 4.319 C 282.174 4.433,281.587 4.265,281.240 3.918 C 280.911 3.589,280.472 3.425,280.265 3.553 C 280.057 3.681,279.888 3.598,279.888 3.368 C 279.888 3.138,279.719 3.053,279.514 3.181 C 279.308 3.308,279.139 3.205,279.139 2.953 C 279.139 2.701,279.027 2.607,278.889 2.745 C 278.751 2.882,278.373 2.764,278.047 2.482 C 276.326 0.990,269.467 -0.140,264.733 0.289 M213.128 108.730 C 215.374 109.063,217.320 109.509,217.451 109.721 C 217.582 109.932,217.885 109.985,218.122 109.838 C 218.360 109.691,218.793 109.768,219.083 110.009 C 219.374 110.251,219.776 110.347,219.976 110.223 C 220.177 110.099,220.454 110.180,220.592 110.403 C 220.730 110.626,221.073 110.720,221.354 110.612 C 221.636 110.505,221.961 110.570,222.077 110.758 C 222.193 110.946,222.535 111.004,222.837 110.888 C 223.139 110.773,223.386 110.882,223.386 111.132 C 223.386 111.382,223.622 111.496,223.911 111.385 C 224.200 111.274,224.550 111.298,224.691 111.438 C 224.831 111.578,225.100 111.714,225.288 111.740 C 225.477 111.766,225.716 111.829,225.819 111.880 C 225.921 111.932,226.132 112.009,226.286 112.052 C 226.441 112.095,227.041 112.326,227.620 112.566 C 228.200 112.806,228.831 113.003,229.023 113.003 C 229.216 113.003,229.373 113.181,229.373 113.399 C 229.373 113.617,229.522 113.704,229.703 113.591 C 229.885 113.479,230.459 113.722,230.980 114.131 C 231.504 114.544,232.191 114.774,232.521 114.648 C 232.906 114.500,233.115 114.623,233.115 114.999 C 233.115 115.378,233.375 115.529,233.863 115.435 C 234.275 115.356,234.612 115.437,234.612 115.615 C 234.612 115.793,235.184 116.127,235.883 116.358 C 236.582 116.589,237.530 117.103,237.989 117.502 C 238.449 117.900,238.972 118.134,239.153 118.023 C 239.334 117.911,239.582 118.082,239.705 118.403 C 239.828 118.723,240.079 118.892,240.264 118.778 C 240.448 118.665,240.599 118.778,240.599 119.030 C 240.599 119.282,240.693 119.395,240.807 119.280 C 240.922 119.165,241.540 119.550,242.181 120.135 C 242.822 120.721,243.466 121.126,243.612 121.035 C 243.759 120.945,244.304 121.205,244.823 121.614 C 245.343 122.023,245.934 122.357,246.137 122.357 C 246.340 122.357,247.047 122.862,247.708 123.480 C 248.369 124.097,249.041 124.602,249.201 124.602 C 249.362 124.602,249.769 125.023,250.106 125.538 C 250.443 126.052,250.959 126.473,251.252 126.473 C 251.546 126.473,252.236 127.063,252.786 127.785 C 253.336 128.506,254.608 129.699,255.612 130.436 C 256.616 131.173,257.437 132.000,257.437 132.274 C 257.437 132.547,258.110 133.305,258.934 133.957 C 259.757 134.609,260.430 135.343,260.430 135.589 C 260.430 135.834,260.893 136.481,261.459 137.025 C 262.989 138.497,263.649 139.308,263.912 140.037 C 264.042 140.398,264.340 140.692,264.575 140.692 C 264.809 140.692,264.904 140.945,264.785 141.254 C 264.666 141.565,264.775 141.815,265.029 141.815 C 265.569 141.815,266.042 142.523,268.026 146.305 C 268.836 147.848,269.690 149.235,269.923 149.386 C 270.160 149.540,270.182 149.669,269.972 149.679 C 269.766 149.688,269.925 149.944,270.324 150.246 C 270.724 150.548,270.840 150.795,270.583 150.795 C 270.325 150.795,270.221 150.966,270.350 151.175 C 270.479 151.385,270.770 151.441,270.997 151.301 C 271.262 151.137,271.324 151.269,271.170 151.669 C 271.038 152.012,271.074 152.292,271.250 152.292 C 271.425 152.292,271.957 153.260,272.431 154.443 C 272.905 155.627,273.426 156.686,273.588 156.798 C 273.749 156.910,273.958 157.415,274.051 157.921 C 274.143 158.426,274.252 158.924,274.292 159.027 C 274.331 159.130,274.344 159.341,274.319 159.495 C 274.295 159.649,274.486 159.778,274.743 159.781 C 275.059 159.785,275.032 159.900,274.660 160.135 C 274.189 160.433,274.204 160.520,274.764 160.735 C 275.200 160.902,275.345 161.223,275.196 161.691 C 275.074 162.078,275.147 162.395,275.361 162.395 C 275.574 162.395,275.651 162.647,275.533 162.956 C 275.414 163.265,275.492 163.517,275.705 163.517 C 275.918 163.517,276.452 165.159,276.892 167.166 C 277.332 169.172,277.855 171.115,278.054 171.484 C 278.253 171.852,278.312 172.324,278.183 172.531 C 278.055 172.738,278.075 173.194,278.226 173.545 C 278.378 173.895,278.464 174.569,278.417 175.043 C 278.371 175.517,278.489 176.106,278.681 176.353 C 279.106 176.899,279.038 197.100,278.608 198.041 C 278.442 198.404,278.394 199.036,278.501 199.444 C 278.608 199.853,278.521 200.187,278.309 200.187 C 278.084 200.187,278.012 200.633,278.137 201.255 C 278.254 201.842,278.202 202.474,278.021 202.658 C 277.840 202.843,277.604 203.667,277.497 204.490 C 277.194 206.810,276.120 210.448,275.653 210.737 C 275.422 210.881,275.346 211.111,275.484 211.250 C 275.623 211.388,275.478 211.759,275.164 212.074 C 274.849 212.389,274.673 212.958,274.772 213.339 C 274.872 213.720,274.793 214.032,274.598 214.032 C 274.402 214.032,274.268 214.242,274.299 214.500 C 274.331 214.757,274.235 215.341,274.088 215.798 C 273.940 216.256,273.852 216.742,273.892 216.879 C 273.932 217.016,273.814 217.232,273.629 217.358 C 273.444 217.484,272.910 218.542,272.442 219.710 C 271.974 220.879,271.356 221.925,271.069 222.035 C 270.779 222.146,270.644 222.492,270.767 222.811 C 270.888 223.127,270.791 223.386,270.551 223.386 C 270.311 223.386,270.219 223.555,270.346 223.761 C 270.473 223.966,270.389 224.135,270.159 224.135 C 269.929 224.135,269.836 224.289,269.952 224.477 C 270.069 224.666,269.784 225.297,269.320 225.880 C 268.855 226.464,268.157 227.568,267.767 228.333 C 267.378 229.099,266.932 229.648,266.777 229.552 C 266.622 229.456,266.396 229.638,266.274 229.956 C 266.148 230.284,266.210 230.437,266.417 230.309 C 266.625 230.181,266.686 230.334,266.560 230.663 C 266.437 230.983,266.108 231.244,265.828 231.244 C 265.528 231.244,265.407 231.476,265.534 231.805 C 265.671 232.165,265.527 232.367,265.131 232.367 C 264.791 232.367,264.563 232.581,264.623 232.844 C 264.728 233.300,264.410 233.784,262.956 235.387 C 262.596 235.784,262.301 236.258,262.301 236.440 C 262.301 236.622,261.880 237.047,261.366 237.384 C 260.851 237.721,260.430 238.173,260.430 238.388 C 260.430 238.603,258.368 240.790,255.847 243.248 C 253.326 245.706,250.920 248.052,250.501 248.461 C 250.083 248.870,249.541 249.205,249.298 249.205 C 249.056 249.205,248.670 249.555,248.441 249.982 C 248.205 250.424,247.797 250.672,247.497 250.557 C 247.206 250.446,247.009 250.545,247.058 250.778 C 247.107 251.011,246.786 251.390,246.345 251.621 C 245.904 251.852,245.281 252.258,244.960 252.524 C 244.640 252.790,244.156 253.040,243.885 253.080 C 243.100 253.195,240.599 254.842,240.599 255.244 C 240.599 255.446,240.430 255.506,240.225 255.379 C 240.019 255.252,239.850 255.326,239.850 255.544 C 239.850 255.762,239.610 255.940,239.316 255.940 C 239.022 255.940,238.559 256.162,238.287 256.434 C 238.015 256.705,237.077 257.243,236.202 257.628 C 235.327 258.014,234.612 258.493,234.612 258.694 C 234.612 258.894,234.505 258.952,234.375 258.822 C 234.246 258.692,233.782 258.782,233.346 259.023 C 232.584 259.444,232.397 259.499,231.316 259.625 C 231.046 259.656,230.911 259.820,231.016 259.989 C 231.120 260.158,230.330 260.604,229.260 260.980 C 228.191 261.356,227.105 261.828,226.848 262.028 C 226.590 262.229,226.380 262.267,226.380 262.114 C 226.380 261.961,226.127 262.045,225.819 262.301 C 225.510 262.557,225.257 262.642,225.257 262.488 C 225.257 262.335,225.012 262.413,224.712 262.662 C 224.413 262.911,223.992 263.005,223.777 262.873 C 223.562 262.740,223.386 262.828,223.386 263.068 C 223.386 263.307,223.139 263.409,222.837 263.293 C 222.535 263.177,222.193 263.236,222.077 263.424 C 221.961 263.612,221.618 263.670,221.316 263.554 C 221.014 263.439,220.767 263.550,220.767 263.802 C 220.767 264.075,220.466 264.181,220.019 264.064 C 219.608 263.956,219.170 264.032,219.046 264.233 C 218.922 264.433,218.556 264.496,218.233 264.372 C 217.911 264.248,217.549 264.305,217.429 264.498 C 216.441 266.096,195.256 266.804,187.189 265.508 C 184.549 265.084,183.073 264.690,183.222 264.448 C 183.374 264.204,183.076 264.137,182.403 264.266 C 181.736 264.393,181.142 264.264,180.792 263.913 C 180.487 263.609,179.843 263.434,179.361 263.527 C 178.879 263.619,178.485 263.531,178.485 263.331 C 178.485 263.131,178.065 263.074,177.549 263.203 C 176.966 263.350,176.614 263.279,176.614 263.017 C 176.614 262.785,176.361 262.692,176.052 262.811 C 175.744 262.929,175.491 262.845,175.491 262.624 C 175.491 262.402,175.239 262.318,174.930 262.437 C 174.621 262.555,174.369 262.481,174.369 262.273 C 174.369 262.065,174.158 261.935,173.901 261.985 C 173.644 262.034,172.686 261.705,171.773 261.253 C 170.859 260.800,169.891 260.430,169.621 260.430 C 169.351 260.430,169.130 260.294,169.130 260.128 C 169.130 259.677,166.205 258.473,165.767 258.744 C 165.559 258.872,165.388 258.816,165.388 258.617 C 165.388 258.419,164.462 257.873,163.330 257.404 C 162.198 256.935,161.272 256.432,161.272 256.286 C 161.272 256.140,160.851 255.916,160.337 255.786 C 159.822 255.657,159.401 255.377,159.401 255.163 C 159.401 254.949,159.238 254.874,159.039 254.997 C 158.840 255.120,158.463 254.878,158.201 254.458 C 157.939 254.038,157.512 253.695,157.253 253.695 C 156.994 253.695,156.782 253.527,156.782 253.321 C 156.782 253.115,156.656 252.983,156.501 253.027 C 155.999 253.172,153.046 251.276,153.043 250.807 C 153.042 250.556,152.813 250.438,152.534 250.545 C 152.255 250.652,151.749 250.312,151.403 249.785 C 151.059 249.260,150.596 248.831,150.373 248.831 C 150.150 248.831,149.636 248.410,149.232 247.895 C 148.827 247.381,148.319 246.960,148.103 246.960 C 147.888 246.960,145.972 245.150,143.847 242.937 C 141.721 240.725,139.539 238.458,138.996 237.900 C 138.398 237.284,138.120 236.697,138.289 236.404 C 138.442 236.138,138.442 236.034,138.288 236.171 C 137.979 236.449,136.576 235.381,136.576 234.867 C 136.576 234.687,136.244 234.074,135.839 233.505 C 135.433 232.935,135.190 232.381,135.297 232.274 C 135.405 232.166,135.069 231.744,134.551 231.336 C 134.032 230.929,133.715 230.489,133.845 230.358 C 133.975 230.228,133.875 230.122,133.623 230.122 C 133.371 230.122,133.258 229.971,133.371 229.787 C 133.485 229.602,133.318 229.352,133.000 229.230 C 132.682 229.108,132.086 228.248,131.675 227.320 C 131.265 226.391,130.758 225.631,130.550 225.631 C 130.341 225.631,130.275 225.463,130.402 225.257 C 130.529 225.051,130.445 224.883,130.215 224.883 C 129.985 224.883,129.901 224.715,130.028 224.509 C 130.155 224.303,130.071 224.135,129.841 224.135 C 129.611 224.135,129.527 223.966,129.654 223.761 C 129.781 223.555,129.723 223.386,129.524 223.386 C 129.133 223.386,126.848 218.175,126.848 217.284 C 126.848 216.986,126.597 216.535,126.290 216.280 C 125.984 216.026,125.825 215.669,125.938 215.486 C 126.051 215.304,125.970 215.154,125.759 215.154 C 125.547 215.154,125.471 214.902,125.590 214.593 C 125.708 214.284,125.601 214.032,125.351 214.032 C 125.101 214.032,124.993 213.779,125.112 213.471 C 125.230 213.162,125.146 212.909,124.925 212.909 C 124.703 212.909,124.619 212.657,124.738 212.348 C 124.856 212.039,124.779 211.787,124.565 211.787 C 124.340 211.787,124.284 211.453,124.430 210.991 C 124.580 210.520,124.537 210.286,124.325 210.418 C 124.123 210.542,123.602 208.969,123.132 206.816 C 122.672 204.714,122.205 202.741,122.093 202.432 C 121.981 202.123,121.826 200.878,121.748 199.664 C 121.671 198.450,121.470 197.271,121.302 197.044 C 120.942 196.561,120.992 177.813,121.355 176.988 C 121.491 176.679,121.664 175.500,121.740 174.369 C 121.816 173.237,121.973 172.058,122.087 171.749 C 122.202 171.441,122.672 169.468,123.132 167.365 C 123.602 165.212,124.123 163.639,124.325 163.764 C 124.537 163.895,124.580 163.661,124.430 163.190 C 124.284 162.728,124.340 162.395,124.565 162.395 C 124.779 162.395,124.856 162.142,124.738 161.833 C 124.619 161.525,124.719 161.272,124.959 161.272 C 125.199 161.272,125.286 161.096,125.154 160.882 C 125.021 160.667,125.137 160.220,125.412 159.889 C 125.687 159.557,125.875 159.230,125.830 159.162 C 125.784 159.093,126.052 158.319,126.424 157.442 C 126.797 156.564,127.403 155.050,127.771 154.077 C 128.139 153.103,128.575 152.391,128.741 152.493 C 128.906 152.595,129.163 152.481,129.312 152.240 C 129.481 151.967,129.420 151.902,129.150 152.069 C 128.661 152.371,128.620 152.235,128.946 151.387 C 129.070 151.061,129.398 150.795,129.672 150.795 C 129.971 150.795,130.114 150.494,130.028 150.047 C 129.949 149.635,130.003 149.298,130.148 149.298 C 130.294 149.298,130.816 148.448,131.310 147.408 C 131.803 146.369,132.583 145.157,133.042 144.715 C 133.501 144.273,133.793 143.693,133.690 143.425 C 133.585 143.151,133.762 142.937,134.092 142.937 C 134.463 142.937,134.602 142.729,134.466 142.376 C 134.330 142.021,134.472 141.815,134.852 141.815 C 135.183 141.815,135.454 141.555,135.454 141.238 C 135.454 140.671,135.739 140.232,137.044 138.795 C 137.404 138.398,137.699 137.916,137.699 137.724 C 137.699 137.532,138.204 137.016,138.821 136.576 C 139.439 136.137,139.944 135.621,139.944 135.430 C 139.944 135.142,142.349 132.710,149.525 125.742 C 149.958 125.321,150.499 124.977,150.728 124.977 C 150.956 124.977,151.330 124.627,151.559 124.199 C 151.806 123.738,152.199 123.508,152.527 123.634 C 152.831 123.750,152.981 123.686,152.860 123.492 C 152.740 123.297,153.110 122.892,153.683 122.592 C 154.255 122.292,155.114 121.679,155.591 121.229 C 156.067 120.779,156.548 120.502,156.659 120.613 C 156.770 120.724,157.275 120.401,157.781 119.895 C 158.287 119.389,158.859 119.073,159.051 119.192 C 159.244 119.311,159.401 119.220,159.401 118.990 C 159.401 118.760,159.570 118.675,159.775 118.803 C 159.981 118.930,160.150 118.856,160.150 118.638 C 160.150 118.420,160.390 118.241,160.684 118.241 C 160.978 118.241,161.441 118.028,161.713 117.767 C 161.985 117.506,162.923 116.975,163.798 116.588 C 164.673 116.200,165.388 115.712,165.388 115.503 C 165.388 115.294,165.486 115.221,165.605 115.340 C 165.896 115.631,169.130 114.512,169.130 114.120 C 169.130 113.950,169.970 113.532,170.997 113.191 C 172.023 112.850,172.955 112.423,173.067 112.242 C 173.178 112.061,173.517 112.008,173.819 112.124 C 174.121 112.240,174.369 112.138,174.369 111.898 C 174.369 111.658,174.525 111.559,174.717 111.677 C 174.908 111.796,175.166 111.729,175.290 111.529 C 175.414 111.328,175.762 111.259,176.064 111.375 C 176.366 111.491,176.614 111.382,176.614 111.132 C 176.614 110.870,176.866 110.775,177.209 110.906 C 177.536 111.032,177.985 111.023,178.206 110.886 C 178.427 110.749,179.122 110.597,179.750 110.548 C 180.378 110.498,180.954 110.273,181.029 110.047 C 181.107 109.811,181.551 109.733,182.070 109.863 C 182.575 109.990,182.975 109.925,182.975 109.716 C 182.975 109.342,189.584 108.251,193.452 107.987 C 197.603 107.704,209.157 108.140,213.128 108.730 " stroke="none" fill="#0c9c9c" fill-rule="evenodd"></path><path id="path1" d="M117.493 4.116 C 117.018 4.528,116.732 4.864,116.857 4.864 C 117.379 4.864,118.990 3.971,118.990 3.682 C 118.990 3.157,118.402 3.327,117.493 4.116 M281.010 3.682 C 281.010 3.971,282.621 4.864,283.143 4.864 C 283.268 4.864,282.982 4.528,282.507 4.116 C 281.598 3.327,281.010 3.157,281.010 3.682 M112.874 6.405 C 112.083 6.822,111.511 7.240,111.604 7.332 C 111.697 7.425,112.513 7.078,113.417 6.561 C 115.373 5.443,114.936 5.317,112.874 6.405 M247.895 8.232 C 246.466 9.673,245.460 10.853,245.660 10.854 C 245.860 10.856,247.126 9.677,248.472 8.235 C 251.635 4.847,251.257 4.845,247.895 8.232 M286.583 6.561 C 287.487 7.078,288.303 7.425,288.397 7.331 C 288.577 7.151,285.734 5.610,285.235 5.617 C 285.072 5.620,285.679 6.045,286.583 6.561 M289.616 8.294 C 289.616 8.534,289.721 8.627,289.848 8.499 C 289.976 8.372,290.324 8.512,290.623 8.811 C 291.223 9.411,291.862 9.529,291.862 9.040 C 291.862 8.868,291.433 8.531,290.908 8.292 C 289.724 7.752,289.616 7.752,289.616 8.294 M153.964 10.479 C 155.388 12.283,156.976 13.910,157.695 14.301 C 158.291 14.625,158.258 14.503,157.510 13.615 C 156.307 12.188,153.014 9.276,153.964 10.479 M103.742 11.308 C 103.279 11.531,102.900 11.861,102.900 12.040 C 102.900 12.297,104.043 11.742,105.114 10.965 C 105.487 10.693,104.509 10.938,103.742 11.308 M296.187 11.775 C 296.586 12.077,297.081 12.324,297.287 12.324 C 297.493 12.324,297.335 12.077,296.935 11.775 C 296.536 11.473,296.040 11.225,295.835 11.225 C 295.629 11.225,295.787 11.473,296.187 11.775 M99.906 13.471 C 99.392 13.873,99.169 14.206,99.412 14.211 C 99.655 14.215,100.098 13.974,100.396 13.675 C 100.695 13.377,101.044 13.236,101.172 13.364 C 101.299 13.491,101.403 13.399,101.403 13.159 C 101.403 12.540,100.984 12.628,99.906 13.471 M242.095 13.945 C 241.581 14.595,241.413 14.981,241.721 14.803 C 242.643 14.272,243.592 13.376,243.592 13.038 C 243.592 12.429,243.023 12.774,242.095 13.945 M298.597 13.056 C 298.597 13.471,299.748 13.941,300.043 13.646 C 300.162 13.527,300.011 13.273,299.709 13.082 C 299.009 12.639,298.597 12.630,298.597 13.056 M159.214 15.716 C 159.587 16.127,160.060 16.464,160.266 16.464 C 160.471 16.464,160.335 16.127,159.963 15.716 C 159.590 15.304,159.117 14.967,158.911 14.967 C 158.705 14.967,158.842 15.304,159.214 15.716 M237.777 17.237 C 237.641 17.457,237.620 17.726,237.730 17.836 C 237.998 18.104,238.728 17.632,238.728 17.190 C 238.728 16.712,238.082 16.744,237.777 17.237 M165.972 20.381 C 166.371 20.683,166.866 20.930,167.072 20.930 C 167.278 20.930,167.119 20.683,166.720 20.381 C 166.320 20.079,165.825 19.832,165.619 19.832 C 165.414 19.832,165.572 20.079,165.972 20.381 M85.189 22.326 C 84.734 22.781,84.930 23.179,85.500 22.960 C 85.809 22.842,86.062 22.595,86.062 22.411 C 86.062 22.019,85.546 21.969,85.189 22.326 M313.938 22.380 C 313.938 22.581,314.205 22.847,314.531 22.972 C 314.895 23.112,315.066 23.029,314.975 22.755 C 314.789 22.196,313.938 21.888,313.938 22.380 M82.226 24.536 C 81.660 24.843,81.197 25.173,81.197 25.269 C 81.197 25.631,81.789 25.404,82.694 24.696 C 83.806 23.826,83.640 23.769,82.226 24.536 M79.950 26.068 C 79.496 26.522,79.692 26.921,80.262 26.702 C 80.571 26.584,80.823 26.336,80.823 26.153 C 80.823 25.760,80.308 25.710,79.950 26.068 M178.859 26.521 C 178.859 26.877,181.907 27.759,182.183 27.483 C 182.489 27.177,181.915 26.866,180.941 26.809 C 180.414 26.779,179.982 26.628,179.982 26.473 C 179.981 26.319,179.729 26.193,179.420 26.193 C 179.111 26.193,178.859 26.341,178.859 26.521 M218.428 26.825 C 218.068 26.919,217.774 27.170,217.774 27.383 C 217.774 27.595,218.040 27.667,218.365 27.542 C 218.691 27.417,219.196 27.315,219.488 27.315 C 219.780 27.315,220.019 27.147,220.019 26.941 C 220.019 26.557,219.577 26.525,218.428 26.825 M208.045 29.560 C 208.045 30.029,208.442 30.029,209.167 29.560 C 209.621 29.267,209.568 29.197,208.887 29.192 C 208.424 29.189,208.045 29.355,208.045 29.560 M73.903 31.429 C 73.529 31.842,73.397 32.180,73.610 32.180 C 74.081 32.180,75.014 31.110,74.763 30.859 C 74.663 30.759,74.277 31.016,73.903 31.429 M327.783 34.612 C 327.783 34.920,327.961 35.173,328.179 35.173 C 328.397 35.173,328.471 35.341,328.344 35.547 C 328.217 35.753,328.301 35.921,328.531 35.921 C 328.761 35.921,328.846 36.090,328.718 36.296 C 328.591 36.501,328.665 36.670,328.883 36.670 C 329.409 36.670,329.385 36.463,328.709 35.154 C 328.077 33.933,327.783 33.761,327.783 34.612 M331.151 43.944 C 331.151 44.241,331.319 44.587,331.525 44.715 C 331.731 44.842,331.899 44.599,331.899 44.175 C 331.899 43.752,331.731 43.405,331.525 43.405 C 331.319 43.405,331.151 43.648,331.151 43.944 M68.101 44.528 C 68.101 44.939,68.269 45.276,68.475 45.276 C 68.681 45.276,68.849 44.939,68.849 44.528 C 68.849 44.116,68.681 43.779,68.475 43.779 C 68.269 43.779,68.101 44.116,68.101 44.528 M327.783 65.295 C 327.783 65.603,327.951 65.856,328.157 65.856 C 328.363 65.856,328.531 65.603,328.531 65.295 C 328.531 64.986,328.363 64.733,328.157 64.733 C 327.951 64.733,327.783 64.986,327.783 65.295 M71.469 65.669 C 71.469 65.978,71.637 66.230,71.843 66.230 C 72.049 66.230,72.217 65.978,72.217 65.669 C 72.217 65.360,72.049 65.108,71.843 65.108 C 71.637 65.108,71.469 65.360,71.469 65.669 M327.035 71.656 C 327.035 72.170,327.203 72.591,327.409 72.591 C 327.615 72.591,327.783 72.170,327.783 71.656 C 327.783 71.141,327.615 70.720,327.409 70.720 C 327.203 70.720,327.035 71.141,327.035 71.656 M72.217 73.130 C 72.217 74.069,72.385 74.836,72.591 74.836 C 72.797 74.836,72.965 74.173,72.965 73.362 C 72.965 72.551,72.797 71.783,72.591 71.656 C 72.363 71.514,72.217 72.088,72.217 73.130 M72.217 79.723 C 72.217 80.640,72.365 81.150,72.591 81.010 C 72.797 80.883,72.965 80.200,72.965 79.491 C 72.965 78.783,72.797 78.204,72.591 78.204 C 72.385 78.204,72.217 78.887,72.217 79.723 M327.035 80.801 C 327.035 81.406,327.203 82.006,327.409 82.133 C 327.631 82.270,327.783 81.825,327.783 81.032 C 327.783 80.300,327.615 79.701,327.409 79.701 C 327.203 79.701,327.035 80.196,327.035 80.801 M68.170 99.239 C 67.645 99.763,67.592 100.281,68.061 100.281 C 68.404 100.281,68.968 99.152,68.740 98.924 C 68.670 98.854,68.413 98.996,68.170 99.239 M331.905 101.310 C 331.915 101.822,332.603 102.695,332.823 102.475 C 333.118 102.180,332.648 101.029,332.233 101.029 C 332.049 101.029,331.902 101.155,331.905 101.310 M64.152 107.732 C 64.269 107.921,64.152 108.150,63.894 108.242 C 63.635 108.335,63.559 108.555,63.725 108.731 C 63.890 108.908,64.182 108.805,64.374 108.502 C 64.835 107.773,64.822 107.390,64.337 107.390 C 64.119 107.390,64.036 107.544,64.152 107.732 M182.975 109.635 C 182.975 109.841,183.227 110.009,183.536 110.009 C 183.845 110.009,184.097 109.841,184.097 109.635 C 184.097 109.429,183.845 109.261,183.536 109.261 C 183.227 109.261,182.975 109.429,182.975 109.635 M175.304 111.506 C 175.173 111.719,174.908 111.796,174.717 111.677 C 174.525 111.559,174.369 111.640,174.369 111.858 C 174.369 112.309,174.625 112.321,175.653 111.919 C 176.116 111.737,176.226 111.542,175.960 111.377 C 175.730 111.236,175.435 111.294,175.304 111.506 M223.951 111.500 C 223.822 111.709,223.853 111.883,224.019 111.885 C 224.186 111.888,224.743 111.997,225.257 112.128 C 225.803 112.266,226.063 112.225,225.881 112.029 C 225.709 111.844,225.457 111.691,225.320 111.687 C 225.182 111.684,224.871 111.555,224.628 111.401 C 224.385 111.246,224.081 111.291,223.951 111.500 M58.622 115.872 C 58.264 116.229,58.314 116.745,58.706 116.745 C 58.890 116.745,59.138 116.492,59.256 116.183 C 59.475 115.613,59.076 115.417,58.622 115.872 M236.483 116.932 C 236.997 117.226,237.587 117.466,237.792 117.466 C 237.998 117.466,237.746 117.226,237.231 116.932 C 236.717 116.638,236.127 116.397,235.921 116.397 C 235.716 116.397,235.968 116.638,236.483 116.932 M342.002 117.401 C 342.002 117.607,342.254 117.985,342.563 118.241 C 342.876 118.501,343.124 118.542,343.124 118.333 C 343.124 118.127,342.872 117.749,342.563 117.493 C 342.250 117.233,342.002 117.193,342.002 117.401 M56.987 117.952 C 56.265 118.884,56.088 119.364,56.466 119.364 C 56.888 119.364,57.782 117.901,57.520 117.639 C 57.430 117.549,57.190 117.689,56.987 117.952 M157.907 119.736 C 157.431 120.149,157.204 120.486,157.402 120.486 C 157.957 120.486,159.241 119.453,158.993 119.205 C 158.872 119.084,158.383 119.323,157.907 119.736 M344.788 120.954 C 345.585 122.156,348.200 124.199,347.667 123.203 C 347.282 122.485,344.784 120.112,344.412 120.112 C 344.312 120.112,344.481 120.491,344.788 120.954 M152.760 123.149 C 151.564 123.915,151.171 124.602,151.929 124.602 C 152.142 124.602,152.412 124.350,152.531 124.041 C 152.649 123.732,152.963 123.480,153.227 123.480 C 153.492 123.480,153.805 123.227,153.924 122.919 C 154.193 122.218,154.222 122.212,152.760 123.149 M246.076 122.919 C 246.195 123.227,246.465 123.480,246.678 123.480 C 246.890 123.480,247.280 123.774,247.543 124.134 C 247.806 124.494,248.161 124.647,248.332 124.475 C 248.504 124.302,248.138 123.756,247.521 123.261 C 246.230 122.226,245.768 122.117,246.076 122.919 M49.903 125.126 C 48.943 125.964,48.917 126.040,49.660 125.853 C 50.550 125.629,51.497 124.712,51.172 124.387 C 51.064 124.279,50.493 124.611,49.903 125.126 M349.486 125.311 C 349.486 125.495,349.752 125.747,350.077 125.872 C 350.993 126.223,351.114 126.147,350.608 125.538 C 350.092 124.916,349.486 124.793,349.486 125.311 M147.665 127.249 C 146.648 128.049,146.320 128.842,147.147 128.504 C 147.604 128.317,149.110 126.473,148.805 126.473 C 148.720 126.473,148.207 126.822,147.665 127.249 M251.823 127.407 C 252.305 127.921,252.783 128.259,252.883 128.158 C 253.132 127.910,251.805 126.473,251.327 126.473 C 251.117 126.473,251.340 126.894,251.823 127.407 M351.918 127.222 C 352.290 127.633,352.659 127.970,352.737 127.970 C 352.815 127.970,352.699 127.633,352.479 127.222 C 352.259 126.810,351.890 126.473,351.659 126.473 C 351.429 126.473,351.545 126.810,351.918 127.222 M353.601 128.522 C 353.601 128.619,354.149 128.966,354.818 129.293 L 356.034 129.886 355.098 129.123 C 354.198 128.389,353.601 128.150,353.601 128.522 M255.800 130.883 C 256.443 131.493,257.061 132.223,257.173 132.507 C 257.326 132.891,257.385 132.867,257.407 132.411 C 257.424 132.075,256.805 131.345,256.034 130.787 L 254.630 129.774 255.800 130.883 M359.214 132.061 C 359.214 132.215,359.627 132.528,360.132 132.758 C 360.872 133.095,361.011 133.078,360.854 132.668 C 360.645 132.124,359.214 131.594,359.214 132.061 M38.994 132.662 C 38.385 133.352,38.560 133.349,39.901 132.650 C 40.756 132.204,40.822 132.093,40.225 132.103 C 39.813 132.109,39.259 132.361,38.994 132.662 M140.505 134.331 C 140.130 134.745,139.908 135.168,140.011 135.271 C 140.114 135.374,140.505 135.119,140.879 134.705 C 141.254 134.291,141.477 133.868,141.374 133.765 C 141.271 133.662,140.880 133.917,140.505 134.331 M258.934 134.215 C 258.934 134.421,259.270 134.894,259.682 135.267 C 260.094 135.639,260.430 135.775,260.430 135.570 C 260.430 135.364,260.094 134.891,259.682 134.518 C 259.270 134.146,258.934 134.009,258.934 134.215 M138.148 137.025 C 137.432 137.741,137.628 138.124,138.447 137.612 C 139.203 137.140,139.447 136.576,138.896 136.576 C 138.732 136.576,138.395 136.778,138.148 137.025 M261.179 137.235 C 261.179 137.391,261.525 137.735,261.949 138.000 C 262.661 138.445,262.689 138.423,262.310 137.716 C 261.913 136.973,261.179 136.661,261.179 137.235 M382.788 140.652 C 382.788 140.836,383.054 141.089,383.380 141.213 C 384.184 141.522,384.284 141.503,384.284 141.044 C 384.284 140.826,384.116 140.752,383.910 140.879 C 383.704 141.007,383.536 140.932,383.536 140.714 C 383.536 140.496,383.368 140.318,383.162 140.318 C 382.956 140.318,382.788 140.468,382.788 140.652 M264.920 142.122 C 264.920 142.290,265.426 142.994,266.043 143.686 C 267.374 145.176,267.496 144.933,266.324 143.124 C 265.522 141.886,264.920 141.457,264.920 142.122 M131.600 146.754 C 131.237 147.386,131.017 147.980,131.111 148.074 C 131.205 148.168,131.560 147.709,131.899 147.053 C 132.701 145.503,132.457 145.260,131.600 146.754 M393.647 149.205 C 393.652 149.359,393.999 149.906,394.418 150.421 L 395.181 151.356 394.587 150.140 C 394.023 148.985,393.629 148.592,393.647 149.205 M128.601 152.117 C 127.834 153.726,127.813 153.964,128.492 153.336 C 128.779 153.070,128.949 152.746,128.870 152.615 C 128.791 152.484,128.977 152.169,129.284 151.914 C 129.887 151.413,130.027 150.795,129.536 150.795 C 129.368 150.795,128.947 151.390,128.601 152.117 M395.890 152.947 C 395.900 153.459,396.588 154.332,396.808 154.112 C 397.103 153.817,396.633 152.666,396.218 152.666 C 396.034 152.666,395.887 152.792,395.890 152.947 M2.679 154.367 C 2.144 155.543,2.121 156.154,2.625 155.843 C 2.835 155.714,2.909 155.451,2.790 155.259 C 2.672 155.068,2.718 154.911,2.892 154.911 C 3.066 154.911,3.234 154.574,3.265 154.163 C 3.339 153.171,3.203 153.219,2.679 154.367 M273.300 157.374 C 273.424 157.699,273.527 158.036,273.527 158.122 C 273.527 158.208,273.679 158.279,273.866 158.279 C 274.052 158.279,274.117 157.942,274.009 157.530 C 273.902 157.119,273.647 156.782,273.443 156.782 C 273.239 156.782,273.175 157.048,273.300 157.374 M0.748 164.618 C 0.748 165.247,0.813 165.762,0.892 165.762 C 1.209 165.762,1.374 163.860,1.072 163.673 C 0.894 163.563,0.748 163.988,0.748 164.618 M398.964 166.137 C 398.964 166.857,399.041 167.152,399.135 166.791 C 399.230 166.431,399.230 165.842,399.135 165.482 C 399.041 165.122,398.964 165.416,398.964 166.137 M399.364 172.872 C 399.364 174.004,399.434 174.467,399.520 173.901 C 399.605 173.335,399.605 172.409,399.520 171.843 C 399.434 171.277,399.364 171.740,399.364 172.872 M278.391 176.966 C 278.391 177.390,278.559 177.736,278.765 177.736 C 278.971 177.736,279.139 177.494,279.139 177.197 C 279.139 176.900,278.971 176.554,278.765 176.427 C 278.559 176.299,278.391 176.542,278.391 176.966 M121.028 177.395 C 120.889 177.618,120.964 177.989,121.193 178.218 C 121.498 178.524,121.609 178.415,121.609 177.811 C 121.609 176.908,121.415 176.768,121.028 177.395 M399.766 188.026 C 399.767 190.290,399.828 191.168,399.903 189.977 C 399.977 188.786,399.977 186.934,399.901 185.861 C 399.826 184.788,399.765 185.762,399.766 188.026 M121.028 196.104 C 120.889 196.327,120.964 196.698,121.193 196.927 C 121.498 197.233,121.609 197.125,121.609 196.520 C 121.609 195.617,121.415 195.477,121.028 196.104 M278.391 197.216 C 278.391 197.639,278.559 197.882,278.765 197.755 C 278.971 197.628,279.139 197.281,279.139 196.984 C 279.139 196.688,278.971 196.445,278.765 196.445 C 278.559 196.445,278.391 196.792,278.391 197.216 M399.364 202.806 C 399.364 203.938,399.434 204.401,399.520 203.835 C 399.605 203.269,399.605 202.343,399.520 201.777 C 399.434 201.211,399.364 201.674,399.364 202.806 M276.006 209.059 C 275.877 209.427,275.673 209.939,275.553 210.196 C 275.433 210.454,275.499 210.664,275.700 210.664 C 275.901 210.664,276.175 210.223,276.311 209.685 C 276.595 208.553,276.356 208.063,276.006 209.059 M2.619 219.472 C 2.619 219.583,2.959 220.341,3.375 221.156 C 4.426 223.215,5.043 223.027,4.037 220.954 C 3.340 219.521,2.619 218.767,2.619 219.472 M396.017 220.919 C 395.579 221.872,395.444 222.496,395.697 222.399 C 396.072 222.255,397.381 219.959,397.381 219.445 C 397.381 218.755,396.649 219.547,396.017 220.919 M127.970 220.541 C 127.970 221.037,129.263 223.386,129.536 223.386 C 129.949 223.386,129.920 223.111,129.408 222.153 C 128.950 221.299,127.970 220.199,127.970 220.541 M5.413 224.041 C 5.739 224.710,6.086 225.257,6.184 225.257 C 6.556 225.257,6.316 224.661,5.582 223.761 L 4.819 222.825 5.413 224.041 M269.094 225.468 C 268.844 226.016,268.817 226.328,269.032 226.196 C 269.581 225.856,270.241 224.509,269.858 224.509 C 269.678 224.509,269.334 224.941,269.094 225.468 M391.402 227.307 C 390.497 228.229,389.849 229.076,389.961 229.188 C 390.188 229.415,393.265 226.368,393.265 225.916 C 393.265 225.449,393.118 225.558,391.402 227.307 M131.338 226.523 C 131.338 226.925,132.451 228.999,132.667 228.999 C 132.769 228.999,132.575 228.452,132.235 227.783 C 131.541 226.417,131.338 226.132,131.338 226.523 M11.225 230.278 C 11.225 230.507,13.689 231.993,14.069 231.993 C 14.247 231.993,13.773 231.572,13.016 231.057 C 11.682 230.151,11.225 229.952,11.225 230.278 M383.173 233.100 C 382.870 233.292,382.720 233.546,382.838 233.665 C 383.133 233.960,384.284 233.490,384.284 233.075 C 384.284 232.649,383.872 232.658,383.173 233.100 M138.058 236.829 C 138.286 237.256,138.636 237.605,138.834 237.605 C 139.477 237.605,139.217 236.895,138.419 236.468 C 137.708 236.087,137.678 236.118,138.058 236.829 M261.553 236.483 C 261.256 236.666,261.137 236.940,261.289 237.092 C 261.441 237.244,261.762 237.172,262.002 236.932 C 262.567 236.366,262.252 236.051,261.553 236.483 M259.308 239.289 C 258.826 239.802,258.516 240.306,258.619 240.409 C 258.722 240.512,259.200 240.176,259.682 239.663 C 260.164 239.150,260.474 238.647,260.371 238.544 C 260.268 238.441,259.790 238.776,259.308 239.289 M140.237 239.289 C 140.784 240.348,142.512 241.897,142.811 241.598 C 142.949 241.460,142.990 241.305,142.902 241.254 C 142.814 241.202,142.091 240.571,141.296 239.850 C 140.383 239.024,139.993 238.817,140.237 239.289 M360.056 241.482 C 359.593 241.711,359.214 242.033,359.214 242.197 C 359.214 242.482,359.867 242.192,361.085 241.365 C 361.816 240.869,361.137 240.946,360.056 241.482 M43.031 243.720 C 43.031 243.945,45.969 245.839,46.297 245.825 C 46.456 245.819,46.249 245.553,45.837 245.236 C 44.943 244.545,43.031 243.512,43.031 243.720 M146.392 245.725 C 147.154 246.486,147.871 247.016,147.985 246.901 C 148.248 246.638,145.926 244.341,145.398 244.341 C 145.184 244.341,145.631 244.964,146.392 245.725 M251.824 246.686 C 251.310 247.335,251.141 247.721,251.450 247.544 C 252.371 247.013,253.321 246.117,253.321 245.779 C 253.321 245.170,252.751 245.515,251.824 246.686 M351.546 247.332 C 351.172 247.745,351.040 248.082,351.253 248.082 C 351.723 248.082,352.657 247.013,352.405 246.761 C 352.306 246.662,351.919 246.919,351.546 247.332 M49.490 248.715 C 49.838 249.063,50.228 249.242,50.356 249.114 C 50.724 248.746,50.159 248.082,49.477 248.082 C 48.906 248.082,48.907 248.132,49.490 248.715 M249.579 248.644 C 249.319 248.957,249.279 249.205,249.487 249.205 C 249.693 249.205,250.071 248.952,250.327 248.644 C 250.587 248.330,250.628 248.082,250.419 248.082 C 250.213 248.082,249.835 248.335,249.579 248.644 M349.083 249.458 L 348.176 250.460 349.392 249.620 C 350.619 248.772,350.865 248.457,350.299 248.457 C 350.129 248.457,349.582 248.907,349.083 249.458 M151.614 249.977 C 151.704 250.247,151.998 250.541,152.268 250.631 C 152.549 250.725,152.689 250.585,152.596 250.304 C 152.506 250.034,152.211 249.739,151.941 249.649 C 151.660 249.556,151.520 249.696,151.614 249.977 M247.469 250.140 C 247.351 250.449,247.037 250.702,246.773 250.702 C 246.508 250.702,246.195 250.954,246.076 251.263 C 245.958 251.572,245.946 251.824,246.051 251.824 C 246.422 251.824,248.457 250.182,248.457 249.883 C 248.457 249.355,247.694 249.554,247.469 250.140 M52.412 251.049 C 52.942 251.754,53.948 252.764,54.649 253.294 L 55.923 254.256 55.183 253.297 C 54.776 252.770,53.770 251.759,52.947 251.052 L 51.450 249.766 52.412 251.049 M343.548 254.885 C 343.061 255.486,342.736 256.051,342.827 256.141 C 342.917 256.231,343.372 255.789,343.839 255.158 C 344.935 253.675,344.705 253.459,343.548 254.885 M56.501 255.508 C 56.501 255.682,56.838 256.129,57.250 256.501 C 58.092 257.263,58.236 256.846,57.477 255.847 C 56.945 255.146,56.501 254.992,56.501 255.508 M58.458 257.881 C 58.540 258.126,58.806 258.392,59.051 258.474 C 59.324 258.565,59.408 258.394,59.268 258.029 C 59.007 257.349,58.234 257.208,58.458 257.881 M233.209 258.642 C 232.746 258.865,232.367 259.194,232.367 259.374 C 232.367 259.553,232.759 259.442,233.238 259.128 C 233.718 258.814,234.223 258.670,234.361 258.808 C 234.499 258.945,234.612 258.862,234.612 258.622 C 234.612 258.099,234.326 258.103,233.209 258.642 M338.100 261.954 C 337.540 262.800,337.154 263.565,337.242 263.653 C 337.330 263.741,337.860 263.121,338.420 262.274 C 338.980 261.428,339.366 260.664,339.278 260.575 C 339.190 260.487,338.660 261.107,338.100 261.954 M224.415 262.185 C 224.055 262.279,223.761 262.512,223.761 262.703 C 223.761 263.168,224.406 263.145,224.700 262.669 C 224.829 262.460,225.080 262.379,225.257 262.488 C 225.435 262.598,225.685 262.516,225.815 262.307 C 226.054 261.920,225.587 261.879,224.415 262.185 M219.645 263.798 C 219.645 264.004,219.897 264.172,220.206 264.172 C 220.514 264.172,220.767 264.004,220.767 263.798 C 220.767 263.592,220.514 263.424,220.206 263.424 C 219.897 263.424,219.645 263.592,219.645 263.798 M336.576 264.546 C 336.703 264.752,336.629 264.920,336.411 264.920 C 336.193 264.920,336.020 265.215,336.027 265.575 C 336.038 266.168,336.091 266.161,336.588 265.504 C 337.236 264.647,337.291 264.172,336.741 264.172 C 336.523 264.172,336.449 264.341,336.576 264.546 M63.617 265.575 C 63.627 266.087,64.315 266.960,64.535 266.741 C 64.830 266.446,64.360 265.295,63.945 265.295 C 63.761 265.295,63.613 265.421,63.617 265.575 M71.469 287.371 C 71.469 288.070,71.568 288.170,71.918 287.820 C 72.267 287.471,72.267 287.272,71.918 286.922 C 71.568 286.573,71.469 286.673,71.469 287.371 M72.217 297.848 C 72.217 300.527,72.350 301.926,72.591 301.777 C 72.800 301.648,72.965 299.910,72.965 297.848 C 72.965 295.787,72.800 294.048,72.591 293.920 C 72.350 293.771,72.217 295.170,72.217 297.848 M327.284 294.356 C 326.876 294.764,326.993 301.216,327.409 301.216 C 327.632 301.216,327.783 299.782,327.783 297.661 C 327.783 294.106,327.750 293.890,327.284 294.356 M71.469 308.138 C 71.469 308.447,71.637 308.700,71.843 308.700 C 72.049 308.700,72.217 308.447,72.217 308.138 C 72.217 307.830,72.049 307.577,71.843 307.577 C 71.637 307.577,71.469 307.830,71.469 308.138 M330.776 318.990 C 330.776 319.298,330.945 319.551,331.151 319.551 C 331.356 319.551,331.525 319.298,331.525 318.990 C 331.525 318.681,331.356 318.428,331.151 318.428 C 330.945 318.428,330.776 318.681,330.776 318.990 M331.151 320.861 C 331.151 321.169,331.319 321.422,331.525 321.422 C 331.731 321.422,331.899 321.169,331.899 320.861 C 331.899 320.552,331.731 320.299,331.525 320.299 C 331.319 320.299,331.151 320.552,331.151 320.861 M68.101 321.444 C 68.101 321.868,68.269 322.110,68.475 321.983 C 68.681 321.856,68.849 321.509,68.849 321.213 C 68.849 320.916,68.681 320.674,68.475 320.674 C 68.269 320.674,68.101 321.020,68.101 321.444 M68.101 329.280 C 68.101 329.691,68.269 330.028,68.475 330.028 C 68.681 330.028,68.849 329.691,68.849 329.280 C 68.849 328.868,68.681 328.531,68.475 328.531 C 68.269 328.531,68.101 328.868,68.101 329.280 M69.276 333.022 C 69.276 333.330,69.421 333.920,69.598 334.331 C 69.800 334.803,69.919 334.872,69.919 334.518 C 69.919 334.210,69.775 333.620,69.598 333.209 C 69.395 332.737,69.276 332.668,69.276 333.022 M328.923 337.105 C 328.693 337.535,328.637 337.888,328.799 337.892 C 328.960 337.895,328.862 338.044,328.579 338.223 C 328.297 338.401,328.152 338.778,328.257 339.059 C 328.371 339.365,328.698 338.993,329.073 338.126 C 329.739 336.587,329.623 335.797,328.923 337.105 M72.446 340.704 C 72.779 341.212,73.202 341.628,73.386 341.628 C 73.838 341.628,72.917 340.192,72.317 339.962 C 71.995 339.839,72.037 340.079,72.446 340.704 M74.088 342.632 C 74.088 343.048,76.640 345.575,76.827 345.344 C 76.899 345.255,76.312 344.531,75.523 343.734 C 74.734 342.937,74.088 342.441,74.088 342.632 M77.830 345.932 C 77.830 346.364,78.858 347.210,79.095 346.973 C 79.222 346.846,79.326 346.909,79.326 347.115 C 79.326 347.496,82.407 349.860,82.903 349.860 C 83.054 349.860,82.723 349.439,82.168 348.924 C 81.613 348.410,81.013 347.989,80.835 347.989 C 80.657 347.989,80.455 347.856,80.387 347.695 C 80.212 347.282,77.830 345.640,77.830 345.932 M181.104 346.866 C 181.104 347.072,181.356 347.240,181.665 347.240 C 181.974 347.240,182.226 347.072,182.226 346.866 C 182.226 346.660,181.974 346.492,181.665 346.492 C 181.356 346.492,181.104 346.660,181.104 346.866 M224.018 348.623 C 223.879 348.848,224.030 349.135,224.355 349.259 C 225.239 349.599,225.705 349.532,225.441 349.105 C 225.311 348.896,225.063 348.813,224.889 348.920 C 224.715 349.028,224.505 348.913,224.422 348.664 C 224.316 348.347,224.196 348.335,224.018 348.623 M84.796 351.149 C 85.005 351.693,86.436 352.222,86.436 351.756 C 86.436 351.602,86.023 351.288,85.518 351.058 C 84.779 350.721,84.639 350.739,84.796 351.149 M161.444 356.620 C 161.308 356.839,161.287 357.109,161.397 357.219 C 161.665 357.487,162.395 357.014,162.395 356.573 C 162.395 356.095,161.749 356.127,161.444 356.620 M237.675 356.618 C 237.765 356.888,238.060 357.183,238.330 357.273 C 238.611 357.367,238.751 357.226,238.658 356.946 C 238.568 356.676,238.273 356.381,238.003 356.291 C 237.722 356.197,237.582 356.338,237.675 356.618 M157.811 359.631 C 157.245 360.054,156.782 360.554,156.782 360.742 C 156.782 361.366,157.331 361.059,158.214 359.942 C 159.238 358.646,159.186 358.606,157.811 359.631 M241.904 360.091 C 242.240 360.603,242.761 361.117,243.062 361.232 C 243.903 361.555,243.015 360.081,242.060 359.570 C 241.318 359.172,241.313 359.189,241.904 360.091 M298.982 360.696 C 298.679 360.888,298.529 361.142,298.648 361.261 C 298.942 361.555,300.094 361.086,300.094 360.671 C 300.094 360.244,299.682 360.254,298.982 360.696 M296.187 362.407 C 295.787 362.709,295.629 362.956,295.835 362.956 C 296.040 362.956,296.536 362.709,296.935 362.407 C 297.335 362.105,297.493 361.857,297.287 361.857 C 297.081 361.857,296.586 362.105,296.187 362.407 M151.527 366.043 C 150.428 367.329,150.010 367.961,150.599 367.446 C 152.891 365.443,154.427 363.704,153.903 363.704 C 153.696 363.704,152.627 364.757,151.527 366.043 M248.082 366.137 C 249.408 367.474,250.588 368.569,250.705 368.569 C 250.821 368.569,249.900 367.474,248.657 366.137 C 247.414 364.799,246.234 363.704,246.035 363.704 C 245.835 363.704,246.757 364.799,248.082 366.137 M290.750 365.187 C 290.447 365.378,290.325 365.660,290.478 365.813 C 290.631 365.967,291.041 365.807,291.389 365.459 C 292.066 364.783,291.661 364.610,290.750 365.187 M113.377 367.820 C 114.097 368.215,114.855 368.537,115.061 368.537 C 115.267 368.537,114.846 368.215,114.125 367.820 C 113.405 367.426,112.647 367.103,112.442 367.103 C 112.236 367.103,112.657 367.426,113.377 367.820 M117.671 369.923 C 118.004 370.256,118.390 370.415,118.529 370.277 C 118.668 370.138,118.533 369.868,118.231 369.677 C 117.347 369.118,117.013 369.265,117.671 369.923 M254.069 370.761 C 254.069 371.145,255.203 371.676,255.464 371.414 C 255.556 371.323,255.279 371.061,254.850 370.831 C 254.420 370.601,254.069 370.570,254.069 370.761 M131.623 374.072 C 132.088 374.161,132.762 374.158,133.119 374.064 C 133.477 373.971,133.096 373.898,132.273 373.902 C 131.450 373.906,131.157 373.982,131.623 374.072 M266.315 374.077 C 266.980 374.160,268.158 374.161,268.935 374.080 C 269.711 373.999,269.167 373.932,267.727 373.930 C 266.286 373.928,265.651 373.995,266.315 374.077 " stroke="none" fill="#40bcb8" fill-rule="evenodd"></path></g></svg>