<svg id="svg" xmlns="http://www.w3.org/2000/svg" xmlns:xlink="http://www.w3.org/1999/xlink" width="400" height="400" viewBox="0, 0, 400,400" version="1.1"><g id="svgg"><path id="path0" d="M15.200 1.495 C 13.770 2.296,12.362 3.186,12.071 3.475 C 11.781 3.764,11.392 4.000,11.209 4.000 C 10.702 4.000,4.391 10.366,4.503 10.765 C 4.556 10.956,4.217 11.449,3.750 11.860 C 3.282 12.271,2.247 13.858,1.451 15.386 L 0.002 18.165 0.002 200.230 C 0.002 377.600,0.021 382.319,0.751 383.247 C 1.163 383.771,1.519 384.337,1.542 384.504 C 1.773 386.192,4.362 389.098,4.893 388.264 C 5.087 387.958,5.190 388.027,5.194 388.467 C 5.197 388.833,5.005 389.198,4.766 389.278 C 4.528 389.357,5.353 390.484,6.599 391.781 C 8.220 393.468,8.956 393.994,9.183 393.628 C 9.407 393.266,9.581 393.245,9.774 393.557 C 9.924 393.801,9.857 394.000,9.624 394.000 C 8.807 394.000,9.219 394.609,10.703 395.596 C 11.526 396.144,12.290 396.685,12.400 396.798 C 12.510 396.910,13.590 397.632,14.800 398.401 L 17.000 399.800 199.541 399.899 C 397.403 400.007,383.450 400.139,385.502 398.141 C 385.779 397.872,386.364 397.538,386.802 397.399 C 387.241 397.260,387.600 396.990,387.600 396.800 C 387.600 396.610,387.982 396.333,388.448 396.185 C 389.376 395.890,396.000 389.443,396.000 388.834 C 396.000 388.627,396.247 388.210,396.548 387.909 C 397.000 387.457,398.371 385.154,398.637 384.400 C 398.676 384.290,398.839 383.795,399.000 383.300 C 399.162 382.805,399.452 382.400,399.646 382.400 C 400.467 382.400,400.071 17.798,399.249 16.753 C 398.837 16.229,398.481 15.663,398.458 15.496 C 398.380 14.926,397.098 12.641,396.548 12.091 C 396.247 11.790,396.000 11.377,396.000 11.173 C 396.000 10.712,389.259 4.000,388.796 4.000 C 388.610 4.000,388.219 3.764,387.929 3.475 C 387.638 3.186,386.193 2.287,384.717 1.477 L 382.035 0.005 199.917 0.023 L 17.800 0.040 15.200 1.495 M204.120 77.500 C 204.296 77.775,204.686 78.000,204.987 78.000 C 205.287 78.000,205.598 78.194,205.677 78.432 C 205.927 79.181,212.440 79.434,212.966 78.715 C 213.341 78.202,213.490 78.192,213.921 78.653 C 214.202 78.954,214.289 79.203,214.116 79.206 C 213.942 79.209,214.070 79.387,214.400 79.600 C 215.191 80.111,217.455 80.106,218.417 79.591 C 219.029 79.263,219.136 79.300,218.955 79.774 C 218.695 80.450,220.323 81.018,221.581 80.689 C 222.043 80.568,222.441 80.730,222.581 81.095 C 222.752 81.540,223.179 81.643,224.176 81.481 C 225.142 81.325,225.601 81.426,225.756 81.830 C 226.026 82.534,227.255 82.572,227.979 81.900 C 228.295 81.607,228.412 81.588,228.263 81.855 C 227.816 82.655,229.147 83.425,230.027 82.876 C 230.446 82.614,230.927 82.403,231.095 82.406 C 231.263 82.409,231.132 82.582,230.803 82.789 C 230.322 83.094,230.304 83.264,230.713 83.673 C 231.122 84.082,231.381 84.080,232.052 83.660 C 232.509 83.375,232.777 83.314,232.646 83.525 C 232.516 83.736,232.677 84.132,233.004 84.404 C 233.332 84.676,233.600 84.789,233.600 84.656 C 233.600 84.523,234.235 84.771,235.012 85.207 C 235.789 85.643,236.779 86.000,237.212 86.000 C 237.645 86.000,238.000 86.180,238.000 86.400 C 238.000 86.620,238.278 86.800,238.617 86.800 C 238.956 86.800,239.620 87.160,240.092 87.600 C 240.564 88.040,241.187 88.400,241.475 88.400 C 241.764 88.400,242.000 88.559,242.000 88.753 C 242.000 88.948,242.315 89.207,242.700 89.329 C 243.387 89.547,245.607 90.806,246.000 91.201 C 246.110 91.312,247.276 92.212,248.590 93.201 C 249.905 94.190,252.402 96.350,254.140 98.000 C 255.877 99.650,257.411 100.967,257.549 100.926 C 257.687 100.886,257.756 101.073,257.702 101.343 C 257.648 101.612,258.317 102.635,259.190 103.616 C 260.063 104.597,260.782 105.597,260.789 105.838 C 260.795 106.079,261.160 106.602,261.600 107.000 C 262.040 107.398,262.400 107.966,262.400 108.262 C 262.400 108.558,262.580 108.800,262.800 108.800 C 263.020 108.800,263.200 109.036,263.200 109.325 C 263.200 109.613,263.560 110.236,264.000 110.708 C 264.440 111.180,264.800 111.844,264.800 112.183 C 264.800 112.924,265.441 113.001,265.763 112.300 C 265.889 112.025,265.898 112.188,265.782 112.662 C 265.665 113.135,265.908 114.125,266.320 114.862 C 266.733 115.598,267.000 116.409,266.914 116.663 C 266.678 117.365,267.639 117.782,268.039 117.151 C 268.231 116.848,268.391 116.789,268.394 117.020 C 268.397 117.251,268.216 117.624,267.991 117.849 C 267.561 118.279,268.437 120.929,269.156 121.373 C 269.359 121.498,269.431 121.958,269.317 122.396 C 269.191 122.877,269.340 123.279,269.695 123.415 C 270.069 123.559,270.214 123.993,270.095 124.615 C 269.976 125.237,270.121 125.671,270.495 125.815 C 270.883 125.964,271.014 126.394,270.882 127.083 C 270.761 127.716,270.906 128.297,271.251 128.563 C 271.578 128.814,271.815 129.679,271.810 130.600 C 271.802 131.918,271.931 132.189,272.543 132.137 C 273.085 132.092,273.166 132.194,272.843 132.517 C 272.226 133.134,272.288 135.864,272.933 136.467 C 273.290 136.800,273.406 137.592,273.285 138.860 C 273.040 141.406,273.491 143.727,274.179 143.463 C 274.534 143.327,274.647 143.500,274.520 143.985 C 274.416 144.383,274.526 144.831,274.765 144.978 C 275.679 145.543,275.315 155.115,274.328 156.502 C 273.316 157.922,272.895 161.350,273.514 163.125 C 273.861 164.120,273.822 164.291,273.261 164.249 C 272.736 164.210,272.601 164.571,272.603 166.000 C 272.606 167.075,272.381 167.976,272.045 168.237 C 271.706 168.501,271.562 169.089,271.682 169.717 C 271.814 170.406,271.683 170.836,271.295 170.985 C 270.917 171.130,270.776 171.563,270.898 172.202 C 271.006 172.765,270.852 173.391,270.544 173.646 C 270.245 173.895,270.000 174.436,270.000 174.849 C 270.000 175.262,269.799 175.600,269.553 175.600 C 269.304 175.600,269.199 175.953,269.316 176.400 C 269.431 176.840,269.358 177.200,269.153 177.200 C 268.846 177.200,267.960 178.819,267.834 179.610 C 267.815 179.725,267.572 180.085,267.294 180.410 C 266.746 181.050,264.800 183.965,264.800 184.147 C 264.800 184.453,260.291 188.822,259.132 189.639 C 258.399 190.156,257.451 190.898,257.025 191.289 C 256.598 191.680,256.096 192.000,255.908 192.000 C 255.720 192.000,255.180 192.360,254.708 192.800 C 254.236 193.240,253.613 193.600,253.325 193.600 C 253.036 193.600,252.800 193.780,252.800 194.000 C 252.800 194.220,252.601 194.400,252.358 194.400 C 252.115 194.400,251.116 194.940,250.138 195.600 C 249.160 196.260,248.275 196.800,248.172 196.800 C 247.562 196.800,244.811 198.894,245.006 199.210 C 245.137 199.422,244.962 199.483,244.611 199.349 C 244.256 199.213,243.287 199.565,242.399 200.153 C 241.529 200.729,240.713 201.200,240.587 201.200 C 240.293 201.200,235.894 204.166,233.804 205.773 C 231.217 207.762,228.767 210.535,228.946 211.270 C 229.048 211.690,228.919 211.867,228.600 211.745 C 228.076 211.544,227.103 212.712,225.684 215.245 C 224.519 217.327,224.149 218.062,223.647 219.300 C 223.401 219.905,222.996 220.838,222.746 221.374 C 222.497 221.909,222.387 222.708,222.502 223.148 C 222.633 223.646,222.480 224.037,222.099 224.183 C 221.372 224.462,221.703 230.769,222.470 231.243 C 222.769 231.428,222.700 231.807,222.253 232.445 C 221.894 232.958,221.597 233.203,221.594 232.989 C 221.578 232.005,220.812 233.937,220.806 234.974 C 220.803 235.622,220.410 236.563,219.930 237.074 L 219.061 238.000 200.414 238.000 L 181.767 238.000 180.182 236.300 C 178.408 234.397,177.600 233.111,177.600 232.193 C 177.600 231.853,177.325 231.469,176.988 231.340 C 176.646 231.209,176.465 230.817,176.578 230.453 C 177.041 228.952,176.951 213.191,176.476 212.716 C 176.108 212.348,176.000 212.571,176.000 213.696 C 176.000 214.497,175.848 215.247,175.661 215.362 C 174.843 215.868,175.711 212.247,176.646 211.256 C 177.506 210.345,177.626 209.892,177.521 207.950 C 177.441 206.465,177.579 205.532,177.927 205.209 C 178.228 204.928,178.402 204.106,178.331 203.291 C 178.256 202.416,178.400 201.800,178.704 201.699 C 178.977 201.608,179.200 201.008,179.200 200.367 C 179.200 199.725,179.380 199.200,179.600 199.200 C 179.820 199.200,180.000 198.935,180.000 198.612 C 180.000 198.018,181.378 195.313,182.028 194.630 C 182.233 194.414,182.181 193.996,181.904 193.630 C 181.641 193.283,181.586 193.135,181.781 193.301 C 182.183 193.642,183.599 192.505,183.602 191.838 C 183.608 190.837,194.264 180.435,196.846 178.909 C 197.481 178.534,198.000 178.086,198.000 177.914 C 198.000 177.741,198.242 177.600,198.538 177.600 C 198.834 177.600,199.402 177.240,199.800 176.800 C 200.198 176.360,200.766 176.000,201.062 176.000 C 201.358 176.000,201.600 175.820,201.600 175.600 C 201.600 175.380,201.836 175.200,202.125 175.200 C 202.413 175.200,203.007 174.885,203.445 174.500 C 204.229 173.810,204.700 173.514,207.555 171.916 C 208.350 171.470,209.478 170.767,210.062 170.353 C 210.646 169.939,211.321 169.600,211.562 169.600 C 212.163 169.600,212.116 168.898,211.500 168.688 C 211.225 168.594,211.425 168.589,211.943 168.677 C 212.860 168.832,216.677 166.549,219.243 164.310 C 219.817 163.810,221.052 162.728,221.988 161.906 C 223.046 160.977,223.605 160.191,223.466 159.826 C 223.307 159.412,223.431 159.314,223.890 159.490 C 224.381 159.678,224.475 159.571,224.274 159.049 C 224.109 158.619,224.166 158.456,224.426 158.616 C 224.900 158.909,226.400 157.346,226.400 156.559 C 226.400 156.273,226.695 155.875,227.056 155.673 C 227.417 155.471,227.585 155.099,227.429 154.846 C 227.272 154.594,226.949 154.508,226.711 154.655 C 226.449 154.817,226.392 154.737,226.566 154.455 C 226.725 154.198,226.986 154.068,227.147 154.167 C 227.984 154.684,228.582 153.617,228.128 152.415 C 227.838 151.648,227.820 151.289,228.078 151.448 C 228.729 151.850,229.188 150.755,229.188 148.800 C 229.188 146.811,228.727 145.751,228.046 146.172 C 227.727 146.369,227.714 146.151,228.001 145.397 C 228.573 143.892,228.493 142.410,227.825 142.154 C 227.509 142.033,227.353 141.667,227.478 141.340 C 227.604 141.013,227.521 140.353,227.294 139.873 C 227.067 139.393,226.588 138.370,226.230 137.600 C 224.711 134.336,221.712 130.090,219.732 128.400 C 217.239 126.271,215.348 124.919,214.100 124.373 C 213.385 124.061,212.800 123.669,212.800 123.502 C 212.800 123.336,212.451 123.200,212.024 123.200 C 211.597 123.200,211.136 123.020,211.000 122.800 C 210.864 122.580,210.324 122.400,209.800 122.400 C 209.276 122.400,208.725 122.203,208.577 121.962 C 208.428 121.722,207.913 121.600,207.432 121.692 C 206.951 121.784,206.335 121.621,206.063 121.329 C 205.481 120.706,203.923 120.649,202.063 121.182 C 200.969 121.496,200.811 121.468,201.176 121.029 C 201.886 120.174,200.834 120.000,194.955 120.000 C 190.612 120.000,189.532 120.112,189.351 120.583 C 189.195 120.989,188.777 121.095,187.970 120.934 C 187.149 120.770,186.745 120.878,186.580 121.307 C 186.446 121.656,186.040 121.831,185.619 121.721 C 185.218 121.616,184.769 121.726,184.622 121.965 C 184.474 122.204,184.003 122.400,183.576 122.400 C 183.149 122.400,182.800 122.580,182.800 122.800 C 182.800 123.020,182.557 123.200,182.259 123.200 C 181.962 123.200,181.194 123.695,180.552 124.300 C 179.911 124.905,178.888 125.659,178.279 125.975 C 177.670 126.291,177.259 126.777,177.366 127.055 C 177.472 127.332,177.343 127.477,177.080 127.377 C 176.548 127.175,169.600 134.061,169.600 134.789 C 169.600 135.049,169.816 135.117,170.100 134.947 C 170.444 134.740,170.430 134.856,170.055 135.319 C 169.755 135.689,169.378 135.910,169.218 135.811 C 168.670 135.472,166.281 138.314,166.543 138.994 C 166.679 139.350,166.640 139.549,166.457 139.435 C 165.887 139.083,163.872 141.488,164.143 142.197 C 164.280 142.551,164.243 142.750,164.062 142.638 C 163.881 142.526,162.945 143.237,161.983 144.217 C 161.021 145.198,160.093 146.000,159.921 146.000 C 159.750 146.000,159.255 146.303,158.822 146.674 C 158.389 147.045,157.802 147.398,157.517 147.458 C 157.233 147.519,156.280 147.753,155.400 147.979 C 153.220 148.539,150.464 148.083,148.917 146.907 C 148.193 146.356,147.426 146.060,147.155 146.228 C 146.884 146.395,146.781 146.355,146.918 146.133 C 147.135 145.781,145.905 144.400,145.374 144.400 C 145.254 144.400,144.581 143.861,143.878 143.202 C 143.175 142.543,142.455 142.003,142.278 142.002 C 142.101 142.001,141.381 141.461,140.678 140.802 C 139.975 140.143,139.255 139.603,139.078 139.602 C 138.901 139.601,138.181 139.061,137.478 138.402 C 136.775 137.743,135.990 137.203,135.733 137.202 C 135.477 137.201,135.207 137.063,135.133 136.896 C 135.060 136.728,133.586 135.534,131.857 134.241 C 130.129 132.949,128.239 131.204,127.657 130.365 C 126.921 129.303,126.387 128.903,125.900 129.047 C 125.413 129.191,125.202 129.033,125.206 128.527 C 125.211 127.911,125.272 127.892,125.600 128.400 C 125.896 128.858,125.989 128.702,125.994 127.743 C 125.997 127.011,125.758 126.393,125.422 126.264 C 124.971 126.091,124.925 125.757,125.215 124.748 C 125.419 124.036,125.480 122.789,125.350 121.977 C 125.207 121.080,125.288 120.393,125.557 120.227 C 125.801 120.076,126.000 119.637,126.000 119.252 C 126.000 118.866,126.360 118.164,126.800 117.692 C 127.240 117.220,127.600 116.674,127.600 116.479 C 127.600 116.284,127.960 115.798,128.400 115.400 C 129.215 114.663,129.441 113.802,128.900 113.499 C 128.735 113.407,128.821 113.385,129.092 113.450 C 129.362 113.515,130.082 112.904,130.692 112.092 C 131.301 111.280,132.070 110.291,132.400 109.895 C 132.730 109.498,133.000 109.041,133.000 108.879 C 133.000 108.502,135.233 105.706,137.825 102.839 C 138.938 101.608,140.378 99.946,141.025 99.147 C 141.671 98.347,143.460 96.638,145.000 95.348 C 146.540 94.058,148.091 92.687,148.447 92.301 C 148.803 91.915,149.206 91.600,149.343 91.600 C 149.805 91.600,153.401 88.685,153.314 88.382 C 153.266 88.217,153.581 88.175,154.014 88.288 C 154.872 88.512,155.109 87.809,154.300 87.437 C 154.025 87.311,154.188 87.302,154.662 87.418 C 155.135 87.535,156.125 87.295,156.862 86.886 C 158.555 85.946,164.187 83.602,165.900 83.125 C 167.140 82.779,167.717 82.000,166.733 82.000 C 166.477 82.000,166.369 81.898,166.494 81.772 C 166.620 81.647,167.100 81.780,167.561 82.069 C 168.233 82.488,168.558 82.494,169.195 82.096 C 169.632 81.823,170.510 81.600,171.146 81.600 C 172.286 81.600,173.428 80.761,172.945 80.279 C 172.809 80.142,173.229 80.231,173.878 80.476 C 175.418 81.058,176.959 80.647,177.508 79.509 C 177.854 78.790,177.952 78.746,177.973 79.300 C 178.002 80.057,179.239 80.212,181.556 79.749 C 182.575 79.545,182.725 79.392,182.350 78.940 C 181.980 78.493,182.018 78.432,182.543 78.634 C 182.951 78.790,183.205 78.680,183.212 78.343 C 183.220 77.983,183.361 78.035,183.632 78.500 C 183.961 79.065,184.596 79.199,186.920 79.196 C 191.543 79.189,194.317 78.476,192.100 77.866 C 191.715 77.760,192.129 77.764,193.019 77.875 C 194.100 78.009,194.787 77.897,195.084 77.538 C 195.692 76.805,203.654 76.771,204.120 77.500 M274.267 146.267 C 273.882 146.652,273.993 153.252,274.400 154.200 C 274.621 154.713,274.754 153.387,274.772 150.500 C 274.800 146.011,274.770 145.763,274.267 146.267 M175.560 222.700 C 175.525 224.005,175.482 224.070,175.227 223.200 C 175.066 222.650,175.013 221.975,175.110 221.700 C 175.428 220.794,175.601 221.177,175.560 222.700 M223.076 230.300 C 222.975 230.685,222.893 230.370,222.893 229.600 C 222.893 228.830,222.975 228.515,223.076 228.900 C 223.176 229.285,223.176 229.915,223.076 230.300 M209.527 239.499 C 204.977 239.564,197.417 239.564,192.727 239.500 C 188.037 239.436,191.760 239.383,201.000 239.383 C 210.240 239.383,214.077 239.435,209.527 239.499 M193.800 252.000 C 193.508 252.472,193.428 252.466,200.600 252.483 C 203.680 252.490,206.308 252.665,206.439 252.873 C 206.571 253.080,207.246 253.266,207.939 253.286 C 208.633 253.306,209.200 253.495,209.200 253.706 C 209.200 253.918,209.740 254.012,210.400 253.915 C 211.103 253.812,211.600 253.918,211.600 254.172 C 211.600 254.780,213.875 255.720,214.491 255.365 C 214.771 255.204,214.865 255.221,214.699 255.403 C 214.353 255.784,215.506 257.200,216.162 257.200 C 216.403 257.200,218.009 258.642,219.731 260.405 C 221.453 262.167,223.026 263.507,223.227 263.384 C 223.427 263.260,223.483 263.440,223.351 263.784 C 223.219 264.129,223.291 264.633,223.513 264.905 C 224.298 265.872,225.600 268.433,225.600 269.012 C 225.600 269.335,225.780 269.600,226.000 269.600 C 226.220 269.600,226.400 270.140,226.400 270.800 C 226.400 271.460,226.580 272.000,226.800 272.000 C 227.020 272.000,227.200 272.795,227.200 273.767 C 227.200 274.791,227.403 275.601,227.683 275.694 C 228.025 275.808,228.132 276.919,228.051 279.494 C 227.988 281.495,228.118 283.472,228.340 283.887 C 228.656 284.479,228.576 284.747,227.972 285.125 C 227.453 285.449,227.200 286.057,227.200 286.980 C 227.200 287.735,227.020 288.464,226.800 288.600 C 226.580 288.736,226.400 289.287,226.400 289.824 C 226.400 290.361,226.212 290.800,225.982 290.800 C 225.753 290.800,225.594 291.025,225.630 291.300 C 225.787 292.511,225.576 293.232,225.142 292.964 C 224.825 292.768,224.748 293.014,224.891 293.764 C 225.034 294.510,224.947 294.789,224.613 294.660 C 224.347 294.558,223.845 294.953,223.499 295.537 C 223.154 296.122,222.496 297.031,222.038 297.558 C 221.524 298.149,221.271 298.880,221.378 299.466 C 221.476 300.006,221.385 300.314,221.168 300.181 C 220.959 300.051,220.914 299.732,221.070 299.472 C 221.234 299.199,221.070 299.230,220.681 299.545 C 220.311 299.845,220.089 300.220,220.187 300.379 C 220.285 300.537,220.145 300.667,219.876 300.667 C 219.354 300.667,215.090 303.585,214.867 304.095 C 214.793 304.263,214.388 304.400,213.967 304.400 C 213.545 304.400,213.200 304.580,213.200 304.800 C 213.200 305.020,212.840 305.200,212.400 305.200 C 211.960 305.200,211.600 305.358,211.600 305.550 C 211.600 305.743,211.060 306.008,210.400 306.140 C 209.740 306.272,209.200 306.584,209.200 306.833 C 209.200 307.099,209.489 307.176,209.900 307.019 C 210.461 306.805,210.501 306.852,210.100 307.256 C 209.711 307.648,209.493 307.653,209.120 307.280 C 208.492 306.652,206.927 306.664,206.520 307.300 C 206.287 307.664,204.563 307.800,200.200 307.800 C 195.837 307.800,194.113 307.664,193.880 307.300 C 193.704 307.025,192.839 306.800,191.957 306.800 C 190.989 306.800,190.451 306.641,190.600 306.400 C 190.736 306.180,190.561 306.000,190.210 306.000 C 187.678 306.000,180.698 300.737,177.396 296.338 C 176.555 295.217,173.594 288.971,173.597 288.324 C 173.599 287.952,173.420 287.536,173.200 287.400 C 172.980 287.264,172.800 286.471,172.800 285.638 C 172.800 284.632,172.532 283.881,172.000 283.400 C 171.192 282.668,170.860 281.343,171.600 281.800 C 171.851 281.955,171.998 281.106,171.994 279.524 C 171.990 277.747,171.873 277.178,171.600 277.600 C 171.259 278.128,171.212 278.125,171.206 277.575 C 171.203 277.232,171.560 276.564,172.000 276.092 C 172.891 275.135,173.192 271.711,172.338 272.238 C 172.059 272.411,171.985 272.348,172.151 272.079 C 172.302 271.835,172.690 271.736,173.013 271.860 C 173.453 272.029,173.600 271.768,173.600 270.819 C 173.600 269.964,173.450 269.645,173.138 269.838 C 172.859 270.011,172.785 269.948,172.951 269.679 C 173.102 269.435,173.490 269.336,173.813 269.460 C 174.210 269.613,174.400 269.423,174.400 268.876 C 174.400 268.431,174.535 268.007,174.700 267.933 C 174.865 267.860,175.450 266.904,176.000 265.809 C 177.016 263.787,183.004 257.200,183.826 257.200 C 184.074 257.200,184.602 256.840,185.000 256.400 C 185.398 255.960,185.966 255.600,186.262 255.600 C 186.558 255.600,186.800 255.420,186.800 255.200 C 186.800 254.980,187.160 254.800,187.600 254.800 C 188.040 254.800,188.400 254.561,188.400 254.269 C 188.400 253.901,188.787 253.795,189.664 253.924 C 190.716 254.078,190.885 253.998,190.673 253.446 C 190.458 252.886,190.545 252.850,191.224 253.213 C 192.212 253.741,193.734 253.325,193.456 252.603 C 193.346 252.314,193.363 251.971,193.494 251.839 C 193.875 251.459,194.071 251.562,193.800 252.000 " stroke="none" fill="#34343c" fill-rule="evenodd"></path><path id="path1" d="M195.338 77.300 C 195.236 77.465,197.143 77.600,199.576 77.600 C 202.009 77.600,204.000 77.465,203.999 77.300 C 203.999 77.135,202.092 77.000,199.761 77.000 C 197.430 77.000,195.439 77.135,195.338 77.300 M274.957 150.400 C 274.957 153.370,275.020 154.585,275.097 153.100 C 275.174 151.615,275.174 149.185,275.097 147.700 C 275.020 146.215,274.957 147.430,274.957 150.400 M175.634 212.800 C 175.579 213.350,175.488 214.211,175.432 214.714 C 175.372 215.259,175.478 215.482,175.693 215.267 C 175.892 215.068,175.983 214.207,175.895 213.353 C 175.791 212.347,175.699 212.153,175.634 212.800 M175.110 221.700 C 175.013 221.975,175.066 222.650,175.227 223.200 C 175.482 224.070,175.525 224.005,175.560 222.700 C 175.601 221.177,175.428 220.794,175.110 221.700 M222.893 229.600 C 222.893 230.370,222.975 230.685,223.076 230.300 C 223.176 229.915,223.176 229.285,223.076 228.900 C 222.975 228.515,222.893 228.830,222.893 229.600 M192.727 239.500 C 197.417 239.564,204.977 239.564,209.527 239.499 C 214.077 239.435,210.240 239.383,201.000 239.383 C 191.760 239.383,188.037 239.436,192.727 239.500 " stroke="none" fill="#343c3c" fill-rule="evenodd"></path></g></svg>