<svg id="svg" xmlns="http://www.w3.org/2000/svg" xmlns:xlink="http://www.w3.org/1999/xlink" width="400" height="400" viewBox="0, 0, 400,400" version="1.1"><g id="svgg"><path id="path0" d="M170.360 28.840 C 164.833 29.266,158.391 31.697,160.572 32.534 C 160.940 32.675,161.149 32.641,161.036 32.459 C 160.743 31.985,164.297 30.289,164.858 30.636 C 165.166 30.826,165.215 30.748,165.002 30.404 C 164.761 30.013,164.940 29.934,165.728 30.084 C 166.362 30.205,166.679 30.128,166.531 29.888 C 166.381 29.646,166.774 29.564,167.543 29.677 C 168.234 29.778,168.800 29.703,168.800 29.510 C 168.800 29.316,169.835 29.152,171.100 29.144 C 179.898 29.092,193.774 28.759,193.937 28.597 C 194.251 28.282,175.020 28.480,170.360 28.840 M211.903 28.770 C 215.040 28.897,219.450 28.895,221.703 28.767 C 224.310 28.619,222.237 28.535,216.000 28.537 C 207.918 28.540,207.200 28.581,211.903 28.770 M226.132 29.066 C 226.278 29.212,227.478 29.292,228.799 29.245 C 230.345 29.189,231.200 29.316,231.200 29.603 C 231.200 29.847,231.387 29.932,231.615 29.791 C 232.210 29.423,235.247 30.001,234.981 30.431 C 234.859 30.629,235.010 30.694,235.318 30.576 C 235.626 30.458,236.935 30.910,238.228 31.581 C 239.520 32.251,241.123 32.775,241.789 32.746 C 242.845 32.698,242.872 32.671,242.000 32.535 C 241.450 32.449,239.740 31.749,238.200 30.981 C 236.660 30.212,234.320 29.408,233.000 29.194 C 230.268 28.751,225.733 28.666,226.132 29.066 M157.700 32.676 C 158.085 32.776,158.715 32.776,159.100 32.676 C 159.485 32.575,159.170 32.493,158.400 32.493 C 157.630 32.493,157.315 32.575,157.700 32.676 M150.400 33.316 C 149.410 33.547,147.541 34.418,146.246 35.251 C 144.797 36.184,143.181 36.863,142.046 37.015 C 138.687 37.466,136.194 38.355,134.800 39.600 C 134.043 40.276,133.058 40.897,132.612 40.980 C 128.480 41.746,127.213 42.204,125.770 43.456 C 124.346 44.691,123.545 45.032,120.400 45.747 C 119.850 45.872,118.195 46.855,116.723 47.933 C 115.251 49.010,113.497 50.001,112.825 50.135 C 112.154 50.269,110.831 51.092,109.885 51.964 C 108.939 52.836,107.157 53.927,105.924 54.388 C 104.691 54.849,102.899 55.914,101.941 56.755 C 100.984 57.595,99.624 58.579,98.921 58.941 C 98.217 59.303,97.171 60.216,96.597 60.969 C 96.022 61.722,95.058 62.511,94.454 62.721 C 93.850 62.932,92.735 63.765,91.978 64.574 C 91.220 65.382,89.790 66.554,88.800 67.179 C 87.810 67.803,86.010 69.242,84.800 70.376 C 83.590 71.510,81.649 73.284,80.487 74.319 C 77.303 77.153,76.401 78.055,74.000 80.798 C 72.790 82.180,70.855 84.321,69.700 85.554 C 68.545 86.788,67.600 87.922,67.600 88.075 C 67.600 88.758,68.355 88.713,69.009 87.991 C 69.402 87.556,69.587 87.200,69.421 87.200 C 69.254 87.200,69.710 86.525,70.434 85.700 C 71.159 84.875,71.942 84.200,72.176 84.200 C 72.409 84.200,72.600 83.980,72.600 83.710 C 72.600 82.957,75.294 80.011,75.734 80.283 C 75.959 80.422,75.994 80.314,75.819 80.030 C 75.429 79.400,79.443 75.456,80.076 75.847 C 80.341 76.011,80.412 75.943,80.251 75.682 C 79.987 75.255,82.086 73.400,82.834 73.400 C 83.035 73.400,83.155 73.293,83.100 73.161 C 82.908 72.703,84.094 71.611,84.507 71.866 C 84.736 72.008,84.808 71.936,84.666 71.706 C 84.524 71.477,85.036 70.810,85.804 70.224 C 86.572 69.638,87.200 69.280,87.200 69.429 C 87.200 69.577,87.474 69.470,87.810 69.192 C 88.145 68.914,88.331 68.598,88.223 68.490 C 87.850 68.117,89.993 66.748,90.496 67.038 C 90.773 67.198,90.884 67.198,90.742 67.039 C 90.376 66.630,93.643 63.579,94.126 63.878 C 94.345 64.013,94.411 63.942,94.274 63.720 C 94.029 63.323,95.888 62.185,96.530 62.340 C 96.711 62.384,96.753 62.248,96.623 62.038 C 96.383 61.649,97.074 61.032,97.800 60.988 C 98.020 60.975,98.156 60.751,98.103 60.491 C 97.985 59.915,100.172 58.718,100.613 59.116 C 100.787 59.272,100.799 59.175,100.641 58.900 C 100.482 58.625,100.543 58.377,100.776 58.350 C 101.009 58.323,101.425 58.269,101.700 58.232 C 101.975 58.194,102.154 57.944,102.098 57.675 C 101.966 57.045,105.613 54.719,106.312 54.987 C 106.622 55.106,106.730 55.011,106.573 54.757 C 106.409 54.491,106.590 54.378,107.040 54.465 C 107.472 54.548,108.434 53.997,109.372 53.132 C 110.250 52.321,111.139 51.762,111.346 51.890 C 111.554 52.019,111.608 51.936,111.466 51.707 C 111.317 51.465,112.164 50.902,113.477 50.369 C 114.724 49.863,116.337 48.928,117.061 48.293 C 117.817 47.629,118.578 47.263,118.850 47.431 C 119.131 47.604,119.218 47.553,119.064 47.304 C 118.753 46.800,119.894 46.287,120.498 46.661 C 120.767 46.827,120.804 46.731,120.599 46.399 C 120.358 46.008,120.495 45.932,121.137 46.100 C 121.612 46.224,122.000 46.162,122.000 45.963 C 122.000 45.763,122.333 45.600,122.740 45.600 C 123.147 45.600,124.199 45.079,125.078 44.442 C 127.374 42.779,129.186 41.909,129.836 42.159 C 130.146 42.278,130.400 42.188,130.400 41.959 C 130.400 41.730,130.840 41.600,131.378 41.671 C 132.002 41.753,133.169 41.252,134.599 40.289 C 135.832 39.458,137.040 38.901,137.283 39.051 C 137.569 39.228,137.609 39.137,137.396 38.794 C 137.158 38.409,137.251 38.334,137.734 38.519 C 138.103 38.661,138.400 38.581,138.400 38.341 C 138.400 38.102,138.760 38.001,139.200 38.116 C 139.640 38.231,140.000 38.149,140.000 37.934 C 140.000 37.719,140.405 37.582,140.900 37.631 C 141.395 37.679,142.106 37.586,142.481 37.424 C 142.855 37.262,143.350 37.246,143.581 37.388 C 143.811 37.531,144.000 37.457,144.000 37.224 C 144.000 36.991,144.246 36.800,144.546 36.800 C 144.846 36.800,145.565 36.428,146.142 35.974 C 146.720 35.520,147.402 35.278,147.658 35.436 C 147.935 35.607,148.016 35.550,147.859 35.296 C 147.528 34.760,150.930 33.411,151.785 33.739 C 152.123 33.869,152.400 33.777,152.400 33.535 C 152.400 33.253,153.028 33.167,154.163 33.295 C 155.132 33.404,156.167 33.340,156.463 33.153 C 157.219 32.674,152.625 32.797,150.400 33.316 M243.675 33.008 C 243.790 33.123,245.215 33.278,246.842 33.353 C 248.670 33.437,249.342 33.375,248.600 33.192 C 247.200 32.845,243.369 32.703,243.675 33.008 M250.734 34.025 C 251.248 34.231,252.429 34.945,253.358 35.613 C 254.304 36.292,255.739 36.905,256.623 37.006 C 258.087 37.173,258.108 37.162,256.925 36.849 C 256.224 36.663,254.664 35.856,253.458 35.056 C 252.251 34.255,250.935 33.611,250.532 33.625 C 249.951 33.645,249.992 33.728,250.734 34.025 M259.400 37.484 C 261.610 37.787,263.626 38.434,263.416 38.774 C 263.302 38.958,263.522 39.085,263.904 39.055 C 264.331 39.021,264.548 39.232,264.467 39.600 C 264.393 39.930,264.462 40.071,264.620 39.913 C 264.778 39.755,265.357 39.980,265.908 40.413 C 267.612 41.754,267.689 41.279,266.013 39.765 C 264.330 38.243,261.486 37.161,259.436 37.260 L 258.200 37.320 259.400 37.484 M268.033 41.347 C 268.125 41.428,268.920 41.604,269.800 41.738 C 270.915 41.907,271.158 41.871,270.600 41.619 C 269.832 41.271,267.690 41.044,268.033 41.347 M272.200 42.467 C 272.640 42.710,273.405 43.276,273.900 43.724 C 274.395 44.173,274.800 44.425,274.800 44.286 C 274.800 43.791,272.598 42.000,272.004 42.012 C 271.577 42.021,271.634 42.154,272.200 42.467 M278.856 45.964 C 280.097 46.364,281.807 47.248,282.656 47.927 C 283.505 48.607,285.280 49.635,286.600 50.212 C 287.920 50.789,289.697 51.922,290.549 52.731 C 291.436 53.572,291.922 53.858,291.686 53.400 C 290.958 51.987,289.458 50.880,287.067 49.988 C 285.784 49.509,284.164 48.621,283.467 48.014 C 281.784 46.549,280.145 45.758,278.200 45.472 C 276.840 45.272,276.939 45.346,278.856 45.964 M293.800 54.675 C 294.680 55.023,296.120 55.854,297.000 56.521 C 299.551 58.455,299.919 58.600,298.200 56.995 C 296.579 55.481,293.897 54.008,292.800 54.029 C 292.470 54.036,292.920 54.326,293.800 54.675 M300.600 58.942 C 301.676 59.723,305.152 62.592,307.700 64.800 C 309.605 66.452,309.683 66.485,308.638 65.200 C 308.013 64.430,306.738 63.320,305.806 62.734 C 304.874 62.148,303.765 61.227,303.341 60.688 C 302.917 60.149,301.947 59.405,301.185 59.035 C 300.281 58.595,300.078 58.563,300.600 58.942 M311.200 67.297 C 311.200 67.366,312.325 68.403,313.700 69.602 C 316.134 71.723,316.204 71.357,313.800 69.081 C 312.687 68.028,311.200 67.007,311.200 67.297 M316.417 71.873 C 316.426 72.053,317.371 72.909,318.517 73.775 C 320.145 75.006,320.381 75.107,319.600 74.236 C 318.407 72.907,316.393 71.411,316.417 71.873 M322.585 77.550 C 323.677 78.677,324.631 79.600,324.705 79.600 C 325.107 79.600,322.589 76.758,321.675 76.180 C 321.006 75.757,321.350 76.275,322.585 77.550 M325.200 80.123 C 325.200 80.268,326.040 81.244,327.067 82.293 C 328.242 83.493,328.627 83.755,328.106 83.000 C 327.197 81.682,325.200 79.706,325.200 80.123 M330.260 86.100 C 330.929 86.815,331.993 88.120,332.623 89.000 C 333.254 89.880,334.497 91.410,335.386 92.400 C 336.275 93.390,337.322 94.650,337.713 95.200 C 338.363 96.116,338.386 96.122,337.983 95.272 C 337.740 94.762,336.700 93.394,335.671 92.232 C 334.642 91.070,332.934 88.922,331.876 87.459 C 330.817 85.997,329.747 84.800,329.497 84.800 C 329.247 84.800,329.591 85.385,330.260 86.100 M66.800 89.196 C 66.800 89.413,65.900 90.585,64.800 91.800 C 63.700 93.015,62.800 94.159,62.800 94.342 C 62.800 94.525,61.810 95.698,60.600 96.947 C 59.390 98.196,58.400 99.451,58.400 99.734 C 58.400 100.018,57.837 100.779,57.148 101.425 C 55.465 103.005,54.141 105.916,54.821 106.542 C 55.195 106.887,55.252 106.884,55.054 106.530 C 54.698 105.896,55.613 103.961,56.120 104.274 C 56.342 104.411,56.408 104.337,56.268 104.109 C 55.964 103.618,58.317 100.551,58.875 100.710 C 59.086 100.770,59.145 100.635,59.006 100.410 C 58.867 100.184,58.943 100.000,59.176 100.000 C 59.409 100.000,59.579 99.865,59.553 99.700 C 59.433 98.943,59.632 98.372,59.947 98.567 C 60.294 98.782,61.431 97.749,61.671 97.000 C 61.742 96.780,61.948 96.649,62.130 96.710 C 62.311 96.770,62.352 96.646,62.221 96.434 C 62.090 96.223,62.302 95.871,62.692 95.653 C 63.081 95.435,63.355 95.154,63.300 95.028 C 63.033 94.419,63.254 93.984,63.700 94.241 C 63.975 94.399,64.067 94.382,63.905 94.203 C 63.743 94.024,64.308 93.121,65.161 92.197 C 66.959 90.246,67.833 88.800,67.214 88.800 C 66.986 88.800,66.800 88.978,66.800 89.196 M339.246 97.302 C 339.822 97.796,340.691 98.875,341.179 99.700 C 342.268 101.543,342.661 101.677,341.765 99.900 C 340.989 98.362,339.227 96.399,338.625 96.402 C 338.391 96.403,338.671 96.808,339.246 97.302 M343.246 102.647 C 343.822 103.281,344.492 104.160,344.734 104.600 C 344.977 105.040,345.181 105.202,345.188 104.959 C 345.207 104.271,343.468 101.883,342.800 101.678 C 342.453 101.572,342.642 101.981,343.246 102.647 M53.830 107.467 C 53.689 107.834,53.721 108.281,53.900 108.460 C 54.080 108.640,54.264 108.340,54.309 107.793 C 54.404 106.646,54.198 106.506,53.830 107.467 M113.000 109.001 C 106.389 111.338,107.404 115.797,116.713 125.312 C 124.802 133.580,124.862 133.796,120.625 139.400 C 119.626 140.720,118.159 142.790,117.363 144.000 C 116.568 145.210,115.388 146.960,114.741 147.890 C 114.094 148.819,113.125 150.575,112.586 151.793 C 112.048 153.010,111.137 154.717,110.561 155.586 C 109.986 156.456,108.922 158.750,108.198 160.684 C 107.473 162.618,106.411 165.309,105.838 166.665 C 105.265 168.021,104.444 170.811,104.013 172.865 C 103.583 174.919,102.863 177.860,102.415 179.400 C 100.287 186.703,99.633 208.549,101.319 216.000 C 106.653 239.572,112.805 252.026,126.663 267.304 C 136.021 277.620,151.389 288.491,161.000 291.592 C 161.880 291.876,164.361 292.813,166.514 293.676 C 168.666 294.538,172.176 295.584,174.314 296.002 C 176.451 296.419,180.180 297.221,182.600 297.785 C 192.003 299.976,207.515 300.056,216.600 297.960 C 218.580 297.503,222.553 296.626,225.429 296.010 C 228.305 295.395,231.979 294.311,233.594 293.603 C 235.209 292.894,237.574 291.971,238.849 291.552 C 247.459 288.726,263.079 278.242,271.052 269.938 C 277.550 263.170,285.217 252.693,287.579 247.354 C 288.053 246.283,288.957 244.596,289.589 243.604 C 290.221 242.612,291.137 240.540,291.626 239.000 C 292.114 237.460,293.040 235.146,293.683 233.858 C 294.327 232.570,295.210 229.870,295.647 227.858 C 296.083 225.846,296.965 222.040,297.608 219.400 C 300.502 207.510,300.430 191.905,297.423 179.400 C 296.683 176.320,295.793 172.571,295.446 171.068 C 295.100 169.565,294.202 166.955,293.452 165.268 C 292.702 163.581,291.860 161.480,291.581 160.600 C 290.513 157.230,283.553 144.960,280.214 140.562 C 272.397 130.265,270.084 130.429,258.525 142.097 C 249.515 151.192,248.656 153.325,252.096 158.067 C 255.332 162.527,257.814 166.390,258.734 168.400 C 259.288 169.610,260.230 171.410,260.827 172.400 C 261.424 173.390,262.676 176.720,263.609 179.800 C 266.736 190.123,266.602 189.182,266.573 200.600 C 266.544 212.009,266.772 210.496,263.465 221.218 C 257.773 239.672,239.871 257.886,222.200 263.202 C 220.220 263.797,216.980 264.785,215.000 265.396 C 210.824 266.685,196.749 267.303,190.556 266.468 C 166.845 263.274,143.718 243.672,136.911 221.000 C 134.000 211.304,133.947 211.016,133.713 203.400 C 133.440 194.495,133.990 189.288,135.805 183.600 C 136.542 181.290,137.346 178.590,137.592 177.600 C 138.270 174.871,142.966 165.759,145.323 162.600 C 148.858 157.862,149.690 158.116,158.354 166.567 C 166.867 174.870,168.634 175.764,172.041 173.495 C 175.120 171.444,175.000 172.702,175.000 142.400 L 175.000 115.400 174.114 113.743 C 172.925 111.520,170.344 109.382,168.199 108.842 C 165.347 108.123,115.072 108.268,113.000 109.001 M346.400 108.474 C 346.400 108.583,347.120 109.407,348.000 110.305 C 349.586 111.923,350.221 112.138,348.872 110.600 C 347.961 109.562,346.400 108.219,346.400 108.474 M52.175 109.525 C 50.717 110.888,49.752 113.118,50.372 113.693 C 50.721 114.018,50.822 114.031,50.654 113.730 C 50.286 113.074,51.220 111.170,51.758 111.477 C 52.001 111.615,52.062 111.577,51.894 111.392 C 51.726 111.207,52.075 110.548,52.669 109.928 C 53.850 108.695,53.429 108.353,52.175 109.525 M49.200 115.127 C 49.200 115.307,48.565 116.162,47.789 117.027 C 46.453 118.517,44.834 122.567,45.363 123.096 C 45.493 123.227,45.600 123.033,45.600 122.667 C 45.600 122.300,45.763 122.000,45.963 122.000 C 46.162 122.000,46.224 121.612,46.100 121.137 C 45.946 120.551,46.021 120.366,46.332 120.558 C 46.618 120.735,46.710 120.632,46.577 120.285 C 46.460 119.979,47.092 118.759,47.982 117.575 C 49.492 115.565,49.883 114.800,49.400 114.800 C 49.290 114.800,49.200 114.947,49.200 115.127 M352.445 117.781 C 352.800 118.231,353.290 118.960,353.533 119.400 C 353.777 119.840,353.981 119.978,353.988 119.706 C 353.995 119.435,353.505 118.706,352.900 118.087 C 352.295 117.468,352.090 117.330,352.445 117.781 M44.800 123.962 C 44.800 124.161,44.189 125.055,43.443 125.948 C 42.112 127.542,40.909 131.038,41.331 132.089 C 41.444 132.370,41.551 132.105,41.568 131.500 C 41.586 130.895,41.763 130.400,41.963 130.400 C 42.162 130.400,42.224 130.012,42.100 129.537 C 41.932 128.895,42.008 128.758,42.399 128.999 C 42.731 129.204,42.827 129.167,42.661 128.898 C 42.287 128.294,42.800 127.153,43.304 127.464 C 43.535 127.607,43.612 127.543,43.475 127.322 C 43.166 126.822,44.971 124.305,45.360 124.693 C 45.515 124.849,45.524 124.666,45.378 124.288 C 45.093 123.544,44.800 123.379,44.800 123.962 M356.544 126.338 C 356.929 126.763,357.585 127.986,358.003 129.056 C 358.421 130.125,358.771 130.763,358.781 130.474 C 358.816 129.487,357.128 126.058,356.485 125.811 C 355.941 125.602,355.950 125.681,356.544 126.338 M359.524 134.204 C 359.745 134.647,360.292 135.341,360.740 135.746 C 361.188 136.151,361.672 137.017,361.815 137.670 C 361.959 138.323,362.158 138.776,362.258 138.676 C 362.694 138.239,361.818 136.344,360.526 134.933 C 359.754 134.090,359.303 133.762,359.524 134.204 M39.552 134.724 C 38.063 136.278,36.596 141.182,37.462 141.713 C 37.648 141.827,37.810 141.185,37.822 140.286 C 37.834 139.387,38.049 138.584,38.300 138.500 C 38.550 138.417,38.645 138.060,38.510 137.709 C 38.348 137.286,38.422 137.166,38.727 137.355 C 39.020 137.536,39.111 137.434,38.974 137.077 C 38.855 136.766,39.233 135.947,39.814 135.256 C 40.908 133.956,40.697 133.529,39.552 134.724 M36.181 145.367 C 34.611 147.482,33.666 149.269,33.266 150.877 C 32.770 152.875,32.622 157.112,33.064 156.670 C 33.209 156.525,33.295 155.505,33.256 154.403 C 33.217 153.301,33.344 152.400,33.537 152.400 C 33.731 152.400,33.798 151.923,33.687 151.341 C 33.556 150.659,33.634 150.374,33.905 150.541 C 34.172 150.706,34.243 150.485,34.100 149.938 C 33.932 149.295,34.008 149.158,34.399 149.399 C 34.743 149.612,34.827 149.568,34.643 149.270 C 34.259 148.648,35.135 147.113,35.682 147.451 C 35.943 147.612,36.011 147.541,35.847 147.276 C 35.695 147.030,35.931 146.469,36.371 146.029 C 36.811 145.589,37.034 145.145,36.867 145.041 C 36.699 144.938,36.391 145.084,36.181 145.367 M366.244 150.200 C 366.573 151.671,366.802 151.990,366.794 150.967 C 366.791 150.545,366.605 149.930,366.382 149.600 C 366.085 149.162,366.048 149.324,366.244 150.200 M366.893 153.200 C 366.893 153.970,366.975 154.285,367.076 153.900 C 367.176 153.515,367.176 152.885,367.076 152.500 C 366.975 152.115,366.893 152.430,366.893 153.200 M367.314 157.400 C 367.317 158.500,367.395 158.903,367.487 158.295 C 367.579 157.686,367.577 156.786,367.482 156.295 C 367.387 155.803,367.311 156.300,367.314 157.400 M32.493 158.400 C 32.493 159.170,32.575 159.485,32.676 159.100 C 32.776 158.715,32.776 158.085,32.676 157.700 C 32.575 157.315,32.493 157.630,32.493 158.400 M31.476 161.044 C 30.123 162.857,29.176 166.511,28.794 171.400 C 28.405 176.373,28.249 194.284,28.598 193.935 C 28.763 193.770,29.109 179.391,29.147 171.100 C 29.153 169.835,29.316 168.800,29.510 168.800 C 29.703 168.800,29.778 168.234,29.677 167.543 C 29.564 166.774,29.646 166.381,29.888 166.531 C 30.128 166.679,30.205 166.362,30.084 165.728 C 29.947 165.012,30.027 164.770,30.337 164.961 C 30.631 165.142,30.705 165.019,30.549 164.611 C 30.412 164.255,30.773 163.275,31.377 162.362 C 32.554 160.585,32.636 159.490,31.476 161.044 M368.841 162.600 C 370.002 164.656,370.165 164.824,369.808 163.600 C 369.648 163.050,369.161 162.240,368.727 161.800 C 368.030 161.094,368.043 161.188,368.841 162.600 M370.244 165.800 C 370.573 167.271,370.802 167.590,370.794 166.567 C 370.791 166.145,370.605 165.530,370.382 165.200 C 370.085 164.762,370.048 164.924,370.244 165.800 M370.893 169.200 C 370.893 169.970,370.975 170.285,371.076 169.900 C 371.176 169.515,371.176 168.885,371.076 168.500 C 370.975 168.115,370.893 168.430,370.893 169.200 M371.337 174.600 C 371.339 176.360,371.409 177.030,371.493 176.089 C 371.578 175.149,371.577 173.709,371.491 172.889 C 371.405 172.070,371.336 172.840,371.337 174.600 M371.784 199.800 C 371.784 209.480,371.836 213.383,371.900 208.473 C 371.963 203.563,371.963 195.643,371.900 190.873 C 371.836 186.103,371.784 190.120,371.784 199.800 M28.541 216.000 C 28.537 222.082,28.623 224.283,28.767 221.800 C 28.895 219.600,28.898 215.190,28.774 212.000 C 28.586 207.170,28.547 207.839,28.541 216.000 M371.331 225.400 C 371.333 226.940,371.405 227.521,371.492 226.691 C 371.579 225.861,371.577 224.601,371.489 223.891 C 371.400 223.181,371.329 223.860,371.331 225.400 M28.998 229.600 C 29.094 232.041,29.438 234.229,29.958 235.717 C 30.802 238.130,32.400 240.607,32.400 239.503 C 32.400 239.170,32.137 238.680,31.815 238.413 C 30.755 237.533,29.550 233.482,29.196 229.610 L 28.847 225.800 28.998 229.600 M370.893 230.800 C 370.893 231.570,370.975 231.885,371.076 231.500 C 371.176 231.115,371.176 230.485,371.076 230.100 C 370.975 229.715,370.893 230.030,370.893 230.800 M369.057 237.300 L 368.342 238.600 369.171 237.656 C 369.887 236.840,370.250 236.000,369.886 236.000 C 369.824 236.000,369.451 236.585,369.057 237.300 M32.493 241.600 C 32.493 242.370,32.575 242.685,32.676 242.300 C 32.776 241.915,32.776 241.285,32.676 240.900 C 32.575 240.515,32.493 240.830,32.493 241.600 M367.309 242.400 C 367.309 243.390,367.387 243.795,367.482 243.300 C 367.578 242.805,367.578 241.995,367.482 241.500 C 367.387 241.005,367.309 241.410,367.309 242.400 M32.847 245.433 C 32.873 246.515,33.028 247.940,33.192 248.600 C 33.375 249.342,33.437 248.670,33.353 246.842 C 33.201 243.542,32.773 242.350,32.847 245.433 M33.630 250.320 C 33.590 251.017,34.705 253.131,35.643 254.138 C 36.059 254.585,36.400 255.108,36.400 255.299 C 36.400 255.491,36.575 255.539,36.788 255.407 C 37.002 255.275,36.687 254.623,36.088 253.959 C 35.490 253.295,34.698 252.087,34.330 251.275 C 33.961 250.464,33.646 250.034,33.630 250.320 M365.769 251.300 C 365.613 251.795,365.061 252.757,364.542 253.438 C 364.024 254.119,363.600 254.821,363.600 254.998 C 363.600 255.516,365.873 252.230,366.177 251.272 C 366.329 250.793,366.364 250.400,366.254 250.400 C 366.144 250.400,365.926 250.805,365.769 251.300 M37.430 260.115 C 37.724 262.632,38.482 264.372,39.819 265.600 L 40.909 266.600 40.369 265.600 C 40.073 265.050,39.873 264.452,39.925 264.270 C 39.977 264.089,39.844 264.049,39.630 264.181 C 39.107 264.505,38.511 263.313,37.797 260.516 L 37.206 258.200 37.430 260.115 M361.868 262.472 C 361.721 263.059,361.112 264.137,360.514 264.869 C 359.613 265.973,359.586 266.064,360.355 265.401 C 361.459 264.449,362.511 262.534,362.292 261.876 C 362.206 261.618,362.015 261.886,361.868 262.472 M41.280 268.600 C 41.280 269.040,41.424 269.850,41.600 270.400 C 41.854 271.192,41.920 271.233,41.920 270.600 C 41.920 270.160,41.776 269.350,41.600 268.800 C 41.346 268.008,41.280 267.967,41.280 268.600 M42.000 271.932 C 42.000 272.148,42.650 273.106,43.443 274.062 C 45.136 276.100,45.454 276.418,44.982 275.600 C 44.240 274.315,42.000 271.560,42.000 271.932 M45.632 278.713 C 45.585 279.464,46.646 281.857,47.168 282.180 C 47.415 282.333,47.272 281.770,46.850 280.929 C 46.428 280.088,45.988 279.130,45.873 278.800 C 45.738 278.416,45.652 278.384,45.632 278.713 M48.471 283.949 C 48.982 284.579,49.457 285.046,49.528 284.986 C 49.767 284.783,48.619 283.216,48.079 283.009 C 47.783 282.895,47.959 283.318,48.471 283.949 M50.017 286.800 C 49.999 287.575,51.526 290.101,52.276 290.535 C 52.594 290.719,53.221 291.439,53.670 292.135 C 54.118 292.831,54.355 293.040,54.195 292.600 C 54.035 292.160,53.896 291.575,53.886 291.300 C 53.875 291.025,53.787 290.879,53.690 290.976 C 53.353 291.313,51.622 289.391,50.829 287.800 C 50.391 286.920,50.025 286.470,50.017 286.800 M349.200 288.286 C 349.200 288.516,348.615 289.289,347.900 290.003 C 347.030 290.871,346.879 291.157,347.443 290.866 C 348.401 290.374,349.783 288.450,349.432 288.099 C 349.304 287.971,349.200 288.055,349.200 288.286 M344.237 296.200 C 343.876 296.750,343.737 297.200,343.927 297.200 C 344.116 297.200,344.477 296.750,344.727 296.200 C 344.978 295.650,345.117 295.200,345.037 295.200 C 344.957 295.200,344.597 295.650,344.237 296.200 M55.213 295.833 C 55.230 296.298,56.370 297.623,57.405 298.383 C 57.842 298.703,57.570 298.255,56.800 297.387 C 56.030 296.519,55.355 295.732,55.300 295.638 C 55.245 295.544,55.206 295.632,55.213 295.833 M59.087 301.100 C 59.699 302.254,60.344 303.199,60.519 303.200 C 60.695 303.200,61.280 303.676,61.819 304.258 C 63.613 306.194,62.831 304.844,60.900 302.671 C 59.855 301.495,58.769 300.188,58.487 299.766 C 58.204 299.345,58.474 299.945,59.087 301.100 M341.200 300.319 C 341.200 300.568,340.639 301.411,339.954 302.191 C 339.269 302.972,338.954 303.515,339.254 303.399 C 339.988 303.115,341.782 300.449,341.458 300.124 C 341.316 299.983,341.200 300.070,341.200 300.319 M336.884 305.899 C 335.688 307.732,335.934 307.965,337.167 306.167 C 337.688 305.405,338.044 304.718,337.958 304.639 C 337.871 304.561,337.388 305.128,336.884 305.899 M63.203 306.400 C 63.491 306.950,64.062 307.638,64.472 307.929 C 64.882 308.219,65.928 309.419,66.796 310.594 C 67.664 311.769,68.852 313.242,69.435 313.866 C 70.019 314.489,70.969 315.629,71.548 316.398 C 73.617 319.146,77.538 323.223,81.170 326.400 C 82.553 327.610,84.676 329.500,85.888 330.600 C 88.138 332.643,89.488 333.573,90.200 333.570 C 90.420 333.569,90.100 333.297,89.488 332.965 C 88.855 332.622,88.494 332.171,88.650 331.919 C 88.811 331.658,88.742 331.589,88.481 331.750 C 87.913 332.101,76.983 322.131,73.800 318.359 C 72.480 316.794,70.576 314.589,69.568 313.457 C 68.560 312.326,67.480 311.023,67.168 310.563 C 66.103 308.993,62.677 305.397,63.203 306.400 M330.801 313.398 C 330.286 313.948,329.939 314.464,330.032 314.546 C 330.124 314.628,330.619 314.178,331.130 313.547 C 332.276 312.135,332.074 312.044,330.801 313.398 M325.600 319.400 C 324.628 320.390,323.923 321.200,324.033 321.200 C 324.143 321.200,325.028 320.390,326.000 319.400 C 326.972 318.410,327.677 317.600,327.567 317.600 C 327.457 317.600,326.572 318.410,325.600 319.400 M322.000 323.260 C 321.230 323.935,320.962 324.305,321.404 324.081 C 322.135 323.711,323.947 321.978,323.562 322.016 C 323.473 322.025,322.770 322.585,322.000 323.260 M318.581 326.500 L 317.000 328.200 318.700 326.619 C 319.635 325.749,320.400 324.984,320.400 324.919 C 320.400 324.616,320.052 324.919,318.581 326.500 M312.661 331.416 C 310.130 333.746,310.574 333.732,313.200 331.400 C 314.315 330.410,315.086 329.607,314.913 329.616 C 314.741 329.625,313.728 330.435,312.661 331.416 M92.007 335.116 C 92.486 335.840,93.355 336.733,93.939 337.101 C 94.522 337.469,95.960 338.632,97.132 339.685 C 98.305 340.738,99.475 341.591,99.732 341.579 C 99.990 341.567,99.757 341.252,99.215 340.879 C 98.673 340.506,97.953 339.869,97.615 339.464 C 97.277 339.060,96.190 338.174,95.200 337.496 C 94.210 336.819,92.891 335.710,92.268 335.032 L 91.137 333.800 92.007 335.116 M307.000 336.250 C 306.281 336.862,306.134 337.105,306.633 336.857 C 307.366 336.493,308.741 335.176,308.349 335.214 C 308.267 335.222,307.660 335.688,307.000 336.250 M302.577 339.510 C 301.685 340.330,300.605 341.232,300.177 341.515 C 299.750 341.798,300.149 341.639,301.064 341.161 C 301.980 340.683,303.110 339.777,303.576 339.146 C 304.675 337.660,304.537 337.710,302.577 339.510 M101.623 342.902 C 103.070 344.329,105.392 345.685,107.200 346.160 C 107.750 346.305,107.099 345.900,105.754 345.261 C 104.409 344.621,103.188 343.905,103.042 343.668 C 102.896 343.431,102.196 342.846,101.488 342.368 L 100.200 341.499 101.623 342.902 M109.210 347.460 C 110.159 348.669,113.450 350.684,113.839 350.295 C 113.941 350.192,113.436 349.864,112.716 349.565 C 111.995 349.267,110.689 348.387,109.813 347.611 L 108.220 346.200 109.210 347.460 M287.000 349.814 C 285.995 350.298,285.963 350.353,286.800 350.151 C 287.350 350.019,287.971 349.750,288.180 349.555 C 288.698 349.071,288.414 349.133,287.000 349.814 M116.468 351.745 C 117.834 353.060,120.027 354.399,120.800 354.390 C 121.130 354.386,120.680 354.055,119.800 353.655 C 118.920 353.254,117.945 352.618,117.633 352.242 C 117.321 351.865,116.691 351.367,116.233 351.137 C 115.581 350.808,115.632 350.941,116.468 351.745 M125.803 356.343 C 126.740 357.451,129.262 358.815,130.284 358.766 C 130.755 358.743,130.650 358.625,129.977 358.421 C 128.522 357.979,127.156 357.233,126.003 356.250 L 125.006 355.400 125.803 356.343 M270.600 358.246 C 269.011 358.805,269.009 358.807,270.387 358.597 C 271.151 358.480,271.952 358.208,272.168 357.993 C 272.631 357.529,272.648 357.526,270.600 358.246 M134.886 360.341 C 136.506 361.748,137.723 362.405,138.674 362.384 C 139.104 362.375,138.836 362.124,138.018 361.769 C 137.257 361.439,136.054 360.726,135.344 360.185 C 133.578 358.838,133.274 358.941,134.886 360.341 M146.332 364.496 C 147.017 365.350,150.022 366.808,151.026 366.773 C 151.452 366.759,151.051 366.512,150.136 366.226 C 149.221 365.940,147.871 365.284,147.136 364.768 C 146.341 364.211,146.016 364.101,146.332 364.496 M152.500 367.076 C 152.885 367.176,153.515 367.176,153.900 367.076 C 154.285 366.975,153.970 366.893,153.200 366.893 C 152.430 366.893,152.115 366.975,152.500 367.076 M156.505 367.487 C 157.114 367.579,158.014 367.577,158.505 367.482 C 158.997 367.387,158.500 367.311,157.400 367.314 C 156.300 367.317,155.897 367.395,156.505 367.487 M241.905 367.483 C 242.402 367.579,243.122 367.575,243.505 367.475 C 243.887 367.375,243.480 367.296,242.600 367.301 C 241.720 367.305,241.407 367.387,241.905 367.483 M161.800 368.800 C 162.196 369.440,165.472 370.806,166.533 370.773 C 167.081 370.756,166.811 370.560,165.800 370.240 C 164.920 369.962,163.595 369.419,162.856 369.034 C 162.117 368.649,161.642 368.544,161.800 368.800 M237.000 369.227 C 236.340 369.650,236.005 369.997,236.256 369.998 C 236.506 369.999,237.136 369.646,237.656 369.213 C 238.845 368.223,238.559 368.229,237.000 369.227 M234.000 370.400 C 233.176 370.664,233.141 370.726,233.800 370.754 C 234.240 370.773,234.870 370.613,235.200 370.400 C 235.901 369.947,235.414 369.947,234.000 370.400 M168.500 371.076 C 168.885 371.176,169.515 371.176,169.900 371.076 C 170.285 370.975,169.970 370.893,169.200 370.893 C 168.430 370.893,168.115 370.975,168.500 371.076 M230.100 371.076 C 230.485 371.176,231.115 371.176,231.500 371.076 C 231.885 370.975,231.570 370.893,230.800 370.893 C 230.030 370.893,229.715 370.975,230.100 371.076 M173.111 371.493 C 174.051 371.578,175.491 371.577,176.311 371.491 C 177.130 371.405,176.360 371.336,174.600 371.337 C 172.840 371.339,172.170 371.409,173.111 371.493 M223.891 371.489 C 224.601 371.577,225.861 371.579,226.691 371.492 C 227.521 371.405,226.940 371.333,225.400 371.331 C 223.860 371.329,223.181 371.400,223.891 371.489 M191.300 371.900 C 196.085 371.963,203.915 371.963,208.700 371.900 C 213.485 371.836,209.570 371.784,200.000 371.784 C 190.430 371.784,186.515 371.836,191.300 371.900 " stroke="none" fill="#f5f9f9" fill-rule="evenodd"></path><path id="path1" d="M187.400 28.400 L 194.200 28.629 188.800 28.796 C 182.254 28.997,182.363 28.997,175.400 28.728 C 172.320 28.609,170.880 28.637,172.200 28.789 C 174.840 29.093,174.182 29.304,170.900 29.205 C 169.745 29.170,168.800 29.304,168.800 29.502 C 168.800 29.700,168.234 29.778,167.543 29.677 C 166.774 29.564,166.381 29.646,166.531 29.888 C 166.679 30.128,166.362 30.205,165.728 30.084 C 164.940 29.934,164.761 30.013,165.002 30.404 C 165.215 30.748,165.166 30.826,164.858 30.636 C 164.297 30.289,160.743 31.985,161.036 32.459 C 161.149 32.641,160.963 32.684,160.623 32.554 C 160.283 32.423,160.103 32.157,160.223 31.963 C 160.343 31.768,160.163 31.716,159.823 31.846 C 159.483 31.977,159.310 32.254,159.438 32.462 C 159.580 32.692,158.522 32.772,156.736 32.666 C 154.771 32.550,154.329 32.589,155.400 32.786 C 157.247 33.125,156.575 33.348,154.100 33.218 C 153.114 33.166,152.400 33.306,152.400 33.551 C 152.400 33.784,152.123 33.869,151.785 33.739 C 150.930 33.411,147.528 34.760,147.859 35.296 C 148.016 35.550,147.935 35.607,147.658 35.436 C 147.402 35.278,146.720 35.520,146.142 35.974 C 145.565 36.428,144.846 36.800,144.546 36.800 C 144.246 36.800,144.000 36.971,144.000 37.179 C 144.000 37.411,143.540 37.398,142.818 37.146 C 142.168 36.920,141.313 36.818,140.918 36.921 C 140.464 37.039,140.613 37.124,141.324 37.154 C 141.942 37.179,142.351 37.356,142.233 37.546 C 142.115 37.737,141.565 37.806,141.010 37.700 C 140.454 37.594,140.000 37.691,140.000 37.916 C 140.000 38.141,139.640 38.231,139.200 38.116 C 138.760 38.001,138.400 38.102,138.400 38.341 C 138.400 38.581,138.103 38.661,137.734 38.519 C 137.251 38.334,137.158 38.409,137.396 38.794 C 137.609 39.137,137.569 39.228,137.283 39.051 C 137.040 38.901,135.832 39.458,134.599 40.289 C 133.169 41.252,132.002 41.753,131.378 41.671 C 130.840 41.600,130.400 41.730,130.400 41.959 C 130.400 42.188,130.146 42.278,129.836 42.159 C 129.186 41.909,127.374 42.779,125.078 44.442 C 124.199 45.079,123.147 45.600,122.740 45.600 C 122.333 45.600,122.000 45.763,122.000 45.963 C 122.000 46.162,121.612 46.224,121.137 46.100 C 120.495 45.932,120.358 46.008,120.599 46.399 C 120.804 46.731,120.767 46.827,120.498 46.661 C 119.894 46.287,118.753 46.800,119.064 47.304 C 119.218 47.553,119.131 47.604,118.850 47.431 C 118.578 47.263,117.817 47.629,117.061 48.293 C 116.337 48.928,114.724 49.863,113.477 50.369 C 112.164 50.902,111.317 51.465,111.466 51.707 C 111.608 51.936,111.542 52.011,111.320 51.874 C 111.098 51.737,110.499 52.069,109.988 52.612 C 109.478 53.156,108.881 53.600,108.661 53.600 C 108.088 53.600,109.980 51.630,111.400 50.748 C 112.060 50.338,112.371 50.002,112.091 50.001 C 111.543 50.000,108.003 53.106,108.060 53.539 C 108.197 54.580,107.953 54.742,106.833 54.352 C 104.761 53.629,99.422 57.354,100.497 58.771 C 100.759 59.117,100.822 59.272,100.636 59.116 C 100.169 58.723,97.984 59.909,98.103 60.491 C 98.156 60.751,97.975 60.994,97.700 61.032 C 97.425 61.069,97.110 61.145,97.000 61.200 C 96.890 61.255,96.665 61.329,96.500 61.365 C 95.863 61.504,93.822 62.769,94.211 62.784 C 94.437 62.793,95.010 62.528,95.485 62.196 C 96.047 61.802,96.437 61.736,96.603 62.006 C 96.744 62.233,96.711 62.384,96.530 62.340 C 95.888 62.185,94.029 63.323,94.274 63.720 C 94.411 63.942,94.345 64.013,94.126 63.878 C 93.643 63.579,90.376 66.630,90.742 67.039 C 90.884 67.198,90.773 67.198,90.496 67.038 C 90.214 66.876,89.530 67.111,88.942 67.574 C 88.365 68.028,88.028 68.400,88.195 68.400 C 88.362 68.400,88.270 68.674,87.992 69.010 C 87.714 69.345,87.399 69.533,87.294 69.427 C 86.943 69.077,84.403 71.281,84.666 71.706 C 84.808 71.936,84.736 72.008,84.507 71.866 C 84.094 71.611,82.908 72.703,83.100 73.161 C 83.155 73.293,83.035 73.400,82.834 73.400 C 82.086 73.400,79.987 75.255,80.251 75.682 C 80.412 75.943,80.341 76.011,80.076 75.847 C 79.443 75.456,75.429 79.400,75.819 80.030 C 75.994 80.314,75.959 80.422,75.734 80.283 C 75.329 80.032,72.600 82.929,72.600 83.610 C 72.600 83.825,72.420 84.000,72.200 84.000 C 70.811 84.000,74.653 79.512,80.487 74.319 C 83.765 71.401,87.890 67.404,87.000 68.008 C 86.560 68.307,85.480 69.214,84.600 70.024 C 83.720 70.834,82.026 72.375,80.835 73.448 C 77.968 76.033,76.243 77.756,73.656 80.624 C 72.476 81.931,70.940 83.630,70.242 84.400 C 68.472 86.353,67.544 87.715,69.000 86.224 C 71.548 83.614,72.549 83.291,70.359 85.786 C 69.676 86.564,69.254 87.200,69.421 87.200 C 69.587 87.200,69.399 87.559,69.001 87.999 C 68.476 88.579,68.141 88.683,67.773 88.378 C 67.394 88.063,66.970 88.389,66.080 89.679 C 65.427 90.626,64.494 91.760,64.006 92.199 C 63.517 92.639,62.858 93.539,62.540 94.199 C 62.024 95.270,62.026 95.319,62.559 94.653 C 63.136 93.932,63.155 93.935,63.094 94.753 C 63.058 95.219,62.888 95.623,62.715 95.650 C 62.542 95.678,62.175 95.723,61.900 95.750 C 61.625 95.778,61.400 96.177,61.400 96.639 C 61.400 97.630,60.461 98.885,59.955 98.572 C 59.633 98.373,59.432 98.937,59.553 99.700 C 59.579 99.865,59.409 100.000,59.176 100.000 C 58.943 100.000,58.867 100.225,59.006 100.500 C 59.145 100.775,58.952 100.640,58.576 100.200 C 58.047 99.582,57.945 99.553,58.123 100.074 C 58.263 100.481,57.891 101.330,57.183 102.221 C 56.539 103.032,56.127 103.882,56.268 104.109 C 56.408 104.337,56.342 104.411,56.120 104.274 C 55.604 103.956,54.698 105.906,55.072 106.530 C 55.251 106.829,55.121 106.811,54.715 106.483 C 54.149 106.025,54.092 106.130,54.211 107.409 C 54.330 108.696,54.275 108.795,53.697 108.326 C 53.145 107.877,53.086 107.896,53.296 108.457 C 53.449 108.867,53.180 109.455,52.583 110.016 C 52.056 110.511,51.737 111.098,51.874 111.320 C 52.019 111.554,51.923 111.600,51.646 111.428 C 51.372 111.259,51.273 110.761,51.415 110.266 C 51.573 109.710,51.364 109.869,50.831 110.710 C 49.849 112.257,49.733 112.880,50.633 111.776 C 51.256 111.011,51.261 111.011,50.975 111.800 C 50.815 112.240,50.672 112.927,50.656 113.327 C 50.630 114.017,50.603 114.019,50.114 113.350 C 49.706 112.792,49.600 112.770,49.600 113.244 C 49.600 113.572,49.799 114.039,50.043 114.283 C 50.366 114.606,50.321 114.708,49.876 114.663 C 49.308 114.604,45.600 118.904,45.600 119.622 C 45.600 119.801,45.776 120.410,45.990 120.974 C 46.214 121.562,46.226 122.000,46.019 122.000 C 45.821 122.000,45.583 121.775,45.491 121.500 C 45.399 121.225,45.405 121.518,45.505 122.150 C 45.626 122.924,45.541 123.211,45.243 123.026 C 44.678 122.677,44.681 123.024,45.254 124.126 C 45.504 124.607,45.566 124.867,45.393 124.705 C 44.976 124.316,43.154 126.802,43.475 127.322 C 43.612 127.543,43.535 127.607,43.304 127.464 C 42.807 127.157,42.296 128.269,42.628 128.936 C 42.755 129.191,42.576 129.051,42.230 128.624 C 41.504 127.728,41.440 127.927,41.990 129.374 C 42.214 129.962,42.226 130.400,42.019 130.400 C 41.821 130.400,41.572 130.085,41.466 129.700 C 41.360 129.315,41.350 129.810,41.443 130.800 C 41.577 132.220,41.526 132.431,41.199 131.800 C 40.857 131.139,40.820 131.229,40.986 132.320 C 41.125 133.229,41.049 133.554,40.742 133.364 C 40.473 133.198,40.373 133.309,40.489 133.644 C 40.594 133.950,40.248 134.720,39.719 135.356 C 39.190 135.992,38.855 136.766,38.974 137.077 C 39.111 137.434,39.020 137.536,38.727 137.355 C 38.422 137.166,38.348 137.286,38.510 137.709 C 38.645 138.060,38.550 138.417,38.300 138.500 C 38.049 138.584,37.834 139.405,37.822 140.325 C 37.797 142.247,37.721 142.339,37.186 141.100 C 36.891 140.419,36.856 140.625,37.042 141.949 C 37.217 143.202,37.133 143.794,36.747 144.033 C 36.342 144.283,36.321 144.481,36.663 144.823 C 37.006 145.166,36.926 145.474,36.345 146.055 C 35.919 146.481,35.695 147.030,35.847 147.276 C 36.011 147.541,35.943 147.612,35.682 147.451 C 35.135 147.113,34.259 148.648,34.643 149.270 C 34.827 149.568,34.743 149.612,34.399 149.399 C 34.008 149.158,33.932 149.295,34.100 149.938 C 34.243 150.485,34.172 150.706,33.905 150.541 C 33.634 150.374,33.556 150.659,33.687 151.341 C 33.798 151.923,33.720 152.400,33.514 152.400 C 33.308 152.400,33.170 153.075,33.208 153.900 C 33.322 156.373,33.107 157.105,32.768 155.400 C 32.526 154.188,32.493 154.446,32.632 156.467 C 32.806 158.991,32.751 159.204,31.612 160.452 C 30.490 161.680,28.887 165.421,29.304 165.837 C 29.406 165.939,29.716 165.213,29.994 164.223 C 30.271 163.233,30.926 161.843,31.449 161.134 C 32.739 159.385,32.661 160.423,31.353 162.399 C 30.765 163.287,30.413 164.256,30.549 164.611 C 30.705 165.019,30.631 165.142,30.337 164.961 C 30.027 164.770,29.947 165.012,30.084 165.728 C 30.205 166.362,30.128 166.679,29.888 166.531 C 29.646 166.381,29.564 166.774,29.677 167.543 C 29.778 168.234,29.700 168.800,29.502 168.800 C 29.304 168.800,29.170 169.745,29.205 170.900 C 29.303 174.172,29.090 174.847,28.793 172.200 C 28.646 170.880,28.625 172.320,28.748 175.400 C 29.014 182.059,29.013 181.940,28.799 188.800 L 28.629 194.200 28.400 187.400 C 28.271 183.588,28.171 189.212,28.171 200.200 C 28.171 211.188,28.271 216.812,28.400 213.000 L 28.629 206.200 28.792 211.600 C 28.983 217.979,28.986 217.453,28.718 224.800 C 28.601 227.990,28.617 229.520,28.753 228.200 L 29.001 225.800 29.265 229.600 C 29.535 233.477,30.694 237.482,31.815 238.413 C 32.137 238.680,32.400 239.170,32.400 239.503 C 32.400 241.410,29.976 236.511,29.182 233.000 C 28.822 231.410,28.821 231.412,29.007 233.336 C 29.237 235.710,30.404 238.440,31.775 239.811 C 32.730 240.766,32.789 241.042,32.625 243.719 C 32.494 245.844,32.531 246.180,32.767 245.000 C 33.139 243.139,33.176 243.264,33.354 247.000 C 33.438 248.767,33.378 249.357,33.191 248.600 C 32.923 247.517,32.893 247.497,32.875 248.400 C 32.853 249.558,33.509 251.364,33.602 250.400 C 33.633 250.070,33.961 250.464,34.330 251.275 C 34.698 252.087,35.490 253.295,36.088 253.959 C 36.687 254.623,37.002 255.275,36.788 255.407 C 36.575 255.539,36.400 255.491,36.400 255.299 C 36.400 255.108,36.062 254.588,35.649 254.145 C 35.236 253.702,34.613 252.813,34.265 252.170 C 33.917 251.526,33.625 251.231,33.616 251.514 C 33.600 252.013,34.574 253.733,35.395 254.655 C 37.064 256.532,37.202 256.860,37.010 258.509 C 36.872 259.694,36.908 259.901,37.132 259.200 C 37.421 258.293,37.478 258.362,37.737 259.939 C 38.160 262.520,39.083 264.515,39.692 264.165 C 39.971 264.004,40.071 264.014,39.914 264.188 C 39.757 264.363,39.878 264.862,40.184 265.298 C 40.490 265.735,40.633 266.371,40.502 266.712 C 40.366 267.067,40.433 267.227,40.660 267.087 C 40.898 266.939,41.003 267.351,40.925 268.121 C 40.823 269.112,40.871 269.222,41.135 268.607 C 41.424 267.934,41.520 268.048,41.764 269.348 C 41.922 270.191,41.950 270.983,41.826 271.108 C 41.702 271.232,41.586 270.898,41.568 270.367 C 41.551 269.835,41.442 269.638,41.325 269.929 C 41.003 270.736,42.251 273.631,43.597 275.200 C 44.258 275.970,44.801 276.870,44.805 277.200 C 44.811 277.733,44.859 277.733,45.230 277.200 C 45.543 276.751,45.586 276.917,45.402 277.859 C 45.088 279.456,45.939 281.529,48.013 284.217 C 48.886 285.348,49.603 286.527,49.606 286.837 C 49.611 287.302,49.672 287.306,49.954 286.861 C 50.204 286.466,50.409 286.651,50.725 287.557 C 50.962 288.236,51.626 289.263,52.202 289.838 C 52.778 290.414,53.192 290.941,53.124 291.010 C 52.853 291.281,51.658 290.114,50.852 288.793 C 50.385 288.027,50.003 287.580,50.003 287.800 C 50.003 288.517,51.538 290.739,52.324 291.159 C 52.745 291.385,53.316 292.114,53.592 292.780 C 53.867 293.445,54.235 293.902,54.409 293.794 C 54.583 293.687,54.637 293.938,54.528 294.353 C 54.162 295.753,56.971 299.664,58.083 299.303 C 58.248 299.250,58.640 299.700,58.956 300.303 C 59.271 300.906,60.100 301.940,60.799 302.600 C 62.154 303.881,63.260 305.531,62.410 305.006 C 61.665 304.546,63.420 307.715,64.401 308.600 C 64.889 309.040,66.447 310.885,67.865 312.700 C 69.283 314.515,70.645 316.000,70.891 316.000 C 71.283 316.000,70.239 314.578,68.981 313.400 C 68.747 313.180,67.804 311.978,66.886 310.729 C 65.968 309.479,64.882 308.219,64.472 307.929 C 64.062 307.638,63.491 306.950,63.203 306.400 C 62.677 305.397,66.103 308.993,67.168 310.563 C 67.480 311.023,68.560 312.326,69.568 313.457 C 70.576 314.589,72.480 316.794,73.800 318.359 C 76.983 322.131,87.913 332.101,88.481 331.750 C 88.742 331.589,88.811 331.658,88.650 331.919 C 88.494 332.171,88.855 332.622,89.488 332.965 C 90.100 333.297,90.420 333.569,90.200 333.570 C 89.488 333.573,88.138 332.643,85.888 330.600 C 84.676 329.500,82.553 327.610,81.170 326.400 C 77.626 323.300,73.271 318.801,71.888 316.811 C 71.509 316.267,71.200 316.055,71.200 316.340 C 71.200 316.624,71.425 317.101,71.700 317.398 C 71.975 317.696,73.100 318.969,74.200 320.228 C 76.215 322.535,76.647 322.958,80.704 326.600 C 81.930 327.700,83.848 329.467,84.966 330.526 C 86.085 331.585,87.850 332.891,88.889 333.427 C 89.928 333.963,91.188 334.960,91.689 335.641 C 92.190 336.322,93.260 337.218,94.066 337.631 C 94.873 338.044,95.923 338.930,96.400 339.600 C 96.877 340.270,97.927 341.157,98.734 341.570 C 99.540 341.984,100.650 342.813,101.200 343.414 C 102.223 344.531,105.722 346.392,106.800 346.392 C 107.130 346.392,106.449 345.949,105.286 345.408 C 104.123 344.867,102.503 343.759,101.686 342.947 C 100.155 341.425,100.842 341.773,103.058 343.641 C 103.750 344.224,105.141 345.017,106.150 345.402 C 107.159 345.787,107.905 346.230,107.808 346.386 C 107.396 347.053,111.635 350.408,112.874 350.394 C 113.163 350.391,112.680 350.012,111.800 349.552 C 110.920 349.092,109.755 348.149,109.210 347.457 L 108.220 346.200 109.813 347.611 C 110.689 348.387,111.987 349.263,112.698 349.558 C 113.408 349.852,113.891 350.253,113.770 350.449 C 113.648 350.645,113.876 350.926,114.275 351.073 C 114.674 351.221,115.770 351.965,116.710 352.727 C 117.757 353.576,119.431 354.393,121.026 354.836 C 122.460 355.233,124.300 356.082,125.116 356.721 C 126.889 358.111,128.157 358.806,128.874 358.782 C 129.163 358.773,128.770 358.431,128.000 358.024 C 127.229 357.616,126.241 356.859,125.802 356.342 L 125.006 355.400 126.003 356.253 C 127.266 357.334,129.346 358.392,130.280 358.428 C 130.923 358.453,130.914 358.496,130.200 358.831 C 129.629 359.099,129.972 359.150,131.400 359.011 C 132.897 358.865,133.199 358.916,132.600 359.213 C 131.921 359.551,131.978 359.586,132.979 359.446 C 133.790 359.332,134.547 359.576,135.397 360.225 C 136.078 360.744,137.257 361.439,138.018 361.769 C 139.020 362.204,139.180 362.380,138.600 362.410 C 137.912 362.445,137.940 362.507,138.800 362.853 C 139.350 363.074,140.610 363.156,141.600 363.035 C 142.855 362.882,143.158 362.926,142.600 363.180 C 141.860 363.516,141.875 363.546,142.800 363.573 C 143.350 363.589,144.821 364.295,146.068 365.143 C 148.841 367.026,151.943 367.719,156.288 367.425 C 158.330 367.287,159.056 367.336,158.400 367.567 L 157.400 367.920 158.446 367.960 C 159.021 367.982,159.921 368.335,160.446 368.743 C 161.858 369.844,163.862 370.804,164.680 370.772 C 165.076 370.756,164.656 370.412,163.746 370.008 C 162.836 369.603,161.961 369.061,161.802 368.803 C 161.642 368.545,162.117 368.649,162.856 369.034 C 163.595 369.419,164.920 369.962,165.800 370.240 C 167.118 370.657,167.224 370.758,166.400 370.814 C 163.302 371.024,168.805 371.558,172.800 371.435 C 175.499 371.352,176.408 371.398,175.000 371.547 C 173.680 371.686,185.020 371.800,200.200 371.800 C 215.380 371.800,226.630 371.698,225.200 371.574 C 223.603 371.435,224.837 371.355,228.400 371.366 C 232.819 371.380,234.608 371.229,235.914 370.734 C 238.262 369.843,240.471 368.291,239.897 367.936 C 239.646 367.781,240.242 367.730,241.221 367.821 C 242.513 367.941,242.726 367.898,242.000 367.662 C 241.364 367.455,242.529 367.347,245.200 367.364 C 249.302 367.391,253.600 366.490,253.600 365.604 C 253.600 365.122,256.882 363.607,258.026 363.560 L 259.000 363.520 258.000 363.170 C 257.274 362.915,257.514 362.877,258.878 363.031 C 261.968 363.379,267.438 360.983,266.626 359.637 C 266.548 359.506,267.268 359.364,268.226 359.320 C 271.065 359.189,272.885 358.514,274.901 356.844 C 276.142 355.817,277.392 355.172,278.501 354.988 C 280.594 354.640,282.231 353.846,283.800 352.418 C 284.460 351.818,285.540 351.123,286.200 350.874 C 286.860 350.625,287.934 350.226,288.586 349.988 C 289.548 349.636,289.662 349.478,289.186 349.151 C 288.730 348.837,288.782 348.798,289.423 348.976 C 290.020 349.142,290.477 348.893,291.085 348.070 C 291.631 347.332,292.812 346.617,294.462 346.025 C 296.911 345.147,300.191 342.633,299.772 341.955 C 299.665 341.782,299.988 341.430,300.489 341.173 C 300.990 340.916,302.106 340.052,302.969 339.253 C 304.391 337.936,304.453 337.912,303.638 339.000 C 303.144 339.660,302.078 340.619,301.270 341.130 C 300.145 341.843,300.034 341.997,300.800 341.788 C 301.350 341.638,302.610 340.743,303.600 339.801 C 304.590 338.858,305.969 337.800,306.665 337.451 C 307.360 337.102,308.310 336.333,308.774 335.742 C 309.239 335.151,310.549 334.055,311.685 333.307 C 312.821 332.559,313.942 331.720,314.175 331.443 C 314.409 331.166,315.672 330.053,316.982 328.970 C 319.980 326.490,320.800 325.691,320.800 325.249 C 320.800 325.055,321.340 324.673,322.000 324.400 C 322.660 324.127,323.200 323.750,323.200 323.563 C 323.200 323.377,324.381 322.026,325.823 320.561 C 327.340 319.022,328.359 317.669,328.238 317.354 C 328.123 317.055,328.157 316.851,328.314 316.902 C 328.895 317.089,331.353 314.517,333.201 311.788 C 334.248 310.242,335.395 308.737,335.748 308.443 C 336.102 308.149,336.300 307.762,336.189 307.582 C 336.078 307.402,336.440 306.588,336.993 305.772 C 337.547 304.956,338.000 304.469,338.000 304.690 C 338.000 304.911,337.640 305.550,337.200 306.109 C 336.332 307.213,336.212 307.600,336.739 307.600 C 336.926 307.600,337.407 306.872,337.808 305.982 C 338.209 305.092,339.026 304.075,339.623 303.723 C 340.220 303.370,340.986 302.499,341.325 301.787 C 341.665 301.076,342.527 299.827,343.242 299.014 C 344.079 298.060,344.383 297.437,344.098 297.261 C 343.799 297.076,343.915 296.665,344.455 295.994 C 345.137 295.144,345.192 295.127,344.827 295.874 C 344.307 296.937,344.293 297.200,344.755 297.200 C 344.950 297.200,345.522 295.942,346.027 294.404 C 346.616 292.607,347.200 291.527,347.661 291.381 C 348.622 291.076,349.745 289.404,350.494 287.164 C 350.832 286.154,351.778 284.450,352.597 283.377 C 354.410 281.002,354.918 279.750,354.610 278.416 C 354.433 277.647,354.474 277.546,354.782 278.000 C 355.119 278.499,355.189 278.460,355.194 277.772 C 355.197 277.317,355.923 275.976,356.806 274.792 C 358.368 272.699,358.844 271.506,359.437 268.209 C 359.607 267.264,360.104 266.319,360.662 265.880 C 361.178 265.474,361.600 264.944,361.600 264.701 C 361.600 264.459,361.105 264.697,360.500 265.230 L 359.400 266.200 360.278 265.197 C 360.762 264.646,361.430 263.566,361.763 262.797 C 362.096 262.029,362.387 261.670,362.410 262.000 C 362.432 262.330,362.632 262.150,362.853 261.600 C 363.074 261.050,363.156 259.790,363.035 258.800 C 362.872 257.459,362.916 257.204,363.209 257.800 C 363.528 258.450,363.580 258.323,363.484 257.128 C 363.420 256.318,363.481 255.726,363.620 255.812 C 363.972 256.030,365.268 254.176,366.425 251.800 C 367.291 250.022,367.397 249.289,367.374 245.200 C 367.360 242.654,367.473 241.136,367.627 241.800 L 367.905 243.000 367.953 241.731 C 367.979 241.033,368.421 239.953,368.936 239.331 C 370.182 237.826,371.377 234.396,370.458 234.964 C 370.270 235.081,370.208 234.691,370.321 234.099 C 370.503 233.151,370.560 233.116,370.802 233.805 C 371.304 235.237,371.652 231.839,371.469 227.287 C 371.375 224.929,371.410 224.080,371.549 225.400 C 371.687 226.720,371.800 215.380,371.800 200.200 C 371.800 185.020,371.693 173.770,371.562 175.200 C 371.409 176.870,371.337 175.798,371.362 172.200 C 371.404 165.955,370.796 163.050,369.011 160.974 C 368.455 160.328,367.983 159.260,367.961 158.600 C 367.921 157.429,367.913 157.424,367.615 158.400 C 367.437 158.982,367.328 157.560,367.354 155.000 C 367.396 150.748,366.003 145.600,364.810 145.600 C 364.373 145.600,363.604 143.682,363.560 142.481 L 363.520 141.400 363.166 142.400 C 362.892 143.176,362.856 143.026,363.006 141.730 C 363.316 139.059,362.468 136.223,360.910 134.715 C 360.129 133.960,359.665 133.698,359.818 134.100 C 359.965 134.485,360.226 134.800,360.397 134.800 C 360.888 134.800,361.942 136.604,362.184 137.858 L 362.405 139.000 361.944 137.800 C 361.690 137.140,360.990 136.033,360.389 135.340 C 359.604 134.436,359.340 133.759,359.453 132.940 C 359.579 132.029,359.542 131.959,359.268 132.593 C 359.030 133.142,358.935 132.649,358.957 130.989 C 358.987 128.793,358.837 128.359,357.163 125.796 C 356.159 124.258,355.109 122.190,354.830 121.200 C 354.358 119.525,352.992 116.859,352.371 116.400 C 352.223 116.290,351.719 115.570,351.252 114.800 C 350.785 114.030,350.400 113.580,350.395 113.800 C 350.386 114.315,349.612 113.131,349.612 112.600 C 349.612 112.380,349.787 112.470,350.000 112.800 C 350.639 113.789,350.465 112.563,349.754 111.073 C 349.399 110.328,348.544 109.394,347.854 108.997 C 346.604 108.278,346.604 108.280,348.100 109.804 C 348.925 110.645,349.600 111.469,349.600 111.635 C 349.600 111.801,348.892 111.215,348.027 110.332 C 347.015 109.300,346.539 108.502,346.695 108.098 C 346.843 107.711,346.772 107.570,346.510 107.732 C 346.276 107.877,345.975 107.712,345.842 107.365 C 345.473 106.403,345.564 106.131,346.032 106.800 C 346.354 107.260,346.391 107.167,346.189 106.400 C 345.699 104.537,344.326 101.988,343.604 101.602 C 343.210 101.391,342.330 100.232,341.650 99.027 C 340.970 97.821,340.070 96.651,339.650 96.427 C 339.230 96.202,338.410 95.204,337.826 94.209 C 337.243 93.214,336.585 92.400,336.363 92.400 C 336.141 92.400,336.392 92.985,336.921 93.700 C 337.449 94.415,338.007 95.270,338.160 95.600 C 338.312 95.930,338.114 95.750,337.720 95.200 C 337.325 94.650,336.275 93.390,335.386 92.400 C 334.497 91.410,333.254 89.880,332.623 89.000 C 331.993 88.120,330.929 86.815,330.260 86.100 C 329.591 85.385,329.243 84.800,329.488 84.800 C 329.732 84.800,330.763 85.925,331.779 87.300 C 335.004 91.664,335.672 92.461,335.910 92.223 C 336.037 92.096,335.683 91.499,335.123 90.896 C 334.562 90.293,333.768 89.260,333.357 88.600 C 332.946 87.940,332.428 87.200,332.205 86.956 C 331.804 86.517,330.001 84.393,327.575 81.500 C 326.883 80.675,326.120 80.000,325.880 80.000 C 325.640 80.000,325.983 80.585,326.642 81.300 C 328.640 83.465,329.061 84.327,327.181 82.400 C 326.214 81.410,325.399 80.307,325.369 79.948 C 325.251 78.543,321.959 75.108,321.331 75.735 C 321.221 75.845,321.479 76.121,321.904 76.348 C 322.328 76.576,323.181 77.445,323.799 78.281 C 324.838 79.687,324.770 79.653,322.879 77.833 C 321.755 76.751,320.933 75.708,321.053 75.515 C 321.172 75.322,320.465 74.407,319.481 73.482 C 314.194 68.509,309.597 65.086,310.641 66.900 C 310.808 67.190,310.776 67.260,310.564 67.067 C 310.364 66.883,310.200 66.609,310.200 66.457 C 310.200 65.614,306.746 62.397,305.846 62.403 C 305.601 62.404,305.871 62.719,306.447 63.103 C 307.023 63.486,308.007 64.430,308.635 65.200 C 309.680 66.482,309.602 66.449,307.700 64.800 C 305.152 62.592,301.676 59.723,300.600 58.942 C 300.006 58.511,300.137 58.525,301.108 58.995 C 301.827 59.343,303.062 60.297,303.853 61.114 L 305.291 62.600 303.971 60.849 C 303.245 59.885,302.070 58.854,301.360 58.558 C 300.650 58.261,299.469 57.461,298.735 56.780 C 297.309 55.457,294.766 53.994,293.916 54.009 C 293.632 54.014,294.120 54.351,295.000 54.759 C 295.880 55.167,297.320 56.173,298.200 56.995 C 299.919 58.600,299.551 58.455,297.000 56.521 C 296.120 55.854,294.680 55.023,293.800 54.675 C 292.920 54.326,292.470 54.029,292.800 54.014 C 293.333 53.991,293.333 53.945,292.800 53.600 C 291.962 53.058,291.500 53.106,291.835 53.700 C 291.990 53.975,291.416 53.542,290.559 52.737 C 289.701 51.932,287.830 50.742,286.400 50.092 C 284.970 49.443,283.122 48.364,282.293 47.694 C 281.464 47.024,279.870 46.257,278.751 45.988 C 277.345 45.651,276.883 45.393,277.257 45.156 C 277.606 44.935,277.633 44.810,277.333 44.806 C 277.076 44.803,276.536 44.693,276.133 44.562 C 275.510 44.360,275.490 44.395,276.000 44.793 C 276.476 45.164,276.483 45.229,276.035 45.109 C 275.724 45.025,275.425 44.648,275.369 44.270 C 275.263 43.548,273.679 42.036,273.004 42.013 C 272.786 42.006,273.101 42.457,273.704 43.016 C 274.307 43.575,274.800 44.146,274.800 44.286 C 274.800 44.425,274.395 44.173,273.900 43.724 C 273.405 43.276,272.640 42.710,272.200 42.467 C 271.623 42.147,271.567 42.013,272.000 41.984 C 272.408 41.957,272.344 41.834,271.800 41.600 C 270.673 41.116,269.574 41.149,270.600 41.636 C 271.297 41.968,271.272 41.990,270.400 41.814 C 269.850 41.702,269.040 41.596,268.600 41.577 L 267.800 41.544 268.600 41.200 C 269.362 40.872,269.357 40.855,268.496 40.828 C 267.999 40.813,267.009 40.236,266.296 39.547 C 264.915 38.211,262.883 37.183,261.713 37.227 C 261.321 37.241,261.768 37.493,262.707 37.787 C 263.646 38.080,265.132 38.968,266.008 39.760 C 267.688 41.277,267.614 41.756,265.908 40.413 C 265.357 39.980,264.778 39.755,264.620 39.913 C 264.462 40.071,264.393 39.930,264.467 39.600 C 264.548 39.232,264.331 39.021,263.904 39.055 C 263.522 39.085,263.301 38.960,263.415 38.776 C 263.654 38.389,261.149 37.627,259.400 37.555 L 258.200 37.505 259.400 37.206 C 260.260 36.992,259.849 36.921,257.948 36.954 C 255.558 36.995,255.118 36.872,253.483 35.700 C 252.485 34.985,251.248 34.231,250.734 34.025 C 249.885 33.685,249.873 33.645,250.600 33.585 C 251.727 33.494,249.784 32.877,248.400 32.887 C 247.507 32.894,247.528 32.926,248.600 33.191 C 249.357 33.378,248.767 33.438,247.000 33.354 C 243.265 33.176,243.138 33.139,245.000 32.768 C 246.146 32.540,245.749 32.501,243.600 32.632 C 240.847 32.799,240.405 32.712,238.239 31.587 C 236.940 30.913,235.626 30.458,235.318 30.576 C 235.010 30.694,234.859 30.629,234.981 30.431 C 235.247 30.001,232.210 29.423,231.615 29.791 C 231.387 29.932,231.200 29.844,231.200 29.595 C 231.200 29.307,230.433 29.165,229.100 29.205 C 225.934 29.300,225.504 29.100,228.200 28.786 C 229.520 28.632,227.990 28.604,224.800 28.724 C 217.573 28.997,217.690 28.996,211.400 28.796 L 206.200 28.630 212.800 28.400 C 216.461 28.272,210.762 28.170,200.000 28.170 C 189.038 28.170,183.558 28.270,187.400 28.400 M232.100 29.076 C 232.485 29.176,233.115 29.176,233.500 29.076 C 233.885 28.975,233.570 28.893,232.800 28.893 C 232.030 28.893,231.715 28.975,232.100 29.076 M162.949 29.967 C 162.041 30.379,161.152 30.960,160.973 31.258 C 160.701 31.710,160.755 31.712,161.300 31.270 C 161.660 30.979,162.819 30.402,163.877 29.989 C 164.935 29.576,165.530 29.233,165.200 29.227 C 164.870 29.222,163.857 29.555,162.949 29.967 M236.000 29.952 C 236.990 30.345,238.430 31.056,239.200 31.532 C 241.067 32.686,241.675 32.646,239.956 31.482 C 238.475 30.479,235.474 29.189,234.692 29.219 C 234.421 29.229,235.010 29.559,236.000 29.952 M149.800 33.200 C 148.781 33.638,149.832 33.638,151.200 33.200 C 152.004 32.943,152.043 32.877,151.400 32.868 C 150.960 32.862,150.240 33.011,149.800 33.200 M146.800 34.320 C 145.630 35.113,143.918 36.678,144.800 36.147 C 147.021 34.813,148.400 33.898,148.400 33.760 C 148.400 33.439,147.778 33.657,146.800 34.320 M251.703 33.836 C 252.460 34.593,256.271 36.796,256.787 36.775 C 257.168 36.759,257.071 36.617,256.529 36.398 C 256.050 36.205,254.898 35.497,253.969 34.824 C 252.531 33.782,250.967 33.100,251.703 33.836 M136.200 38.075 C 135.760 38.324,134.809 39.038,134.086 39.663 C 133.363 40.288,132.373 40.821,131.886 40.846 C 131.203 40.882,131.161 40.935,131.704 41.077 C 132.430 41.266,135.200 39.787,135.200 39.210 C 135.200 39.032,135.875 38.606,136.700 38.263 C 137.525 37.921,137.930 37.637,137.600 37.633 C 137.270 37.628,136.640 37.827,136.200 38.075 M128.200 41.600 C 127.696 41.817,127.622 41.944,128.000 41.944 C 128.330 41.944,128.960 41.789,129.400 41.600 C 129.904 41.383,129.978 41.256,129.600 41.256 C 129.270 41.256,128.640 41.411,128.200 41.600 M126.013 42.676 C 125.483 43.047,124.723 43.677,124.324 44.076 C 123.926 44.474,123.300 44.800,122.933 44.800 C 122.567 44.800,122.373 44.906,122.503 45.037 C 122.921 45.455,124.159 44.845,125.800 43.412 C 127.503 41.926,127.609 41.558,126.013 42.676 M117.259 47.100 C 116.088 47.925,114.560 48.915,113.864 49.299 C 113.139 49.701,112.879 49.999,113.256 49.999 C 113.617 50.000,114.967 49.224,116.256 48.275 C 117.545 47.327,118.960 46.342,119.400 46.087 C 119.840 45.833,120.018 45.619,119.795 45.612 C 119.572 45.605,118.431 46.275,117.259 47.100 M281.000 46.273 C 281.660 46.626,282.770 47.410,283.467 48.016 C 284.164 48.622,285.784 49.509,287.067 49.987 C 288.350 50.465,289.940 51.338,290.600 51.928 L 291.800 53.000 290.635 51.711 C 289.977 50.982,288.629 50.142,287.534 49.778 C 286.469 49.424,284.837 48.500,283.908 47.723 C 282.376 46.443,280.794 45.574,280.074 45.616 C 279.923 45.625,280.340 45.921,281.000 46.273 M106.597 54.795 C 106.732 55.013,106.603 55.099,106.312 54.987 C 105.634 54.727,101.962 57.037,102.098 57.638 C 102.154 57.887,101.764 58.164,101.231 58.253 C 100.265 58.416,100.264 58.413,101.031 57.548 C 102.801 55.549,106.065 53.935,106.597 54.795 M91.545 64.500 C 90.585 65.435,89.350 66.523,88.800 66.917 C 87.825 67.617,87.832 67.617,89.075 66.946 C 90.232 66.321,93.985 62.800,93.495 62.800 C 93.382 62.800,92.504 63.565,91.545 64.500 M313.800 69.081 C 316.204 71.357,316.134 71.723,313.700 69.602 C 312.325 68.403,311.200 67.366,311.200 67.297 C 311.200 67.007,312.687 68.028,313.800 69.081 M319.600 74.236 C 320.381 75.107,320.145 75.006,318.517 73.775 C 317.371 72.909,316.426 72.053,316.417 71.873 C 316.393 71.411,318.407 72.907,319.600 74.236 M67.169 89.658 C 66.917 90.129,66.013 91.272,65.161 92.197 C 64.308 93.121,63.740 94.040,63.899 94.239 C 64.057 94.437,63.935 94.381,63.626 94.113 C 63.159 93.707,63.374 93.297,64.933 91.630 C 65.960 90.532,66.800 89.447,66.800 89.217 C 66.800 88.988,66.986 88.800,67.214 88.800 C 67.486 88.800,67.470 89.095,67.169 89.658 M340.079 97.500 C 341.066 98.554,342.613 101.200,342.243 101.200 C 342.145 101.200,341.666 100.525,341.179 99.700 C 340.691 98.875,339.822 97.796,339.246 97.302 C 338.671 96.808,338.391 96.403,338.625 96.402 C 338.859 96.401,339.513 96.895,340.079 97.500 M56.324 101.900 C 55.156 103.151,54.393 104.502,54.416 105.274 C 54.424 105.563,54.704 105.170,55.038 104.400 C 55.371 103.630,56.118 102.505,56.697 101.900 C 57.276 101.295,57.660 100.800,57.550 100.800 C 57.440 100.800,56.888 101.295,56.324 101.900 M344.300 103.190 C 344.795 103.921,345.195 104.717,345.188 104.959 C 345.181 105.202,344.977 105.040,344.734 104.600 C 344.492 104.160,343.822 103.281,343.246 102.647 C 342.642 101.981,342.453 101.572,342.800 101.678 C 343.130 101.779,343.805 102.459,344.300 103.190 M168.199 108.842 C 170.344 109.382,172.925 111.520,174.114 113.743 L 175.000 115.400 175.000 142.400 C 175.000 172.702,175.120 171.444,172.041 173.495 C 168.634 175.764,166.867 174.870,158.354 166.567 C 149.690 158.116,148.858 157.862,145.323 162.600 C 142.966 165.759,138.270 174.871,137.592 177.600 C 137.346 178.590,136.542 181.290,135.805 183.600 C 133.371 191.228,132.806 206.484,134.702 213.400 C 140.951 236.195,151.371 249.843,170.032 259.675 C 182.801 266.403,203.294 269.010,215.000 265.396 C 216.980 264.785,220.220 263.797,222.200 263.202 C 239.871 257.886,257.773 239.672,263.465 221.218 C 266.772 210.496,266.544 212.009,266.573 200.600 C 266.602 189.182,266.736 190.123,263.609 179.800 C 262.676 176.720,261.424 173.390,260.827 172.400 C 260.230 171.410,259.288 169.610,258.734 168.400 C 257.814 166.390,255.332 162.527,252.096 158.067 C 248.656 153.325,249.515 151.192,258.525 142.097 C 270.084 130.429,272.397 130.265,280.214 140.562 C 283.553 144.960,290.513 157.230,291.581 160.600 C 291.860 161.480,292.702 163.581,293.452 165.268 C 294.202 166.955,295.100 169.565,295.446 171.068 C 295.793 172.571,296.683 176.320,297.423 179.400 C 300.430 191.905,300.502 207.510,297.608 219.400 C 296.965 222.040,296.083 225.846,295.647 227.858 C 295.210 229.870,294.327 232.570,293.683 233.858 C 293.040 235.146,292.114 237.460,291.626 239.000 C 291.137 240.540,290.221 242.612,289.589 243.604 C 288.957 244.596,288.053 246.283,287.579 247.354 C 285.217 252.693,277.550 263.170,271.052 269.938 C 263.079 278.242,247.459 288.726,238.849 291.552 C 237.574 291.971,235.209 292.894,233.594 293.603 C 231.979 294.311,228.305 295.395,225.429 296.010 C 222.553 296.626,218.580 297.503,216.600 297.960 C 207.515 300.056,192.003 299.976,182.600 297.785 C 180.180 297.221,176.451 296.419,174.314 296.002 C 172.176 295.584,168.666 294.538,166.514 293.676 C 164.361 292.813,161.880 291.876,161.000 291.592 C 156.661 290.192,146.841 284.592,140.859 280.107 C 119.284 263.931,108.040 245.700,101.319 216.000 C 99.633 208.549,100.287 186.703,102.415 179.400 C 102.863 177.860,103.583 174.919,104.013 172.865 C 104.444 170.811,105.265 168.021,105.838 166.665 C 106.411 165.309,107.473 162.618,108.198 160.684 C 108.922 158.750,109.986 156.456,110.561 155.586 C 111.137 154.717,112.048 153.010,112.586 151.793 C 113.125 150.575,114.094 148.819,114.741 147.890 C 115.388 146.960,116.568 145.210,117.363 144.000 C 118.159 142.790,119.626 140.720,120.625 139.400 C 124.862 133.796,124.802 133.580,116.713 125.312 C 107.404 115.797,106.389 111.338,113.000 109.001 C 115.072 108.268,165.347 108.123,168.199 108.842 M49.600 115.111 C 49.600 115.282,48.872 116.391,47.982 117.575 C 46.984 118.903,46.457 119.972,46.606 120.364 C 46.788 120.844,46.734 120.888,46.384 120.540 C 45.740 119.902,46.156 118.867,47.797 117.027 C 48.569 116.162,49.200 115.307,49.200 115.127 C 49.200 114.947,49.290 114.800,49.400 114.800 C 49.510 114.800,49.600 114.940,49.600 115.111 M353.988 119.706 C 353.981 119.978,353.777 119.840,353.533 119.400 C 353.290 118.960,352.800 118.231,352.445 117.781 C 352.090 117.330,352.295 117.468,352.900 118.087 C 353.505 118.706,353.995 119.435,353.988 119.706 M43.234 125.558 C 41.536 127.701,41.673 128.067,43.400 126.000 C 44.170 125.078,44.800 124.251,44.800 124.162 C 44.800 123.741,44.368 124.126,43.234 125.558 M357.963 128.003 C 358.423 129.073,358.792 130.185,358.781 130.474 C 358.771 130.763,358.421 130.125,358.003 129.056 C 357.585 127.986,356.929 126.763,356.544 126.338 C 355.950 125.681,355.941 125.602,356.485 125.811 C 356.838 125.947,357.503 126.933,357.963 128.003 M39.116 134.698 C 38.303 135.629,37.490 137.223,37.714 137.447 C 37.812 137.545,38.120 137.076,38.399 136.403 C 38.677 135.731,39.195 135.019,39.549 134.821 C 39.903 134.622,40.089 134.355,39.961 134.228 C 39.833 134.100,39.453 134.311,39.116 134.698 M35.539 145.498 C 34.525 146.707,33.527 148.461,33.736 148.669 C 33.845 148.779,34.152 148.448,34.418 147.934 C 34.683 147.420,35.268 146.596,35.718 146.102 C 36.168 145.607,36.445 145.111,36.332 144.999 C 36.220 144.887,35.863 145.111,35.539 145.498 M366.794 150.967 C 366.802 151.990,366.573 151.671,366.244 150.200 C 366.048 149.324,366.085 149.162,366.382 149.600 C 366.605 149.930,366.791 150.545,366.794 150.967 M33.049 150.215 C 32.912 150.573,32.815 151.166,32.834 151.533 C 32.853 151.900,33.027 151.669,33.221 151.020 C 33.598 149.758,33.465 149.133,33.049 150.215 M367.076 153.900 C 366.975 154.285,366.893 153.970,366.893 153.200 C 366.893 152.430,366.975 152.115,367.076 152.500 C 367.176 152.885,367.176 153.515,367.076 153.900 M369.808 163.600 C 370.165 164.824,370.002 164.656,368.841 162.600 C 368.043 161.188,368.030 161.094,368.727 161.800 C 369.161 162.240,369.648 163.050,369.808 163.600 M370.794 166.567 C 370.802 167.590,370.573 167.271,370.244 165.800 C 370.048 164.924,370.085 164.762,370.382 165.200 C 370.605 165.530,370.791 166.145,370.794 166.567 M371.076 169.900 C 370.975 170.285,370.893 169.970,370.893 169.200 C 370.893 168.430,370.975 168.115,371.076 168.500 C 371.176 168.885,371.176 169.515,371.076 169.900 M372.137 200.200 C 372.139 201.960,372.209 202.630,372.293 201.689 C 372.378 200.749,372.377 199.309,372.291 198.489 C 372.205 197.670,372.136 198.440,372.137 200.200 M371.076 231.500 C 370.975 231.885,370.893 231.570,370.893 230.800 C 370.893 230.030,370.975 229.715,371.076 230.100 C 371.176 230.485,371.176 231.115,371.076 231.500 M370.000 236.356 C 370.000 236.551,369.627 237.136,369.171 237.656 L 368.342 238.600 369.057 237.300 C 369.799 235.952,370.000 235.751,370.000 236.356 M366.177 251.272 C 365.873 252.230,363.600 255.516,363.600 254.998 C 363.600 254.821,364.024 254.119,364.542 253.438 C 365.061 252.757,365.613 251.795,365.769 251.300 C 365.926 250.805,366.144 250.400,366.254 250.400 C 366.364 250.400,366.329 250.793,366.177 251.272 M37.632 262.540 C 37.560 263.298,38.858 265.443,39.700 265.956 C 40.553 266.477,40.549 266.449,39.612 265.433 C 39.069 264.844,38.408 263.875,38.145 263.281 C 37.881 262.686,37.650 262.353,37.632 262.540 M361.879 263.357 C 361.715 263.774,361.675 264.209,361.791 264.324 C 362.155 264.689,362.476 264.091,362.324 263.331 C 362.183 262.635,362.162 262.636,361.879 263.357 M44.982 275.600 C 45.454 276.418,45.136 276.100,43.443 274.062 C 42.650 273.106,42.000 272.148,42.000 271.932 C 42.000 271.560,44.240 274.315,44.982 275.600 M46.850 280.929 C 47.272 281.770,47.415 282.333,47.168 282.180 C 46.646 281.857,45.585 279.464,45.632 278.713 C 45.652 278.384,45.738 278.416,45.873 278.800 C 45.988 279.130,46.428 280.088,46.850 280.929 M49.136 284.047 C 49.921 285.303,49.521 285.244,48.471 283.949 C 47.959 283.318,47.783 282.895,48.079 283.009 C 48.375 283.123,48.851 283.590,49.136 284.047 M348.975 289.382 C 348.597 289.960,347.907 290.628,347.443 290.866 C 346.879 291.157,347.030 290.871,347.900 290.003 C 348.615 289.289,349.200 288.516,349.200 288.286 C 349.200 288.055,349.304 287.971,349.432 288.099 C 349.560 288.226,349.354 288.804,348.975 289.382 M53.886 291.300 C 53.896 291.575,54.029 292.160,54.180 292.600 C 54.359 293.121,54.248 293.053,53.863 292.405 C 53.537 291.858,53.355 291.273,53.459 291.105 C 53.730 290.667,53.864 290.728,53.886 291.300 M56.800 297.387 C 57.570 298.255,57.842 298.703,57.405 298.383 C 56.370 297.623,55.230 296.298,55.213 295.833 C 55.206 295.632,55.245 295.544,55.300 295.638 C 55.355 295.732,56.030 296.519,56.800 297.387 M58.004 299.746 C 57.994 300.681,59.932 303.346,60.996 303.859 C 62.077 304.380,62.123 304.377,61.443 303.834 C 61.027 303.501,60.565 303.177,60.416 303.114 C 60.267 303.051,59.664 302.190,59.076 301.200 C 58.488 300.210,58.006 299.555,58.004 299.746 M340.758 301.785 C 340.231 302.556,339.554 303.283,339.254 303.399 C 338.954 303.515,339.269 302.972,339.954 302.191 C 340.639 301.411,341.200 300.568,341.200 300.319 C 341.200 300.070,341.316 299.983,341.458 300.124 C 341.599 300.266,341.284 301.013,340.758 301.785 M331.130 313.547 C 330.619 314.178,330.124 314.628,330.032 314.546 C 329.862 314.396,331.600 312.400,331.900 312.400 C 331.989 312.400,331.642 312.916,331.130 313.547 M326.000 319.400 C 325.028 320.390,324.143 321.200,324.033 321.200 C 323.923 321.200,324.628 320.390,325.600 319.400 C 326.572 318.410,327.457 317.600,327.567 317.600 C 327.677 317.600,326.972 318.410,326.000 319.400 M322.966 322.837 C 322.550 323.297,321.847 323.857,321.404 324.081 C 320.962 324.305,321.230 323.935,322.000 323.260 C 323.634 321.828,324.042 321.649,322.966 322.837 M320.400 324.919 C 320.400 324.984,319.635 325.749,318.700 326.619 L 317.000 328.200 318.581 326.500 C 320.052 324.919,320.400 324.616,320.400 324.919 M313.200 331.400 C 312.085 332.390,311.072 333.200,310.948 333.200 C 310.607 333.200,314.552 329.634,314.913 329.616 C 315.086 329.607,314.315 330.410,313.200 331.400 M95.200 337.496 C 96.190 338.174,97.277 339.060,97.615 339.464 C 97.953 339.869,98.673 340.506,99.215 340.879 C 99.757 341.252,99.990 341.567,99.732 341.579 C 99.475 341.591,98.305 340.738,97.132 339.685 C 95.960 338.632,94.522 337.469,93.939 337.101 C 93.355 336.733,92.486 335.840,92.007 335.116 L 91.137 333.800 92.268 335.032 C 92.891 335.710,94.210 336.819,95.200 337.496 M307.982 335.822 C 307.698 336.164,307.091 336.630,306.633 336.857 C 306.134 337.105,306.281 336.862,307.000 336.250 C 308.377 335.078,308.725 334.927,307.982 335.822 M288.180 349.555 C 287.971 349.750,287.350 350.019,286.800 350.151 C 285.963 350.353,285.995 350.298,287.000 349.814 C 288.414 349.133,288.698 349.071,288.180 349.555 M117.633 352.242 C 117.945 352.618,118.920 353.254,119.800 353.655 C 120.680 354.055,121.130 354.386,120.800 354.390 C 120.027 354.399,117.834 353.060,116.468 351.745 C 115.632 350.941,115.581 350.808,116.233 351.137 C 116.691 351.367,117.321 351.865,117.633 352.242 M272.168 357.993 C 271.952 358.208,271.151 358.480,270.387 358.597 C 269.009 358.807,269.011 358.805,270.600 358.246 C 272.648 357.526,272.631 357.529,272.168 357.993 M134.967 361.017 C 135.828 361.777,136.818 362.399,137.167 362.399 C 137.540 362.398,137.307 362.096,136.600 361.663 C 135.940 361.260,135.153 360.630,134.851 360.265 C 134.549 359.899,134.099 359.607,133.851 359.617 C 133.603 359.626,134.105 360.256,134.967 361.017 M150.136 366.226 C 151.051 366.512,151.452 366.759,151.026 366.773 C 150.022 366.808,147.017 365.350,146.332 364.496 C 146.016 364.101,146.341 364.211,147.136 364.768 C 147.871 365.284,149.221 365.940,150.136 366.226 M153.900 367.076 C 153.515 367.176,152.885 367.176,152.500 367.076 C 152.115 366.975,152.430 366.893,153.200 366.893 C 153.970 366.893,154.285 366.975,153.900 367.076 M237.656 369.213 C 237.136 369.646,236.506 369.999,236.256 369.998 C 236.005 369.997,236.340 369.650,237.000 369.227 C 238.559 368.229,238.845 368.223,237.656 369.213 M235.200 370.400 C 234.870 370.613,234.240 370.773,233.800 370.754 C 233.141 370.726,233.176 370.664,234.000 370.400 C 235.414 369.947,235.901 369.947,235.200 370.400 M169.900 371.076 C 169.515 371.176,168.885 371.176,168.500 371.076 C 168.115 370.975,168.430 370.893,169.200 370.893 C 169.970 370.893,170.285 370.975,169.900 371.076 M231.500 371.076 C 231.115 371.176,230.485 371.176,230.100 371.076 C 229.715 370.975,230.030 370.893,230.800 370.893 C 231.570 370.893,231.885 370.975,231.500 371.076 M198.500 372.291 C 199.325 372.378,200.675 372.378,201.500 372.291 C 202.325 372.205,201.650 372.134,200.000 372.134 C 198.350 372.134,197.675 372.205,198.500 372.291 " stroke="none" fill="#04959a" fill-rule="evenodd"></path></g></svg>