<svg id="Capa_1" enable-background="new 0 0 512.04 512.04" height="512" viewBox="0 0 512.04 512.04" width="512" xmlns="http://www.w3.org/2000/svg"><g><g><path d="m35.261 250.698c-.814-.814-1.54-1.728-2.158-2.728-2.551-4.135-2.942-9.248-1.05-13.722.621-1.469 15.623-36.368 50.184-69.544 32.121-30.832 87.822-65.982 170.779-58.336l-108.955 155.125-99.164-6.432c-3.673-.238-7.087-1.814-9.636-4.363z" fill="#fe6e63"/></g><g><g><path d="m261.34 476.778c-2.549-2.549-4.125-5.963-4.362-9.636l-6.432-99.164 155.125-108.955c7.646 82.957-27.504 138.658-58.336 170.779-33.175 34.561-68.074 49.562-69.544 50.184-4.474 1.893-9.587 1.501-13.722-1.05-1.001-.618-1.915-1.344-2.729-2.158z" fill="#ff326c"/></g></g><g><path d="m4.395 507.647c-4.711-4.711-5.75-11.965-2.551-17.809 8.427-15.396 83.193-151.276 112.844-180.926l88.442 88.441c-29.651 29.65-165.53 104.417-180.926 112.844-5.844 3.2-13.099 2.16-17.809-2.55z" fill="#ffe278"/></g><path d="m4.398 507.649c4.711 4.708 11.963 5.747 17.806 2.548 15.396-8.427 151.275-83.194 180.925-112.844l-44.218-44.218z" fill="#ffc178"/><g><path d="m87.863 303.694c-2.81-2.81-4.39-6.619-4.393-10.594-.003-3.982 1.577-7.803 4.393-10.619l46.563-46.563c5.858-5.858 15.355-5.858 21.213 0l120.481 120.482c5.858 5.858 5.858 15.355 0 21.213l-46.366 46.366c-5.851 5.851-15.335 5.858-21.196.017l-120.678-120.285c-.005-.005-.012-.011-.017-.017z" fill="#3d444d"/></g><path d="m276.12 356.4-60.237-60.237-67.678 67.678 60.352 60.156c5.861 5.841 15.345 5.834 21.196-.017l46.366-46.366c5.859-5.859 5.859-15.356.001-21.214z" fill="#23272b"/><g><path d="m451.646 157.062-96.661-96.661c-3.386-3.386-4.952-8.185-4.215-12.916.737-4.732 3.689-8.826 7.945-11.022 20.984-10.826 43.386-21.344 66.585-31.264 23.854-10.206 50.06-5.164 68.382 13.159.001.001-.001-.001.001.001 18.323 18.323 23.364 44.528 13.155 68.385-9.953 23.281-20.47 45.686-31.254 66.588-2.195 4.256-6.29 7.207-11.022 7.945-4.731.737-9.53-.829-12.916-4.215z" fill="#fe6e63"/></g><path d="m506.837 86.744c10.209-23.856 5.169-50.059-13.152-68.382l-90.369 90.369 48.33 48.33c3.386 3.386 8.185 4.952 12.916 4.215 4.732-.738 8.826-3.689 11.022-7.945 10.783-20.901 21.299-43.306 31.253-66.587z" fill="#ff326c"/><path d="m273.63 379.624c35.033-22.542 71.177-52.084 104.526-85.433 33.927-33.927 66.706-81.319 97.426-140.858.001-.001.001-.002.001-.003l-116.866-116.867c-59.533 30.703-106.928 63.479-140.868 97.42-33.349 33.349-62.89 69.493-85.433 104.526z" fill="#ecf7fd"/><path d="m475.584 153.33-58.434-58.433-214.123 214.123 70.604 70.604c35.033-22.542 71.177-52.084 104.526-85.433 33.927-33.927 66.706-81.319 97.426-140.858 0-.001 0-.002.001-.003z" fill="#cde2ff"/><circle cx="298.005" cy="214.036" fill="#78e3f5" r="32.785"/><path d="m321.191 190.856-46.365 46.365c12.804 12.801 33.56 12.8 46.363-.003 12.802-12.802 12.803-33.559.002-46.362z" fill="#18c2fb"/><path d="m264.216 247.825c-18.632-18.632-18.632-48.948-.001-67.579s48.947-18.631 67.579.001c18.631 18.631 18.631 48.947 0 67.578s-48.946 18.631-67.578 0zm46.366-46.365c-6.935-6.935-18.218-6.935-25.153-.001-6.934 6.934-6.934 18.218.001 25.153 6.934 6.934 18.218 6.934 25.152 0 6.934-6.935 6.934-18.218 0-25.152z" fill="#3d444d"/><path d="m331.797 180.249-21.213 21.213c6.931 6.935 6.931 18.216-.003 25.149-6.933 6.933-18.215 6.934-25.149.003l-21.213 21.213c18.632 18.629 48.945 18.628 67.576-.003s18.631-48.943.002-67.575z" fill="#23272b"/></g></svg>