<svg id="svg" xmlns="http://www.w3.org/2000/svg" xmlns:xlink="http://www.w3.org/1999/xlink" width="400" height="387.7511961722488" viewBox="0, 0, 400,387.7511961722488" version="1.1"><g id="svgg"><path id="path0" d="M169.952 35.505 C 164.881 36.365,161.899 37.853,165.167 37.891 L 167.464 37.919 165.978 38.832 C 164.365 39.823,163.359 39.813,162.236 38.796 C 161.549 38.175,161.407 38.217,159.302 39.670 C 158.085 40.509,155.979 41.508,154.621 41.888 C 150.868 42.940,143.572 45.380,141.531 46.265 C 139.849 46.995,139.546 46.988,139.668 46.220 C 139.743 45.745,139.511 45.839,134.253 48.419 C 125.366 52.779,119.043 56.377,119.043 57.074 C 119.043 57.263,117.916 57.950,116.539 58.601 C 105.342 63.891,94.928 71.437,94.928 74.261 C 94.928 75.668,89.286 83.001,80.804 92.620 C 66.928 108.354,63.380 113.895,57.996 128.230 C 57.007 130.861,55.961 133.617,55.671 134.354 C 55.380 135.091,54.779 136.900,54.335 138.373 C 53.890 139.847,53.127 142.258,52.639 143.732 C 50.192 151.115,48.991 160.143,50.164 162.335 L 50.652 163.247 51.259 161.801 C 51.822 160.460,51.866 162.179,51.869 185.345 C 51.872 210.476,51.998 213.457,53.038 213.058 C 53.355 212.937,53.609 213.086,53.636 213.409 C 53.663 213.718,53.716 214.100,53.755 214.258 C 53.793 214.416,53.965 215.321,54.135 216.268 C 56.503 229.432,61.128 243.811,66.755 255.502 C 67.869 257.818,68.990 260.402,69.246 261.244 C 71.171 267.580,76.843 275.997,87.818 288.804 C 95.300 297.535,102.201 307.124,102.201 308.790 C 102.201 309.847,105.513 311.689,108.325 312.194 C 108.852 312.289,109.541 312.465,109.856 312.584 C 110.172 312.704,110.945 312.888,111.575 312.993 C 112.204 313.099,113.237 313.435,113.871 313.742 L 115.024 314.299 114.060 313.417 C 113.529 312.933,112.496 312.064,111.763 311.487 C 110.617 310.586,110.544 310.439,111.237 310.435 C 112.127 310.430,114.480 312.130,117.134 314.695 C 119.166 316.658,121.960 318.553,125.933 320.662 C 127.512 321.500,130.493 323.083,132.558 324.180 C 135.293 325.633,136.835 326.214,138.240 326.320 C 139.342 326.403,142.243 327.278,145.012 328.362 C 147.676 329.405,151.837 330.819,154.258 331.503 C 156.679 332.188,159.012 332.976,159.441 333.255 C 159.871 333.534,160.818 333.749,161.546 333.733 C 162.275 333.717,163.990 333.971,165.359 334.298 C 168.184 334.972,169.342 335.181,172.057 335.503 C 173.110 335.627,174.402 335.805,174.928 335.896 C 182.089 337.145,194.377 337.640,204.049 337.068 C 206.243 336.938,208.469 336.759,208.995 336.670 C 209.522 336.580,210.986 336.396,212.249 336.261 C 216.164 335.840,216.806 335.760,217.990 335.547 C 218.622 335.434,220.689 335.073,222.584 334.746 C 224.478 334.418,226.287 334.074,226.603 333.980 C 226.919 333.886,227.664 333.726,228.259 333.624 C 228.854 333.521,229.887 333.262,230.555 333.048 C 231.224 332.834,232.201 332.581,232.727 332.484 C 233.858 332.278,242.582 329.750,244.785 328.991 C 254.682 325.579,266.579 320.034,274.775 315.015 C 275.754 314.415,277.330 313.457,278.278 312.886 C 301.202 299.059,320.132 276.810,332.621 249.015 C 335.557 242.483,340.150 227.480,341.242 220.861 C 341.363 220.124,341.537 219.263,341.627 218.947 C 341.717 218.632,341.886 217.770,342.002 217.033 C 342.119 216.297,342.294 215.263,342.393 214.737 C 342.491 214.211,342.676 212.833,342.805 211.675 C 342.933 210.517,343.095 209.139,343.165 208.612 C 343.289 207.670,343.507 205.270,343.949 200.000 C 344.178 197.261,344.184 181.558,343.956 179.139 C 343.887 178.402,343.722 176.766,343.590 175.502 C 343.458 174.239,343.256 172.258,343.140 171.100 C 342.767 167.354,342.376 164.529,341.951 162.488 C 341.863 162.067,341.713 161.170,341.618 160.494 C 341.522 159.818,341.083 157.665,340.643 155.709 C 340.202 153.753,339.785 151.895,339.715 151.579 C 338.635 146.682,334.225 132.349,332.795 129.091 C 331.839 126.913,331.199 125.419,330.211 123.062 C 313.410 82.981,278.668 49.560,243.311 39.465 C 238.535 38.101,236.073 37.498,233.110 36.966 C 232.163 36.795,231.043 36.588,230.622 36.504 C 230.201 36.420,229.254 36.268,228.517 36.167 C 227.780 36.065,226.574 35.891,225.837 35.779 C 221.719 35.153,209.882 35.133,208.690 35.749 C 205.391 37.456,206.253 40.328,210.429 41.542 C 211.622 41.889,213.434 42.596,214.454 43.113 C 216.650 44.226,224.080 47.455,228.134 49.058 C 234.523 51.586,240.339 52.713,241.419 51.634 C 242.242 50.811,245.475 51.657,249.021 53.623 C 255.193 57.046,256.830 57.691,260.864 58.292 C 266.176 59.082,275.463 64.488,274.133 66.016 C 272.268 68.156,274.254 69.721,282.468 72.586 C 285.240 73.553,286.438 74.200,287.594 75.356 L 289.102 76.865 287.613 77.635 L 286.124 78.405 288.041 80.255 C 289.095 81.273,292.485 83.775,295.575 85.817 C 302.889 90.648,305.481 93.527,305.270 96.581 C 305.058 99.640,306.198 101.381,311.587 106.232 C 313.044 107.544,313.439 108.233,314.218 110.826 C 314.722 112.503,315.703 115.776,316.399 118.100 C 317.094 120.423,317.930 122.834,318.255 123.458 C 318.581 124.083,318.848 124.818,318.849 125.093 C 318.861 127.508,324.070 135.226,326.186 135.964 C 327.742 136.507,328.873 140.929,328.158 143.683 C 327.882 144.749,327.656 146.876,327.656 148.409 L 327.656 151.196 329.140 151.196 C 331.350 151.196,331.827 152.017,330.519 153.571 C 329.456 154.835,329.344 156.937,330.158 160.383 C 330.282 160.909,330.482 162.414,330.603 163.726 L 330.822 166.113 332.205 164.898 L 333.589 163.683 333.830 164.808 C 334.310 167.041,334.219 167.759,333.493 167.478 C 331.151 166.572,330.641 166.704,330.872 168.157 C 331.090 169.527,331.586 175.490,331.619 177.129 C 331.637 178.030,332.036 178.262,332.440 177.608 C 332.917 176.835,334.935 177.176,335.275 178.086 C 335.693 179.203,335.153 179.561,333.231 179.442 C 331.596 179.341,331.501 179.482,330.878 182.958 C 329.823 188.843,331.114 191.058,334.360 188.931 C 335.752 188.019,335.883 188.147,335.905 190.431 C 335.916 191.589,335.866 192.536,335.794 192.536 C 335.722 192.536,334.981 192.188,334.147 191.763 C 333.314 191.337,332.620 191.036,332.605 191.093 C 332.495 191.525,332.273 193.703,332.100 196.052 C 331.765 200.578,332.687 203.037,334.580 202.673 C 335.515 202.493,335.502 202.597,334.371 204.314 C 333.145 206.175,332.926 208.277,333.782 209.956 C 334.483 211.330,334.476 212.381,333.744 215.970 C 333.498 217.175,333.336 218.283,333.383 218.433 C 333.430 218.583,332.681 219.106,331.719 219.595 C 328.971 220.992,328.409 222.593,329.582 225.680 C 329.960 226.672,329.995 226.683,330.727 226.020 C 331.703 225.137,331.697 225.593,330.688 229.091 C 330.263 230.565,329.681 232.589,329.394 233.590 C 329.107 234.591,328.521 235.969,328.093 236.653 C 324.563 242.279,320.814 249.562,321.440 249.575 C 322.750 249.602,322.691 250.328,321.131 253.439 C 318.498 258.687,316.172 262.528,315.132 263.347 C 314.595 263.769,314.344 264.115,314.574 264.115 C 314.805 264.115,314.280 265.234,313.407 266.603 C 311.653 269.355,311.482 269.468,310.935 268.244 C 310.582 267.453,310.463 267.546,309.101 269.680 C 305.691 275.021,302.079 279.732,298.684 283.270 C 296.688 285.349,295.168 287.232,295.305 287.455 C 295.443 287.677,294.597 288.847,293.425 290.054 C 291.311 292.232,291.297 292.239,291.533 291.005 C 291.846 289.363,291.596 289.424,289.047 291.615 C 282.110 297.577,271.202 304.795,263.349 308.620 C 262.402 309.081,261.550 309.510,261.456 309.574 C 261.361 309.637,261.577 310.184,261.934 310.789 C 262.778 312.217,262.785 312.188,261.377 312.891 C 259.947 313.604,259.373 313.660,259.749 313.051 C 259.919 312.777,259.854 312.713,259.581 312.882 C 259.338 313.032,259.139 313.370,259.139 313.634 C 259.139 314.162,254.636 316.348,252.823 316.700 C 252.191 316.823,250.813 317.032,249.761 317.165 C 245.941 317.648,242.973 318.830,241.375 320.505 C 240.451 321.474,239.165 322.314,238.006 322.706 L 236.132 323.341 235.911 322.237 C 235.562 320.491,235.893 320.458,227.273 323.085 C 224.401 323.960,224.363 324.005,225.477 325.192 L 226.265 326.031 224.996 326.269 C 224.298 326.400,223.211 326.362,222.581 326.185 C 221.951 326.008,219.214 325.840,216.498 325.813 L 211.561 325.763 212.440 326.698 C 213.715 328.056,213.005 328.645,209.659 329.002 C 208.136 329.164,206.545 329.343,206.124 329.400 C 205.703 329.456,203.550 329.609,201.340 329.741 C 199.129 329.873,196.857 330.071,196.291 330.183 C 195.439 330.351,195.160 330.191,194.676 329.253 C 193.988 327.923,192.452 327.271,189.382 327.005 L 187.185 326.815 187.755 328.180 C 188.069 328.931,188.325 329.638,188.325 329.752 C 188.325 330.051,185.109 329.951,182.010 329.555 C 180.536 329.366,178.469 329.123,177.416 329.014 C 174.593 328.721,173.744 328.505,173.058 327.903 C 171.643 326.663,166.447 324.730,162.530 323.987 C 162.086 323.903,161.292 323.733,160.766 323.608 C 160.239 323.484,158.186 323.314,156.202 323.230 C 151.974 323.052,150.157 322.538,149.128 321.230 C 148.133 319.966,144.774 318.519,142.423 318.342 C 140.266 318.180,137.292 316.839,133.397 314.273 C 131.923 313.303,129.081 311.582,127.081 310.450 C 121.739 307.427,121.700 307.399,121.212 306.287 C 119.899 303.296,116.854 300.810,111.384 298.266 C 106.707 296.090,97.488 286.828,89.795 276.575 L 87.225 273.150 88.055 272.524 C 89.633 271.333,88.848 270.394,85.699 269.705 C 85.014 269.555,84.209 268.739,83.133 267.102 C 81.419 264.493,81.367 264.052,82.892 265.051 C 85.320 266.641,83.472 264.237,79.777 260.997 C 78.427 259.813,72.170 247.409,69.669 240.957 C 68.771 238.641,67.887 236.402,67.703 235.981 C 67.349 235.165,65.739 230.223,64.899 227.368 C 63.107 221.282,60.736 211.089,60.314 207.656 C 60.210 206.813,60.047 205.763,59.952 205.321 C 59.592 203.648,59.132 199.437,58.745 194.258 C 58.603 192.364,58.422 190.707,58.343 190.577 C 58.264 190.448,58.540 190.033,58.956 189.657 C 59.926 188.780,59.923 187.699,58.951 187.179 C 57.952 186.645,58.060 172.833,59.108 167.081 C 59.223 166.450,59.411 164.900,59.527 163.636 C 59.643 162.373,59.808 161.081,59.895 160.766 C 59.981 160.450,60.155 159.244,60.281 158.086 C 60.407 156.928,60.677 155.120,60.882 154.067 C 61.087 153.014,61.331 151.752,61.425 151.261 C 61.518 150.771,61.681 150.082,61.787 149.730 C 61.893 149.379,62.064 148.660,62.166 148.134 C 62.341 147.237,62.541 146.379,62.945 144.785 C 68.801 121.675,82.886 98.392,99.073 85.060 C 101.890 82.740,102.880 81.714,102.519 81.491 C 101.917 81.119,103.217 79.973,103.931 80.247 C 104.164 80.337,105.980 79.294,107.967 77.930 C 109.953 76.566,113.474 74.369,115.789 73.047 C 120.819 70.176,122.656 68.544,122.395 67.180 C 122.180 66.053,123.798 64.698,124.509 65.409 C 124.799 65.698,125.261 65.614,126.095 65.118 C 126.743 64.734,128.938 63.438,130.973 62.239 C 133.008 61.040,134.878 59.813,135.127 59.512 C 135.377 59.212,136.467 58.548,137.551 58.036 C 143.488 55.236,147.498 53.507,149.665 52.812 C 150.191 52.643,152.301 51.903,154.354 51.166 C 156.407 50.430,158.086 49.894,158.086 49.976 C 158.086 50.058,158.488 49.972,158.979 49.785 C 159.470 49.598,160.547 49.340,161.372 49.211 C 162.196 49.083,163.129 48.902,163.445 48.810 C 164.096 48.620,165.686 48.318,167.656 48.011 C 168.392 47.896,169.254 47.733,169.569 47.648 C 169.885 47.563,171.005 47.389,172.057 47.262 C 173.110 47.135,174.259 46.949,174.611 46.849 C 175.555 46.579,176.822 46.346,178.756 46.084 C 179.703 45.956,180.607 45.773,180.764 45.679 C 180.921 45.584,181.352 45.446,181.721 45.373 C 188.372 44.043,195.598 41.472,195.598 40.436 C 195.598 40.142,195.326 39.677,194.994 39.401 C 194.460 38.958,194.536 38.829,195.636 38.301 C 198.369 36.990,197.560 36.720,191.082 36.783 C 187.717 36.816,184.812 36.749,184.627 36.635 C 184.442 36.520,183.519 36.309,182.576 36.165 C 181.633 36.021,180.431 35.827,179.904 35.733 C 178.515 35.485,171.076 35.314,169.952 35.505 M96.216 75.874 C 96.073 76.105,95.852 76.050,95.652 75.735 C 95.129 74.909,95.259 74.504,95.881 75.020 C 96.194 75.281,96.345 75.665,96.216 75.874 M118.086 148.907 C 115.716 149.418,114.591 150.320,113.704 152.421 C 111.176 158.411,109.714 160.676,108.841 159.952 C 108.440 159.619,108.322 159.683,108.312 160.240 C 108.277 162.061,107.820 165.560,107.606 165.646 C 107.199 165.809,107.504 176.470,107.955 177.838 C 108.304 178.894,108.277 179.242,107.808 179.711 C 107.036 180.483,107.299 182.247,108.484 184.235 C 109.009 185.116,109.854 186.711,110.362 187.779 C 111.300 189.752,112.939 191.388,113.978 191.388 C 114.293 191.388,115.135 191.749,115.850 192.190 C 117.046 192.930,118.352 192.968,118.236 192.259 C 118.107 191.475,118.342 191.077,119.042 190.894 C 120.469 190.521,119.563 192.836,117.251 195.470 C 116.071 196.813,115.178 197.985,115.266 198.073 C 115.457 198.264,120.739 191.972,121.821 190.263 C 122.785 188.740,123.073 188.951,122.258 190.584 C 120.843 193.421,123.055 192.076,125.850 188.399 C 126.948 186.954,127.847 185.496,127.847 185.158 C 127.847 184.268,128.520 183.986,128.746 184.780 C 128.852 185.151,128.920 184.679,128.896 183.732 C 128.859 182.220,128.971 180.985,129.563 176.344 C 129.639 175.754,129.875 175.061,130.088 174.804 C 130.752 174.004,131.963 169.034,131.685 168.250 C 131.479 167.670,131.322 167.897,130.974 169.280 C 130.728 170.256,130.373 171.150,130.185 171.266 C 129.984 171.391,129.983 170.886,130.183 170.045 C 131.361 165.080,129.530 157.383,127.474 158.654 C 127.179 158.836,126.316 156.910,126.316 156.070 C 126.316 155.867,126.660 155.790,127.081 155.900 C 128.047 156.153,128.041 156.076,126.927 153.927 C 126.421 152.952,125.906 151.843,125.783 151.464 C 125.354 150.142,120.238 148.443,118.086 148.907 M273.574 149.836 C 272.567 150.102,271.653 150.301,271.544 150.279 C 271.312 150.232,270.376 151.947,268.745 155.407 C 267.005 159.097,266.071 160.481,265.474 160.252 C 264.720 159.963,264.451 161.438,264.515 165.501 C 264.545 167.423,264.413 169.770,264.223 170.718 C 263.852 172.557,263.934 177.174,264.366 178.756 C 264.509 179.282,264.649 179.799,264.677 179.904 C 264.993 181.116,265.530 182.417,266.571 184.498 C 267.256 185.866,268.041 187.708,268.316 188.591 C 268.938 190.586,270.815 192.919,271.798 192.919 C 272.204 192.919,272.536 193.158,272.536 193.450 C 272.536 194.190,273.817 194.017,274.140 193.234 C 274.386 192.637,274.532 192.640,276.245 193.280 C 277.376 193.703,278.714 193.906,279.713 193.807 L 281.340 193.645 281.346 195.292 C 281.352 197.210,281.920 196.679,282.306 194.392 C 282.438 193.615,282.774 192.891,283.053 192.784 C 283.426 192.641,283.514 192.887,283.384 193.711 C 283.287 194.328,283.378 194.833,283.587 194.833 C 284.009 194.833,285.550 192.810,285.550 192.257 C 285.550 192.064,286.341 190.670,287.307 189.160 C 289.474 185.772,290.044 183.680,289.903 179.623 C 289.822 177.316,289.917 176.494,290.255 176.560 C 290.510 176.610,290.718 176.392,290.718 176.077 C 290.718 175.761,290.452 175.520,290.127 175.542 C 289.303 175.598,289.158 174.318,289.586 170.768 C 289.760 169.323,289.709 168.791,289.414 168.973 C 289.184 169.115,288.995 169.595,288.995 170.039 C 288.995 172.021,288.515 170.108,288.426 167.771 C 288.269 163.675,287.479 161.153,286.347 161.142 C 285.869 161.138,285.849 161.068,286.252 160.813 C 286.661 160.554,286.639 160.442,286.139 160.250 C 285.376 159.957,284.329 157.573,284.625 156.802 C 284.744 156.493,284.381 155.546,283.819 154.697 C 283.258 153.849,282.905 152.982,283.035 152.771 C 283.319 152.312,280.359 150.509,278.582 150.059 C 275.950 149.392,275.356 149.366,273.574 149.836 M276.470 152.618 C 276.724 152.761,275.606 153.657,273.765 154.785 C 273.295 155.073,273.343 154.228,273.899 152.431 C 274.037 151.986,275.541 152.095,276.470 152.618 M200.383 213.073 C 197.678 213.463,194.042 214.323,190.404 215.433 C 177.859 219.264,163.544 232.947,161.700 242.871 C 161.622 243.292,160.937 244.855,160.178 246.344 C 158.022 250.570,158.076 254.131,160.296 254.176 C 160.802 254.187,160.743 254.308,160.044 254.696 C 159.454 255.023,159.285 255.297,159.566 255.470 C 159.804 255.618,160.199 255.616,160.442 255.466 C 160.692 255.311,160.781 255.359,160.646 255.577 C 160.413 255.954,162.836 255.901,165.649 255.467 C 166.984 255.262,167.857 254.262,168.207 252.536 C 168.325 251.957,168.514 251.035,168.627 250.486 C 169.395 246.771,177.755 235.035,179.647 235.016 C 180.945 235.002,183.819 233.563,183.636 233.018 C 183.546 232.753,183.100 232.557,182.645 232.582 C 182.190 232.607,181.818 232.499,181.818 232.342 C 181.818 231.694,182.903 231.276,185.072 231.088 C 186.335 230.979,187.755 230.796,188.228 230.682 C 189.064 230.481,189.072 230.506,188.505 231.601 C 188.185 232.221,188.073 232.727,188.256 232.727 C 189.128 232.727,193.787 229.265,196.311 226.741 C 199.487 223.566,199.269 223.642,202.111 224.721 C 206.815 226.507,207.651 226.613,212.536 226.047 C 215.529 225.701,215.728 225.398,213.538 224.522 C 211.577 223.737,212.327 222.856,214.897 222.925 C 216.409 222.965,216.461 223.009,216.508 224.306 C 216.535 225.043,216.578 226.051,216.604 226.545 C 216.712 228.629,219.024 230.111,221.977 229.991 C 224.459 229.890,224.745 229.963,225.995 231.017 C 226.735 231.642,228.970 233.531,230.960 235.215 C 232.951 236.900,234.749 238.708,234.954 239.234 C 235.160 239.761,235.441 240.468,235.579 240.807 C 235.759 241.250,235.503 241.557,234.661 241.906 C 233.103 242.551,233.171 243.157,234.767 242.858 L 236.042 242.619 236.665 245.041 C 237.008 246.374,237.369 248.153,237.467 248.995 C 237.721 251.177,237.915 251.893,238.883 254.211 C 240.068 257.047,240.251 257.148,240.194 254.935 C 240.137 252.742,240.123 252.755,241.427 253.780 C 243.008 255.024,245.987 254.361,246.154 252.727 C 246.170 252.569,246.263 252.096,246.361 251.675 C 246.653 250.413,246.646 246.827,246.347 244.785 C 244.138 229.708,233.402 217.958,218.183 213.960 C 215.273 213.196,215.031 213.160,211.483 212.974 C 204.812 212.623,203.417 212.636,200.383 213.073 M208.349 227.464 C 208.152 227.727,208.023 228.158,208.063 228.421 C 208.102 228.684,208.156 229.072,208.182 229.282 C 208.301 230.240,211.292 228.287,211.292 227.252 C 211.292 226.782,208.719 226.968,208.349 227.464 M219.462 231.787 C 219.112 232.701,219.475 232.788,220.994 232.153 C 222.746 231.421,222.757 231.196,221.041 231.196 C 220.175 231.196,219.607 231.409,219.462 231.787 M225.879 232.868 C 225.625 233.174,225.568 233.518,225.752 233.632 C 226.293 233.966,227.796 233.435,227.639 232.966 C 227.419 232.304,226.394 232.247,225.879 232.868 M86.884 272.291 C 86.878 272.748,86.371 272.112,85.707 270.813 C 85.399 270.212,85.484 270.241,86.103 270.951 C 86.536 271.449,86.887 272.051,86.884 272.291 " stroke="none" fill="#000000" fill-rule="evenodd"></path></g></svg>