<svg id="svg" xmlns="http://www.w3.org/2000/svg" xmlns:xlink="http://www.w3.org/1999/xlink" width="400" height="400" viewBox="0, 0, 400,400" version="1.1"><g id="svgg"><path id="path0" d="M206.242 57.781 C 205.680 58.152,205.426 58.204,205.606 57.910 C 205.773 57.638,205.722 57.422,205.492 57.422 C 205.264 57.422,205.078 57.608,205.078 57.836 C 205.078 58.063,204.891 58.133,204.662 57.992 C 204.432 57.850,203.980 58.059,203.656 58.457 C 203.332 58.854,203.178 58.960,203.314 58.691 C 203.450 58.423,203.376 58.203,203.148 58.203 C 202.921 58.203,202.734 58.389,202.734 58.617 C 202.734 58.844,202.559 58.922,202.344 58.789 C 202.129 58.656,201.953 58.822,201.953 59.157 C 201.953 59.492,201.767 59.766,201.539 59.766 C 201.312 59.766,201.251 59.563,201.404 59.315 C 201.577 59.035,201.512 58.970,201.232 59.142 C 200.984 59.296,200.781 59.674,200.781 59.984 C 200.781 60.294,200.595 60.547,200.368 60.547 C 200.140 60.547,200.086 60.327,200.247 60.059 C 200.455 59.712,200.353 59.723,199.895 60.094 C 199.540 60.382,199.148 60.937,199.024 61.327 C 198.900 61.718,198.507 62.149,198.152 62.285 C 197.576 62.506,197.567 62.454,198.069 61.812 C 198.379 61.414,198.165 61.568,197.592 62.154 C 197.020 62.739,196.473 63.140,196.377 63.044 C 196.282 62.948,195.578 63.563,194.813 64.409 C 194.048 65.256,193.344 65.870,193.247 65.774 C 193.151 65.677,192.539 66.207,191.886 66.951 C 191.233 67.694,190.618 68.222,190.518 68.123 C 190.419 68.024,189.804 68.551,189.151 69.295 C 188.498 70.038,187.884 70.567,187.787 70.469 C 187.689 70.372,186.984 70.984,186.219 71.831 C 185.454 72.678,184.750 73.292,184.654 73.195 C 184.558 73.099,183.945 73.629,183.292 74.373 C 182.639 75.116,182.025 75.645,181.928 75.547 C 181.830 75.450,181.124 76.063,180.360 76.909 C 179.595 77.756,178.890 78.370,178.794 78.274 C 178.698 78.177,178.085 78.707,177.433 79.451 C 176.780 80.194,176.164 80.722,176.065 80.623 C 175.966 80.524,175.351 81.051,174.698 81.795 C 174.045 82.538,173.431 83.067,173.334 82.969 C 173.236 82.872,172.531 83.484,171.766 84.331 C 171.001 85.178,170.297 85.792,170.201 85.695 C 170.104 85.599,169.492 86.129,168.839 86.873 C 168.186 87.616,167.572 88.145,167.474 88.047 C 167.377 87.950,166.671 88.563,165.907 89.409 C 165.142 90.256,164.437 90.870,164.341 90.774 C 164.245 90.677,163.632 91.207,162.979 91.951 C 162.327 92.694,161.711 93.222,161.612 93.123 C 161.513 93.024,160.898 93.551,160.245 94.295 C 159.592 95.038,158.978 95.567,158.881 95.469 C 158.783 95.372,158.078 95.984,157.313 96.831 C 156.548 97.678,155.844 98.292,155.747 98.195 C 155.651 98.099,155.039 98.629,154.386 99.373 C 153.733 100.116,153.119 100.645,153.021 100.547 C 152.924 100.450,152.218 101.063,151.453 101.909 C 150.689 102.756,149.984 103.370,149.888 103.274 C 149.792 103.177,149.179 103.707,148.526 104.451 C 147.873 105.194,147.259 105.723,147.162 105.625 C 147.064 105.528,146.359 106.141,145.594 106.987 C 144.829 107.834,144.125 108.448,144.029 108.352 C 143.933 108.256,143.320 108.785,142.667 109.529 C 142.014 110.272,141.399 110.800,141.300 110.701 C 141.201 110.602,140.585 111.129,139.933 111.873 C 139.280 112.616,138.666 113.145,138.568 113.047 C 138.471 112.950,137.765 113.563,137.000 114.409 C 136.235 115.256,135.531 115.870,135.435 115.774 C 135.339 115.677,134.726 116.207,134.073 116.951 C 133.420 117.694,132.806 118.223,132.709 118.125 C 132.611 118.028,131.906 118.641,131.141 119.487 C 130.376 120.334,129.672 120.948,129.576 120.852 C 129.479 120.756,128.867 121.285,128.214 122.029 C 127.561 122.772,126.946 123.300,126.847 123.201 C 126.748 123.102,126.132 123.629,125.479 124.373 C 124.827 125.116,124.213 125.645,124.115 125.547 C 124.017 125.450,123.312 126.063,122.547 126.909 C 121.782 127.756,121.078 128.370,120.982 128.274 C 120.886 128.177,120.273 128.707,119.620 129.451 C 118.967 130.194,118.353 130.723,118.256 130.625 C 118.158 130.528,117.453 131.141,116.688 131.987 C 115.923 132.834,115.219 133.448,115.122 133.352 C 115.026 133.256,114.414 133.785,113.761 134.529 C 113.108 135.272,112.469 135.776,112.341 135.649 C 112.214 135.521,112.109 135.578,112.109 135.775 C 112.109 135.990,95.976 136.092,71.630 136.032 C 37.131 135.945,30.984 136.013,30.028 136.490 C 29.411 136.798,28.906 136.887,28.906 136.689 C 28.906 136.490,28.643 136.328,28.320 136.328 C 27.998 136.328,27.734 136.485,27.734 136.677 C 27.734 136.869,27.462 137.130,27.128 137.258 C 26.716 137.416,26.615 137.336,26.813 137.007 C 27.005 136.687,26.880 136.705,26.442 137.060 C 26.079 137.354,25.781 137.453,25.781 137.278 C 25.781 137.103,25.505 137.301,25.166 137.718 C 24.828 138.135,24.663 138.257,24.799 137.988 C 24.935 137.720,24.860 137.500,24.632 137.500 C 24.405 137.500,24.219 137.764,24.219 138.086 C 24.219 138.408,24.033 138.672,23.805 138.672 C 23.578 138.672,23.503 138.452,23.639 138.184 C 23.775 137.915,23.636 138.000,23.330 138.373 C 23.024 138.745,22.664 138.940,22.529 138.805 C 22.394 138.670,22.174 138.848,22.039 139.200 C 21.904 139.551,21.663 139.759,21.503 139.660 C 21.344 139.562,20.714 140.002,20.104 140.639 C 19.494 141.276,19.107 141.797,19.245 141.797 C 19.383 141.797,19.055 142.238,18.516 142.777 C 17.977 143.316,17.644 143.931,17.775 144.144 C 17.907 144.357,17.818 144.531,17.578 144.531 C 17.338 144.531,17.250 144.707,17.383 144.922 C 17.516 145.137,17.428 145.313,17.188 145.313 C 16.947 145.313,16.859 145.488,16.992 145.703 C 17.125 145.918,17.047 146.094,16.820 146.094 C 16.592 146.094,16.406 146.280,16.406 146.507 C 16.406 146.735,16.626 146.810,16.895 146.674 C 17.163 146.538,17.058 146.691,16.660 147.015 C 16.263 147.339,16.046 147.780,16.178 147.994 C 16.311 148.208,16.243 148.492,16.028 148.625 C 15.191 149.143,15.191 257.889,16.028 258.406 C 16.243 258.539,16.311 258.823,16.178 259.037 C 16.046 259.252,16.263 259.692,16.660 260.016 C 17.058 260.340,17.163 260.494,16.895 260.357 C 16.626 260.221,16.406 260.296,16.406 260.524 C 16.406 260.751,16.592 260.938,16.820 260.938 C 17.047 260.938,17.125 261.113,16.992 261.328 C 16.859 261.543,16.947 261.719,17.188 261.719 C 17.428 261.719,17.516 261.895,17.383 262.109 C 17.250 262.324,17.338 262.500,17.578 262.500 C 17.818 262.500,17.907 262.674,17.775 262.887 C 17.644 263.100,17.977 263.716,18.516 264.255 C 19.055 264.793,19.385 265.234,19.250 265.234 C 19.115 265.234,19.412 265.668,19.911 266.199 C 20.409 266.729,20.948 267.082,21.110 266.982 C 21.271 266.883,21.508 267.075,21.636 267.410 C 21.764 267.744,22.028 267.920,22.222 267.800 C 22.416 267.681,22.690 267.884,22.832 268.253 C 23.052 268.828,23.141 268.841,23.453 268.348 C 23.755 267.870,23.817 267.892,23.822 268.480 C 23.825 268.869,24.004 269.078,24.219 268.945 C 24.434 268.813,24.609 268.900,24.609 269.141 C 24.609 269.381,24.785 269.469,25.000 269.336 C 25.215 269.203,25.391 269.281,25.391 269.508 C 25.391 269.736,25.577 269.922,25.804 269.922 C 26.032 269.922,26.107 269.702,25.971 269.434 C 25.835 269.165,25.975 269.253,26.284 269.629 C 26.875 270.351,27.558 270.585,27.151 269.926 C 27.014 269.705,27.171 269.639,27.519 269.773 C 27.852 269.901,28.125 270.162,28.125 270.354 C 28.125 270.546,28.389 270.703,28.711 270.703 C 29.033 270.703,29.297 270.541,29.297 270.342 C 29.297 270.144,29.802 270.234,30.419 270.541 C 31.375 271.018,37.412 271.086,71.205 271.000 C 106.086 270.911,110.922 270.969,111.309 271.484 C 111.699 272.005,111.718 272.005,111.481 271.484 C 111.335 271.162,111.876 271.654,112.685 272.577 C 113.494 273.501,114.236 274.175,114.336 274.076 C 114.435 273.977,115.142 274.588,115.907 275.435 C 116.671 276.281,117.377 276.894,117.474 276.796 C 117.572 276.699,118.186 277.228,118.839 277.971 C 119.492 278.715,120.104 279.244,120.201 279.148 C 120.297 279.052,121.001 279.666,121.766 280.513 C 122.531 281.359,123.236 281.972,123.334 281.875 C 123.431 281.777,124.045 282.306,124.698 283.049 C 125.351 283.793,125.966 284.320,126.065 284.221 C 126.164 284.122,126.780 284.649,127.433 285.393 C 128.085 286.137,128.698 286.666,128.794 286.570 C 128.890 286.474,129.595 287.088,130.360 287.935 C 131.124 288.781,131.830 289.394,131.928 289.296 C 132.025 289.199,132.639 289.728,133.292 290.471 C 133.945 291.215,134.558 291.744,134.654 291.648 C 134.750 291.552,135.454 292.166,136.219 293.013 C 136.984 293.859,137.689 294.472,137.787 294.375 C 137.884 294.277,138.498 294.806,139.151 295.549 C 139.804 296.293,140.419 296.820,140.518 296.721 C 140.618 296.622,141.233 297.149,141.886 297.893 C 142.539 298.637,143.151 299.166,143.247 299.070 C 143.344 298.974,144.048 299.588,144.813 300.435 C 145.578 301.281,146.283 301.894,146.381 301.796 C 146.478 301.699,147.092 302.228,147.745 302.971 C 148.398 303.715,149.011 304.244,149.107 304.148 C 149.203 304.052,149.907 304.666,150.672 305.513 C 151.437 306.359,152.142 306.972,152.240 306.875 C 152.338 306.777,152.952 307.306,153.604 308.049 C 154.257 308.793,154.870 309.323,154.966 309.226 C 155.062 309.130,155.767 309.744,156.532 310.591 C 157.296 311.437,158.002 312.050,158.099 311.953 C 158.197 311.855,158.811 312.384,159.464 313.127 C 160.117 313.871,160.732 314.398,160.831 314.299 C 160.930 314.200,161.545 314.728,162.198 315.471 C 162.851 316.215,163.464 316.744,163.560 316.648 C 163.656 316.552,164.360 317.166,165.125 318.013 C 165.890 318.859,166.596 319.472,166.693 319.375 C 166.791 319.277,167.405 319.806,168.058 320.549 C 168.710 321.293,169.323 321.823,169.419 321.726 C 169.515 321.630,170.220 322.244,170.985 323.091 C 171.749 323.937,172.455 324.550,172.553 324.453 C 172.650 324.355,173.264 324.884,173.917 325.627 C 174.570 326.371,175.185 326.898,175.284 326.799 C 175.383 326.700,175.998 327.228,176.651 327.971 C 177.304 328.715,177.917 329.244,178.013 329.148 C 178.109 329.052,178.814 329.666,179.578 330.513 C 180.343 331.359,181.049 331.972,181.146 331.875 C 181.244 331.777,181.858 332.306,182.511 333.049 C 183.164 333.793,183.776 334.323,183.872 334.226 C 183.969 334.130,184.673 334.744,185.438 335.591 C 186.203 336.437,186.908 337.050,187.006 336.953 C 187.103 336.855,187.717 337.384,188.370 338.127 C 189.023 338.871,189.638 339.398,189.737 339.299 C 189.836 339.200,190.452 339.728,191.104 340.471 C 191.757 341.215,192.370 341.744,192.466 341.648 C 192.562 341.552,193.267 342.166,194.032 343.013 C 194.796 343.859,195.502 344.472,195.599 344.375 C 195.697 344.277,196.311 344.806,196.964 345.549 C 197.617 346.293,198.237 346.815,198.343 346.709 C 198.448 346.604,198.878 346.906,199.297 347.380 C 199.716 347.854,199.948 348.022,199.811 347.754 C 199.675 347.485,199.749 347.266,199.977 347.266 C 200.204 347.266,200.391 347.519,200.391 347.829 C 200.391 348.138,200.594 348.517,200.842 348.670 C 201.121 348.843,201.187 348.777,201.014 348.498 C 200.861 348.250,200.921 348.047,201.149 348.047 C 201.376 348.047,201.563 348.321,201.563 348.656 C 201.563 348.991,201.738 349.156,201.953 349.023 C 202.168 348.891,202.344 348.979,202.344 349.219 C 202.344 349.459,202.520 349.547,202.734 349.414 C 202.949 349.281,203.125 349.388,203.125 349.651 C 203.125 349.915,203.241 350.015,203.382 349.873 C 203.523 349.732,203.909 349.834,204.238 350.101 C 204.736 350.504,204.779 350.486,204.492 350.000 C 204.185 349.479,204.227 349.479,204.868 350.000 C 205.264 350.322,205.957 350.625,206.408 350.672 C 206.858 350.719,208.199 350.869,209.387 351.006 C 210.937 351.184,211.961 351.081,213.014 350.641 C 213.822 350.304,214.377 350.197,214.249 350.405 C 214.121 350.612,214.203 350.781,214.430 350.781 C 214.658 350.781,214.844 350.595,214.844 350.368 C 214.844 350.140,215.031 350.070,215.260 350.211 C 215.490 350.353,215.942 350.144,216.266 349.746 C 216.590 349.349,216.744 349.243,216.607 349.512 C 216.471 349.780,216.546 350.000,216.774 350.000 C 217.001 350.000,217.188 349.814,217.188 349.586 C 217.188 349.359,217.363 349.281,217.578 349.414 C 217.793 349.547,217.971 349.337,217.975 348.949 C 217.980 348.361,218.042 348.339,218.344 348.817 C 218.656 349.310,218.745 349.296,218.965 348.722 C 219.107 348.353,219.381 348.149,219.575 348.269 C 219.769 348.389,220.032 348.213,220.161 347.879 C 220.289 347.544,220.525 347.351,220.684 347.449 C 220.844 347.548,221.473 347.107,222.084 346.470 C 222.694 345.834,223.080 345.313,222.942 345.312 C 222.805 345.312,223.133 344.872,223.672 344.333 C 224.211 343.794,224.544 343.179,224.412 342.965 C 224.280 342.752,224.369 342.578,224.609 342.578 C 224.850 342.578,224.937 342.402,224.805 342.188 C 224.672 341.973,224.749 341.797,224.977 341.797 C 225.204 341.797,225.391 341.611,225.391 341.383 C 225.391 341.156,225.171 341.081,224.902 341.217 C 224.634 341.353,224.732 341.205,225.120 340.887 C 225.509 340.570,225.875 339.854,225.935 339.295 C 225.994 338.737,226.160 338.163,226.303 338.020 C 226.709 337.613,226.616 70.391,226.209 70.140 C 226.014 70.020,225.946 69.570,226.059 69.140 C 226.171 68.711,226.072 68.359,225.839 68.359 C 225.606 68.359,225.516 68.096,225.640 67.773 C 225.764 67.451,225.660 67.188,225.409 67.188 C 225.159 67.188,225.063 67.012,225.195 66.797 C 225.328 66.582,225.240 66.406,225.000 66.406 C 224.760 66.406,224.672 66.230,224.805 66.016 C 224.937 65.801,224.850 65.625,224.609 65.625 C 224.369 65.625,224.281 65.449,224.414 65.234 C 224.547 65.020,224.381 64.844,224.046 64.844 C 223.712 64.844,223.438 64.658,223.438 64.430 C 223.438 64.203,223.657 64.128,223.926 64.264 C 224.194 64.400,224.109 64.261,223.737 63.955 C 223.364 63.649,223.141 63.317,223.241 63.217 C 223.341 63.117,222.723 62.352,221.868 61.516 C 221.012 60.681,220.313 60.155,220.313 60.347 C 220.313 60.539,220.036 60.355,219.698 59.938 C 219.359 59.521,219.194 59.399,219.330 59.668 C 219.466 59.937,219.391 60.156,219.164 60.156 C 218.936 60.156,218.750 59.882,218.750 59.547 C 218.750 59.212,218.574 59.047,218.359 59.180 C 218.145 59.312,217.969 59.225,217.969 58.984 C 217.969 58.744,217.793 58.656,217.578 58.789 C 217.363 58.922,217.188 58.834,217.188 58.594 C 217.188 58.354,217.012 58.266,216.797 58.398 C 216.582 58.531,216.406 58.454,216.406 58.226 C 216.406 57.999,216.220 57.813,215.993 57.813 C 215.765 57.813,215.690 58.032,215.826 58.301 C 215.962 58.569,215.821 58.481,215.513 58.105 C 214.901 57.358,214.245 57.160,214.673 57.851 C 214.828 58.103,214.555 58.067,214.012 57.764 C 212.644 57.001,207.407 57.013,206.242 57.781 M222.842 63.226 C 222.585 63.483,220.313 61.293,220.313 60.788 C 220.313 60.571,220.925 60.987,221.674 61.713 C 222.423 62.439,222.948 63.120,222.842 63.226 M196.306 64.034 C 196.166 64.262,195.665 64.650,195.193 64.895 C 194.376 65.320,194.380 65.292,195.281 64.312 C 196.181 63.334,196.851 63.153,196.306 64.034 M193.359 66.393 C 193.359 66.600,192.964 66.977,192.480 67.231 C 191.606 67.689,191.606 67.687,192.346 66.854 C 193.172 65.923,193.359 65.838,193.359 66.393 M190.625 68.736 C 190.625 68.944,190.229 69.321,189.746 69.574 C 188.872 70.033,188.871 70.031,189.611 69.197 C 190.438 68.266,190.625 68.181,190.625 68.736 M187.713 71.456 C 187.572 71.684,187.071 72.071,186.599 72.317 C 185.782 72.742,185.786 72.714,186.688 71.734 C 187.587 70.756,188.258 70.574,187.713 71.456 M184.766 73.814 C 184.766 74.022,184.370 74.399,183.887 74.652 C 183.013 75.111,183.012 75.109,183.752 74.276 C 184.579 73.345,184.766 73.259,184.766 73.814 M181.853 76.534 C 181.712 76.762,181.211 77.150,180.740 77.395 C 179.923 77.820,179.927 77.792,180.828 76.812 C 181.728 75.834,182.398 75.653,181.853 76.534 M178.906 78.893 C 178.906 79.100,178.511 79.477,178.027 79.731 C 177.153 80.189,177.152 80.187,177.893 79.354 C 178.719 78.423,178.906 78.338,178.906 78.893 M176.172 81.236 C 176.172 81.444,175.776 81.821,175.293 82.074 C 174.419 82.533,174.418 82.531,175.158 81.697 C 175.985 80.766,176.172 80.681,176.172 81.236 M173.260 83.956 C 173.119 84.184,172.618 84.571,172.146 84.817 C 171.329 85.242,171.333 85.214,172.235 84.234 C 173.134 83.256,173.805 83.074,173.260 83.956 M170.313 86.314 C 170.313 86.522,169.917 86.899,169.434 87.152 C 168.559 87.611,168.559 87.609,169.299 86.776 C 170.126 85.845,170.313 85.759,170.313 86.314 M167.400 89.034 C 167.259 89.262,166.758 89.650,166.287 89.895 C 165.470 90.320,165.474 90.292,166.375 89.312 C 167.275 88.334,167.945 88.153,167.400 89.034 M164.453 91.393 C 164.453 91.600,164.058 91.977,163.574 92.231 C 162.700 92.689,162.699 92.687,163.439 91.854 C 164.266 90.923,164.453 90.838,164.453 91.393 M161.719 93.736 C 161.719 93.944,161.323 94.321,160.840 94.574 C 159.966 95.033,159.965 95.031,160.705 94.197 C 161.532 93.266,161.719 93.181,161.719 93.736 M158.806 96.456 C 158.666 96.684,158.165 97.071,157.693 97.317 C 156.876 97.742,156.880 97.714,157.781 96.734 C 158.681 95.756,159.351 95.574,158.806 96.456 M155.859 98.814 C 155.859 99.022,155.464 99.399,154.980 99.652 C 154.106 100.111,154.106 100.109,154.846 99.276 C 155.672 98.345,155.859 98.259,155.859 98.814 M152.947 101.534 C 152.806 101.762,152.305 102.150,151.834 102.395 C 151.017 102.820,151.021 102.792,151.922 101.812 C 152.822 100.834,153.492 100.653,152.947 101.534 M150.000 103.893 C 150.000 104.100,149.604 104.477,149.121 104.731 C 148.247 105.189,148.246 105.187,148.986 104.354 C 149.813 103.423,150.000 103.338,150.000 103.893 M147.088 106.613 C 146.947 106.841,146.446 107.228,145.974 107.473 C 145.157 107.898,145.161 107.871,146.063 106.890 C 146.962 105.912,147.633 105.731,147.088 106.613 M144.141 108.971 C 144.141 109.178,143.745 109.555,143.262 109.809 C 142.388 110.267,142.387 110.265,143.127 109.432 C 143.954 108.501,144.141 108.416,144.141 108.971 M141.406 111.314 C 141.406 111.522,141.011 111.899,140.527 112.152 C 139.653 112.611,139.652 112.609,140.393 111.776 C 141.219 110.845,141.406 110.759,141.406 111.314 M138.494 114.034 C 138.353 114.262,137.852 114.650,137.381 114.895 C 136.563 115.320,136.568 115.292,137.469 114.312 C 138.369 113.334,139.039 113.153,138.494 114.034 M135.547 116.393 C 135.547 116.600,135.151 116.977,134.668 117.231 C 133.794 117.689,133.793 117.687,134.533 116.854 C 135.360 115.923,135.547 115.838,135.547 116.393 M132.635 119.113 C 132.494 119.341,131.993 119.728,131.521 119.973 C 130.704 120.398,130.708 120.371,131.610 119.390 C 132.509 118.412,133.180 118.231,132.635 119.113 M129.688 121.471 C 129.688 121.678,129.292 122.055,128.809 122.309 C 127.934 122.767,127.934 122.765,128.674 121.932 C 129.501 121.001,129.688 120.916,129.688 121.471 M126.953 123.814 C 126.953 124.022,126.558 124.399,126.074 124.652 C 125.200 125.111,125.199 125.109,125.939 124.276 C 126.766 123.345,126.953 123.259,126.953 123.814 M124.041 126.534 C 123.900 126.762,123.399 127.150,122.927 127.395 C 122.110 127.820,122.114 127.792,123.016 126.812 C 123.915 125.834,124.586 125.653,124.041 126.534 M121.094 128.893 C 121.094 129.100,120.698 129.477,120.215 129.731 C 119.341 130.189,119.340 130.187,120.080 129.354 C 120.907 128.423,121.094 128.338,121.094 128.893 M118.181 131.613 C 118.041 131.841,117.540 132.228,117.068 132.473 C 116.251 132.898,116.255 132.871,117.156 131.890 C 118.056 130.912,118.726 130.731,118.181 131.613 M115.234 133.971 C 115.234 134.178,114.839 134.555,114.355 134.809 C 113.481 135.267,113.481 135.265,114.221 134.432 C 115.047 133.501,115.234 133.416,115.234 133.971 M20.901 141.013 C 20.511 141.444,20.012 141.797,19.793 141.797 C 19.574 141.797,19.807 141.358,20.311 140.822 C 21.386 139.678,21.945 139.859,20.901 141.013 M20.711 265.830 C 21.466 266.739,20.927 266.911,20.119 266.018 C 19.729 265.587,19.592 265.234,19.814 265.234 C 20.035 265.234,20.439 265.502,20.711 265.830 M114.453 273.451 C 114.453 274.006,114.266 273.921,113.439 272.990 C 112.699 272.156,112.700 272.154,113.574 272.613 C 114.058 272.867,114.453 273.244,114.453 273.451 M117.400 275.809 C 117.945 276.691,117.275 276.509,116.375 275.531 C 115.474 274.551,115.470 274.524,116.287 274.949 C 116.758 275.194,117.259 275.581,117.400 275.809 M120.313 278.529 C 120.313 279.084,120.126 278.999,119.299 278.068 C 118.559 277.235,118.559 277.233,119.434 277.691 C 119.917 277.945,120.313 278.322,120.313 278.529 M123.260 280.887 C 123.805 281.769,123.134 281.588,122.235 280.610 C 121.333 279.629,121.329 279.602,122.146 280.027 C 122.618 280.272,123.119 280.659,123.260 280.887 M126.172 283.607 C 126.172 284.162,125.985 284.077,125.158 283.146 C 124.418 282.313,124.419 282.311,125.293 282.769 C 125.776 283.023,126.172 283.400,126.172 283.607 M128.906 285.951 C 128.906 286.506,128.719 286.421,127.893 285.490 C 127.152 284.656,127.153 284.654,128.027 285.113 C 128.511 285.367,128.906 285.744,128.906 285.951 M131.853 288.309 C 132.398 289.191,131.728 289.009,130.828 288.031 C 129.927 287.051,129.923 287.024,130.740 287.449 C 131.211 287.694,131.712 288.081,131.853 288.309 M134.766 291.029 C 134.766 291.584,134.579 291.499,133.752 290.568 C 133.012 289.735,133.013 289.733,133.887 290.191 C 134.370 290.445,134.766 290.822,134.766 291.029 M137.713 293.387 C 138.258 294.269,137.587 294.088,136.688 293.110 C 135.786 292.129,135.782 292.102,136.599 292.527 C 137.071 292.772,137.572 293.159,137.713 293.387 M140.625 296.107 C 140.625 296.662,140.438 296.577,139.611 295.646 C 138.871 294.813,138.872 294.811,139.746 295.269 C 140.229 295.523,140.625 295.900,140.625 296.107 M143.359 298.451 C 143.359 299.006,143.172 298.921,142.346 297.990 C 141.606 297.156,141.606 297.154,142.480 297.613 C 142.964 297.867,143.359 298.244,143.359 298.451 M146.306 300.809 C 146.851 301.691,146.181 301.509,145.281 300.531 C 144.380 299.551,144.376 299.524,145.193 299.949 C 145.665 300.194,146.166 300.581,146.306 300.809 M149.219 303.529 C 149.219 304.084,149.032 303.999,148.205 303.068 C 147.465 302.235,147.466 302.233,148.340 302.691 C 148.823 302.945,149.219 303.322,149.219 303.529 M152.166 305.887 C 152.711 306.769,152.040 306.588,151.141 305.610 C 150.239 304.629,150.235 304.602,151.052 305.027 C 151.524 305.272,152.025 305.659,152.166 305.887 M155.078 308.607 C 155.078 309.162,154.891 309.077,154.064 308.146 C 153.324 307.313,153.325 307.311,154.199 307.769 C 154.683 308.023,155.078 308.400,155.078 308.607 M158.025 310.966 C 158.570 311.847,157.900 311.666,157.000 310.688 C 156.099 309.708,156.095 309.680,156.912 310.105 C 157.383 310.350,157.884 310.738,158.025 310.966 M160.938 313.686 C 160.938 314.241,160.751 314.155,159.924 313.224 C 159.184 312.391,159.184 312.389,160.059 312.848 C 160.542 313.101,160.938 313.478,160.938 313.686 M163.672 316.029 C 163.672 316.584,163.485 316.499,162.658 315.568 C 161.918 314.735,161.919 314.733,162.793 315.191 C 163.276 315.445,163.672 315.822,163.672 316.029 M166.619 318.387 C 167.164 319.269,166.494 319.088,165.594 318.110 C 164.693 317.129,164.688 317.102,165.506 317.527 C 165.977 317.772,166.478 318.159,166.619 318.387 M169.531 321.107 C 169.531 321.662,169.344 321.577,168.518 320.646 C 167.777 319.813,167.778 319.811,168.652 320.269 C 169.136 320.523,169.531 320.900,169.531 321.107 M172.478 323.466 C 173.023 324.347,172.353 324.166,171.453 323.188 C 170.552 322.208,170.548 322.180,171.365 322.605 C 171.836 322.850,172.337 323.238,172.478 323.466 M175.391 326.186 C 175.391 326.741,175.204 326.655,174.377 325.724 C 173.637 324.891,173.638 324.889,174.512 325.348 C 174.995 325.601,175.391 325.978,175.391 326.186 M178.125 328.529 C 178.125 329.084,177.938 328.999,177.111 328.068 C 176.371 327.235,176.372 327.233,177.246 327.691 C 177.729 327.945,178.125 328.322,178.125 328.529 M181.072 330.887 C 181.617 331.769,180.947 331.588,180.047 330.610 C 179.146 329.629,179.142 329.602,179.959 330.027 C 180.430 330.272,180.931 330.659,181.072 330.887 M183.984 333.607 C 183.984 334.162,183.797 334.077,182.971 333.146 C 182.231 332.313,182.231 332.311,183.105 332.769 C 183.589 333.023,183.984 333.400,183.984 333.607 M186.931 335.966 C 187.476 336.847,186.806 336.666,185.906 335.688 C 185.005 334.708,185.001 334.680,185.818 335.105 C 186.290 335.350,186.791 335.738,186.931 335.966 M189.844 338.686 C 189.844 339.241,189.657 339.155,188.830 338.224 C 188.090 337.391,188.091 337.389,188.965 337.848 C 189.448 338.101,189.844 338.478,189.844 338.686 M192.578 341.029 C 192.578 341.584,192.391 341.499,191.564 340.568 C 190.824 339.735,190.825 339.733,191.699 340.191 C 192.183 340.445,192.578 340.822,192.578 341.029 M195.525 343.387 C 196.070 344.269,195.400 344.088,194.500 343.110 C 193.599 342.129,193.595 342.102,194.412 342.527 C 194.883 342.772,195.384 343.159,195.525 343.387 M198.438 346.107 C 198.438 346.662,198.251 346.577,197.424 345.646 C 196.684 344.813,196.684 344.811,197.559 345.269 C 198.042 345.523,198.438 345.900,198.438 346.107 M221.876 346.288 C 221.373 346.824,220.874 347.176,220.769 347.071 C 220.510 346.812,221.895 345.313,222.394 345.313 C 222.613 345.313,222.380 345.751,221.876 346.288 M211.230 350.670 C 210.640 350.760,209.673 350.760,209.082 350.670 C 208.491 350.581,208.975 350.508,210.156 350.508 C 211.338 350.508,211.821 350.581,211.230 350.670 " stroke="none" fill="#049c9c" fill-rule="evenodd"></path><path id="path1" d="M209.473 56.910 C 209.849 57.008,210.464 57.008,210.840 56.910 C 211.216 56.812,210.908 56.731,210.156 56.731 C 209.404 56.731,209.097 56.812,209.473 56.910 M323.447 58.829 C 315.517 60.960,310.773 69.038,312.297 77.816 C 312.961 81.640,313.752 83.091,318.958 90.039 C 370.888 159.343,370.122 254.255,317.093 320.986 C 306.318 334.545,313.648 351.356,329.867 350.283 C 336.379 349.852,339.401 347.729,346.007 338.944 C 402.204 264.212,405.724 161.146,354.781 82.047 C 340.967 60.597,334.553 55.845,323.447 58.829 M292.188 92.901 C 292.188 93.079,291.635 93.143,290.960 93.044 C 290.209 92.934,289.825 93.014,289.972 93.250 C 290.116 93.485,289.807 93.560,289.188 93.442 C 288.418 93.294,288.243 93.372,288.479 93.754 C 288.687 94.090,288.639 94.166,288.338 93.980 C 287.745 93.614,286.251 94.091,286.538 94.555 C 286.660 94.752,286.458 94.797,286.089 94.656 C 285.637 94.482,285.510 94.546,285.698 94.851 C 285.880 95.145,285.769 95.223,285.382 95.075 C 284.632 94.787,279.966 99.145,280.245 99.873 C 280.353 100.152,280.246 100.339,280.008 100.288 C 279.771 100.237,279.124 101.250,278.571 102.539 C 276.731 106.831,277.566 118.171,279.686 117.666 C 279.933 117.607,280.019 117.749,279.875 117.982 C 279.509 118.574,281.564 121.578,282.106 121.243 C 282.366 121.082,282.434 121.149,282.274 121.408 C 281.922 121.977,287.095 129.742,287.613 129.422 C 287.838 129.283,287.892 129.369,287.738 129.619 C 287.362 130.227,288.218 131.726,288.752 131.396 C 289.008 131.238,289.073 131.308,288.912 131.569 C 288.530 132.186,289.774 134.464,290.311 134.132 C 290.567 133.974,290.636 134.041,290.481 134.293 C 290.131 134.858,296.141 146.892,296.624 146.594 C 296.828 146.467,296.883 146.546,296.745 146.770 C 296.424 147.288,297.239 149.672,297.650 149.418 C 297.820 149.313,297.951 149.445,297.941 149.711 C 297.897 150.927,298.076 151.591,298.393 151.394 C 298.584 151.277,298.732 151.398,298.722 151.664 C 298.674 153.001,298.860 153.542,299.279 153.283 C 299.564 153.107,299.624 153.176,299.441 153.472 C 299.061 154.087,300.419 157.841,300.912 157.537 C 301.121 157.407,301.170 157.499,301.020 157.742 C 300.870 157.984,301.365 160.165,302.120 162.587 C 302.874 165.010,303.903 168.710,304.406 170.809 C 304.909 172.909,305.412 174.536,305.522 174.426 C 305.633 174.315,305.642 174.776,305.543 175.449 C 305.420 176.290,305.501 176.589,305.802 176.402 C 306.080 176.231,306.158 176.348,306.014 176.722 C 305.890 177.047,305.968 178.154,306.189 179.183 C 308.633 190.589,308.980 210.481,306.970 224.042 C 306.494 227.255,306.093 230.437,306.080 231.115 C 306.066 231.793,305.945 232.279,305.811 232.196 C 305.457 231.978,305.012 235.124,305.325 235.631 C 305.472 235.869,305.411 235.948,305.187 235.810 C 304.950 235.663,304.686 236.180,304.544 237.069 C 304.411 237.898,303.507 241.245,302.534 244.507 C 301.560 247.769,300.883 250.630,301.028 250.865 C 301.174 251.100,301.122 251.187,300.913 251.058 C 300.427 250.758,299.467 253.361,299.841 253.964 C 300.015 254.246,299.950 254.312,299.670 254.139 C 299.251 253.880,299.065 254.421,299.113 255.758 C 299.123 256.024,298.975 256.145,298.784 256.027 C 298.466 255.831,298.288 256.494,298.332 257.711 C 298.341 257.977,298.193 258.098,298.003 257.981 C 297.685 257.784,297.507 258.448,297.551 259.664 C 297.560 259.930,297.429 260.062,297.260 259.957 C 296.849 259.703,296.034 262.087,296.354 262.605 C 296.492 262.829,296.437 262.908,296.232 262.781 C 295.750 262.483,290.522 272.955,290.871 273.520 C 291.027 273.773,290.957 273.838,290.700 273.679 C 290.161 273.346,288.528 276.404,288.913 277.027 C 289.070 277.281,289.008 277.356,288.766 277.206 C 288.226 276.873,286.574 279.528,286.947 280.131 C 287.111 280.397,287.062 280.486,286.831 280.343 C 286.311 280.021,282.702 285.442,283.055 286.013 C 283.211 286.267,283.148 286.340,282.903 286.189 C 282.383 285.867,280.714 288.121,281.059 288.679 C 281.196 288.901,281.075 289.034,280.791 288.975 C 280.506 288.915,280.297 289.168,280.325 289.535 C 280.354 289.903,280.197 290.167,279.976 290.121 C 279.756 290.076,279.124 291.094,278.571 292.383 C 276.754 296.620,277.559 307.999,279.642 307.524 C 279.867 307.473,279.952 307.686,279.833 307.998 C 279.546 308.743,283.545 312.993,284.271 312.714 C 284.569 312.600,284.698 312.684,284.562 312.904 C 284.252 313.406,287.746 314.979,288.346 314.608 C 288.639 314.427,288.685 314.507,288.479 314.840 C 288.242 315.223,288.420 315.299,289.200 315.150 C 289.769 315.041,290.234 315.074,290.234 315.223 C 290.234 315.373,291.816 315.495,293.750 315.495 C 295.684 315.495,297.266 315.373,297.266 315.223 C 297.266 315.074,297.731 315.041,298.300 315.150 C 298.965 315.277,299.244 315.201,299.081 314.937 C 298.920 314.676,299.135 314.607,299.670 314.746 C 300.298 314.911,300.432 314.836,300.196 314.454 C 299.995 314.129,300.032 314.036,300.297 314.200 C 300.878 314.559,302.836 313.762,302.542 313.286 C 302.407 313.067,302.557 312.997,302.890 313.125 C 303.656 313.419,307.531 309.832,307.247 309.091 C 307.133 308.795,307.203 308.654,307.402 308.777 C 307.904 309.087,310.262 305.566,309.922 305.014 C 309.754 304.743,309.817 304.673,310.082 304.837 C 310.663 305.196,313.459 300.994,313.064 300.355 C 312.885 300.065,312.933 299.980,313.188 300.137 C 313.727 300.471,315.379 297.815,315.006 297.212 C 314.834 296.933,314.892 296.859,315.154 297.021 C 315.689 297.351,316.544 295.852,316.169 295.244 C 316.005 294.980,316.069 294.909,316.326 295.068 C 316.860 295.398,317.716 293.899,317.341 293.291 C 317.176 293.025,317.241 292.956,317.501 293.116 C 318.038 293.448,319.282 291.170,318.901 290.553 C 318.738 290.290,318.805 290.222,319.066 290.384 C 319.607 290.718,321.630 286.879,321.243 286.253 C 321.078 285.987,321.150 285.926,321.427 286.098 C 321.965 286.430,324.728 280.951,324.423 280.157 C 324.316 279.876,324.381 279.742,324.568 279.857 C 325.027 280.141,326.666 276.265,326.323 275.709 C 326.166 275.456,326.226 275.378,326.464 275.525 C 326.951 275.826,327.844 273.541,327.474 272.942 C 327.336 272.718,327.409 272.650,327.636 272.791 C 328.123 273.092,329.016 270.806,328.646 270.207 C 328.508 269.984,328.566 269.907,328.775 270.036 C 329.260 270.336,330.220 267.733,329.847 267.129 C 329.682 266.862,329.737 266.781,329.981 266.932 C 330.800 267.439,337.483 245.286,336.939 243.868 C 336.823 243.566,336.880 243.413,337.065 243.527 C 337.484 243.786,338.006 240.737,337.643 240.150 C 337.498 239.915,337.553 239.830,337.765 239.962 C 338.000 240.107,338.567 237.637,339.208 233.674 C 342.598 212.734,342.543 195.527,339.016 173.358 C 338.753 171.703,338.424 170.420,338.285 170.506 C 338.146 170.592,338.112 170.119,338.209 169.455 C 338.313 168.747,338.232 168.344,338.014 168.479 C 337.795 168.614,337.715 168.210,337.818 167.502 C 337.940 166.675,337.858 166.381,337.557 166.566 C 337.287 166.733,337.199 166.627,337.329 166.289 C 337.898 164.806,330.830 141.137,329.976 141.665 C 329.737 141.813,329.683 141.729,329.847 141.464 C 330.171 140.940,329.291 138.238,328.879 138.493 C 328.728 138.587,328.612 138.446,328.621 138.179 C 328.669 136.843,328.483 136.302,328.065 136.561 C 327.803 136.722,327.719 136.669,327.865 136.433 C 328.235 135.834,327.341 133.549,326.855 133.850 C 326.621 133.994,326.556 133.920,326.705 133.680 C 327.046 133.127,325.805 130.017,325.354 130.296 C 325.164 130.413,325.100 130.273,325.211 129.983 C 325.519 129.181,321.186 120.600,320.643 120.936 C 320.368 121.105,320.298 121.043,320.462 120.777 C 320.847 120.154,319.214 117.096,318.675 117.429 C 318.414 117.591,318.348 117.522,318.510 117.259 C 318.892 116.642,317.648 114.364,317.111 114.696 C 316.850 114.857,316.786 114.787,316.950 114.522 C 317.326 113.914,316.470 112.415,315.936 112.745 C 315.673 112.907,315.615 112.832,315.787 112.553 C 316.160 111.950,314.509 109.295,313.969 109.628 C 313.713 109.786,313.666 109.700,313.847 109.407 C 314.249 108.758,309.111 101.047,308.521 101.412 C 308.248 101.581,308.192 101.507,308.372 101.215 C 308.709 100.670,307.886 99.518,307.382 99.829 C 307.194 99.945,307.133 99.798,307.247 99.502 C 307.531 98.762,303.656 95.175,302.890 95.469 C 302.551 95.599,302.406 95.528,302.547 95.300 C 302.851 94.808,300.125 93.627,299.532 93.993 C 299.252 94.166,299.209 94.081,299.412 93.754 C 299.648 93.371,299.471 93.295,298.691 93.444 C 298.122 93.553,297.656 93.470,297.656 93.261 C 297.656 93.051,297.129 92.957,296.484 93.052 C 295.840 93.147,295.313 93.079,295.313 92.901 C 295.313 92.723,294.609 92.578,293.750 92.578 C 292.891 92.578,292.188 92.723,292.188 92.901 M254.297 130.890 C 254.297 131.159,253.855 131.215,253.076 131.044 C 252.204 130.852,251.935 130.904,252.132 131.224 C 252.328 131.541,252.097 131.594,251.342 131.404 C 250.516 131.197,250.346 131.252,250.592 131.650 C 250.822 132.022,250.730 132.095,250.259 131.915 C 249.495 131.621,248.357 131.976,248.633 132.422 C 248.738 132.592,248.552 132.835,248.220 132.962 C 247.848 133.105,247.715 133.033,247.874 132.776 C 248.016 132.546,247.630 132.622,247.016 132.945 C 245.402 133.794,242.045 137.344,242.366 137.863 C 242.516 138.106,242.425 138.253,242.161 138.193 C 240.976 137.926,239.678 142.574,239.682 147.070 C 239.686 151.501,240.718 155.789,241.728 155.571 C 241.979 155.517,242.056 155.747,241.912 156.123 C 241.758 156.525,241.820 156.672,242.077 156.514 C 242.312 156.368,242.467 156.551,242.436 156.938 C 242.407 157.311,242.582 157.580,242.825 157.535 C 243.068 157.490,243.244 157.753,243.216 158.121 C 243.187 158.488,243.377 158.747,243.638 158.696 C 243.931 158.639,244.018 158.851,243.865 159.248 C 243.711 159.650,243.773 159.797,244.030 159.639 C 244.265 159.493,244.420 159.676,244.389 160.063 C 244.360 160.436,244.549 160.700,244.810 160.649 C 245.103 160.592,245.189 160.804,245.037 161.202 C 244.857 161.669,244.932 161.759,245.306 161.527 C 245.641 161.321,245.730 161.359,245.559 161.635 C 245.209 162.202,248.872 169.550,249.355 169.252 C 249.561 169.124,249.617 169.203,249.479 169.426 C 249.109 170.025,250.002 172.310,250.489 172.009 C 250.732 171.859,250.787 171.941,250.622 172.208 C 250.249 172.811,251.209 175.414,251.694 175.114 C 251.903 174.985,251.955 175.072,251.810 175.307 C 251.664 175.542,252.165 177.776,252.921 180.273 C 253.678 182.769,254.297 185.163,254.297 185.593 C 254.297 186.023,254.429 186.293,254.590 186.193 C 254.751 186.094,254.896 186.567,254.913 187.244 C 254.930 187.922,255.256 190.674,255.638 193.359 C 256.516 199.532,256.319 212.655,255.267 218.164 C 254.898 220.098,254.572 222.234,254.544 222.910 C 254.515 223.587,254.380 224.072,254.242 223.988 C 254.104 223.904,253.869 224.488,253.720 225.287 C 253.570 226.086,253.014 228.109,252.486 229.782 C 251.957 231.456,251.648 233.025,251.799 233.270 C 251.968 233.543,251.900 233.607,251.623 233.436 C 251.204 233.177,251.018 233.718,251.066 235.054 C 251.076 235.321,250.928 235.442,250.737 235.324 C 250.419 235.128,250.241 235.791,250.285 237.008 C 250.295 237.274,250.164 237.406,249.994 237.301 C 249.583 237.047,248.768 239.430,249.088 239.949 C 249.227 240.172,249.170 240.250,248.963 240.122 C 248.479 239.823,245.600 245.610,245.950 246.178 C 246.121 246.454,246.031 246.492,245.697 246.285 C 245.318 246.051,245.249 246.145,245.437 246.636 C 245.582 247.015,245.535 247.208,245.328 247.080 C 244.866 246.794,244.020 248.317,244.347 248.846 C 244.480 249.062,244.357 249.190,244.072 249.131 C 243.786 249.071,243.579 249.327,243.608 249.703 C 243.639 250.089,243.484 250.272,243.249 250.127 C 242.992 249.968,242.930 250.116,243.084 250.517 C 243.236 250.915,243.149 251.127,242.857 251.070 C 242.596 251.018,242.407 251.282,242.436 251.656 C 242.467 252.042,242.312 252.225,242.077 252.080 C 241.820 251.921,241.758 252.069,241.912 252.470 C 242.051 252.832,241.980 253.075,241.752 253.023 C 241.528 252.972,240.970 253.809,240.513 254.883 C 238.858 258.775,239.806 270.077,241.752 269.634 C 241.976 269.582,242.062 269.793,241.944 270.102 C 241.470 271.338,248.096 277.061,249.207 276.374 C 249.428 276.238,249.609 276.331,249.609 276.581 C 249.609 276.832,249.881 276.932,250.216 276.804 C 250.606 276.654,250.724 276.729,250.548 277.015 C 250.357 277.324,250.586 277.379,251.309 277.198 C 251.958 277.035,252.344 277.098,252.344 277.367 C 252.344 277.641,252.769 277.703,253.516 277.539 C 254.253 277.377,254.688 277.438,254.688 277.703 C 254.688 277.935,255.303 278.125,256.055 278.125 C 256.807 278.125,257.422 277.935,257.422 277.703 C 257.422 277.434,257.864 277.379,258.643 277.550 C 259.515 277.741,259.784 277.690,259.586 277.370 C 259.390 277.053,259.621 277.000,260.377 277.190 C 261.179 277.391,261.369 277.336,261.142 276.968 C 260.918 276.606,261.068 276.551,261.719 276.758 C 262.357 276.960,262.518 276.907,262.305 276.563 C 262.099 276.229,262.235 276.159,262.765 276.327 C 263.195 276.464,263.844 276.302,264.278 275.949 C 264.697 275.610,264.792 275.461,264.490 275.617 C 264.139 275.800,264.038 275.746,264.210 275.468 C 264.357 275.229,264.727 275.130,265.032 275.247 C 265.354 275.370,266.411 274.687,267.558 273.614 C 269.384 271.906,270.187 270.670,269.043 271.329 C 268.759 271.492,268.691 271.461,268.880 271.254 C 269.059 271.058,269.411 270.894,269.661 270.889 C 269.912 270.884,270.094 270.583,270.065 270.221 C 270.037 269.858,270.213 269.599,270.456 269.644 C 270.699 269.690,270.874 269.421,270.845 269.047 C 270.814 268.661,270.969 268.478,271.204 268.623 C 271.461 268.782,271.523 268.634,271.370 268.233 C 271.217 267.835,271.304 267.623,271.596 267.680 C 271.857 267.732,272.046 267.468,272.017 267.094 C 271.986 266.708,272.141 266.525,272.376 266.670 C 272.633 266.829,272.695 266.681,272.541 266.280 C 272.389 265.882,272.476 265.670,272.768 265.727 C 273.029 265.778,273.218 265.515,273.189 265.141 C 273.158 264.755,273.313 264.572,273.548 264.717 C 273.808 264.877,273.866 264.723,273.704 264.302 C 273.551 263.905,273.603 263.728,273.831 263.869 C 274.317 264.169,279.787 253.166,279.510 252.445 C 279.398 252.152,279.480 252.020,279.692 252.151 C 280.044 252.369,280.229 251.746,280.184 250.492 C 280.174 250.226,280.322 250.105,280.513 250.223 C 280.831 250.419,281.009 249.756,280.965 248.539 C 280.955 248.273,281.084 248.140,281.251 248.243 C 281.878 248.630,286.576 233.240,286.161 232.158 C 286.043 231.851,286.098 231.694,286.284 231.809 C 286.703 232.067,287.225 229.018,286.862 228.432 C 286.717 228.197,286.768 228.110,286.977 228.238 C 287.372 228.483,288.322 223.135,289.113 216.211 C 289.688 211.179,289.688 197.415,289.113 192.383 C 288.434 186.435,287.385 180.103,287.108 180.274 C 286.972 180.359,286.940 179.884,287.037 179.221 C 287.159 178.393,287.076 178.099,286.776 178.285 C 286.501 178.455,286.419 178.342,286.557 177.983 C 286.997 176.838,282.964 163.141,282.307 163.547 C 282.076 163.690,282.031 163.598,282.199 163.325 C 282.580 162.710,281.222 158.956,280.729 159.260 C 280.520 159.390,280.461 159.313,280.599 159.090 C 280.969 158.491,280.076 156.205,279.589 156.506 C 279.351 156.653,279.291 156.576,279.448 156.322 C 279.823 155.715,278.134 151.902,277.628 152.214 C 277.395 152.358,277.340 152.275,277.499 152.018 C 277.870 151.418,276.296 147.924,275.795 148.234 C 275.555 148.382,275.501 148.214,275.657 147.808 C 275.845 147.317,275.775 147.223,275.397 147.457 C 275.057 147.667,274.973 147.626,275.151 147.337 C 275.501 146.770,274.303 144.433,273.816 144.734 C 273.606 144.864,273.557 144.674,273.704 144.292 C 273.892 143.801,273.822 143.707,273.444 143.942 C 273.103 144.152,273.020 144.110,273.200 143.818 C 273.549 143.253,272.738 141.700,272.251 142.002 C 272.043 142.129,271.996 141.936,272.141 141.558 C 272.303 141.136,272.245 140.982,271.985 141.143 C 271.751 141.288,271.596 141.105,271.626 140.718 C 271.656 140.345,271.481 140.076,271.237 140.121 C 270.994 140.167,270.818 139.903,270.847 139.535 C 270.875 139.168,270.685 138.909,270.424 138.960 C 270.157 139.013,270.044 138.808,270.165 138.492 C 270.640 137.256,264.013 131.533,262.902 132.219 C 262.681 132.356,262.500 132.263,262.500 132.013 C 262.500 131.761,262.228 131.661,261.894 131.790 C 261.504 131.939,261.385 131.864,261.561 131.579 C 261.754 131.268,261.517 131.216,260.768 131.404 C 260.012 131.594,259.781 131.541,259.977 131.224 C 260.175 130.904,259.905 130.852,259.033 131.044 C 258.254 131.215,257.813 131.159,257.813 130.890 C 257.813 130.651,257.052 130.469,256.055 130.469 C 255.057 130.469,254.297 130.651,254.297 130.890 M246.094 134.100 C 246.094 134.164,245.347 134.911,244.434 135.761 L 242.773 137.305 244.318 135.645 C 245.754 134.101,246.094 133.805,246.094 134.100 M267.578 135.352 C 268.307 136.104,268.815 136.719,268.708 136.719 C 268.601 136.719,267.916 136.104,267.188 135.352 C 266.459 134.600,265.950 133.984,266.058 133.984 C 266.165 133.984,266.849 134.600,267.578 135.352 M244.922 273.242 C 245.651 273.994,246.159 274.609,246.052 274.609 C 245.944 274.609,245.260 273.994,244.531 273.242 C 243.802 272.490,243.294 271.875,243.401 271.875 C 243.509 271.875,244.193 272.490,244.922 273.242 " stroke="none" fill="#043e3c" fill-rule="evenodd"></path><path id="path2" d="M220.230 60.742 C 220.634 61.529,222.045 62.930,222.949 63.442 C 223.818 63.933,223.474 63.479,221.633 61.702 C 220.640 60.745,220.009 60.313,220.230 60.742 M195.483 64.113 C 194.527 65.132,194.481 65.261,195.206 64.885 C 195.684 64.638,196.262 64.088,196.489 63.663 C 197.067 62.583,196.812 62.697,195.483 64.113 M192.549 66.655 C 191.677 67.602,191.668 67.649,192.435 67.251 C 192.893 67.013,193.371 66.550,193.496 66.222 C 193.816 65.389,193.638 65.470,192.549 66.655 M189.814 68.998 C 188.943 69.945,188.934 69.993,189.700 69.595 C 190.158 69.357,190.636 68.894,190.762 68.566 C 191.082 67.733,190.903 67.814,189.814 68.998 M186.889 71.535 C 185.933 72.554,185.887 72.683,186.612 72.307 C 187.091 72.060,187.668 71.510,187.895 71.085 C 188.473 70.005,188.219 70.119,186.889 71.535 M183.955 74.076 C 183.084 75.024,183.075 75.071,183.841 74.673 C 184.299 74.435,184.777 73.972,184.903 73.644 C 185.222 72.811,185.044 72.892,183.955 74.076 M181.030 76.613 C 180.074 77.632,180.028 77.761,180.753 77.385 C 181.231 77.138,181.809 76.588,182.036 76.163 C 182.614 75.083,182.359 75.197,181.030 76.613 M178.095 79.155 C 177.224 80.102,177.215 80.149,177.981 79.751 C 178.440 79.513,178.917 79.050,179.043 78.722 C 179.363 77.889,179.185 77.970,178.095 79.155 M175.361 81.498 C 174.490 82.445,174.481 82.493,175.247 82.095 C 175.705 81.857,176.183 81.394,176.309 81.066 C 176.629 80.233,176.450 80.314,175.361 81.498 M172.436 84.035 C 171.480 85.054,171.434 85.183,172.159 84.807 C 172.637 84.560,173.215 84.010,173.442 83.585 C 174.020 82.505,173.765 82.619,172.436 84.035 M169.502 86.576 C 168.631 87.524,168.621 87.571,169.388 87.173 C 169.846 86.935,170.324 86.472,170.450 86.144 C 170.769 85.311,170.591 85.392,169.502 86.576 M166.577 89.113 C 165.621 90.132,165.574 90.261,166.300 89.885 C 166.778 89.638,167.356 89.088,167.583 88.663 C 168.161 87.583,167.906 87.697,166.577 89.113 M163.642 91.655 C 162.771 92.602,162.762 92.649,163.528 92.251 C 163.986 92.013,164.464 91.550,164.590 91.222 C 164.910 90.389,164.732 90.470,163.642 91.655 M160.908 93.998 C 160.037 94.945,160.028 94.993,160.794 94.595 C 161.252 94.357,161.730 93.894,161.856 93.566 C 162.175 92.733,161.997 92.814,160.908 93.998 M157.983 96.535 C 157.027 97.554,156.981 97.683,157.706 97.307 C 158.184 97.060,158.762 96.510,158.989 96.085 C 159.567 95.005,159.312 95.119,157.983 96.535 M155.049 99.076 C 154.177 100.024,154.168 100.071,154.935 99.673 C 155.393 99.435,155.871 98.972,155.996 98.644 C 156.316 97.811,156.138 97.892,155.049 99.076 M152.124 101.613 C 151.167 102.632,151.121 102.761,151.847 102.385 C 152.325 102.138,152.902 101.588,153.130 101.163 C 153.708 100.083,153.453 100.197,152.124 101.613 M149.189 104.155 C 148.318 105.102,148.309 105.149,149.075 104.751 C 149.533 104.513,150.011 104.050,150.137 103.722 C 150.457 102.889,150.278 102.970,149.189 104.155 M146.264 106.691 C 145.308 107.710,145.262 107.839,145.987 107.464 C 146.466 107.216,147.043 106.666,147.270 106.241 C 147.848 105.161,147.594 105.275,146.264 106.691 M143.330 109.233 C 142.459 110.180,142.450 110.228,143.216 109.829 C 143.674 109.591,144.152 109.128,144.278 108.800 C 144.597 107.967,144.419 108.048,143.330 109.233 M140.595 111.576 C 139.724 112.524,139.715 112.571,140.481 112.173 C 140.940 111.935,141.417 111.472,141.543 111.144 C 141.863 110.311,141.685 110.392,140.595 111.576 M137.671 114.113 C 136.714 115.132,136.668 115.261,137.393 114.885 C 137.872 114.638,138.449 114.088,138.677 113.663 C 139.255 112.583,139.000 112.697,137.671 114.113 M134.736 116.655 C 133.865 117.602,133.856 117.649,134.622 117.251 C 135.080 117.013,135.558 116.550,135.684 116.222 C 136.004 115.389,135.825 115.470,134.736 116.655 M131.811 119.191 C 130.855 120.210,130.809 120.339,131.534 119.964 C 132.012 119.716,132.590 119.166,132.817 118.741 C 133.395 117.661,133.140 117.775,131.811 119.191 M128.877 121.733 C 128.006 122.680,127.996 122.728,128.763 122.329 C 129.221 122.091,129.699 121.628,129.825 121.300 C 130.144 120.467,129.966 120.548,128.877 121.733 M126.142 124.076 C 125.271 125.024,125.262 125.071,126.028 124.673 C 126.486 124.435,126.964 123.972,127.090 123.644 C 127.410 122.811,127.232 122.892,126.142 124.076 M123.218 126.613 C 122.261 127.632,122.215 127.761,122.940 127.385 C 123.419 127.138,123.996 126.588,124.224 126.163 C 124.802 125.083,124.547 125.197,123.218 126.613 M120.283 129.155 C 119.412 130.102,119.403 130.149,120.169 129.751 C 120.627 129.513,121.105 129.050,121.231 128.722 C 121.550 127.889,121.372 127.970,120.283 129.155 M117.358 131.691 C 116.402 132.710,116.356 132.839,117.081 132.464 C 117.559 132.216,118.137 131.666,118.364 131.241 C 118.942 130.161,118.687 130.275,117.358 131.691 M114.424 134.233 C 113.552 135.180,113.543 135.228,114.310 134.829 C 114.768 134.591,115.246 134.128,115.371 133.800 C 115.691 132.967,115.513 133.048,114.424 134.233 M244.318 135.645 L 242.773 137.305 244.434 135.761 C 245.978 134.325,246.273 133.984,245.978 133.984 C 245.914 133.984,245.167 134.731,244.318 135.645 M267.188 135.352 C 267.916 136.104,268.601 136.719,268.708 136.719 C 268.815 136.719,268.307 136.104,267.578 135.352 C 266.849 134.600,266.165 133.984,266.058 133.984 C 265.950 133.984,266.459 134.600,267.188 135.352 M20.291 140.895 C 19.264 141.996,19.170 142.198,19.893 141.746 C 20.747 141.212,22.213 139.453,21.804 139.453 C 21.712 139.453,21.032 140.102,20.291 140.895 M19.141 264.952 C 19.141 265.027,19.691 265.604,20.363 266.236 C 21.382 267.192,21.511 267.238,21.135 266.513 C 20.759 265.785,19.141 264.519,19.141 264.952 M244.531 273.242 C 245.260 273.994,245.944 274.609,246.052 274.609 C 246.159 274.609,245.651 273.994,244.922 273.242 C 244.193 272.490,243.509 271.875,243.401 271.875 C 243.294 271.875,243.802 272.490,244.531 273.242 M113.652 273.220 C 114.766 274.407,115.014 274.486,114.478 273.483 C 114.261 273.079,113.776 272.630,113.399 272.485 C 112.888 272.289,112.953 272.477,113.652 273.220 M115.625 274.718 C 115.625 274.793,116.175 275.370,116.848 276.001 C 117.867 276.958,117.995 277.004,117.620 276.278 C 117.243 275.550,115.625 274.285,115.625 274.718 M119.511 278.299 C 120.625 279.485,120.873 279.564,120.337 278.562 C 120.121 278.157,119.635 277.708,119.258 277.563 C 118.748 277.367,118.812 277.555,119.511 278.299 M121.484 279.796 C 121.484 279.871,122.035 280.448,122.707 281.079 C 123.726 282.036,123.854 282.082,123.479 281.357 C 123.102 280.628,121.484 279.363,121.484 279.796 M125.370 283.377 C 126.485 284.563,126.733 284.642,126.196 283.640 C 125.980 283.235,125.495 282.786,125.118 282.641 C 124.607 282.445,124.671 282.633,125.370 283.377 M128.105 285.720 C 129.219 286.907,129.467 286.986,128.931 285.983 C 128.714 285.579,128.229 285.130,127.852 284.985 C 127.341 284.789,127.406 284.977,128.105 285.720 M130.078 287.218 C 130.078 287.293,130.628 287.870,131.301 288.501 C 132.320 289.458,132.448 289.504,132.073 288.778 C 131.696 288.050,130.078 286.785,130.078 287.218 M133.964 290.799 C 135.078 291.985,135.327 292.064,134.790 291.062 C 134.574 290.657,134.088 290.208,133.711 290.063 C 133.201 289.867,133.265 290.055,133.964 290.799 M135.938 292.296 C 135.938 292.371,136.488 292.948,137.160 293.579 C 138.179 294.536,138.308 294.582,137.932 293.857 C 137.555 293.128,135.938 291.863,135.938 292.296 M139.823 295.877 C 140.938 297.063,141.186 297.142,140.650 296.140 C 140.433 295.735,139.948 295.286,139.571 295.141 C 139.060 294.945,139.124 295.133,139.823 295.877 M142.558 298.220 C 143.672 299.407,143.920 299.486,143.384 298.483 C 143.168 298.079,142.682 297.630,142.305 297.485 C 141.794 297.289,141.859 297.477,142.558 298.220 M144.531 299.718 C 144.531 299.793,145.081 300.370,145.754 301.001 C 146.773 301.958,146.901 302.004,146.526 301.278 C 146.149 300.550,144.531 299.285,144.531 299.718 M148.417 303.299 C 149.531 304.485,149.780 304.564,149.243 303.562 C 149.027 303.157,148.541 302.708,148.165 302.563 C 147.654 302.367,147.718 302.555,148.417 303.299 M150.391 304.796 C 150.391 304.871,150.941 305.448,151.613 306.079 C 152.632 307.036,152.761 307.082,152.385 306.357 C 152.009 305.628,150.391 304.363,150.391 304.796 M154.277 308.377 C 155.391 309.563,155.639 309.642,155.103 308.640 C 154.886 308.235,154.401 307.786,154.024 307.641 C 153.513 307.445,153.578 307.633,154.277 308.377 M156.250 309.874 C 156.250 309.949,156.800 310.526,157.473 311.157 C 158.492 312.114,158.620 312.160,158.245 311.435 C 157.868 310.707,156.250 309.441,156.250 309.874 M160.136 313.455 C 161.250 314.641,161.498 314.720,160.962 313.718 C 160.746 313.313,160.260 312.864,159.883 312.720 C 159.373 312.524,159.437 312.711,160.136 313.455 M162.870 315.799 C 163.985 316.985,164.233 317.064,163.696 316.062 C 163.480 315.657,162.995 315.208,162.618 315.063 C 162.107 314.867,162.171 315.055,162.870 315.799 M293.066 315.504 C 293.442 315.602,294.058 315.602,294.434 315.504 C 294.810 315.405,294.502 315.325,293.750 315.325 C 292.998 315.325,292.690 315.405,293.066 315.504 M164.844 317.296 C 164.844 317.371,165.394 317.948,166.066 318.579 C 167.085 319.536,167.214 319.582,166.839 318.857 C 166.462 318.128,164.844 316.863,164.844 317.296 M168.730 320.877 C 169.844 322.063,170.092 322.142,169.556 321.140 C 169.339 320.735,168.854 320.286,168.477 320.141 C 167.966 319.945,168.031 320.133,168.730 320.877 M170.703 322.374 C 170.703 322.449,171.253 323.026,171.926 323.657 C 172.945 324.614,173.073 324.660,172.698 323.935 C 172.321 323.207,170.703 321.941,170.703 322.374 M174.589 325.955 C 175.703 327.141,175.952 327.220,175.415 326.218 C 175.199 325.813,174.713 325.364,174.336 325.220 C 173.826 325.024,173.890 325.211,174.589 325.955 M177.323 328.299 C 178.438 329.485,178.686 329.564,178.150 328.562 C 177.933 328.157,177.448 327.708,177.071 327.563 C 176.560 327.367,176.624 327.555,177.323 328.299 M179.297 329.796 C 179.297 329.871,179.847 330.448,180.519 331.079 C 181.538 332.036,181.667 332.082,181.292 331.357 C 180.915 330.628,179.297 329.363,179.297 329.796 M183.183 333.377 C 184.297 334.563,184.545 334.642,184.009 333.640 C 183.793 333.235,183.307 332.786,182.930 332.641 C 182.419 332.445,182.484 332.633,183.183 333.377 M185.156 334.874 C 185.156 334.949,185.706 335.526,186.379 336.157 C 187.398 337.114,187.526 337.160,187.151 336.435 C 186.774 335.707,185.156 334.441,185.156 334.874 M189.042 338.455 C 190.156 339.641,190.405 339.720,189.868 338.718 C 189.652 338.313,189.166 337.864,188.790 337.720 C 188.279 337.524,188.343 337.711,189.042 338.455 M191.777 340.799 C 192.891 341.985,193.139 342.064,192.603 341.062 C 192.386 340.657,191.901 340.208,191.524 340.063 C 191.013 339.867,191.078 340.055,191.777 340.799 M193.750 342.296 C 193.750 342.371,194.300 342.948,194.973 343.579 C 195.992 344.536,196.120 344.582,195.745 343.857 C 195.368 343.128,193.750 341.863,193.750 342.296 M197.636 345.877 C 198.750 347.063,198.998 347.142,198.462 346.140 C 198.246 345.735,197.760 345.286,197.383 345.141 C 196.873 344.945,196.937 345.133,197.636 345.877 M221.965 345.528 C 221.489 345.861,220.901 346.520,220.657 346.993 C 220.338 347.611,220.611 347.475,221.631 346.505 C 222.940 345.260,223.220 344.922,222.938 344.922 C 222.879 344.922,222.441 345.195,221.965 345.528 M209.082 350.670 C 209.673 350.760,210.640 350.760,211.230 350.670 C 211.821 350.581,211.338 350.508,210.156 350.508 C 208.975 350.508,208.491 350.581,209.082 350.670 " stroke="none" fill="#0480a0" fill-rule="evenodd"></path><path id="path3" d="M220.230 60.742 C 220.634 61.529,222.045 62.930,222.949 63.442 C 223.818 63.933,223.474 63.479,221.633 61.702 C 220.640 60.745,220.009 60.313,220.230 60.742 M195.483 64.113 C 194.527 65.132,194.481 65.261,195.206 64.885 C 195.684 64.638,196.262 64.088,196.489 63.663 C 197.067 62.583,196.812 62.697,195.483 64.113 M192.549 66.655 C 191.677 67.602,191.668 67.649,192.435 67.251 C 192.893 67.013,193.371 66.550,193.496 66.222 C 193.816 65.389,193.638 65.470,192.549 66.655 M189.814 68.998 C 188.943 69.945,188.934 69.993,189.700 69.595 C 190.158 69.357,190.636 68.894,190.762 68.566 C 191.082 67.733,190.903 67.814,189.814 68.998 M186.889 71.535 C 185.933 72.554,185.887 72.683,186.612 72.307 C 187.091 72.060,187.668 71.510,187.895 71.085 C 188.473 70.005,188.219 70.119,186.889 71.535 M183.955 74.076 C 183.084 75.024,183.075 75.071,183.841 74.673 C 184.299 74.435,184.777 73.972,184.903 73.644 C 185.222 72.811,185.044 72.892,183.955 74.076 M181.030 76.613 C 180.074 77.632,180.028 77.761,180.753 77.385 C 181.231 77.138,181.809 76.588,182.036 76.163 C 182.614 75.083,182.359 75.197,181.030 76.613 M178.095 79.155 C 177.224 80.102,177.215 80.149,177.981 79.751 C 178.440 79.513,178.917 79.050,179.043 78.722 C 179.363 77.889,179.185 77.970,178.095 79.155 M175.361 81.498 C 174.490 82.445,174.481 82.493,175.247 82.095 C 175.705 81.857,176.183 81.394,176.309 81.066 C 176.629 80.233,176.450 80.314,175.361 81.498 M172.436 84.035 C 171.480 85.054,171.434 85.183,172.159 84.807 C 172.637 84.560,173.215 84.010,173.442 83.585 C 174.020 82.505,173.765 82.619,172.436 84.035 M169.502 86.576 C 168.631 87.524,168.621 87.571,169.388 87.173 C 169.846 86.935,170.324 86.472,170.450 86.144 C 170.769 85.311,170.591 85.392,169.502 86.576 M166.577 89.113 C 165.621 90.132,165.574 90.261,166.300 89.885 C 166.778 89.638,167.356 89.088,167.583 88.663 C 168.161 87.583,167.906 87.697,166.577 89.113 M163.642 91.655 C 162.771 92.602,162.762 92.649,163.528 92.251 C 163.986 92.013,164.464 91.550,164.590 91.222 C 164.910 90.389,164.732 90.470,163.642 91.655 M160.908 93.998 C 160.037 94.945,160.028 94.993,160.794 94.595 C 161.252 94.357,161.730 93.894,161.856 93.566 C 162.175 92.733,161.997 92.814,160.908 93.998 M157.983 96.535 C 157.027 97.554,156.981 97.683,157.706 97.307 C 158.184 97.060,158.762 96.510,158.989 96.085 C 159.567 95.005,159.312 95.119,157.983 96.535 M155.049 99.076 C 154.177 100.024,154.168 100.071,154.935 99.673 C 155.393 99.435,155.871 98.972,155.996 98.644 C 156.316 97.811,156.138 97.892,155.049 99.076 M152.124 101.613 C 151.167 102.632,151.121 102.761,151.847 102.385 C 152.325 102.138,152.902 101.588,153.130 101.163 C 153.708 100.083,153.453 100.197,152.124 101.613 M149.189 104.155 C 148.318 105.102,148.309 105.149,149.075 104.751 C 149.533 104.513,150.011 104.050,150.137 103.722 C 150.457 102.889,150.278 102.970,149.189 104.155 M146.264 106.691 C 145.308 107.710,145.262 107.839,145.987 107.464 C 146.466 107.216,147.043 106.666,147.270 106.241 C 147.848 105.161,147.594 105.275,146.264 106.691 M143.330 109.233 C 142.459 110.180,142.450 110.228,143.216 109.829 C 143.674 109.591,144.152 109.128,144.278 108.800 C 144.597 107.967,144.419 108.048,143.330 109.233 M140.595 111.576 C 139.724 112.524,139.715 112.571,140.481 112.173 C 140.940 111.935,141.417 111.472,141.543 111.144 C 141.863 110.311,141.685 110.392,140.595 111.576 M137.671 114.113 C 136.714 115.132,136.668 115.261,137.393 114.885 C 137.872 114.638,138.449 114.088,138.677 113.663 C 139.255 112.583,139.000 112.697,137.671 114.113 M134.736 116.655 C 133.865 117.602,133.856 117.649,134.622 117.251 C 135.080 117.013,135.558 116.550,135.684 116.222 C 136.004 115.389,135.825 115.470,134.736 116.655 M131.811 119.191 C 130.855 120.210,130.809 120.339,131.534 119.964 C 132.012 119.716,132.590 119.166,132.817 118.741 C 133.395 117.661,133.140 117.775,131.811 119.191 M128.877 121.733 C 128.006 122.680,127.996 122.728,128.763 122.329 C 129.221 122.091,129.699 121.628,129.825 121.300 C 130.144 120.467,129.966 120.548,128.877 121.733 M126.142 124.076 C 125.271 125.024,125.262 125.071,126.028 124.673 C 126.486 124.435,126.964 123.972,127.090 123.644 C 127.410 122.811,127.232 122.892,126.142 124.076 M123.218 126.613 C 122.261 127.632,122.215 127.761,122.940 127.385 C 123.419 127.138,123.996 126.588,124.224 126.163 C 124.802 125.083,124.547 125.197,123.218 126.613 M120.283 129.155 C 119.412 130.102,119.403 130.149,120.169 129.751 C 120.627 129.513,121.105 129.050,121.231 128.722 C 121.550 127.889,121.372 127.970,120.283 129.155 M117.358 131.691 C 116.402 132.710,116.356 132.839,117.081 132.464 C 117.559 132.216,118.137 131.666,118.364 131.241 C 118.942 130.161,118.687 130.275,117.358 131.691 M114.424 134.233 C 113.552 135.180,113.543 135.228,114.310 134.829 C 114.768 134.591,115.246 134.128,115.371 133.800 C 115.691 132.967,115.513 133.048,114.424 134.233 M244.318 135.645 L 242.773 137.305 244.434 135.761 C 245.978 134.325,246.273 133.984,245.978 133.984 C 245.914 133.984,245.167 134.731,244.318 135.645 M267.188 135.352 C 267.916 136.104,268.601 136.719,268.708 136.719 C 268.815 136.719,268.307 136.104,267.578 135.352 C 266.849 134.600,266.165 133.984,266.058 133.984 C 265.950 133.984,266.459 134.600,267.188 135.352 M20.291 140.895 C 19.264 141.996,19.170 142.198,19.893 141.746 C 20.747 141.212,22.213 139.453,21.804 139.453 C 21.712 139.453,21.032 140.102,20.291 140.895 M19.141 264.952 C 19.141 265.027,19.691 265.604,20.363 266.236 C 21.382 267.192,21.511 267.238,21.135 266.513 C 20.759 265.785,19.141 264.519,19.141 264.952 M244.531 273.242 C 245.260 273.994,245.944 274.609,246.052 274.609 C 246.159 274.609,245.651 273.994,244.922 273.242 C 244.193 272.490,243.509 271.875,243.401 271.875 C 243.294 271.875,243.802 272.490,244.531 273.242 M113.652 273.220 C 114.766 274.407,115.014 274.486,114.478 273.483 C 114.261 273.079,113.776 272.630,113.399 272.485 C 112.888 272.289,112.953 272.477,113.652 273.220 M115.625 274.718 C 115.625 274.793,116.175 275.370,116.848 276.001 C 117.867 276.958,117.995 277.004,117.620 276.278 C 117.243 275.550,115.625 274.285,115.625 274.718 M119.511 278.299 C 120.625 279.485,120.873 279.564,120.337 278.562 C 120.121 278.157,119.635 277.708,119.258 277.563 C 118.748 277.367,118.812 277.555,119.511 278.299 M121.484 279.796 C 121.484 279.871,122.035 280.448,122.707 281.079 C 123.726 282.036,123.854 282.082,123.479 281.357 C 123.102 280.628,121.484 279.363,121.484 279.796 M125.370 283.377 C 126.485 284.563,126.733 284.642,126.196 283.640 C 125.980 283.235,125.495 282.786,125.118 282.641 C 124.607 282.445,124.671 282.633,125.370 283.377 M128.105 285.720 C 129.219 286.907,129.467 286.986,128.931 285.983 C 128.714 285.579,128.229 285.130,127.852 284.985 C 127.341 284.789,127.406 284.977,128.105 285.720 M130.078 287.218 C 130.078 287.293,130.628 287.870,131.301 288.501 C 132.320 289.458,132.448 289.504,132.073 288.778 C 131.696 288.050,130.078 286.785,130.078 287.218 M133.964 290.799 C 135.078 291.985,135.327 292.064,134.790 291.062 C 134.574 290.657,134.088 290.208,133.711 290.063 C 133.201 289.867,133.265 290.055,133.964 290.799 M135.938 292.296 C 135.938 292.371,136.488 292.948,137.160 293.579 C 138.179 294.536,138.308 294.582,137.932 293.857 C 137.555 293.128,135.938 291.863,135.938 292.296 M139.823 295.877 C 140.938 297.063,141.186 297.142,140.650 296.140 C 140.433 295.735,139.948 295.286,139.571 295.141 C 139.060 294.945,139.124 295.133,139.823 295.877 M142.558 298.220 C 143.672 299.407,143.920 299.486,143.384 298.483 C 143.168 298.079,142.682 297.630,142.305 297.485 C 141.794 297.289,141.859 297.477,142.558 298.220 M144.531 299.718 C 144.531 299.793,145.081 300.370,145.754 301.001 C 146.773 301.958,146.901 302.004,146.526 301.278 C 146.149 300.550,144.531 299.285,144.531 299.718 M148.417 303.299 C 149.531 304.485,149.780 304.564,149.243 303.562 C 149.027 303.157,148.541 302.708,148.165 302.563 C 147.654 302.367,147.718 302.555,148.417 303.299 M150.391 304.796 C 150.391 304.871,150.941 305.448,151.613 306.079 C 152.632 307.036,152.761 307.082,152.385 306.357 C 152.009 305.628,150.391 304.363,150.391 304.796 M154.277 308.377 C 155.391 309.563,155.639 309.642,155.103 308.640 C 154.886 308.235,154.401 307.786,154.024 307.641 C 153.513 307.445,153.578 307.633,154.277 308.377 M156.250 309.874 C 156.250 309.949,156.800 310.526,157.473 311.157 C 158.492 312.114,158.620 312.160,158.245 311.435 C 157.868 310.707,156.250 309.441,156.250 309.874 M160.136 313.455 C 161.250 314.641,161.498 314.720,160.962 313.718 C 160.746 313.313,160.260 312.864,159.883 312.720 C 159.373 312.524,159.437 312.711,160.136 313.455 M162.870 315.799 C 163.985 316.985,164.233 317.064,163.696 316.062 C 163.480 315.657,162.995 315.208,162.618 315.063 C 162.107 314.867,162.171 315.055,162.870 315.799 M293.066 315.504 C 293.442 315.602,294.058 315.602,294.434 315.504 C 294.810 315.405,294.502 315.325,293.750 315.325 C 292.998 315.325,292.690 315.405,293.066 315.504 M164.844 317.296 C 164.844 317.371,165.394 317.948,166.066 318.579 C 167.085 319.536,167.214 319.582,166.839 318.857 C 166.462 318.128,164.844 316.863,164.844 317.296 M168.730 320.877 C 169.844 322.063,170.092 322.142,169.556 321.140 C 169.339 320.735,168.854 320.286,168.477 320.141 C 167.966 319.945,168.031 320.133,168.730 320.877 M170.703 322.374 C 170.703 322.449,171.253 323.026,171.926 323.657 C 172.945 324.614,173.073 324.660,172.698 323.935 C 172.321 323.207,170.703 321.941,170.703 322.374 M174.589 325.955 C 175.703 327.141,175.952 327.220,175.415 326.218 C 175.199 325.813,174.713 325.364,174.336 325.220 C 173.826 325.024,173.890 325.211,174.589 325.955 M177.323 328.299 C 178.438 329.485,178.686 329.564,178.150 328.562 C 177.933 328.157,177.448 327.708,177.071 327.563 C 176.560 327.367,176.624 327.555,177.323 328.299 M179.297 329.796 C 179.297 329.871,179.847 330.448,180.519 331.079 C 181.538 332.036,181.667 332.082,181.292 331.357 C 180.915 330.628,179.297 329.363,179.297 329.796 M183.183 333.377 C 184.297 334.563,184.545 334.642,184.009 333.640 C 183.793 333.235,183.307 332.786,182.930 332.641 C 182.419 332.445,182.484 332.633,183.183 333.377 M185.156 334.874 C 185.156 334.949,185.706 335.526,186.379 336.157 C 187.398 337.114,187.526 337.160,187.151 336.435 C 186.774 335.707,185.156 334.441,185.156 334.874 M189.042 338.455 C 190.156 339.641,190.405 339.720,189.868 338.718 C 189.652 338.313,189.166 337.864,188.790 337.720 C 188.279 337.524,188.343 337.711,189.042 338.455 M191.777 340.799 C 192.891 341.985,193.139 342.064,192.603 341.062 C 192.386 340.657,191.901 340.208,191.524 340.063 C 191.013 339.867,191.078 340.055,191.777 340.799 M193.750 342.296 C 193.750 342.371,194.300 342.948,194.973 343.579 C 195.992 344.536,196.120 344.582,195.745 343.857 C 195.368 343.128,193.750 341.863,193.750 342.296 M197.636 345.877 C 198.750 347.063,198.998 347.142,198.462 346.140 C 198.246 345.735,197.760 345.286,197.383 345.141 C 196.873 344.945,196.937 345.133,197.636 345.877 M221.965 345.528 C 221.489 345.861,220.901 346.520,220.657 346.993 C 220.338 347.611,220.611 347.475,221.631 346.505 C 222.940 345.260,223.220 344.922,222.938 344.922 C 222.879 344.922,222.441 345.195,221.965 345.528 M209.082 350.670 C 209.673 350.760,210.640 350.760,211.230 350.670 C 211.821 350.581,211.338 350.508,210.156 350.508 C 208.975 350.508,208.491 350.581,209.082 350.670 " stroke="none" fill="#0480a0" fill-rule="evenodd"></path></g></svg>