<?xml version="1.0" encoding="UTF-8" standalone="no"?>
<svg
   xmlns:dc="http://purl.org/dc/elements/1.1/"
   xmlns:cc="http://creativecommons.org/ns#"
   xmlns:rdf="http://www.w3.org/1999/02/22-rdf-syntax-ns#"
   xmlns:svg="http://www.w3.org/2000/svg"
   xmlns="http://www.w3.org/2000/svg"
   xmlns:sodipodi="http://sodipodi.sourceforge.net/DTD/sodipodi-0.dtd"
   xmlns:inkscape="http://www.inkscape.org/namespaces/inkscape"
   height="24px"
   viewBox="0 0 24 24"
   width="24px"
   fill="#0D9C97"
   version="1.1"
   id="svg14"
   sodipodi:docname="play_circle_filled_black_24dp.svg"
   inkscape:version="1.0.2-2 (e86c870879, 2021-01-15)">
  <metadata
     id="metadata20">
    <rdf:RDF>
      <cc:Work
         rdf:about="">
        <dc:format>image/svg+xml</dc:format>
        <dc:type
           rdf:resource="http://purl.org/dc/dcmitype/StillImage" />
      </cc:Work>
    </rdf:RDF>
  </metadata>
  <defs
     id="defs18" />
  <sodipodi:namedview
     pagecolor="#0D9C97"
     bordercolor="#666666"
     borderopacity="1"
     objecttolerance="10"
     gridtolerance="10"
     guidetolerance="10"
     inkscape:pageopacity="0"
     inkscape:pageshadow="2"
     inkscape:window-width="1920"
     inkscape:window-height="1017"
     id="namedview16"
     showgrid="false"
     inkscape:zoom="34.058977"
     inkscape:cx="10.937401"
     inkscape:cy="13.734388"
     inkscape:window-x="1358"
     inkscape:window-y="-8"
     inkscape:window-maximized="1"
     inkscape:current-layer="svg14" />
  <path
     d="M0 0h24v24H0z"
     fill="none"
     id="path10" />
  <path
     d="M12 2C6.48 2 2 6.48 2 12s4.48 10 10 10 10-4.48 10-10S17.52 2 12 2zm-2 14.5v-9l6 4.5-6 4.5z"
     id="path12" />
  <path
     style="fill:none;stroke-width:0.0415225"
     d="M 10.858131,21.917076 C 9.4997925,21.763894 7.8771392,21.190347 6.7095363,20.450703 5.4636075,19.661441 4.3275405,18.524758 3.541788,17.281238 2.7879465,16.08822 2.2325214,14.490188 2.0783882,13.070841 c -0.056238,-0.51787 -0.056238,-1.623812 0,-2.141682 C 2.2698458,9.1661082 2.9655677,7.4313077 4.0749839,5.9505958 4.4668906,5.427527 5.427527,4.4668906 5.9505958,4.0749839 7.4313077,2.9655677 9.1661082,2.2698458 10.929159,2.0783882 c 0.51787,-0.056238 1.623812,-0.056238 2.141682,0 1.522482,0.1653332 3.15547,0.7589962 4.432776,1.6115098 1.870824,1.2486459 3.268371,3.0757481 3.95924,5.1761666 0.359586,1.0932341 0.502541,1.9875654 0.502541,3.1439194 0,2.197874 -0.688821,4.236527 -2.040601,6.03942 -0.39519,0.527071 -1.35624,1.488698 -1.875393,1.876517 -1.48229,1.107306 -3.223498,1.805293 -4.978563,1.995727 -0.474476,0.05148 -1.738805,0.04887 -2.21271,-0.0046 z m 2.172584,-7.6541 C 14.677087,13.029758 16.024119,12.011419 16.024119,12 c 0,-0.02216 -5.962111,-4.4956837 -6.022764,-4.519031 C 9.9812292,7.4732217 9.9653979,9.462877 9.9653979,12 c 0,2.537123 0.015831,4.526778 0.035957,4.519031 0.01978,-0.0076 1.382988,-1.022837 3.02936,-2.256055 z"
     id="path22" />
</svg>
