<?xml version="1.0" encoding="UTF-8" standalone="no"?>
<svg
   xmlns:dc="http://purl.org/dc/elements/1.1/"
   xmlns:cc="http://creativecommons.org/ns#"
   xmlns:rdf="http://www.w3.org/1999/02/22-rdf-syntax-ns#"
   xmlns:svg="http://www.w3.org/2000/svg"
   xmlns="http://www.w3.org/2000/svg"
   xmlns:sodipodi="http://sodipodi.sourceforge.net/DTD/sodipodi-0.dtd"
   xmlns:inkscape="http://www.inkscape.org/namespaces/inkscape"
   version="1.1"
   id="svg10"
   width="512"
   height="512"
   viewBox="0 0 512 512"
   sodipodi:docname="018_320_door_exit_logout-512.svg"
   inkscape:version="1.0.2-2 (e86c870879, 2021-01-15)">
  <metadata
     id="metadata16">
    <rdf:RDF>
      <cc:Work
         rdf:about="">
        <dc:format>image/svg+xml</dc:format>
        <dc:type
           rdf:resource="http://purl.org/dc/dcmitype/StillImage" />
        <dc:title></dc:title>
      </cc:Work>
    </rdf:RDF>
  </metadata>
  <defs
     id="defs14" />
  <sodipodi:namedview
     pagecolor="#ffffff"
     bordercolor="#666666"
     borderopacity="1"
     objecttolerance="10"
     gridtolerance="10"
     guidetolerance="10"
     inkscape:pageopacity="0"
     inkscape:pageshadow="2"
     inkscape:window-width="1366"
     inkscape:window-height="705"
     id="namedview12"
     showgrid="false"
     inkscape:zoom="1.0507812"
     inkscape:cx="256"
     inkscape:cy="256"
     inkscape:window-x="-8"
     inkscape:window-y="-8"
     inkscape:window-maximized="1"
     inkscape:current-layer="g18" />
  <g
     inkscape:groupmode="layer"
     inkscape:label="Image"
     id="g18">
    <g
       id="g32"
       transform="translate(-5.7100412,-11.420074)">
      <path
         style="fill:#d1ebeb"
         d="m 230.5,492.19868 c -1.1,-0.23771 -3.19963,-1.28334 -4.66584,-2.32361 -1.46622,-1.04027 -4.16622,-2.17065 -6,-2.51195 -1.83379,-0.34131 -5.63894,-1.91263 -8.45589,-3.49184 C 208.56132,482.29208 205.16125,481 203.82255,481 c -1.33869,0 -3.95159,-1.11965 -5.80644,-2.48811 -1.85484,-1.36846 -4.97977,-2.77322 -6.94427,-3.12169 -1.96451,-0.34846 -5.04571,-1.52254 -6.84711,-2.60906 -1.8014,-1.08653 -5.55915,-2.57797 -8.35056,-3.31433 -2.7914,-0.73636 -5.81753,-2.00883 -6.72473,-2.82772 -0.90719,-0.81889 -3.88033,-2.04962 -6.60697,-2.73496 -2.72665,-0.68534 -6.50194,-2.29414 -8.38955,-3.5751 -1.88761,-1.28097 -4.60672,-2.3367 -6.04247,-2.34608 C 146.6747,457.97357 143.25,456.63124 140.5,455 c -2.75,-1.63124 -5.796,-2.97357 -6.7689,-2.98295 -0.97289,-0.009 -4.29873,-1.36705 -7.39076,-3.01705 -3.09203,-1.65 -6.62284,-3 -7.84625,-3 -1.2234,0 -3.35885,-0.89238 -4.74544,-1.98307 -1.38658,-1.09069 -5.02397,-2.63499 -8.08309,-3.43179 -3.05912,-0.7968 -6.822831,-2.33736 -8.363799,-3.42346 -1.540969,-1.08611 -4.50317,-2.2648 -6.582669,-2.61932 -2.079499,-0.35452 -5.326793,-1.69365 -7.216209,-2.97584 -1.889416,-1.28219 -5.124293,-2.64812 -7.188617,-3.03539 -2.064323,-0.38727 -5.606565,-1.7902 -7.871648,-3.11763 C 66.177535,424.08608 63.430055,423 62.337108,423 c -1.092948,0 -2.702255,-0.7875 -3.576239,-1.75 -2.066969,-2.27631 -7.802138,-8.00878 -9.923198,-9.91853 -0.91428,-0.82319 -1.955211,-2.69703 -2.313178,-4.16409 -0.357967,-1.46706 -1.859919,-4.42881 -3.337671,-6.58168 L 40.5,396.6714 V 235.5857 74.5 L 44.452928,67 C 49.522485,57.381392 57.381392,49.522485 67,44.452928 L 74.5,40.5 h 125 c 69.05778,0 127.8436,0.404267 131.35388,0.903314 3.90665,0.555398 7.00341,1.600504 8.04029,2.713467 0.92753,0.995584 3.80492,2.747268 6.3942,3.89263 2.96675,1.312332 5.26934,3.168395 6.22622,5.018804 0.83514,1.614979 2.8678,3.933954 4.51702,5.153279 1.8684,1.381364 3.40914,3.741606 4.08784,6.262106 0.59908,2.224835 1.96346,5.758761 3.03195,7.853171 1.80082,3.529891 1.92101,5.697184 1.64565,29.673999 -0.16338,14.22628 -0.67205,26.24021 -1.13038,26.6976 -1.08788,1.08565 -43.24471,1.08622 -44.33334,6e-4 -0.45833,-0.45707 -0.97206,-9.79457 -1.14162,-20.75 L 317.88343,88 h -90.64172 c -87.92311,0 -97.51521,0.327929 -83.91448,2.868822 2.60967,0.487538 5.53451,1.601065 6.49965,2.474504 0.96514,0.87344 4.21142,2.110027 7.21396,2.747971 3.00254,0.637945 6.69238,2.030979 8.19966,3.09563 1.50727,1.064653 4.43227,2.197203 6.5,2.516773 2.06772,0.31957 5.5595,1.59168 7.7595,2.82692 2.2,1.23523 5.70996,2.54577 7.79992,2.9123 2.08996,0.36654 5.86948,1.76683 8.39894,3.11176 2.52946,1.34493 5.40818,2.44532 6.39716,2.44532 0.98899,0 3.91399,1.125 6.5,2.5 2.58602,1.375 5.64734,2.50169 6.80292,2.50376 1.15558,0.002 4.80106,1.35038 8.10106,2.99624 3.3,1.64586 7.125,3.00106 8.5,3.01155 1.375,0.0105 3.06078,0.37518 3.74618,0.81042 0.98211,0.62366 1.29997,27.9028 1.5,128.73469 L 237.5,381.5 h 40 40 l 0.26989,-21.25 0.26989,-21.25 h 22.93479 22.9348 l 0.66335,3.53595 c 0.36484,1.94477 0.47225,15.10727 0.23869,29.25 -0.47487,28.75476 -0.21412,27.57909 -8.47652,38.21869 -4.51501,5.81405 -13.18877,13.23309 -19.48993,16.67057 -3.08165,1.68115 -7.14307,1.85043 -51.59496,2.15057 l -48.25,0.32578 -0.0153,30.17422 c -0.008,16.59582 -0.34592,30.65704 -0.75,31.24716 -1.01225,1.47829 -3.35009,2.14105 -5.73469,1.62574 z M 403.47162,319.75 C 403.21554,319.0625 402.89216,305 402.75301,288.5 L 402.5,258.5 339.83288,258 c -34.46692,-0.275 -63.04192,-0.875 -63.5,-1.33333 -1.08767,-1.08827 -1.08765,-43.2451 2e-5,-44.33334 0.45809,-0.45833 29.1391,-0.95567 63.73558,-1.10519 l 62.90268,-0.27186 0.26442,-30.6196 c 0.24096,-27.9034 0.41966,-30.71748 2.01442,-31.72302 2.19436,-1.38361 4.73655,0.026 6.49316,3.60046 1.36113,2.76969 3.32673,4.63774 6.59378,6.26655 1.16801,0.58231 2.60008,2.01438 3.18239,3.18239 1.64851,3.30656 3.50925,5.2415 6.34968,6.60289 1.43703,0.68875 3.17629,2.42801 3.86504,3.86504 1.36139,2.84043 3.29633,4.70117 6.60289,6.34968 1.16801,0.58231 2.60008,2.01438 3.18239,3.18239 1.64558,3.30069 3.50798,5.24085 6.32953,6.59378 1.42594,0.68374 3.07335,2.20767 3.66092,3.38651 1.65481,3.32005 3.51248,5.25814 6.33908,6.61349 1.42594,0.68374 3.07335,2.20767 3.66092,3.38651 1.65481,3.32005 3.51248,5.25814 6.33908,6.61349 1.42594,0.68374 3.07335,2.20767 3.66092,3.38651 1.65481,3.32005 3.51248,5.25814 6.33908,6.61349 1.42594,0.68374 3.09573,2.25256 3.71066,3.48627 1.5632,3.13623 4.52605,6.25689 5.94048,6.25689 1.93408,0 4.5,3.46864 4.5,6.08315 0,1.86277 -9.80568,12.22932 -42.25436,44.67126 C 425.7808,302.71427 406.7221,321 405.71425,321 c -0.97736,0 -1.98654,-0.5625 -2.24263,-1.25 z"
         id="path46" />
      <path
         style="fill:#a5d9d8"
         d="m 226,489.03945 c -3.025,-1.62805 -6.2418,-2.97795 -7.14845,-2.99977 C 217.9449,486.01786 214.6367,484.65 211.5,483 c -3.1367,-1.65 -6.5117,-3 -7.5,-3 -0.9883,0 -4.3633,-1.35 -7.5,-3 -3.1367,-1.65 -6.30858,-3 -7.04863,-3 -0.74005,0 -3.46138,-1.125 -6.04739,-2.5 -2.58602,-1.375 -5.42592,-2.5 -6.31088,-2.5 -0.88496,0 -3.85543,-1.1971 -6.60106,-2.66022 -2.74562,-1.46312 -6.7417,-3.05435 -8.88017,-3.53607 -2.13847,-0.48172 -4.99662,-1.7478 -6.35145,-2.8135 -1.35482,-1.06571 -4.06962,-2.23899 -6.03288,-2.6073 -1.96326,-0.36831 -6.0133,-1.95514 -9.0001,-3.52628 -2.98679,-1.57115 -6.17234,-2.85831 -7.07899,-2.86037 -0.90665,-0.002 -3.07618,-0.8743 -4.82119,-1.93831 -1.745,-1.06402 -5.345,-2.60841 -8,-3.43198 -2.65499,-0.82357 -7.04103,-2.65133 -9.74674,-4.06169 C 107.87481,440.15393 104.86303,439 103.88768,439 c -0.97535,0 -3.38335,-0.94992 -5.351108,-2.11092 -1.967762,-1.16101 -5.430643,-2.52724 -7.695291,-3.03608 -2.264649,-0.50883 -5.226035,-1.79709 -6.580859,-2.86279 -1.354824,-1.06571 -4.105165,-2.23622 -6.111869,-2.60115 -2.006704,-0.36493 -6.22322,-1.95175 -9.370036,-3.52628 C 65.631701,423.28825 62.555542,422 61.942608,422 c -0.612933,0 -3.84029,-2.76852 -7.171904,-6.15226 C 46.770204,407.72206 42.433374,398.97882 41.453671,389 41.048685,384.875 40.733123,312.875 40.752421,229 l 0.03509,-152.5 3.788035,-8 C 49.712499,57.651196 57.654719,49.709872 68.5,44.578241 l 8,-3.785338 123,0.0495 c 132.74131,0.05341 132.89812,0.05929 141,5.285283 2.2,1.419075 5.01744,2.902769 6.26097,3.297097 1.24353,0.394327 2.89264,1.922568 3.66468,3.396091 0.77204,1.473522 3.01711,4.229906 4.98903,6.125298 1.97193,1.895392 3.58532,4.02006 3.58532,4.721486 0,0.701426 1.14441,3.863035 2.54313,7.025798 2.48707,5.623703 2.54603,6.297617 2.67432,30.568474 0.1137,21.50917 -0.0816,25.03084 -1.46521,26.4144 -2.41101,2.41101 -40.12363,2.38085 -42.5385,-0.034 -1.40565,-1.40565 -1.61036,-4.29774 -1.48496,-20.97909 l 0.14545,-19.34867 -91.44592,-0.04753 c -54.00195,-0.02807 -91.67652,0.325578 -92.00908,0.863683 -0.67331,1.089425 5.5682,3.856336 8.79865,3.900515 1.25517,0.01716 4.08212,1.139859 6.28212,2.494876 2.2,1.355017 5.125,2.466076 6.5,2.469019 1.375,0.0029 4.975,1.337394 8,2.965445 3.025,1.628052 6.48869,2.977952 7.69709,2.999772 1.20839,0.0218 4.31292,1.16468 6.89893,2.53968 2.58602,1.375 5.65092,2.5 6.81088,2.5 1.15996,0 4.13043,1.06973 6.60106,2.37717 2.47062,1.30745 6.06704,2.71289 7.99204,3.12321 1.925,0.41033 5.62254,1.8156 8.21676,3.12283 2.59421,1.30723 5.65232,2.37679 6.7958,2.37679 1.14348,0 4.19594,1.13289 6.78325,2.51753 2.5873,1.38465 6.40166,2.79375 8.47635,3.13136 2.07469,0.3376 4.04463,1.05467 4.37764,1.59349 0.33301,0.53883 0.60673,58.0953 0.60827,127.90327 0.003,117.03083 0.13166,126.99256 1.65623,127.80849 2.08562,1.11618 78.62453,0.84098 79.75273,-0.28677 0.45813,-0.45794 0.9129,-9.83787 1.01059,-20.84429 0.0977,-11.00641 0.38277,-20.2168 0.6335,-20.46753 0.25073,-0.25073 9.99659,-0.5458 21.65747,-0.65571 15.34715,-0.14466 21.47344,0.12772 22.18605,0.98642 1.19162,1.4359 1.48279,39.62245 0.38363,50.31374 -0.42409,4.125 -1.46205,8.84736 -2.30659,10.49413 -4.46211,8.70068 -15.0997,19.34372 -23.73168,23.74384 -4.92018,2.50804 -15.85055,3.05735 -59.68771,2.99962 l -41.68771,-0.0549 0.13771,30.3152 c 0.16726,36.82096 0.35684,36.25675 -10.26229,30.54155 z M 403.89098,318.75 c -0.06,-0.6875 -0.0823,-14.40862 -0.0496,-30.49137 0.0539,-26.54708 -0.0974,-29.3253 -1.64245,-30.15218 -0.97426,-0.52141 -27.69231,-0.87996 -62.4947,-0.83867 -54.0256,0.0641 -60.968,-0.10301 -62.36613,-1.50114 -2.36448,-2.36448 -2.41264,-40.12065 -0.0542,-42.4791 1.42522,-1.42522 8.19979,-1.58887 64.09252,-1.54825 l 62.49886,0.0454 -0.13806,-30.39193 c -0.0947,-20.84581 0.20563,-30.73562 0.95615,-31.48614 1.6281,-1.6281 4.60518,-0.69226 5.8703,1.84533 1.65603,3.32167 4.64378,6.36568 7.21197,7.34779 1.25159,0.47862 2.55615,1.66448 2.89901,2.63523 0.93105,2.6361 4.52419,6.36088 7.09329,7.35318 1.24737,0.48178 2.66212,1.89653 3.1439,3.1439 0.99339,2.57192 4.71769,6.16234 7.36085,7.09624 0.97498,0.34448 2.05453,1.42403 2.39901,2.39901 0.93494,2.64613 4.52537,6.36788 7.10394,7.36377 1.25159,0.48339 2.55615,1.67315 2.89901,2.6439 0.93209,2.63907 4.52523,6.36129 7.10099,7.3561 1.25159,0.48339 2.55615,1.67315 2.89901,2.6439 0.93209,2.63907 4.52523,6.36129 7.10099,7.3561 1.25159,0.48339 2.55615,1.67315 2.89901,2.6439 0.93105,2.6361 4.52419,6.36088 7.09329,7.35318 1.24737,0.48178 2.65822,1.89653 3.13524,3.1439 0.98182,2.56738 4.03391,5.55663 7.35372,7.20232 1.38197,0.68507 2.37064,2.22152 2.5753,4.00216 0.30125,2.62107 -3.56298,6.78621 -41.49554,44.72683 C 426.01715,301.48784 406.7326,320 405.75446,320 c -0.96495,0 -1.80352,-0.5625 -1.86348,-1.25 z"
         id="path44" />
      <path
         style="fill:#73c5c2"
         d="m 226.62569,488.55676 c -2.13087,-1.30945 -5.49068,-2.68405 -7.46623,-3.05467 -1.97556,-0.37062 -4.77959,-1.51954 -6.23117,-2.55315 -1.45158,-1.03362 -4.84178,-2.45421 -7.53377,-3.15688 -2.69198,-0.70266 -6.41982,-2.29332 -8.28407,-3.53481 C 195.2462,475.01576 192.65189,474 191.3453,474 c -1.30658,0 -4.76767,-1.35 -7.69131,-3 -2.92363,-1.65 -6.07532,-3 -7.00374,-3 -0.92842,0 -4.21788,-1.35 -7.30991,-3 -3.09203,-1.65 -6.62284,-3 -7.84625,-3 -1.2234,0 -3.29756,-0.80542 -4.60923,-1.78982 C 153.69599,457.81696 149.36847,456 146.85732,456 c -1.12672,0 -3.24305,-0.83754 -4.70295,-1.86119 -1.4599,-1.02366 -4.45437,-2.40774 -6.65437,-3.07573 -2.2,-0.66799 -6.0859,-2.30545 -8.63533,-3.6388 C 124.31524,446.09093 121.14017,445 119.80895,445 c -1.33121,0 -3.93799,-1.11965 -5.79284,-2.48811 -1.85484,-1.36846 -4.97977,-2.77219 -6.94427,-3.11939 -1.96451,-0.34721 -5.87662,-1.92756 -8.693567,-3.51189 C 95.561324,434.29627 92.13451,433 90.763132,433 89.391754,433 87.196531,432.19458 85.884859,431.21018 82.706238,428.82465 78.370671,427 75.881017,427 c -1.113682,0 -3.905009,-1.07827 -6.202947,-2.39616 -2.297939,-1.31789 -5.261937,-2.72086 -6.586664,-3.11772 C 59.235992,420.33112 49.854155,410.0646 46.198255,403 43.890652,398.54082 42.674249,394.61616 42.324023,390.5 42.043241,387.2 41.778699,315.13436 41.736151,230.35413 L 41.658792,76.208267 45.524177,68.354134 C 50.628286,57.983021 57.979074,50.63022 68.341788,45.530278 L 76.183576,41.670992 198.84179,41.562534 C 266.3038,41.502882 322.85,41.7797 324.5,42.177685 c 1.65,0.397985 4.91529,0.903596 7.2562,1.123581 2.3409,0.219985 5.05734,1.125007 6.03653,2.011159 0.97919,0.886152 3.92441,2.559611 6.54495,3.718798 2.68844,1.189224 5.13705,3.057796 5.61933,4.288195 0.4701,1.19932 2.69708,3.959408 4.94886,6.13353 2.25177,2.174121 4.09413,4.716938 4.09413,5.650703 0,0.933766 1.0125,3.882991 2.25,6.553833 2.15024,4.64076 2.24643,5.954542 2.16948,29.629816 -0.0561,17.25499 -0.42994,25.12316 -1.23182,25.92504 -1.67634,1.67634 -39.77318,1.60219 -41.45584,-0.0807 C 319.83944,126.23917 319.5,120.47122 319.5,106.19984 V 86.5 l -91,-0.122503 c -55.25531,-0.07438 -91.71276,0.247609 -92.81457,0.819739 -2.87158,1.491115 -0.35816,3.51233 6.14185,4.939082 3.12,0.68484 6.8126,2.071779 8.20578,3.082088 1.39318,1.010309 4.31818,2.113542 6.5,2.45163 2.18182,0.338088 5.76694,1.642118 7.96694,2.897844 2.2,1.25573 5.75056,2.60357 7.89014,2.99521 2.13958,0.39164 5.73958,1.76974 8,3.06245 2.26042,1.2927 5.14297,2.35579 6.40567,2.36241 1.26269,0.007 4.40911,1.13705 6.99204,2.51205 2.58293,1.375 5.66662,2.5 6.85265,2.5 1.18602,0 4.7228,1.35 7.8595,3 3.1367,1.65 6.73646,3 7.99947,3 1.26301,0 4.25482,1.11958 6.64846,2.48795 2.39364,1.36838 5.47707,2.50027 6.85207,2.51532 5.70809,0.0625 5.32875,-8.97881 5.41786,129.12997 l 0.0821,127.30771 2.34006,1.16664 c 3.53032,1.76004 78.57297,1.37962 80.36007,-0.40738 0.97346,-0.9734 1.32373,-6.3433 1.39487,-21.38431 l 0.095,-20.08452 21.2415,-0.13024 c 11.68282,-0.0716 21.45367,0.21306 21.71298,0.63264 0.54157,0.87627 0.83841,35.32311 0.40732,47.26622 -0.15882,4.4 -0.86019,9.39718 -1.55861,11.10486 -3.33114,8.14484 -17.74349,22.55719 -25.88833,25.88833 -3.93937,1.61115 -10.24817,1.80017 -58.60486,1.75587 -23.47349,-0.0215 -39.97416,0.34865 -40.66865,0.91231 -0.85384,0.69298 -1.10096,8.81294 -0.91739,30.14356 0.13819,16.05729 -0.13925,29.98257 -0.61654,30.94507 -1.16936,2.35815 -3.53243,2.15768 -8.17173,-0.69324 z M 405.45383,319.37694 c -0.70301,-0.27398 -0.97094,-10.22119 -0.81682,-30.32534 0.20152,-26.28585 0.0367,-30.07748 -1.3577,-31.23461 -1.27352,-1.0568 -13.70439,-1.32464 -62.92189,-1.3557 -45.40242,-0.0287 -61.63833,-0.3422 -62.50316,-1.20703 -1.67203,-1.67203 -1.73046,-39.77806 -0.0636,-41.44497 0.91049,-0.91049 16.22744,-1.21613 62.95626,-1.25626 33.96417,-0.0292 62.27906,-0.39455 62.92199,-0.81196 0.85726,-0.55657 1.10452,-8.55588 0.9273,-30 -0.13292,-16.08259 -0.0483,-29.80357 0.18803,-30.49107 0.82678,-2.40519 4.03436,-1.22254 6.07786,2.24094 1.13284,1.92001 3.47231,4.34999 5.19883,5.39995 1.72651,1.04996 3.98998,3.30815 5.02993,5.0182 1.03995,1.71005 3.28995,3.96005 5,5 1.71005,1.03995 3.96005,3.28995 5,5 1.03995,1.71005 3.28995,3.96005 5,5 1.71005,1.03995 3.96005,3.28995 5,5 1.03995,1.71005 3.28995,3.96005 5,5 1.71005,1.03995 3.96005,3.28995 5,5 1.03995,1.71005 3.28995,3.96005 5,5 1.71005,1.03995 3.96005,3.28995 5,5 1.03995,1.71005 3.28995,3.96005 5,5 1.71005,1.03995 3.96005,3.28995 5,5 1.03995,1.71005 3.28995,3.96005 5,5 1.71005,1.03995 3.96824,3.30342 5.0182,5.02993 1.04996,1.72652 3.45998,4.05422 5.35561,5.17267 7.129,4.20621 8.53746,2.39269 -37.60369,48.41815 -23.29857,23.24016 -42.83181,42.07135 -43.4072,41.8471 z"
         id="path42" />
      <path
         style="fill:#6ac1be"
         d="M 226.46024,487.89771 C 223.21012,486.30397 219.58765,485 218.41032,485 c -1.17733,0 -3.21379,-0.80542 -4.52546,-1.78982 C 210.72839,480.84128 206.3754,479 203.93151,479 c -1.08592,0 -3.65961,-1.11522 -5.71931,-2.47827 -2.05971,-1.36305 -5.28202,-2.78569 -7.16068,-3.16143 -1.87867,-0.37573 -5.2463,-1.73009 -7.48364,-3.00968 -2.23733,-1.27959 -4.74288,-2.33364 -5.56788,-2.34234 -0.825,-0.009 -4.2,-1.36242 -7.5,-3.00828 -3.3,-1.64586 -6.675,-2.99427 -7.5,-2.99647 -0.825,-0.002 -3.975,-1.33603 -7,-2.96408 -3.025,-1.62805 -6.67681,-2.97795 -8.11514,-2.99977 -1.43833,-0.0218 -3.68833,-0.87562 -5,-1.89732 -1.31167,-1.02171 -4.18486,-2.43289 -6.38486,-3.13596 -2.2,-0.70308 -6.65071,-2.56714 -9.89046,-4.14236 C 123.36978,445.28882 119.83925,444 118.76391,444 c -1.07534,0 -3.14964,-0.84974 -4.60954,-1.8883 -1.4599,-1.03857 -4.91767,-2.55985 -7.68392,-3.38063 -2.76625,-0.82078 -6.591245,-2.44437 -8.499995,-3.60796 C 96.061705,433.95951 93.6,433.00569 92.5,433.00351 91.4,433.00133 88.025,431.6675 85,430.03945 81.975,428.4114 78.550846,427.0615 77.390768,427.03968 76.230691,427.01786 72.751694,425.65 69.659664,424 c -3.09203,-1.65 -6.239679,-3 -6.994777,-3 -2.49973,0 -12.545829,-11.39028 -16.005987,-18.14761 -2.362151,-4.61304 -3.627357,-8.73352 -4.133832,-13.46291 C 42.123647,385.64107 41.80733,313.79283 41.82214,229.72671 L 41.84907,76.879219 46.063323,68.253203 C 51.523168,57.077623 57.075728,51.524094 68.245634,46.067019 l 8.618447,-4.210556 122.817959,0.01948 c 128.96098,0.02045 134.32725,0.190237 139.12228,4.401723 0.93263,0.819122 3.53944,2.41582 5.79293,3.548218 2.25348,1.132399 4.80267,3.135522 5.66485,4.451386 0.86219,1.315864 2.95593,3.702825 4.65276,5.304358 1.69683,1.601534 3.08954,3.58834 3.09491,4.415127 0.005,0.826786 1.1412,3.933796 2.52406,6.904468 2.4593,5.283103 2.51645,5.935684 2.6135,29.841017 0.0833,20.5144 -0.14239,24.68139 -1.40501,25.94401 -2.24354,2.24354 -38.26555,2.21909 -40.51214,-0.0275 -1.27961,-1.27962 -1.51171,-4.73498 -1.41019,-20.99375 l 0.12152,-19.462016 -91.22075,-0.05523 C 178.54934,86.117382 136.7125,86.327033 135.75,86.613651 134.7875,86.90027 134,87.73059 134,88.458808 134,89.922855 140.85458,93 144.11587,93 c 1.14146,0 3.31565,0.883145 4.83153,1.962545 1.51588,1.0794 4.73534,2.418641 7.15437,2.976091 2.41903,0.55745 6.612,2.149304 9.31771,3.537454 2.70571,1.38815 5.92228,2.52391 7.14792,2.52391 1.22565,0 4.18689,1.11958 6.58053,2.48795 2.39364,1.36838 5.26942,2.49338 6.39063,2.5 1.12121,0.007 3.82121,0.93506 6,2.06319 2.17879,1.12813 6.21144,2.66988 8.96144,3.42612 2.75,0.75624 6.78265,2.30822 8.96144,3.44886 2.17879,1.14063 4.87879,2.088 6,2.10526 1.12121,0.0173 4.7271,1.36726 8.0131,3 3.286,1.63274 6.97194,2.96862 8.19098,2.96862 1.21905,0 2.50713,0.47034 2.86241,1.0452 0.35529,0.57486 0.64514,58.17952 0.64411,128.01035 -0.002,120.6765 0.0862,127.01231 1.77681,127.91708 2.19536,1.17491 80.53001,0.88273 81.71839,-0.30481 0.45802,-0.4577 0.95491,-9.87985 1.10421,-20.93812 0.1493,-11.05826 0.40585,-20.24034 0.57012,-20.4046 0.89327,-0.89327 40.82019,-0.56334 41.72834,0.34481 1.22247,1.22247 1.53253,37.86926 0.42009,49.65219 -0.64693,6.85228 -1.2416,8.57552 -4.79629,13.89872 -5.1205,7.668 -8.81578,11.35967 -16.5216,16.50541 -5.5487,3.70529 -6.91859,4.15641 -14.55217,4.79229 -4.63477,0.38607 -27.0328,0.76484 -49.7734,0.84171 L 235.5,427.5 l -0.18021,29 c -0.0991,15.95 -0.21161,29.96436 -0.25,31.14301 -0.10854,3.33278 -2.20585,3.39483 -8.60955,0.2547 z M 404.92362,317.75 c -0.042,-0.6875 -0.0532,-14.40266 -0.0249,-30.47813 0.0478,-27.10299 -0.0788,-29.29786 -1.74031,-30.18708 -1.09058,-0.58366 -25.7831,-0.93883 -63.09545,-0.90755 -50.73505,0.0425 -61.45265,-0.18381 -62.168,-1.31292 -0.96755,-1.52721 -1.07851,-4.17388 -1.03852,-24.77083 0.0217,-11.18754 0.35023,-14.72875 1.47023,-15.84875 1.22217,-1.22217 10.95844,-1.46532 63.80778,-1.59349 L 404.5,212.5 l 0.12236,-30.32236 c 0.0742,-18.38584 0.5098,-30.7098 1.10658,-31.30658 C 406.95457,149.64543 490,232.39446 490,234.84134 490,236.74915 408.14418,319 406.24554,319 c -0.68505,0 -1.27991,-0.5625 -1.32192,-1.25 z"
         id="path40" />
      <path
         style="fill:#58bab6"
         d="m 225.5,487.44562 c -2.2,-1.327 -4.796,-2.42012 -5.7689,-2.42917 -0.97289,-0.009 -4.29873,-1.36645 -7.39076,-3.01645 -3.09203,-1.65 -6.46535,-3 -7.49626,-3 -1.03091,0 -4.26645,-1.35 -7.19009,-3 -2.92363,-1.65 -6.46172,-3 -7.8624,-3 -1.40069,0 -3.10572,-0.67357 -3.78896,-1.49683 -0.68324,-0.82325 -4.00728,-2.35085 -7.38676,-3.39467 -3.37948,-1.04381 -7.71307,-2.80163 -9.63019,-3.90627 -1.91712,-1.10463 -5.06068,-2.33567 -6.98568,-2.73564 -1.925,-0.39998 -4.55815,-1.55676 -5.85145,-2.57063 -1.29329,-1.01387 -3.99329,-2.14441 -6,-2.51231 -2.0067,-0.3679 -6.0744,-1.95473 -9.03932,-3.52628 C 138.14431,451.28582 135.09398,450 134.33071,450 c -0.76326,0 -4.06208,-1.35 -7.33071,-3 -3.26863,-1.65 -6.83582,-3 -7.92707,-3 -1.09126,0 -3.62436,-1.1131 -5.6291,-2.47356 -2.00474,-1.36045 -5.25168,-2.77497 -7.21542,-3.14337 -1.96374,-0.3684 -6.01417,-1.9553 -9.000966,-3.52644 C 94.24065,433.28548 90.772704,432 89.520899,432 c -1.251805,0 -2.829886,-0.66738 -3.506846,-1.48307 -0.676961,-0.81568 -3.769561,-2.22462 -6.872445,-3.13096 -3.102884,-0.90634 -7.727506,-2.71396 -10.276936,-4.01693 C 66.315241,422.06607 63.689082,421 63.028763,421 60.707426,421 49.784804,408.7348 46.245845,402.15418 L 42.667329,395.5 l -0.03766,-160 -0.03766,-160 3.381927,-7 C 50.480468,59.172258 59.187581,50.469416 68.5,45.984981 l 7,-3.370879 124.5,0.05563 c 68.475,0.0306 126.94778,0.415204 129.93952,0.854686 3.15341,0.463233 7.14604,1.939085 9.5,3.511626 2.23326,1.491912 5.07792,3.026022 6.32145,3.409132 1.24353,0.38311 2.8853,1.902173 3.64838,3.375696 0.76308,1.473522 3.00815,4.152544 4.98903,5.953382 1.98089,1.800838 3.60162,3.925507 3.60162,4.721486 0,0.79598 1.03867,3.822567 2.30815,6.72575 2.21206,5.058765 2.30573,6.305405 2.25,29.9452 -0.032,13.56668 -0.41022,25.01875 -0.84054,25.44905 -1.00059,1.00057 -33.27706,1.42672 -37.80387,0.49913 L 320.5,126.41535 v -19.62333 c 0,-10.792837 -0.34836,-19.972153 -0.77413,-20.398479 -1.09993,-1.101356 -178.41259,-1.310694 -182.97587,-0.216025 -2.0625,0.494766 -3.75,1.321856 -3.75,1.837978 0,1.573187 4.56648,4.041572 8.64423,4.672586 2.12067,0.328165 5.65577,1.624077 7.85577,2.879804 2.2,1.255727 5.75056,2.603572 7.89014,2.995212 2.13958,0.391639 5.73958,1.769734 8,3.062444 2.26042,1.2927 5.18174,2.35579 6.49183,2.36241 1.31008,0.007 3.81093,0.8952 5.55744,1.9746 1.74651,1.07941 5.62463,2.62116 8.61804,3.42612 2.9934,0.80496 7.2252,2.39681 9.40399,3.53745 2.17879,1.14063 4.93462,2.07388 6.12405,2.07388 1.18943,0 4.13178,1.08055 6.53856,2.40122 2.40677,1.32067 5.95095,2.72558 7.87595,3.12204 1.925,0.39645 5.3,1.64488 7.5,2.7743 2.2,1.12942 5.575,2.31964 7.5,2.64493 l 3.5,0.59144 0.0181,127.21542 c 0.0171,120.09031 0.11669,127.31401 1.77828,128.9756 1.62185,1.62185 4.86209,1.75776 41.23429,1.7295 35.84019,-0.0278 39.63109,-0.18764 41.17923,-1.73578 1.48962,-1.48962 1.70878,-4.20203 1.73411,-21.46189 l 0.029,-19.75678 20.63411,-0.0776 20.6341,-0.0776 0.57021,7.57757 c 0.819,10.88373 -0.072,47.3177 -1.2318,50.36814 -2.76698,7.27772 -18.32784,22.85097 -25.84905,25.86963 -1.8262,0.73295 -18.69911,1.15194 -50.94443,1.26506 -26.51763,0.093 -48.56763,0.52303 -49,0.95557 -0.43238,0.43254 -0.78614,14.5863 -0.78614,31.45281 v 30.66636 l -2.5,0.17917 c -1.375,0.0985 -4.3,-0.90656 -6.5,-2.23355 z M 405.40382,289.03611 c 0.0882,-27.47799 -0.0516,-30.11169 -1.68477,-31.74524 -1.6695,-1.66986 -5.64243,-1.78164 -63.483,-1.78611 L 278.534,255.5 l -0.65646,-4 c -0.90941,-5.54128 -0.51452,-36.19636 0.47906,-37.18989 0.44559,-0.44556 28.86069,-0.81066 63.14467,-0.81133 34.28398,-6.8e-4 62.70896,-0.37581 63.16662,-0.83364 0.45766,-0.45783 0.83211,-14.59459 0.83211,-31.41504 0,-33.19113 0.27808,-34.73011 4.94073,-27.34399 1.40161,2.2203 3.84668,4.70827 5.43349,5.52884 1.5868,0.82057 3.8076,3.05547 4.9351,4.96645 1.1275,1.91097 3.3775,4.16097 5,5 1.6225,0.83902 3.8725,3.08902 5,5 1.1275,1.91097 3.3775,4.16097 5,5 1.6225,0.83902 3.8725,3.08902 5,5 1.1275,1.91097 3.3775,4.16097 5,5 1.6225,0.83902 3.8725,3.08902 5,5 1.1275,1.91097 3.3775,4.16097 5,5 1.6225,0.83902 3.8725,3.08902 5,5 1.1275,1.91097 3.3775,4.16097 5,5 1.6225,0.83902 3.8725,3.08902 5,5 1.1275,1.91097 3.42404,4.18503 5.10342,5.05347 1.67937,0.86844 3.74885,2.92382 4.59883,4.5675 0.84998,1.64368 3.3326,4.11671 5.51693,5.49562 2.18432,1.3789 3.9715,3.29096 3.9715,4.24902 C 490,235.30045 407.41248,319 405.89941,319 c -0.32547,0 -0.54848,-13.48375 -0.49559,-29.96389 z"
         id="path38" />
      <path
         style="fill:#2ba7a3"
         d="m 225.5,486.92645 c -3.3,-1.60612 -6.49909,-2.92162 -7.10908,-2.92333 -0.60999,-0.002 -3.75999,-1.34742 -7,-2.99045 -3.24001,-1.64304 -6.79092,-3.00708 -7.89092,-3.03121 -1.1,-0.0241 -3.8,-1.15253 -6,-2.50755 -2.2,-1.35501 -4.63142,-2.46597 -5.40316,-2.46879 -0.77173,-0.003 -4.26043,-1.35512 -7.75267,-3.00512 -3.49223,-1.65 -6.91081,-3.01412 -7.59684,-3.03138 -0.68603,-0.0173 -3.93587,-1.36726 -7.22187,-3 -3.286,-1.63274 -6.48508,-2.96862 -7.10908,-2.96862 -0.62399,0 -3.78545,-1.3443 -7.02546,-2.98733 -3.24001,-1.64304 -6.61501,-2.99304 -7.5,-3 -0.88499,-0.007 -4.25999,-1.35697 -7.5,-3 -3.24001,-1.64304 -6.84832,-2.99304 -8.01848,-3 -1.17015,-0.007 -2.63803,-0.62776 -3.26195,-1.37954 -0.62392,-0.75178 -3.71652,-2.15936 -6.87245,-3.12796 -3.15592,-0.9686 -7.08804,-2.54893 -8.73804,-3.51185 -1.65,-0.96292 -4.8,-2.28941 -7,-2.94776 -2.2,-0.65835 -6.0859,-2.28793 -8.635328,-3.62128 C 95.315241,433.09093 92.566156,432 91.755593,432 c -0.810563,0 -4.124665,-1.3443 -7.364672,-2.98733 -3.240006,-1.64304 -6.691254,-2.99304 -7.669438,-3 C 75.743299,426.0057 72.268632,424.65 69,423 c -3.268632,-1.65 -6.40436,-3 -6.968286,-3 -2.200663,0 -11.476358,-10.83316 -14.555938,-17 -2.475593,-4.95736 -3.472317,-8.63596 -4.199751,-15.5 -0.570156,-5.37997 -0.878465,-69.73606 -0.766507,-160 l 0.187292,-151 3.797191,-7.960814 C 51.501126,58.041746 58.046844,51.497315 68.539186,46.498338 L 76.5,42.705483 198.5,42.572177 C 332.48795,42.425773 331.53163,42.387348 340.73013,48.286944 343.0567,49.779125 345.36579,51 345.86144,51 c 0.49565,0 2.02188,1.4625 3.39163,3.25 1.36975,1.7875 3.58137,4.375 4.91473,5.75 1.33336,1.375 3.70803,5.831813 5.27704,9.904028 2.85035,7.397774 2.8528,7.424573 2.89546,31.725172 0.0235,13.37663 -0.2753,24.63913 -0.66396,25.02779 -0.95976,0.95976 -39.4489,0.90384 -40.41119,-0.0587 C 320.84432,126.17732 320.5,116.758 320.5,105.66645 V 85.5 h -93.66665 c -51.51665,0 -94.02574,0.359084 -94.46463,0.797964 -1.62959,1.629553 1.48027,4.258171 7.2184,6.101356 3.25208,1.044626 8.16934,2.957126 10.92723,4.25 2.7579,1.292874 5.75499,2.35068 6.66021,2.35068 0.90523,0 4.49877,1.34964 7.98565,2.99921 3.48689,1.64957 7.09032,2.99957 8.00763,3 0.91731,4.3e-4 3.90766,1.12579 6.64523,2.50079 2.73756,1.375 5.81203,2.50277 6.83216,2.50616 1.02012,0.003 3.20477,0.723 4.85477,1.59913 1.65,0.87613 5.925,2.62257 9.5,3.88097 3.575,1.2584 8.75,3.08343 11.5,4.05562 2.75,0.97219 7.25,2.77134 10,3.9981 2.75,1.22677 6.4625,2.54289 8.25,2.92471 l 3.25,0.69422 0.10122,7.17055 c 0.0557,3.94379 0.16818,61.26052 0.25,127.37049 0.12024,97.14576 0.39815,120.44929 1.44895,121.5 1.89788,1.89772 81.49798,1.90211 83.39537,0.005 0.96475,-0.96481 1.3303,-6.42093 1.43222,-21.37685 l 0.13684,-20.08139 20.3677,-0.11227 20.3677,-0.11226 0.55464,6.48911 c 0.60621,7.09251 0.30864,37.78619 -0.43617,44.98912 -0.6361,6.15172 -1.25131,7.54968 -6.52906,14.83615 -4.27267,5.89886 -14.84403,14.84904 -19.58941,16.58526 -4.12468,1.50912 -12.1331,1.77266 -55.24626,1.81806 -31.24027,0.0329 -44.51798,0.374 -45.17066,1.16043 -0.53227,0.64134 -0.82117,13.62504 -0.68104,30.60697 0.13385,16.22122 0.05,30.05563 -0.18633,30.74313 -0.60626,1.76366 -1.90247,1.49246 -8.71571,-1.82355 z M 130,87.059017 c 0,-1.350368 -1.82294,-2.286482 -3.01631,-1.548936 -0.55897,0.345464 -0.75742,1.047021 -0.44098,1.559017 C 127.29338,88.283714 130,88.275822 130,87.059017 Z M 405.64676,288.59069 c 0.16365,-23.32266 -0.0722,-29.79026 -1.13966,-31.25 -1.28154,-1.75252 -4.31791,-1.84277 -63.3867,-1.88417 -34.12238,-0.0239 -62.35432,-0.35711 -62.73765,-0.74044 -0.94054,-0.94054 -0.99176,-39.4404 -0.0537,-40.37844 0.40775,-0.40775 28.73803,-0.70659 62.95617,-0.66408 37.56422,0.0467 62.6836,-0.29611 63.39799,-0.86513 0.87309,-0.69543 1.12291,-8.80484 0.9532,-30.94199 -0.1265,-16.49977 0.0741,-30.18751 0.44575,-30.41721 C 406.75816,151.03143 490,233.77676 490,234.86654 490,235.92484 407.54957,318 406.48644,318 c -0.70901,0 -0.97955,-9.47545 -0.83968,-29.40931 z"
         id="path36" />
      <path
         style="fill:#0e9c97"
         d="m 229.14608,487.67602 c -0.6435,-0.77537 -3.75211,-2.20225 -6.90804,-3.17085 -3.15592,-0.9686 -7.08804,-2.54893 -8.73804,-3.51185 -1.65,-0.96292 -4.8,-2.28941 -7,-2.94776 -2.2,-0.65835 -6.0859,-2.28793 -8.63533,-3.62128 C 195.31524,473.09093 192.56616,472 191.75559,472 c -0.81056,0 -4.12466,-1.3443 -7.36467,-2.98733 -3.24001,-1.64304 -6.63272,-2.99304 -7.53937,-3 C 175.9449,466.0057 172.6367,464.65 169.5,463 c -3.1367,-1.65 -6.26898,-3 -6.96062,-3 -0.69165,0 -3.90845,-1.3443 -7.14846,-2.98733 -3.24001,-1.64304 -6.7378,-2.99304 -7.77289,-3 -1.03508,-0.007 -3.28508,-0.86925 -5,-1.91619 -1.71491,-1.04693 -5.14303,-2.47456 -7.61803,-3.17252 -2.475,-0.69795 -5.175,-1.81103 -6,-2.4735 -0.825,-0.66248 -3.3,-1.77102 -5.5,-2.46344 -2.2,-0.69242 -6.65071,-2.54776 -9.89046,-4.12298 -3.23976,-1.57522 -6.61476,-2.86414 -7.5,-2.86427 -0.88525,-1.2e-4 -4.08454,-1.33227 -7.10954,-2.96032 -3.025,-1.62805 -6.224085,-2.97795 -7.109079,-2.99977 -0.884993,-0.0218 -4.259993,-1.38398 -7.5,-3.02701 -3.240006,-1.64304 -6.735699,-2.99304 -7.768206,-3 C 73.082277,424.98878 61.499639,418.57459 57.5,414.42296 55.3,412.13936 53.041712,410.09749 52.481581,409.88548 51.921451,409.67347 50.0615,406.575 48.348356,403 c -2.290741,-4.78034 -3.367639,-8.88107 -4.070468,-15.5 -0.572944,-5.39574 -0.877898,-69.47146 -0.761484,-160 l 0.194178,-151 3.322639,-7 C 51.479502,60.132758 60.137051,51.476411 69.5,47.036341 l 7,-3.319519 121.5,-0.185869 c 105.02117,-0.160659 122.65284,0.02079 130,1.337814 4.675,0.838025 9.04699,2.062732 9.71554,2.72157 0.66855,0.658838 3.25605,2.18568 5.75,3.392982 2.49395,1.207301 4.53446,2.624229 4.53446,3.148728 0,0.524499 2.025,3.118524 4.5,5.764499 2.475,2.645975 4.5,5.289389 4.5,5.874254 0,0.584864 0.94695,3.238197 2.10433,5.896295 1.93654,4.447543 2.11268,6.763149 2.20907,29.040505 0.0576,13.31418 -0.22506,24.53739 -0.62814,24.94048 -0.40308,0.40308 -9.08013,0.73287 -19.28233,0.73287 -13.78692,0 -18.74833,-0.32178 -19.32404,-1.2533 -0.42602,-0.68931 -0.63494,-9.63677 -0.46427,-19.88324 0.17548,-10.534902 -0.0941,-19.117223 -0.62041,-19.751384 -0.67668,-0.815351 -27.48379,-1.103925 -98.21247,-1.057239 -95.91463,0.06331 -97.28174,0.09174 -97.28174,2.023218 0,1.376672 0.898,2.142664 3.02092,2.576849 1.66151,0.339814 4.13651,1.334133 5.5,2.209597 1.36349,0.875463 4.50408,2.111311 6.97908,2.746327 2.475,0.635016 6.72585,2.246645 9.44634,3.581398 2.72049,1.334753 5.88287,2.426824 7.0275,2.426824 1.14463,0 2.98845,0.6355 4.09736,1.41221 1.10892,0.77672 4.47155,2.18299 7.47251,3.12505 3.00096,0.94207 7.79092,2.78157 10.64436,4.08779 2.85345,1.30622 6.09213,2.37495 7.19709,2.37495 1.10496,0 4.12485,1.125 6.71086,2.5 2.58602,1.375 5.49443,2.5 6.46313,2.5 0.9687,0 4.61418,1.34964 8.10106,2.99921 3.48689,1.64957 7.11343,2.99957 8.059,3 0.94556,4.3e-4 3.56905,0.96499 5.82998,2.14345 2.26093,1.17846 5.53729,2.43276 7.2808,2.78734 3.16003,0.64266 3.17158,0.66818 3.67001,8.10734 0.275,4.10446 0.4583,61.16274 0.40733,126.79617 -0.0873,112.35652 0.01,119.46018 1.66178,121.5 1.7472,2.15753 1.92221,2.16649 42.30704,2.16649 37.59715,0 40.68272,-0.13014 42.33822,-1.78571 1.5934,-1.59348 1.78563,-3.90799 1.78563,-21.5 V 342.5 H 341.25 361 l 0.15995,5.5 c 0.49531,17.03096 -0.27011,46.80377 -1.28209,49.8701 -2.76084,8.36541 -17.86257,23.3196 -26.39263,26.13477 -2.99174,0.98737 -15.1094,1.29889 -50.79565,1.30586 -37.7738,0.007 -47.12598,0.26852 -48.20343,1.34598 -1.06483,1.06483 -1.30114,7.48911 -1.16148,31.57613 0.15625,26.94897 0.002,30.27271 -1.41663,30.54613 -0.87558,0.16875 -2.11846,-0.32758 -2.76196,-1.10295 z M 406.5,287.04623 c 0,-23.2376 -0.29121,-30.23639 -1.30007,-31.24565 -1.03826,-1.03866 -13.8263,-1.30889 -63.5,-1.34186 l -62.19993,-0.0413 -0.54728,-4.05857 c -0.75592,-5.60588 -0.40227,-34.24266 0.43321,-35.07813 0.3739,-0.3739 28.8064,-0.70252 63.18334,-0.73028 53.46946,-0.0432 62.633,-0.25993 63.3993,-1.49973 0.49268,-0.7971 0.79297,-14.8596 0.66731,-31.25 -0.12565,-16.3904 0.0174,-29.7834 0.31783,-29.76221 0.30046,0.0212 1.45191,1.47807 2.55878,3.23751 1.10686,1.75945 3.3717,4.08978 5.03296,5.17852 1.66127,1.08873 3.91127,3.33873 5,5 1.08874,1.66126 3.33874,3.91126 5,5 1.66127,1.08873 3.91127,3.33873 5,5 1.08874,1.66126 3.33874,3.91126 5,5 1.66127,1.08873 3.91127,3.33873 5,5 1.08874,1.66126 3.33874,3.91126 5,5 1.66127,1.08873 3.91127,3.33873 5,5 1.08874,1.66126 3.33874,3.91126 5,5 1.66127,1.08873 3.91127,3.33873 5,5 1.08874,1.66126 3.33874,3.91126 5,5 1.66127,1.08873 3.91127,3.33873 5,5 1.08874,1.66126 3.33874,3.91126 5,5 1.66127,1.08873 3.91127,3.33873 5,5 1.08874,1.66126 3.41347,3.9261 5.16608,5.03296 1.7526,1.10687 3.39364,2.50536 3.64675,3.10775 0.25311,0.6024 -18.06146,19.61294 -40.69904,42.24566 L 406.5,316.99131 Z"
         id="path34" />
    </g>
  </g>
</svg>
