<?xml version="1.0" encoding="UTF-8" standalone="no"?>
<svg
   xmlns:dc="http://purl.org/dc/elements/1.1/"
   xmlns:cc="http://creativecommons.org/ns#"
   xmlns:rdf="http://www.w3.org/1999/02/22-rdf-syntax-ns#"
   xmlns:svg="http://www.w3.org/2000/svg"
   xmlns="http://www.w3.org/2000/svg"
   xmlns:sodipodi="http://sodipodi.sourceforge.net/DTD/sodipodi-0.dtd"
   xmlns:inkscape="http://www.inkscape.org/namespaces/inkscape"
   width="210mm"
   height="297mm"
   viewBox="0 0 210 297"
   version="1.1"
   id="svg8"
   inkscape:version="1.0.2-2 (e86c870879, 2021-01-15)"
   sodipodi:docname="Chapter_controls_forward_play_music_player_video_player_next-512.svg">
  <defs
     id="defs2" />
  <sodipodi:namedview
     id="base"
     pagecolor="#ffffff"
     bordercolor="#666666"
     borderopacity="1.0"
     inkscape:pageopacity="0.0"
     inkscape:pageshadow="2"
     inkscape:zoom="0.50000001"
     inkscape:cx="1237.2695"
     inkscape:cy="515.24855"
     inkscape:document-units="mm"
     inkscape:current-layer="layer1"
     inkscape:document-rotation="0"
     showgrid="false"
     inkscape:window-width="1350"
     inkscape:window-height="729"
     inkscape:window-x="0"
     inkscape:window-y="0"
     inkscape:window-maximized="0" />
  <metadata
     id="metadata5">
    <rdf:RDF>
      <cc:Work
         rdf:about="">
        <dc:format>image/svg+xml</dc:format>
        <dc:type
           rdf:resource="http://purl.org/dc/dcmitype/StillImage" />
        <dc:title />
      </cc:Work>
    </rdf:RDF>
  </metadata>
  <g
     inkscape:label="Слой 1"
     inkscape:groupmode="layer"
     id="layer1">
    <g
       id="g18"
       transform="translate(3.2116612,4.1425426)">
      <path
         style="fill:#a4dad0;stroke-width:0.264583"
         d="m 91.092262,195.93795 c -5.95123,-0.545 -12.791423,-2.35161 -19.049999,-5.03142 -19.746586,-8.45515 -34.870964,-26.76234 -39.407351,-47.70033 -1.7253,-7.96323 -1.7253,-21.42536 0,-29.38859 4.013747,-18.525709 16.137114,-34.880485 33.005115,-44.524867 7.339105,-4.196177 16.503054,-7.253819 24.129319,-8.050984 3.973099,-0.415304 14.319484,-0.418376 18.538874,-0.0055 6.26358,0.612897 13.69803,2.846273 20.48717,6.154533 7.00044,3.411228 12.51871,7.368152 18.26801,13.099246 5.64894,5.631045 9.6723,11.243056 13.08826,18.256249 3.30844,6.792453 5.54101,14.225133 6.15375,20.487163 0.4184,4.27583 0.4184,14.28108 0,18.55691 -0.37356,3.81765 -1.74715,9.60078 -3.29499,13.87259 -1.32455,3.65559 -4.2024,9.58704 -6.16184,12.7 -5.74399,9.12545 -14.03963,17.22141 -23.25946,22.6996 -7.56971,4.49773 -17.34735,7.92358 -24.76978,8.67874 -3.82119,0.38877 -14.353389,0.50561 -17.727078,0.19666 z m 39.358218,-67.49219 0.0676,-23.21719 h -1.05978 -1.05978 v 10.70001 c 0,7.05443 -0.0928,10.75739 -0.27247,10.86841 -0.14986,0.0926 -7.69274,-4.54078 -16.76195,-10.29644 -9.06922,-5.75566 -16.685671,-10.54012 -16.925449,-10.63213 -0.398169,-0.15279 -0.435962,0.44368 -0.435962,6.88078 0,5.91232 -0.06181,7.07178 -0.383582,7.19526 -0.21753,0.0835 -5.832777,-2.9554 -12.97115,-7.01976 -6.923161,-3.94183 -12.703674,-7.16696 -12.845584,-7.16696 -0.165632,0 -0.258016,8.14717 -0.258016,22.75417 0,12.90353 0.100674,22.75416 0.23255,22.75416 0.127902,0 5.872668,-3.21413 12.766145,-7.14252 6.893478,-3.92838 12.741955,-7.14307 12.996616,-7.14374 0.429615,-10e-4 0.463021,0.51621 0.463021,7.17082 0,5.93339 0.06206,7.14824 0.359328,7.03417 0.19763,-0.0758 7.711443,-4.80692 16.697353,-10.51352 8.98591,-5.70659 16.53351,-10.39001 16.77244,-10.4076 0.39501,-0.0291 0.44045,0.91614 0.50087,10.41906 0.0366,5.74807 0.12504,10.60747 0.19662,10.79867 0.0806,0.21527 0.45826,0.31601 0.99188,0.26458 l 0.86172,-0.083 z"
         id="path32" />
      <path
         style="fill:#28af97;stroke-width:0.264583"
         d="M 93.738096,195.99622 C 75.998567,194.1373 61.182764,186.9043 49.536272,174.41711 39.119074,163.24795 32.961911,149.00859 31.517168,132.74524 c -0.269891,-3.03815 -0.09187,-9.75199 0.308681,-11.64167 0.138807,-0.65484 0.489204,-2.61937 0.778661,-4.36562 1.476841,-8.90956 5.039747,-17.831999 10.19555,-25.532292 2.954384,-4.412432 4.586543,-6.416608 8.238066,-10.115765 5.551452,-5.62387 11.112994,-9.660626 17.961429,-13.037015 7.288302,-3.59325 12.673028,-5.224999 22.357291,-6.774994 3.744153,-0.599263 12.591534,-0.461661 17.065624,0.265418 11.09132,1.80244 19.61222,5.057553 28.17812,10.764474 8.20403,5.465827 15.60897,13.292327 20.67278,21.849671 4.45799,7.533563 7.14407,15.144533 8.7253,24.723053 0.87373,5.2928 0.87373,13.97001 0,19.26281 -1.58123,9.57852 -4.26731,17.18949 -8.7253,24.72305 -11.94133,20.17969 -33.46772,32.75085 -56.92069,33.24103 -2.546616,0.0532 -5.523178,0.003 -6.614584,-0.11117 z m 36.931474,-44.0026 c 0.16912,-0.16912 0.15361,-46.74532 -0.0157,-47.0192 -0.23408,-0.37875 -2.07759,-0.347 -2.46707,0.0425 -0.23618,0.23617 -0.3175,2.98097 -0.3175,10.71562 0,6.52117 -0.0954,10.39813 -0.25593,10.39813 -0.14076,0 -7.60315,-4.65523 -16.58308,-10.34495 -8.97994,-5.68972 -16.496788,-10.41004 -16.704113,-10.4896 -0.207323,-0.0795 -0.482174,0.0215 -0.61078,0.22464 -0.128606,0.20311 -0.235654,3.44788 -0.237882,7.21061 -0.0038,6.40521 -0.03357,6.83012 -0.467071,6.6655 -0.254662,-0.0967 -5.918878,-3.27804 -12.58715,-7.06962 -6.668269,-3.79159 -12.353503,-6.95378 -12.633853,-7.02709 -0.500394,-0.13086 -0.509717,0.29376 -0.509717,23.21176 0,22.10582 0.02458,23.33824 0.46302,23.21686 0.254662,-0.0705 6.110632,-3.3521 13.013269,-7.29243 6.902635,-3.94033 12.635497,-7.11155 12.73969,-7.04715 0.104195,0.0644 0.124303,3.01609 0.04469,6.55932 -0.146624,6.52532 -0.05632,7.84673 0.53626,7.84673 0.180681,0 1.101148,-0.51671 2.04548,-1.14824 5.561787,-3.71948 31.563137,-20.02608 31.705377,-19.88384 0.0939,0.0939 0.12929,4.85166 0.0786,10.5728 -0.0876,9.90055 -0.0684,10.41647 0.39855,10.7005 0.41994,0.25543 2.09693,0.22505 2.36482,-0.0428 z"
         id="path30" />
      <path
         style="fill:#1baa91;stroke-width:0.264583"
         d="m 95.590179,195.9935 c -2.216412,-0.1387 -2.483895,-0.19367 -1.322917,-0.27186 l 1.455208,-0.098 -1.190624,-0.0874 c -6.237777,-0.45791 -14.351066,-2.272 -18.635633,-4.16684 l -1.4727,-0.65129 v -5.26376 -5.26376 l -0.700249,-0.31905 c -0.385138,-0.17548 -1.010216,-0.55685 -1.389062,-0.84748 -0.378849,-0.29064 -1.760376,-1.21967 -3.070064,-2.06452 -14.18066,-9.14763 -23.471976,-23.17657 -26.237848,-39.61647 -0.666608,-3.96221 -0.666411,-13.85781 3.52e-4,-17.68334 1.084699,-6.22342 2.76505,-11.35781 5.458965,-16.68011 4.679683,-9.24554 11.300427,-16.629345 20.166127,-22.490332 1.64651,-1.088484 3.303619,-2.212814 3.682468,-2.49851 0.378846,-0.285697 1.003924,-0.663023 1.389062,-0.838503 l 0.700249,-0.319056 v -5.2168 c 0,-3.874572 0.08583,-5.288033 0.333597,-5.49366 0.631606,-0.524186 7.477202,-2.657238 10.646611,-3.317427 2.84481,-0.592575 6.250045,-1.079031 9.260416,-1.3229 0.928653,-0.07523 0.880023,-0.09705 -0.396875,-0.178041 -1.120976,-0.07111 -0.817128,-0.129908 1.322917,-0.256016 3.359888,-0.197992 10.281191,0.03165 8.466671,0.280915 l -1.19063,0.163558 1.45521,0.04459 c 3.9126,0.119878 11.24845,1.582455 16.13958,3.217813 10.37984,3.470514 19.14417,9.020564 26.99065,17.091955 7.92066,8.147686 13.55683,17.963661 16.51783,28.767504 0.92489,3.37465 1.99985,9.08971 1.99985,10.63226 0,0.47896 0.13972,0.91741 0.31048,0.97433 0.44303,0.14768 0.44303,12.43353 0,12.58121 -0.17076,0.0569 -0.31048,0.49846 -0.31048,0.98119 0,0.48274 -0.24033,2.28852 -0.53408,4.01285 -2.28672,13.42354 -8.47592,25.59986 -17.9836,35.38006 -7.86657,8.09205 -16.55547,13.58952 -26.99565,17.08015 -4.96536,1.66015 -12.20459,3.10921 -16.13458,3.22962 l -1.45521,0.0446 1.19063,0.18511 c 0.99984,0.15544 0.82558,0.19147 -1.08756,0.22484 -1.25299,0.0219 -2.8008,0.0817 -3.439579,0.13309 -0.638773,0.0513 -2.411563,0.0151 -3.939532,-0.0805 z m 26.780701,-16.71237 c 10.89931,-4.2263 21.37636,-14.32748 27.20244,-26.22651 7.64288,-15.60964 7.64112,-33.51178 -0.005,-49.08542 -4.51045,-9.187124 -10.77218,-16.365733 -19.1271,-21.927833 -2.75096,-1.831387 -8.45618,-4.680222 -9.91422,-4.95055 l -0.8599,-0.159429 v 21.689217 c 0,11.929075 -0.0737,21.689215 -0.16383,21.689215 -0.2396,0 -2.21346,-1.20889 -14.35993,-8.7948 -6.023542,-3.76191 -11.143229,-6.80305 -11.377086,-6.75807 -0.375772,0.0723 -0.433385,0.90402 -0.49566,7.15586 -0.03876,3.89075 -0.141158,7.0741 -0.227555,7.0741 -0.08639,0 -5.874776,-3.23598 -12.863064,-7.19107 -11.957613,-6.76752 -12.727289,-7.16193 -13.06776,-6.69631 -0.299371,0.40942 -0.361778,4.43698 -0.361778,23.34805 0,22.11497 0.05706,23.87682 0.773369,23.87682 0.124071,0 0.804492,-0.39505 1.512046,-0.8779 1.694897,-1.15663 23.728576,-13.67418 24.069608,-13.67418 0.169487,0 0.258908,2.58102 0.249796,7.2099 -0.01387,7.04147 -0.0016,7.21168 0.52117,7.28659 0.307751,0.0441 0.982695,-0.30331 1.5875,-0.81709 1.054939,-0.89616 31.927354,-20.55856 32.279504,-20.55856 0.10307,0 0.13677,0.7951 0.0749,1.7669 -0.0835,1.31126 -0.23143,1.84004 -0.57368,2.05052 -0.82307,0.50619 -5.5657,3.80077 -6.5731,4.56617 l -0.97994,0.74453 -0.0123,20.04723 -0.0122,20.04722 0.72761,-0.17526 c 0.40018,-0.0964 1.28939,-0.3931 1.97601,-0.65934 z m 7.5205,-25.42318 c -0.26428,-0.98662 -0.20411,-1.16846 0.49151,-1.4854 l 0.66145,-0.30138 0.004,-22.29682 c 0.002,-12.26325 0.10445,-22.45518 0.22715,-22.64873 0.12671,-0.19989 0.5536,-0.31419 0.98814,-0.26459 l 0.76504,0.0873 v 23.6802 23.68021 l -1.48731,0.0783 c -1.35914,0.0716 -1.50133,0.026 -1.65003,-0.52916 z"
         id="path28" />
      <path
         style="fill:#13a78d;stroke-width:0.264583"
         d="m 104.5364,195.79991 c 0.191,-0.0764 0.4192,-0.067 0.50712,0.0209 0.0879,0.0879 -0.0683,0.15045 -0.34726,0.13896 -0.30823,-0.0127 -0.37092,-0.0754 -0.15986,-0.15985 z m -0.74414,-5.36395 c 0,-3.44658 0.0935,-5.0652 0.29996,-5.19279 0.31038,-0.19183 2.82542,-0.70868 5.7398,-1.17956 0.92077,-0.14877 3.36155,-0.79474 5.42395,-1.43548 9.03984,-2.80848 16.28446,-7.09214 22.9857,-13.59116 4.76893,-4.62501 8.14049,-9.16549 11.03476,-14.86048 4.24369,-8.35024 6.14097,-16.27826 6.14188,-25.66458 7.9e-4,-9.19022 -1.70129,-16.55553 -5.71723,-24.73854 -3.14573,-6.409842 -6.37369,-10.855914 -11.45998,-15.784551 -4.97324,-4.819102 -10.07686,-8.320172 -16.03092,-10.997188 -3.46228,-1.556685 -9.76385,-3.609033 -12.37816,-4.031429 -2.91438,-0.470876 -5.42942,-0.987729 -5.7398,-1.179554 -0.20654,-0.127649 -0.29996,-1.752102 -0.29996,-5.215892 v -5.030507 l 1.52136,0.164783 c 3.40309,0.368599 7.15466,1.01197 10.07464,1.727736 26.00959,6.375673 45.72492,27.78229 50.06058,54.355062 0.28622,1.7542 0.52879,3.6657 0.53905,4.24778 0.0137,0.77761 0.0724,0.92078 0.22144,0.53974 0.12153,-0.31077 0.2679,0.77608 0.36524,2.71198 0.18799,3.73901 -0.0595,9.95497 -0.36524,9.17314 -0.149,-0.38104 -0.20774,-0.23788 -0.22144,0.53973 -0.03,1.70539 -0.99566,7.18985 -1.84761,10.49404 -4.80758,18.64567 -18.01662,34.79722 -35.34489,43.2185 -7.35183,3.57287 -15.54513,5.88447 -23.34948,6.58764 l -1.65365,0.14899 z m -14.816664,-6.49885 c -21.81767,-3.93272 -39.230235,-20.18681 -44.738988,-41.76246 -2.083566,-8.16052 -2.083566,-19.16497 0,-27.32549 4.924368,-19.286839 19.655023,-34.700739 38.52128,-40.307987 5.01946,-1.491835 11.698263,-2.388447 12.141482,-1.629961 0.0548,0.09377 0.186733,7.355483 0.293196,16.137142 l 0.193569,15.966656 -0.542041,-0.29009 c -0.298125,-0.15955 -0.787996,-0.2901 -1.088605,-0.2901 -0.538863,0 -0.54656,0.10061 -0.54656,7.14375 0,3.92907 -0.08405,7.14375 -0.186777,7.14375 -0.21816,0 -3.146468,-1.61894 -15.909454,-8.7957 -5.142145,-2.89148 -9.547457,-5.21908 -9.789582,-5.17245 -0.40667,0.0783 -0.440227,1.8896 -0.440227,23.76136 0,23.60343 0.0016,23.67682 0.537924,23.75361 0.297709,0.0426 1.065697,-0.32477 1.719792,-0.82275 1.29278,-0.98422 23.53549,-13.67407 23.967843,-13.67407 0.175816,0 0.226756,2.5268 0.149357,7.40834 l -0.117461,7.40833 h 0.726318 c 0.501946,0 1.023371,-0.31706 1.687936,-1.02637 0.567301,-0.6055 7.325732,-5.05379 16.481602,-10.84792 8.53599,-5.40185 15.59045,-9.82154 15.67657,-9.82154 0.22608,0 0.18516,2.72534 -0.0459,3.05776 -0.10692,0.1538 -3.76627,2.58508 -8.13189,5.40284 -10.73988,6.93199 -20.204787,13.19939 -20.736605,13.73121 -0.899615,0.89961 -2.120071,1.62068 -2.74311,1.62068 h -0.643863 l -0.175189,9.56827 c -0.09636,5.26255 -0.175191,11.87425 -0.175191,14.69268 0,3.86878 -0.08104,5.14939 -0.330729,5.22634 -1.120153,0.34522 -2.845797,0.26851 -5.754687,-0.25583 z m 41.274994,-30.65836 c 0,-0.5524 0.15209,-0.95609 0.39538,-1.04945 0.34574,-0.13267 0.40387,-2.96809 0.46302,-22.58404 l 0.0676,-22.43231 0.85989,-0.0829 0.8599,-0.0829 v 23.56468 23.56468 h -1.32292 -1.32292 z M 104.5364,61.127002 c 0.191,-0.07643 0.4192,-0.06703 0.50712,0.02089 0.0879,0.08792 -0.0683,0.150453 -0.34726,0.138964 -0.30823,-0.0127 -0.37092,-0.07539 -0.15986,-0.159852 z"
         id="path26" />
      <path
         style="fill:#07a387;stroke-width:0.264583"
         d="m 129.45684,182.38277 v -5.66039 l 2.84427,-2.12579 c 7.67462,-5.73596 13.67632,-13.01084 17.82864,-21.61073 7.49662,-15.52627 7.37571,-34.07485 -0.32325,-49.58934 -4.16813,-8.399357 -9.90166,-15.269133 -17.50539,-20.974507 l -2.84427,-2.134169 v -5.653592 c 0,-3.109476 0.0635,-5.653593 0.14109,-5.653593 0.33412,0 3.09198,1.517744 5.4065,2.975385 10.19581,6.421129 18.88124,15.971344 24.20129,26.610957 3.5102,7.020089 5.99437,15.678939 6.73126,23.462609 0.14744,1.55746 0.25209,2.01512 0.30248,1.32292 0.0424,-0.58208 0.15814,0.34065 0.25724,2.05052 0.0991,1.70987 0.0991,4.50784 0,6.21771 -0.0991,1.70987 -0.21486,2.6326 -0.25724,2.05052 -0.0504,-0.6922 -0.15504,-0.23453 -0.30248,1.32292 -0.92514,9.77205 -4.13128,19.43945 -9.30126,28.04583 -4.94491,8.23169 -12.97063,16.50584 -20.97191,21.62106 -2.02273,1.29313 -5.74784,3.38206 -6.0311,3.38206 -0.0967,0 -0.17587,-2.54717 -0.17587,-5.66038 z M 71.409356,177.18793 C 60.25967,171.23812 50.88183,160.35687 46.273581,148.0225 42.389274,137.62583 41.752316,125.37714 44.53479,114.58563 47.674329,102.40928 54.935589,91.52238 64.936383,83.997248 c 2.577696,-1.939595 6.917706,-4.575305 7.965776,-4.837656 l 0.727604,-0.182133 v 14.307657 c 0,13.552484 -0.02458,14.297634 -0.465635,14.117744 -0.256098,-0.10445 -1.630307,-0.82581 -3.053794,-1.60303 -1.42349,-0.77721 -2.761766,-1.34649 -2.973951,-1.26507 -0.571693,0.21938 -0.584369,47.73005 -0.01278,47.94938 0.447752,0.17182 1.718622,-0.4587 2.279795,-1.13108 0.450927,-0.54031 23.262081,-13.58074 23.756272,-13.58074 0.350883,0 0.437928,2.30567 0.10671,2.82652 -0.109469,0.17214 -2.45913,1.64583 -5.22147,3.27487 -8.620225,5.08361 -11.41386,6.80425 -12.139916,7.47713 -0.386207,0.35793 -1.056127,0.79738 -1.488713,0.97656 l -0.786519,0.32579 v 12.6679 c 0,10.50087 -0.06152,12.6679 -0.359629,12.6679 -0.197798,0 -1.035146,-0.36048 -1.860777,-0.80106 z m 59.030074,-23.17538 c -0.34429,-0.3443 -0.1955,-1.62897 0.20654,-1.78325 0.34574,-0.13267 0.40387,-2.96809 0.46302,-22.58404 l 0.0676,-22.43231 h 0.79375 0.79375 v 23.41562 23.41563 l -1.06794,0.0786 c -0.58736,0.0432 -1.15291,-0.006 -1.25677,-0.11024 z m -34.672861,-0.27704 c -0.358413,-0.35841 -0.165783,-2.15842 0.286631,-2.6784 0.430194,-0.49444 31.31344,-20.16395 31.65957,-20.16395 0.0861,0 0.15657,0.63639 0.15657,1.4142 0,1.01768 -0.12982,1.52664 -0.46302,1.81525 -0.25466,0.22058 -6.23003,4.06584 -13.2786,8.54501 -7.04857,4.47918 -13.87793,8.84153 -15.176354,9.69412 -2.301515,1.51126 -2.822562,1.73601 -3.184797,1.37377 z"
         id="path24" />
      <path
         style="fill:#1e8875;stroke-width:0.264583"
         d="m 130.43943,154.01255 c -0.34429,-0.3443 -0.1955,-1.62897 0.20654,-1.78325 0.34574,-0.13267 0.40387,-2.96809 0.46302,-22.58404 l 0.0676,-22.43231 h 0.79375 0.79375 v 23.41562 23.41563 l -1.06794,0.0786 c -0.58736,0.0432 -1.15291,-0.006 -1.25677,-0.11024 z m -61.043,-1.50318 v -1.40253 l 11.723039,-6.66726 c 6.447673,-3.66699 11.865017,-6.66726 12.038541,-6.66726 0.525775,0 0.401537,2.49068 -0.147519,2.95746 -0.254661,0.21649 -5.046926,2.99142 -10.649478,6.16649 -5.602552,3.17507 -10.67317,6.05249 -11.268038,6.39425 -1.553651,0.8926 -1.696545,0.82681 -1.696545,-0.78115 z m 26.511275,-0.10247 0.07935,-1.505 15.742705,-9.99347 c 8.65849,-5.49641 15.83201,-9.99838 15.94115,-10.00437 0.10914,-0.006 0.19843,0.62549 0.19843,1.4033 0,1.01771 -0.12981,1.52662 -0.46302,1.81518 -0.25466,0.22054 -6.41614,4.18691 -13.69218,8.81415 -7.27605,4.62725 -14.133134,8.98963 -15.237981,9.69419 -1.104844,0.70456 -2.152583,1.28102 -2.328306,1.28102 -0.221462,0 -0.295148,-0.4618 -0.240147,-1.505 z"
         id="path22" />
      <path
         style="fill:#137867;stroke-width:0.264583"
         d="m 69.39643,152.63 c 0,-0.63857 0.172389,-1.16777 0.463021,-1.4214 0.462074,-0.40324 22.228904,-12.7983 22.983374,-13.08782 0.325803,-0.12503 0.38304,0.0725 0.31586,1.08981 l -0.08205,1.2425 -11.473322,6.59712 c -6.310328,3.62841 -11.638375,6.59711 -11.840104,6.59711 -0.249057,0 -0.366781,-0.32652 -0.366781,-1.01732 z m 61.38333,0.50377 c 0,-0.28245 0.11906,-0.58714 0.26458,-0.67707 0.17301,-0.10693 0.26459,-7.89615 0.26459,-22.5052 0,-22.16529 0.004,-22.34168 0.52916,-22.34168 0.52511,0 0.52917,0.17639 0.52917,23.01875 v 23.01875 h -0.79375 c -0.60932,0 -0.79375,-0.11933 -0.79375,-0.51355 z m -34.660415,-0.87779 v -1.12676 l 10.649475,-6.72593 c 19.52342,-12.33047 20.56067,-12.98097 20.69867,-12.98097 0.0755,0 0.13727,0.46243 0.13727,1.02761 0,1.00629 -0.0508,1.06024 -2.4474,2.60103 -1.34606,0.86539 -8.30549,5.34406 -15.46539,9.9526 -7.1599,4.60855 -13.142788,8.37918 -13.295312,8.37918 -0.152522,0 -0.277313,-0.50704 -0.277313,-1.12676 z"
         id="path20" />
    </g>
  </g>
</svg>
