<?xml version="1.0" encoding="UTF-8" standalone="no"?>
<svg
   xmlns:dc="http://purl.org/dc/elements/1.1/"
   xmlns:cc="http://creativecommons.org/ns#"
   xmlns:rdf="http://www.w3.org/1999/02/22-rdf-syntax-ns#"
   xmlns:svg="http://www.w3.org/2000/svg"
   xmlns="http://www.w3.org/2000/svg"
   xmlns:sodipodi="http://sodipodi.sourceforge.net/DTD/sodipodi-0.dtd"
   xmlns:inkscape="http://www.inkscape.org/namespaces/inkscape"
   width="259.82083mm"
   height="242.8875mm"
   viewBox="0 0 259.82083 242.8875"
   version="1.1"
   id="svg8"
   sodipodi:docname="gear.svg"
   inkscape:version="1.0.2-2 (e86c870879, 2021-01-15)">
  <defs
     id="defs2">
    <filter
       inkscape:label="Light Eraser"
       style="color-interpolation-filters:sRGB;"
       id="filter74">
      <feColorMatrix
         values="1 0 0 0 0 0 1 0 0 0 0 0 1 0 0 -21.25 -71.54 -7.21 50 0 "
         result="colormatrix"
         id="feColorMatrix70" />
      <feComposite
         in2="colormatrix"
         operator="arithmetic"
         k2="1"
         result="composite"
         id="feComposite72" />
    </filter>
  </defs>
  <sodipodi:namedview
     id="base"
     pagecolor="#ffffff"
     bordercolor="#666666"
     borderopacity="1.0"
     inkscape:pageopacity="0"
     inkscape:pageshadow="2"
     inkscape:zoom="0.44"
     inkscape:cx="480.46297"
     inkscape:cy="566.16995"
     inkscape:document-units="px"
     inkscape:current-layer="layer1"
     inkscape:document-rotation="0"
     showgrid="false"
     inkscape:window-width="1920"
     inkscape:window-height="1017"
     inkscape:window-x="-8"
     inkscape:window-y="-8"
     inkscape:window-maximized="1"
     fit-margin-top="0"
     fit-margin-left="0"
     fit-margin-right="0"
     fit-margin-bottom="0"
     inkscape:pagecheckerboard="true" />
  <metadata
     id="metadata5">
    <rdf:RDF>
      <cc:Work
         rdf:about="">
        <dc:format>image/svg+xml</dc:format>
        <dc:type
           rdf:resource="http://purl.org/dc/dcmitype/StillImage" />
        <dc:title></dc:title>
      </cc:Work>
    </rdf:RDF>
  </metadata>
  <g
     inkscape:label="Слой 1"
     inkscape:groupmode="layer"
     id="layer1"
     transform="translate(27.856848,-28.990774)">
    <g
       id="g18"
       style="filter:url(#filter74)"
       transform="translate(-280.72473,-24.553333)">
      <path
         style="fill:#0e9c97;stroke-width:0.264583"
         d="m 338.97706,295.23904 1.05834,-0.18949 -1.25122,-0.0376 c -1.91792,-0.0575 -4.40973,-0.98977 -9.33212,-3.49125 -9.58303,-4.86995 -21.37589,-12.0575 -24.91728,-15.18666 -1.81321,-1.60214 -3.30716,-3.88992 -4.19072,-6.41752 -0.58155,-1.66361 -0.74435,-2.67521 -0.84281,-5.23691 -0.11683,-3.0395 -0.0819,-3.31174 0.81822,-6.37913 1.30683,-4.45328 1.74591,-7.4919 1.74716,-12.09102 0.002,-7.15084 -1.25994,-12.48264 -4.49395,-18.98824 -3.39425,-6.82795 -7.77287,-11.89541 -13.73431,-15.89497 -4.79677,-3.21818 -8.86381,-5.02665 -14.2682,-6.34458 -4.38701,-1.06982 -6.39944,-2.12618 -9.04701,-4.74896 -2.31662,-2.29493 -4.03695,-5.32945 -4.4881,-7.91664 -0.41242,-2.36504 -0.78915,-7.53024 -0.84911,-11.64167 l -0.0559,-3.83645 -0.15815,3.175 c -0.0946,1.8996 -0.15832,-0.38549 -0.15859,-5.68855 -2.5e-4,-5.17973 0.0657,-7.59895 0.15859,-5.82083 l 0.15904,3.04271 0.0528,-3.62361 c 0.0606,-4.1581 0.47434,-9.72933 0.88045,-11.85452 0.52596,-2.75236 1.93459,-5.18808 4.43688,-7.67201 2.88998,-2.86877 4.4197,-3.67634 9.16609,-4.83898 7.85217,-1.92333 14.59053,-5.66199 20.11598,-11.16091 10.958,-10.9054 15.17895,-27.74854 10.54464,-42.077 -0.93061,-2.877273 -1.14906,-6.950776 -0.52355,-9.762366 0.95969,-4.313611 3.13701,-7.33996 7.53392,-10.471741 7.25273,-5.165878 22.24,-13.615286 27.98784,-15.778768 2.33521,-0.878971 7.56936,-0.91586 10.304,-0.07262 3.15415,0.972595 4.24841,1.706975 8.0155,5.379346 1.97334,1.923721 4.48086,4.15431 5.57227,4.956865 8.32029,6.118241 19.05208,9.158785 28.83958,8.170862 5.90612,-0.596147 9.92165,-1.753873 15.21355,-4.386246 4.532,-2.254378 7.43886,-4.392233 11.77307,-8.658516 2.7805,-2.736927 3.95412,-3.701936 5.29255,-4.351809 1.72508,-0.837611 4.42889,-1.653619 5.59444,-1.688395 0.5806,-0.01732 0.58704,-0.03332 0.0941,-0.233701 -0.67058,-0.272589 3.05008,-0.481477 4.37374,-0.245554 0.74076,0.13203 0.79026,0.17439 0.25647,0.219472 -0.37543,0.03171 0.0822,0.216928 1.05833,0.428334 5.39553,1.168554 28.88139,14.673665 33.26625,19.129141 1.98713,2.019143 3.61562,5.425773 4.18779,8.760453 0.54017,3.148148 0.36107,5.048211 -0.82358,8.737534 -1.38446,4.311571 -1.81592,7.18307 -1.80887,12.038539 0.0129,8.8704 2.33192,16.31042 7.47193,23.97172 5.76425,8.59175 14.29707,14.42467 25.08602,17.14847 3.97159,1.00267 5.0711,1.47229 7.1909,3.07133 3.3356,2.51618 5.80631,6.34404 6.36625,9.8632 0.41852,2.63033 0.81242,8.3771 0.87319,12.73931 l 0.0536,3.84972 0.15733,-3.30729 c 0.10003,-2.10308 0.15732,-0.27268 0.15732,5.02708 0,5.29976 -0.0573,7.13016 -0.15732,5.02708 l -0.15733,-3.30729 -0.0536,3.86472 c -0.069,4.97435 -0.51325,10.52913 -1.00026,12.50764 -0.78256,3.17924 -2.73395,6.13921 -5.61283,8.51384 -2.30826,1.90397 -3.65282,2.51294 -8.05864,3.64987 -12.56467,3.24235 -22.09443,10.88009 -27.77916,22.26393 -2.94136,5.89016 -4.1409,10.62688 -4.35522,17.19792 -0.19666,6.02915 0.1676,8.57434 2.2341,15.61042 0.53466,1.82041 0.52295,5.93872 -0.0229,8.06979 -0.78615,3.06899 -2.32982,5.80962 -4.33795,7.70158 -3.70058,3.4865 -15.10372,10.52737 -25.37634,15.66862 -4.90358,2.45415 -7.18081,3.33495 -8.74905,3.38402 -0.99181,0.031 -0.99361,0.0331 -0.20678,0.23328 0.52017,0.13236 -0.11816,0.20197 -1.85209,0.20197 -1.73393,0 -2.37226,-0.0696 -1.85208,-0.20197 0.77959,-0.19838 0.77556,-0.20254 -0.22639,-0.23328 -1.59882,-0.0491 -4.0545,-0.7758 -6.1007,-1.80544 -1.49399,-0.75177 -2.55125,-1.62169 -5.203,-4.28103 -3.82779,-3.83876 -7.03703,-6.2309 -11.35638,-8.46496 -10.06814,-5.20745 -21.53738,-6.15119 -32.3584,-2.6626 -3.34241,1.07756 -8.81547,3.85831 -11.77319,5.98171 -1.35285,0.97124 -3.97222,3.26515 -5.82084,5.09759 -2.30028,2.28016 -3.86275,3.59619 -4.9505,4.16967 -1.93348,1.01937 -5.07483,1.9205 -6.87196,1.9713 l -1.32824,0.0376 1.05834,0.18949 c 0.78541,0.14062 0.44425,0.18949 -1.32292,0.18949 -1.76717,0 -2.10833,-0.0489 -1.32292,-0.18949 z m 50.02645,-69.07377 c 15.20423,-1.48404 29.08571,-9.45624 37.68821,-21.64454 4.28562,-6.07201 6.93102,-12.05561 8.55405,-19.34836 3.46305,-15.56051 -0.70296,-32.02487 -11.29298,-44.63059 -7.77284,-9.25231 -19.65287,-15.84479 -31.86857,-17.68455 -14.06871,-2.11884 -28.46939,1.72738 -40.01028,10.68617 -9.36596,7.27047 -16.28238,18.54983 -18.76479,30.60178 -3.43745,16.68865 2.04166,34.67952 14.29269,46.93054 10.82686,10.82686 26.51047,16.54302 41.40167,15.08955 z m -133.83792,-52.9653 c -0.0557,-0.61846 -0.10128,-0.11244 -0.10128,1.12448 0,1.23693 0.0456,1.74295 0.10128,1.12448 0.0557,-0.61846 0.0557,-1.63049 0,-2.24896 z M 428.86925,53.487733 c -0.32742,-0.06306 -0.8632,-0.06306 -1.19062,0 -0.32742,0.06306 -0.0595,0.114662 0.59531,0.114662 0.65484,0 0.92273,-0.0516 0.59531,-0.114662 z m -90.09062,-0.273755 c 0.9095,-0.05166 2.39778,-0.05166 3.30729,0 0.9095,0.05166 0.16536,0.09394 -1.65365,0.09394 -1.81901,0 -2.56315,-0.04227 -1.65364,-0.09394 z"
         id="path20" />
    </g>
    <path
       style="fill:none;stroke-width:1.13636"
       d="m 468.09416,650.24625 c -48.38231,-7.23103 -83.97139,-25.20457 -115.90909,-58.53754 -25.28438,-26.38896 -42.66414,-58.67354 -49.41254,-91.78851 -5.30595,-26.03675 -5.13245,-59.68752 0.43411,-84.19418 12.38387,-54.51978 50.55222,-103.19517 100.68461,-128.40125 20.96844,-10.54272 43.77552,-17.4002 64.77109,-19.47494 19.43103,-1.92012 48.67208,-0.59891 63.63636,2.87533 66.8393,15.51796 120.16445,63.46899 141.50489,127.24399 8.28364,24.75529 11.1949,52.14831 8.57444,80.67974 -7.55033,82.20775 -69.56084,151.2277 -151.78387,168.94096 -9.12605,1.96601 -16.06259,2.51874 -35.22727,2.80699 -13.125,0.19741 -25.39773,0.12964 -27.27273,-0.15059 z"
       id="path38"
       transform="matrix(0.26458333,0,0,0.26458333,-27.856848,28.990774)" />
    <path
       style="fill:none;stroke-width:1.13636"
       d="m 468.09416,650.24625 c -48.38231,-7.23103 -83.97139,-25.20457 -115.90909,-58.53754 -25.28438,-26.38896 -42.66414,-58.67354 -49.41254,-91.78851 -5.30595,-26.03675 -5.13245,-59.68752 0.43411,-84.19418 12.38387,-54.51978 50.55222,-103.19517 100.68461,-128.40125 20.96844,-10.54272 43.77552,-17.4002 64.77109,-19.47494 19.43103,-1.92012 48.67208,-0.59891 63.63636,2.87533 66.8393,15.51796 120.16445,63.46899 141.50489,127.24399 8.28364,24.75529 11.1949,52.14831 8.57444,80.67974 -7.55033,82.20775 -69.56084,151.2277 -151.78387,168.94096 -9.12605,1.96601 -16.06259,2.51874 -35.22727,2.80699 -13.125,0.19741 -25.39773,0.12964 -27.27273,-0.15059 z"
       id="path40"
       transform="matrix(0.26458333,0,0,0.26458333,-27.856848,28.990774)" />
    <path
       style="fill:none;stroke-width:2.27273"
       d="M 450.892,646.74465 C 397.90497,635.4147 346.1984,596.2364 321.91082,549.01504 c -16.2138,-31.52382 -20.25184,-47.00684 -21.53958,-82.58896 -1.25835,-34.77007 2.85754,-58.16462 14.90939,-84.74441 28.7176,-63.3353 89.42607,-107.625 154.36137,-112.61392 46.16794,-3.54704 81.37318,3.42068 116.47728,23.05284 23.31731,13.04034 58.99243,48.71546 72.03277,72.03277 31.79993,56.86118 32.86561,127.37184 2.77623,183.69095 C 625.9973,613.22556 562.616,650.95488 488.76026,650.3317 476.68272,650.22981 459.642,648.61563 450.892,646.74465 Z"
       id="path42"
       transform="matrix(0.26458333,0,0,0.26458333,-27.856848,28.990774)" />
  </g>
</svg>
