<?xml version="1.0" encoding="UTF-8" standalone="no"?>
<svg
   xmlns:dc="http://purl.org/dc/elements/1.1/"
   xmlns:cc="http://creativecommons.org/ns#"
   xmlns:rdf="http://www.w3.org/1999/02/22-rdf-syntax-ns#"
   xmlns:svg="http://www.w3.org/2000/svg"
   xmlns="http://www.w3.org/2000/svg"
   xmlns:sodipodi="http://sodipodi.sourceforge.net/DTD/sodipodi-0.dtd"
   xmlns:inkscape="http://www.inkscape.org/namespaces/inkscape"
   version="1.1"
   id="svg132"
   width="96"
   height="96"
   viewBox="0 0 96 96"
   sodipodi:docname="icons8-restart-96.svg"
   inkscape:version="1.0.2-2 (e86c870879, 2021-01-15)">
  <metadata
     id="metadata138">
    <rdf:RDF>
      <cc:Work
         rdf:about="">
        <dc:format>image/svg+xml</dc:format>
        <dc:type
           rdf:resource="http://purl.org/dc/dcmitype/StillImage" />
        <dc:title></dc:title>
      </cc:Work>
    </rdf:RDF>
  </metadata>
  <defs
     id="defs136" />
  <sodipodi:namedview
     pagecolor="#ffffff"
     bordercolor="#666666"
     borderopacity="1"
     objecttolerance="10"
     gridtolerance="10"
     guidetolerance="10"
     inkscape:pageopacity="0"
     inkscape:pageshadow="2"
     inkscape:window-width="1366"
     inkscape:window-height="705"
     id="namedview134"
     showgrid="false"
     inkscape:zoom="2.8020833"
     inkscape:cx="49.9213"
     inkscape:cy="51.348606"
     inkscape:window-x="-8"
     inkscape:window-y="-8"
     inkscape:window-maximized="1"
     inkscape:current-layer="g144" />
  <g
     inkscape:groupmode="layer"
     inkscape:label="Image"
     id="g140">
    <g
       id="g144"
       transform="translate(-1.4275095,-3.5687733)"
       inkscape:transform-center-x="-0.35687732"
       inkscape:transform-center-y="0.89219331">
      <path
         style="fill:#06a4aa"
         d="M 38.381121,88.850795 C 9.1867447,80.666728 -0.10120039,43.632776 21.979473,23.452284 47.368072,0.24853429 86.693612,17.220156 86.715713,51.390335 86.732294,77.026414 62.684746,95.663837 38.381121,88.850795 Z M 56.41248,74.870717 c 14.686165,-5.181581 21.352999,-22.629889 13.652243,-35.730382 -5.038252,-8.571053 -12.804725,-4.051816 -8.847062,5.148021 2.662876,6.190023 2.675399,8.362924 0.07911,13.726146 -7.834127,16.183143 -32.767926,5.523981 -26.842069,-11.474944 1.251238,-3.589302 1.599317,-3.733281 3.928817,-1.625113 3.39527,3.072678 4.973358,0.873382 4.973358,-6.931099 0,-9.047995 -0.552877,-9.593011 -9.731385,-9.593011 -8.009375,0 -10.006552,1.42212 -6.867845,4.890353 1.531886,1.692714 1.472955,2.181868 -0.86895,7.212754 -9.389554,20.170669 9.736603,41.711419 30.523783,34.377275 z"
         id="path150" />
    </g>
  </g>
</svg>
