<?xml version="1.0" encoding="UTF-8" standalone="no"?>
<svg
   xmlns:dc="http://purl.org/dc/elements/1.1/"
   xmlns:cc="http://creativecommons.org/ns#"
   xmlns:rdf="http://www.w3.org/1999/02/22-rdf-syntax-ns#"
   xmlns:svg="http://www.w3.org/2000/svg"
   xmlns="http://www.w3.org/2000/svg"
   xmlns:sodipodi="http://sodipodi.sourceforge.net/DTD/sodipodi-0.dtd"
   xmlns:inkscape="http://www.inkscape.org/namespaces/inkscape"
   version="1.1"
   id="svg10"
   width="512"
   height="512"
   viewBox="0 0 512 512"
   sodipodi:docname="play_alt-512.svg"
   inkscape:version="1.0.2-2 (e86c870879, 2021-01-15)">
  <metadata
     id="metadata16">
    <rdf:RDF>
      <cc:Work
         rdf:about="">
        <dc:format>image/svg+xml</dc:format>
        <dc:type
           rdf:resource="http://purl.org/dc/dcmitype/StillImage" />
      </cc:Work>
    </rdf:RDF>
  </metadata>
  <defs
     id="defs14" />
  <sodipodi:namedview
     pagecolor="#ffffff"
     bordercolor="#666666"
     borderopacity="1"
     objecttolerance="10"
     gridtolerance="10"
     guidetolerance="10"
     inkscape:pageopacity="0"
     inkscape:pageshadow="2"
     inkscape:window-width="1366"
     inkscape:window-height="705"
     id="namedview12"
     showgrid="false"
     inkscape:zoom="0.74301455"
     inkscape:cx="395.45602"
     inkscape:cy="217.05518"
     inkscape:window-x="-8"
     inkscape:window-y="-8"
     inkscape:window-maximized="1"
     inkscape:current-layer="g18" />
  <g
     inkscape:groupmode="layer"
     inkscape:label="Image"
     id="g18">
    <g
       id="g22"
       transform="translate(599.24802,-19.515094)">
      <path
         style="fill:#0e9c97"
         d="m -370.5539,530.03346 c -5.5,-0.67401 -5.5,-0.67401 -0.5,-0.94946 4.20041,-0.23141 3.32086,-0.49084 -5.5,-1.62225 -114.63739,-14.70409 -204.72421,-104.7909 -219.42829,-219.42829 -1.11705,-8.70889 -1.38999,-9.64709 -1.60005,-5.5 -0.59612,11.76896 -1.77387,-6.48955 -1.77387,-27.5 0,-21.01045 1.17775,-39.26896 1.77387,-27.5 0.21006,4.14709 0.483,3.20889 1.60005,-5.5 9.41849,-73.42937 50.37923,-139.15069 111.92829,-179.588473 32.32455,-21.237254 69.29831,-34.939837 107.5,-39.839817 8.70889,-1.117054 9.64709,-1.389994 5.5,-1.600051 -11.76896,-0.596116 6.48955,-1.773868 27.5,-1.773868 21.01045,0 39.26896,1.177752 27.5,1.773868 -4.14709,0.210057 -3.20889,0.482997 5.5,1.600051 114.63739,14.704085 204.7242,104.7909 219.428287,219.42829 1.12115,8.74083 1.39026,9.6623 1.60627,5.5 0.58396,-11.25238 1.74837,7.06262 1.74837,27.5 0,20.43738 -1.16441,38.75238 -1.74837,27.5 -0.21601,-4.1623 -0.48512,-3.24083 -1.60627,5.5 -9.418497,73.42937 -50.379227,139.15069 -111.928287,179.58847 -32.32455,21.23725 -69.29831,34.93984 -107.5,39.83982 -8.74083,1.12115 -9.6623,1.39026 -5.5,1.60627 5,0.25948 5,0.25948 -1,1.00393 -7.36931,0.91434 -45.95126,0.88658 -53.5,-0.0385 z m 60.00157,-190.00079 c 104.28185,-52.14223 125.99843,-63.34523 125.99843,-64.99921 0,-1.65399 -21.73504,-12.86622 -126.10897,-65.05448 -75.59374,-37.79782 -126.96659,-62.93378 -128.25,-62.75079 -2.14103,0.30527 -2.14103,0.30527 -2.39825,126.80527 -0.14146,69.575 -0.0431,127.0625 0.21862,127.75 0.26171,0.6875 1.39066,1.25 2.50879,1.25 1.11813,0 58.73225,-28.35035 128.03138,-63.00079 z"
         id="path24" />
    </g>
  </g>
</svg>
